<?xml version="1.0" encoding="utf-8"?>
<!-- Generator: Adobe Illustrator 15.1.0, SVG Export Plug-In  -->
<!DOCTYPE svg PUBLIC "-//W3C//DTD SVG 1.1//EN" "http://www.w3.org/Graphics/SVG/1.1/DTD/svg11.dtd" [
	<!ENTITY ns_flows "http://ns.adobe.com/Flows/1.0/">
]>
<svg version="1.1"
	 xmlns="http://www.w3.org/2000/svg" xmlns:xlink="http://www.w3.org/1999/xlink" xmlns:a="http://ns.adobe.com/AdobeSVGViewerExtensions/3.0/"
	 x="0px" y="0px" width="270px" height="67px" viewBox="0 0 270 67" overflow="visible" enable-background="new 0 0 270 67"
	 xml:space="preserve">
<defs>
</defs>
<path fill="#BF2127" d="M0.997,65.341l-0.544-0.362c0.18-7.433,0.271-12.778,0.271-21.66C0.724,18.215,0.362,10.604,0,1.902
	l0.543-0.543l9.607-0.091c4.169-0.181,8.336-0.363,12.507-0.363c10.33,0,22.022,0.363,28.184,11.601
	c2.266,4.078,4.167,10.603,4.167,19.122c0,4.078-0.542,11.328-2.989,17.308C45.404,65.068,29,65.432,18.85,65.432
	c-2.356,0-4.804,0-7.16-0.091H0.997z M31.9,50.296c2.175-1.812,6.433-6.887,6.433-18.214c0-19.303-10.784-19.303-16.312-19.303
	c-1.813,0-3.716,0.09-5.527,0.182c-0.09,4.893-0.09,9.787-0.09,14.68c0,8.7,0.09,17.128,0.271,26.01
	C21.568,53.65,27.821,53.65,31.9,50.296"/>
<path fill="#BF2127" d="M93.525,1.631c5.164,19.938,6.435,24.197,17.4,62.985l-0.453,0.725c-7.341-0.091-9.154,0-15.769,0.271
	l-0.635-0.545l-3.897-16.765H70.596l-4.44,16.495l-0.634,0.543H51.384l-0.362-0.635C64.344,26.462,67.245,17.309,72.047,1.903
	l0.633-0.544c9.696,0,11.509,0,20.209-0.271L93.525,1.631z M87.543,37.338L84.189,23.2l-2.716-11.781L78.3,22.022l-4.532,15.316
	H87.543"/>
<path fill="#BF2127" d="M164.137,49.481c0,4.17,0.181,8.338,0.271,12.506l-0.451,0.725c-6.346,2.086-12.055,3.988-21.389,3.988
	c-5.619,0-9.516-0.815-12.145-1.54c-3.533-0.998-10.15-3.173-15.495-10.06c-4.079-5.256-6.345-12.416-6.345-20.936
	c0-6.071,1.361-13.412,4.622-19.122C120.366,2.9,131.693,0,142.024,0c9.425,0,15.498,2.538,19.302,4.169l0.457,0.543
	c-0.727,5.437-0.908,6.889-1.359,12.506l-0.727,0.273c-4.26-2.81-8.338-5.528-15.225-5.528c-11.42,0-19.123,7.793-19.123,22.112
	c0,6.797,2.537,20.21,16.584,20.21c2.539,0,4.352-0.453,6.797-0.996c0.182-8.248,0.092-10.422-0.725-19.305l0.453-0.544l15.406-0.27
	l0.453,0.543c-0.091,4.622-0.181,9.154-0.181,13.685V49.481"/>
<path fill="#BF2127" d="M211.17,53.741l-0.633,11.057l-0.725,0.543h-39.874l-0.455-0.361c0.271-9.516,0.455-15.227,0.455-26.645
	c0-24.288-0.185-27.641-0.727-36.432l0.542-0.543h39.787l0.452,0.362l-0.635,10.513l-0.452,0.544
	c-10.968-0.272-13.052-0.272-23.292-0.272v14.409l21.931-0.362L208,27.097l-0.544,10.241l-0.635,0.544h-21.206l0.181,15.859
	c11.602,0,14.14-0.09,24.833-0.635L211.17,53.741"/>
<path fill="#BF2127" d="M269.625,1.631c-0.091,10.15-0.181,20.21-0.181,30.359c0,10.876,0.09,19.757,0.181,32.897l-0.454,0.454
	c-4.802,0-6.433,0-11.96,0.271l-0.635-0.452l-8.065-11.782l-9.062-13.322c-6.163-8.971-7.613-11.327-11.872-18.397l0.543,12.144
	l0.271,11.147l0.907,19.848l-0.453,0.543c-5.257,0-7.16,0-13.231,0.271l-0.454-0.543c0.091-8.791,0.273-17.672,0.273-26.554
	c0-12.144-0.273-22.565-0.726-36.613l0.452-0.543c6.616,0.09,7.795,0.09,14.954-0.272l0.634,0.453
	c2.266,3.625,3.625,5.618,10.422,15.95l8.248,12.053c4.621,6.887,5.074,7.611,7.703,12.053l-0.364-14.953l-0.361-12.507
	L255.76,1.903l0.452-0.543c5.618,0.09,7.159,0,12.869-0.272L269.625,1.631"/>
</svg>
