<?xml version="1.0" encoding="UTF-8"?> <svg xmlns="http://www.w3.org/2000/svg" viewBox="0 0 343.3 156.3"> <path d="M176.1 147.5c0-6 5.8-8.8 10.6-8.8s10.6 2.9 10.6 8.8c0 6-5.8 8.8-10.6 8.8s-10.6-2.9-10.6-8.8zm3.7 0c0 4.2 1.8 7.7 6.9 7.7 5.1 0 6.9-3.5 6.9-7.7s-1.8-7.7-6.9-7.7-6.9 3.5-6.9 7.7zm-21.6 8.4l-6.9-13.5-2.1 12.3 2.7.5v.7h-7.3v-.7l2.9-.5 2.8-15.6h2.8l6.5 12.8 7.2-12.8h2.3l2.9 15.6 3.1.5v.7h-9.5v-.7l2.9-.5-2-12.4-7.4 13.6h-.9zm43.3-17.1h2l13.7 12.9v-11.4l-3.1-.6v-.6h7v.6l-2.4.6v15.8h-1.5L203 142.8v11.9l3.2.5v.7h-7.5v-.7l2.8-.5v-15.9zm-91.6 16.1v-7.2h10.6v-1.2h-10.6V140h.5c3.1 0 10.2 1 10.2 1v-1.9h-17v.7l3 .5v14.4l-3 .6v.6h17.2v-2.1s-8.1 1.1-10.2 1.1h-.7zm25.4-6.8v.7l3.3.7v5.3c-1 .2-2.3.4-4.2.4-4.8 0-7.3-3-7.3-7.5 0-6 3.4-7.8 7.4-7.8 2.7 0 5.5 1 6.9 1.8l.6-2c-2.1-.6-5-1-7.8-1-4.4 0-10.8 2.3-10.8 9.2 0 5.5 5.2 8.5 11 8.5 2.4 0 4.1-.2 7.4-.9v-6l2.6-.7v-.7h-9.1zm104.5-9v2s-4.4-.9-6.6-.9h-.6v14.6l3.1.6v.6h-9.5v-.6l3.1-.6v-14.6h-.6c-2.1 0-6.6.9-6.6.9v-2h17.7zM50.3 27.9v14c0 17.3-8.3 26.7-25.3 26.7h-8v40.6H0V1.2h25c17 0 25.3 9.4 25.3 26.7zM17 16.7v36.5h8c5.4 0 8.3-2.5 8.3-10.2V26.9c0-7.7-2.9-10.2-8.3-10.2h-8zM77.7 46.8H101v15.4H77.7v31.6H107v15.4H60.7V1.2H107v15.4H77.7v30.2zM117.6 27.2c0-17.3 9.1-27.2 25.8-27.2s25.8 9.9 25.8 27.2v56.2c0 17.3-9.1 27.2-25.8 27.2s-25.8-9.9-25.8-27.2V27.2zm17 57.2c0 7.7 3.4 10.6 8.8 10.6s8.8-2.9 8.8-10.6V26.1c0-7.7-3.4-10.6-8.8-10.6s-8.8 2.9-8.8 10.6v58.3zM231.5 27.9v14c0 17.3-8.3 26.7-25.3 26.7h-8v40.6h-17V1.2h25c17 0 25.3 9.4 25.3 26.7zm-33.3-11.2v36.5h8c5.4 0 8.3-2.5 8.3-10.2V26.9c0-7.7-2.9-10.2-8.3-10.2h-8zM241.9 1.2h17v92.6h27.9v15.4h-44.9V1.2zM314 46.8h23.3v15.4H314v31.6h29.3v15.4H297V1.2h46.3v15.4H314v30.2z"></path> </svg> 