<?xml version="1.0" encoding="utf-8"?>
<!-- Generator: Adobe Illustrator 15.1.0, SVG Export Plug-In . SVG Version: 6.00 Build 0)  -->
<!DOCTYPE svg PUBLIC "-//W3C//DTD SVG 1.1//EN" "http://www.w3.org/Graphics/SVG/1.1/DTD/svg11.dtd">
<svg version="1.1" id="Lager_1" xmlns="http://www.w3.org/2000/svg" xmlns:xlink="http://www.w3.org/1999/xlink" x="0px" y="0px"
	 width="272.992px" height="115.761px" viewBox="0 0 272.992 115.761" enable-background="new 0 0 272.992 115.761"
	 xml:space="preserve">
<g>
	<path fill="#DA2128" d="M2.835,0.003c0,0-2.835,0-2.835,2.718v110.322c0,0,0,2.718,2.835,2.718h267.323c0,0,2.834,0,2.834-2.718
		V2.721c0,0,0-2.718-2.834-2.718H2.835z"/>
	<path fill="#D2232A" d="M128.49,49.572"/>
</g>
<path fill="none" stroke="#000000" stroke-width="1.216" d="M128.49,46.038"/>
<path fill="#FFFFFF" d="M28.891,42.299c-1.559,1.723-3.609,2.379-6.234,2.379c-4.02,0-6.973-2.215-6.973-6.48
	c0-4.512,3.609-6.727,8.572-6.727c1.764,0,2.994,0.164,4.307,0.492v-2.051c0-1.969-1.066-2.994-3.938-2.994
	c-2.256,0-4.143,0.697-5.578,1.682h-1.682v-4.225c2.051-0.943,4.553-1.805,8.203-1.805c5.947,0,8.982,1.969,8.982,6.932v14.93
	h-2.502C30.162,44.432,29.301,44.021,28.891,42.299z M28.563,35.162c-0.943-0.164-1.969-0.246-3.076-0.246
	c-2.42,0-3.979,0.861-3.979,2.953s1.354,3.035,3.363,3.035c1.477,0,2.707-0.738,3.691-1.641V35.162z M36.397,22.898h2.543v-1.641
	c0-4.102,2.584-5.947,6.809-5.947c1.477,0,2.543,0.246,3.281,0.533v3.609h-1.354c-1.682,0-2.748,0.369-2.748,2.01v1.436h4.102v4.02
	h-4.102v17.514H38.94V26.918h-2.543V22.898z M50.835,22.898h2.543v-1.641c0-4.102,2.584-5.947,6.809-5.947
	c1.723,0,2.748,0.246,3.568,0.574v3.568h-1.641c-1.682,0-2.748,0.369-2.748,2.01v1.436h4.102v4.02h-4.102v17.514h-5.988V26.918
	h-2.543V22.898z M77.004,42.299c-1.559,1.723-3.609,2.379-6.234,2.379c-4.02,0-6.973-2.215-6.973-6.48
	c0-4.512,3.609-6.727,8.572-6.727c1.764,0,2.994,0.164,4.307,0.492v-2.051c0-1.969-1.066-2.994-3.938-2.994
	c-2.256,0-4.143,0.697-5.578,1.682h-1.682v-4.225c2.051-0.943,4.553-1.805,8.203-1.805c5.947,0,8.982,1.969,8.982,6.932v14.93
	h-2.502C78.275,44.432,77.414,44.021,77.004,42.299z M66.627,18.223c0-1.641,1.354-2.994,3.076-2.994s3.076,1.354,3.076,2.994
	c0,1.682-1.354,2.994-3.076,2.994S66.627,19.904,66.627,18.223z M76.676,35.162c-0.943-0.164-1.969-0.246-3.076-0.246
	c-2.42,0-3.979,0.861-3.979,2.953s1.354,3.035,3.363,3.035c1.477,0,2.707-0.738,3.691-1.641V35.162z M74.502,18.223
	c0-1.641,1.354-2.994,3.076-2.994s3.076,1.354,3.076,2.994c0,1.682-1.354,2.994-3.076,2.994S74.502,19.904,74.502,18.223z
	 M91.811,28.887v15.545h-5.988V22.898h4.061c1.025,0,1.641,0.451,1.846,2.584c1.354-1.436,3.322-2.789,5.988-2.789
	c0.451,0,0.902,0.082,1.313,0.205v4.717h-1.025C95.051,27.615,92.959,28.271,91.811,28.887z M100.794,42.914v-4.43h1.887
	c0.984,0.902,2.789,1.805,5.291,1.805c2.42,0,3.691-0.656,3.691-2.01c0-1.313-0.779-1.928-3.814-2.297
	c-4.717-0.574-7.219-2.338-7.219-6.563c0-4.348,3.24-6.768,8.531-6.768c3.117,0,5.045,0.615,6.768,1.477v4.348h-1.805
	c-0.984-0.738-2.707-1.436-4.922-1.436c-2.338,0-3.24,0.697-3.24,1.928c0,1.107,1.066,1.682,4.02,2.051
	c5.127,0.656,7.26,2.338,7.26,6.686c0,4.225-2.748,6.973-8.982,6.973C104.732,44.678,102.476,43.857,100.794,42.914z"/>
<g>
	<polygon fill="#FFFFFF" points="36.657,86.79 36.511,86.79 26.776,60.297 16.678,60.297 16.678,63.078 30.656,98.719 
		41.195,98.719 54.586,63.078 54.586,60.297 45.512,60.297 	"/>
	<path fill="#FFFFFF" d="M72.811,59.712c-6.513,0-10.978,1.537-14.637,3.22v7.538h3.001c2.561-1.757,5.928-3.001,9.953-3.001
		c5.123,0,7.025,1.83,7.025,5.343v3.659c-2.341-0.586-4.537-0.878-7.684-0.878c-8.855,0-15.295,3.952-15.295,12.002
		c0,7.611,5.269,11.563,12.441,11.563c4.684,0,8.343-1.171,11.124-4.244c0.732,3.073,2.269,3.806,5.635,3.806h4.464V72.08
		C88.837,63.225,83.422,59.712,72.811,59.712z M78.153,89.498c-1.756,1.609-3.951,2.927-6.586,2.927
		c-3.586,0-6.001-1.683-6.001-5.416c0-3.732,2.781-5.27,7.099-5.27c1.976,0,3.805,0.147,5.488,0.439V89.498z"/>
	<path fill="#FFFFFF" d="M79.764,57.297c3.073,0,5.488-2.342,5.488-5.343c0-2.928-2.415-5.343-5.488-5.343
		c-3.074,0-5.489,2.415-5.489,5.343C74.274,54.955,76.689,57.297,79.764,57.297z"/>
	<path fill="#FFFFFF" d="M197.733,59.712c-10.684,0-18.735,7.61-18.735,19.979c0,12.075,6.881,19.54,19.467,19.54
		c7.686,0,12.004-1.976,15.076-3.731v-7.026h-3.293c-2.487,1.83-5.854,3.22-10.172,3.22c-5.929,0-9.588-2.122-10.1-9.806h24.883
		c0-0.366,0.146-1.976,0.146-3.294C215.006,65.932,209.004,59.712,197.733,59.712z M190.123,75.445
		c0.805-7.172,3.879-9.001,7.61-9.001c4.173,0,6.515,2.195,6.733,9.001H190.123z"/>
	<path fill="#FFFFFF" d="M65.711,57.297c3.074,0,5.489-2.342,5.489-5.343c0-2.928-2.415-5.343-5.489-5.343
		c-3.074,0-5.489,2.415-5.489,5.343C60.223,54.955,62.638,57.297,65.711,57.297z"/>
	<path fill="#FFFFFF" d="M243.914,59.712c-5.123,0-10.393,2.049-13.979,4.683c-0.439-3.293-1.464-4.098-3.294-4.098h-7.245v38.422
		h10.686V70.03c2.414-0.879,5.416-1.757,8.709-1.757s4.756,1.099,4.756,4.904v25.541h10.686V70.47
		C254.232,61.834,249.476,59.712,243.914,59.712z"/>
	<path fill="#FFFFFF" d="M105.012,64.907c-0.366-3.806-1.464-4.61-3.294-4.61h-7.245v38.422h10.685V70.981
		c2.049-1.098,5.782-2.269,11.051-2.269h1.83v-8.416c-0.732-0.219-1.537-0.366-2.342-0.366
		C110.939,59.931,107.427,62.346,105.012,64.907z"/>
	<path fill="#FFFFFF" d="M164.18,63.005c-2.342-2.049-5.159-3.293-10.063-3.293c-8.197,0-16.394,5.415-16.394,20.491
		c0,12.733,6.733,19.101,15.369,19.101c5.05,0,8.782-2.122,11.271-4.903c0.438,3.586,1.391,4.318,3.073,4.318h7.419V0.003H164.18
		V63.005z M164.144,88.473c-2.708,2.27-4.831,3.367-7.978,3.367c-5.123,0-7.611-3.367-7.611-12.149
		c0-9.587,4.465-11.783,8.855-11.783c2.928,0,5.049,0.659,6.733,1.903V88.473z"/>
	<rect x="122.614" fill="#FFFFFF" width="10.772" height="98.872"/>
</g>
</svg>
