<svg id="Layer_1" data-name="Layer 1" xmlns="http://www.w3.org/2000/svg" viewBox="0 0 300 300"><defs><style>.cls-1{fill:#010101;}</style></defs><title>FOFO_LOGO</title><path class="cls-1" d="M96,185.31l-20.9-.6,1.05-15s8.53-1.73,22-3.74c3-20.13,4.7-37,17.35-61.36s35.91-34.42,35.91-34.42,20.06-10,42.62-4.11A94.41,94.41,0,0,0,90.74,223Z"/><path class="cls-1" d="M226.83,94.47a20,20,0,0,1-.4,9.21c-2.59,9-13.42,13.41-17.06,14.17s-7.86.93-8.53-.32-16.2-30-19.46-36.78c-6.14-5.08-12.75,5.45-16.78,18.58s-7,30.56-12.65,64.56h48.32l-4.6,22h-46l-6.46,58.61c2.37,0.18,4.76,0,7.18,0A94.61,94.61,0,0,0,226.83,94.47Z"/></svg>