<?xml version="1.0" encoding="utf-8"?>
<!-- Generator: Adobe Illustrator 21.1.0, SVG Export Plug-In . SVG Version: 6.00 Build 0)  -->
<svg version="1.1" id="Layer_1" xmlns="http://www.w3.org/2000/svg" xmlns:xlink="http://www.w3.org/1999/xlink" x="0px" y="0px"
	 viewBox="0 0 562.7 120" style="enable-background:new 0 0 562.7 120;" xml:space="preserve">
<style type="text/css">
	.st0{fill:#A80000;}
</style>
<path class="st0" d="M465.4,18.4c0,0,1.4,3.9,1.4,6.5c0.3,28.9-0.1,35.3-0.1,35.3c-0.6,4.6-3.4,8.8-7.2,11.7
	c-4.4,3.1-10.1,2.8-15.7,3c-0.2,13.4-0.2,39.1-0.2,39.1h-18.3l0.1-107.1C440.7,6.9,459.3,4.7,465.4,18.4z M447.8,23.3
	c-1.2-1.2-3.5-1.6-4.9-1.1L442.8,60l2.2,0.2c1.2,0,2.9-0.7,3.4-2.2c0,0,0.2-31.2,0.1-32.2C448.5,24.3,447.8,23.3,447.8,23.3z"/>
<path class="st0" d="M69.5,101.1h9.8L79.2,114H51.3c0,0,0-88.6,0-107.1h18.4L69.5,101.1z"/>
<polygon class="st0" points="256.5,20.2 238.2,20.2 238.2,49.8 254.2,49.8 254.3,61.7 238.2,61.7 238.2,101.1 256.5,101.1 
	256.5,114 220.6,114 220.6,87.9 220.6,6.9 256.5,6.9 "/>
<polygon class="st0" points="505.7,20.2 487.4,20.2 487.4,49.8 503.4,49.8 503.4,61.7 487.4,61.7 487.4,101.1 505.7,101.1 
	505.7,114 469.8,114 469.8,87.9 469.8,6.9 505.7,6.9 "/>
<path class="st0" d="M344,6.9L355.1,114h-18.4l-2.4-28.6l-10-0.1L321,114h-15.9C306,102.9,318.9,6.9,318.9,6.9H344z M333.2,69.7
	l-3.4-36.6l-4,36.6H333.2z"/>
<polygon class="st0" points="380.7,6.9 389.1,63.5 389.5,63.5 397.8,6.9 421.3,6.9 421.4,114 406.2,114 405.5,50.5 394.8,114 
	382.7,114 370.2,50.6 370.4,113.9 356.2,113.9 356.2,6.9 "/>
<polygon class="st0" points="528.9,6.9 539.9,59.7 539.9,6.9 555.6,6.9 555.6,114 536.8,114 522.6,50.5 523.2,113.9 508.6,114 
	508.6,6.9 "/>
<path class="st0" d="M22.7,6.9l0.1,37.8L31,6.9c0,0,11,0,16.5,0L36,55.2L50.1,114H31.9l-9.5-44.1V114H5.3V6.9H22.7z"/>
<path class="st0" d="M276.9,6.9l0.1,37.8l8.3-37.8c0,0,11,0,16.5,0l-11.4,48.3l14.1,58.8h-18.2l-9.5-44.1V114h-17.1V6.9H276.9z"/>
<path class="st0" d="M119.3,6.9L130.5,114H112c0,0-1.5-18.5-2.4-28.6c-5.3,0-5.4,0-10-0.1c-1.2,9.9-3.3,28.7-3.3,28.7H80.5L94.3,6.9
	H119.3z M108.6,69.7c-1.2-12.2-2.3-24.9-3.4-36.6c-1.3,12.5-2.1,18.7-4,36.6H108.6z"/>
<path class="st0" d="M170.7,19.7V43l-16,0.1c0,0-0.1-14.8-0.3-22.1c-0.5-2-1.6-2.4-2.6-2.7c-2-0.5-4.5,0.9-4.5,2.5
	c-0.1,5.7-0.8,12.2,0.8,17.5c5.7,11.8,18.2,23.4,21.1,30.4c0.9,2,0.6,1.4,1,2.5c2.7,8.4,4.4,26.6-2.7,37.5
	c-5.5,6.3-13.9,7.5-22.1,6.4c-6.9-1.1-14.2-6.1-15.2-13.3c-1.4-9.9-0.9-30.8-0.9-30.8h16.2l0.4,25.2c0.3,1.6,1.5,3.1,2.9,3.8
	c1,0.5,1.8,0.5,2.4,0.5c3.8-0.3,3.7-7.3,3.5-11c-0.8-14.5-4-17-7-20.6c-3.8-4.6-13.2-16.3-14.2-17.7c-4.9-7.3-3.7-19.3-3.8-27.8
	c0-3.2,1.1-7.9,2.5-10.2c4-6.9,15-9.9,26.7-7.4C162,6.4,169.3,10.5,170.7,19.7z"/>
<path class="st0" d="M216.4,19.7V43l-16,0.1c0,0-0.1-14.8-0.3-22.1c-0.5-2-1.6-2.4-2.6-2.7c-2-0.5-4.5,0.9-4.5,2.5
	c-0.1,5.7-0.8,12.2,0.8,17.5c5.7,11.8,18.2,23.4,21.1,30.4c0.9,2,0.6,1.4,1,2.5c2.7,8.4,4.4,26.6-2.7,37.5
	c-5.5,6.3-13.9,7.5-22.1,6.4c-6.9-1.1-14.2-6.1-15.2-13.3C174.5,91.9,175,71,175,71h16.2l0.4,25.2c0.3,1.6,1.5,3.1,2.9,3.8
	c1,0.5,1.8,0.5,2.4,0.5c3.8-0.3,3.7-7.3,3.5-11c-0.8-14.5-4-17-7-20.6c-3.8-4.6-13.2-16.3-14.2-17.7c-4.9-7.3-3.7-19.3-3.8-27.8
	c0-3.2,1.1-7.9,2.5-10.2c4-6.9,15-9.9,26.7-7.4C207.7,6.4,215,10.5,216.4,19.7z"/>
</svg>
