<svg xmlns="http://www.w3.org/2000/svg" viewBox="0 0 518.91 630.93"><defs><style>.cls-1{fill:#7db2cd;}.cls-2{fill:#fff;}</style></defs><title>klartale-logo</title><g id="Layer_2" data-name="Layer 2"><g id="Layer_1-2" data-name="Layer 1"><path class="cls-1" d="M506.51,0H8.21A8.21,8.21,0,0,0,0,8.21v525.7a8.75,8.75,0,0,0,8.75,8.75H355.29l89.33,88.27V542.66h61.89c11.74,0,12.4-1.79,12.4-14.89V14.89C518.91,1.79,518.25,0,506.51,0Z"/><polygon class="cls-2" points="179.88 175.58 204.74 246.16 176.81 246.16 161.03 202.46 153.12 216.43 153.12 246.16 126.03 246.16 126.03 91.13 153.12 91.13 153.12 181.75 175.2 133.6 202.06 133.6 179.88 175.58"/><polygon class="cls-2" points="244.7 246.16 216.01 246.16 216.01 91.13 244.7 91.13 244.7 181.75 244.7 246.16"/><polygon class="cls-2" points="304.86 428.95 276.19 428.95 276.19 273.91 304.86 273.91 304.86 364.53 304.86 428.95"/><path class="cls-2" d="M154.72,398c0,10.36,7.78,9.53,7.78,9.53l9.31-.19L172,428H144.36c-5.21,0-18.4-3.23-18.4-18.63V336.67H116v-21h10v-39H154.7v39h18.14v20.73H154.7V398Z"/><path class="cls-2" d="M377.57,246.16H348.88V133.45h28.69v9.31c3.89-4,14.42-8.7,28.56-8.7v25.52c-14.42,0-23,3.38-28.56,10v76.58Z"/><path class="cls-2" d="M333.78,229.85v-70c0-13.84-9.4-26.39-25-26.39H267.56v20.91h28.11c11.44,0,10.63,8.89,10.63,8.89v7.83c-25.84,6.74-50.1,21.54-50.25,46.79,0,26.09,14.55,29.58,25.05,29.58,13.06,0,19.71-8.89,25.18-15.23v6.1a14.33,14.33,0,0,0,2.13,7.93h27.35S333.78,242.14,333.78,229.85Zm-27.35-12.36v.34c-3.06,2.59-6.64,6.93-14.89,6.93-2.13,0-8.19-.79-8.19-11.29,0-13.25,13.12-20,23-22.2C306.43,200.27,306.43,209.94,306.43,217.49Z"/><path class="cls-2" d="M261.73,411.47V341.41c0-13.84-9.4-26.39-25-26.39H195.55v20.91h28.11c11.44,0,10.63,8.89,10.63,8.89v7.83c-25.84,6.74-50.1,21.54-50.25,46.79C184,425.52,198.59,429,209.1,429c13,0,19.71-8.87,25.18-15.23v6.1a14.33,14.33,0,0,0,2.13,7.93h27.35S261.73,423.76,261.73,411.47Zm-27.35-12.36v.34c-3.06,2.59-6.64,6.93-14.89,6.93-2.13,0-8.19-.79-8.19-11.29,0-13.25,13.12-20,23-22.2.06,9,.06,18.65.06,26.22Z"/><path class="cls-2" d="M396.09,364.6c0-16.29-7.53-49.57-38.28-49.57-27.2.09-41.34,23-41.34,57s13.27,58.57,41.24,58.57,38.41-27.8,38.41-35.75H369.36c0,7.78-4.59,17.69-13.1,17.69-10.25,0-12.76-12-12.76-30.43h52.57S396.09,383,396.09,364.6Zm-52.38-.38c0-9.38,1.94-28,13.19-28s13.19,15.93,13.19,28Z"/></g></g></svg>