<svg xmlns="http://www.w3.org/2000/svg" viewBox="0 0 306.1 60.2"><path d="M9.8 43.6l9.8-22.1h-4.1L9.8 35.2 4.1 21.4H0l9.8 22.2zm25.5-.5v-3.2H24.9v-6.6h8.7v-3.1h-8.7v-5.6H35v-3.1H21.1v21.6h14.2zm6.1 0v-9h4.1c3.5 0 3.8.2 3.8 3.4v2.8c0 .7-.1 1.9.5 2.8h4.7c-.8-.8-1.2-1.7-1.2-2.9v-3.3c0-2.8-1.2-4.4-4.1-4.5v-.1c2.7-.5 4.5-1.8 4.5-5 0-4.2-2.7-5.8-6.4-5.8h-9.6v21.6h3.7zm0-18.3h4.8c1.9 0 3.4 1.1 3.4 3 0 1.8-1.4 2.9-4.1 2.9h-4.1v-5.9zm14.8 18.3h10.9c3.8 0 6.4-2.5 6.4-5.8 0-3.4-2-5.4-5.1-5.7v-.1c1.1-.2 3.8-.8 3.8-4.9 0-3.7-2.5-5.1-6.5-5.1h-9.4v21.6zm3.8-3.2v-6.7h5.5c2.5 0 3.8 1.2 3.8 3.4 0 2.1-1.1 3.3-4.2 3.3H60zm0-15.3h5c2.4 0 3.3.9 3.3 2.7 0 1.7-1.1 2.8-3.6 2.8H60v-5.5zm15.2-3.2V36c0 5.3 4 7.6 9.1 7.6s9-2.4 9-7.6V21.4h-3.8v14.5c0 3-2.5 4.5-5.2 4.5-2.8 0-5.2-1.6-5.2-4.5V21.4h-3.9zm38.4 21.7h3.8V21.4h-5.8l-5.1 11-5-11h-5.9V43h3.8V26h.1l7 14.1 7-14.1h.1v17.1zM215 43.1l-15.2-19.2v19.2h-1.5V21.4h1.5l14.9 18.8V21.4h1.5V43H215zM230.3 43.4c-6.5 0-10.8-5.2-10.8-11.1v-.1c0-5.9 4.4-11.2 10.9-11.2s10.8 5.2 10.8 11.1v.1c0 5.9-4.3 11.2-10.9 11.2zm9.2-11.2c0-5.3-3.9-9.7-9.2-9.7-5.3 0-9.2 4.3-9.2 9.7v.1c0 5.3 3.9 9.7 9.2 9.7 5.4 0 9.2-4.4 9.2-9.8zM252.3 43.2h-1.4l-9.5-21.8h1.8l8.5 19.9 8.5-19.9h1.7l-9.6 21.8zM273 43.4c-5.2 0-8.9-3.3-8.9-9.3V21.4h1.6v12.5c0 5.1 2.7 8 7.3 8 4.4 0 7.2-2.7 7.2-7.9V21.4h1.6v12.4c.1 6.3-3.5 9.6-8.8 9.6zM304.5 43.1V24.3L296 36.7h-.1l-8.6-12.4v18.8h-1.5V21.4h1.5l8.7 12.8 8.7-12.8h1.5V43h-1.7z"/><path fill="#D96283" d="M147.9 45.9c0 2.4-2 4.4-4.4 4.4-2.4 0-4.4-2-4.4-4.4 0-2.4 2-4.4 4.4-4.4 2.4 0 4.4 1.9 4.4 4.4z"/><path fill="#FF9CB9" d="M172.7 10.4c0 2-1.6 3.7-3.7 3.7-2 0-3.6-1.6-3.6-3.7 0-2 1.6-3.6 3.6-3.6 2.1 0 3.7 1.6 3.7 3.6z"/><path fill="#FF87A9" d="M180.7 17.2c0 2-1.6 3.6-3.6 3.6s-3.7-1.6-3.7-3.6 1.6-3.7 3.7-3.7c1.9.1 3.6 1.7 3.6 3.7z"/><path fill="#D96283" d="M185 47.4c0 2.7-2.2 4.9-4.9 4.9s-4.9-2.2-4.9-4.9 2.2-4.9 4.9-4.9 4.9 2.2 4.9 4.9z"/><path fill="#962F52" d="M164.8 56.3c0 2-1.6 3.7-3.6 3.7s-3.7-1.6-3.7-3.7c0-2 1.6-3.7 3.7-3.7 2 0 3.6 1.7 3.6 3.7z"/><path fill="#BA426A" d="M134.5 40.2c0 1.6-1.3 2.8-2.8 2.8-1.5 0-2.8-1.3-2.8-2.8 0-1.6 1.3-2.8 2.8-2.8 1.6 0 2.8 1.3 2.8 2.8zM134.5 26.5c0 1.6-1.3 2.8-2.8 2.8-1.5 0-2.8-1.3-2.8-2.8 0-1.6 1.3-2.8 2.8-2.8 1.6 0 2.8 1.2 2.8 2.8z"/><path fill="#FF87A9" d="M144.8 14.9c0 1.6-1.3 2.8-2.8 2.8-1.6 0-2.8-1.3-2.8-2.8 0-1.6 1.3-2.8 2.8-2.8 1.6 0 2.8 1.3 2.8 2.8z"/><path fill="#D96283" d="M150.9 52.5c0 1.2-1 2.2-2.2 2.2-1.2 0-2.2-1-2.2-2.2 0-1.2 1-2.2 2.2-2.2 1.2 0 2.2 1 2.2 2.2z"/><path fill="#962F52" d="M143 58c0 1.2-1 2.2-2.2 2.2-1.2 0-2.2-1-2.2-2.2 0-1.2 1-2.2 2.2-2.2 1.2 0 2.2 1 2.2 2.2z"/><path fill="#FF9CB9" d="M183.5 5.9c0 .9-.8 1.7-1.7 1.7-.9 0-1.7-.7-1.7-1.7 0-.9.8-1.7 1.7-1.7.9 0 1.7.8 1.7 1.7z"/><path fill="#FF87A9" d="M167.3 30.3c0 .9-.8 1.7-1.7 1.7-.9 0-1.7-.7-1.7-1.7 0-.9.8-1.7 1.7-1.7 1 0 1.7.7 1.7 1.7z"/><path fill="#BA426A" d="M142.3 33.7c0 1.2-1 2.2-2.2 2.2-1.2 0-2.2-1-2.2-2.2 0-1.2 1-2.2 2.2-2.2 1.3 0 2.2.9 2.2 2.2z"/><path fill="#FF9CB9" d="M149.6 9.4c0 1.2-1 2.2-2.2 2.2-1.2 0-2.2-1-2.2-2.2 0-1.2 1-2.2 2.2-2.2 1.2 0 2.2.9 2.2 2.2zM162.9 1.7c0 .9-.8 1.7-1.7 1.7-.9 0-1.7-.7-1.7-1.7 0-.9.8-1.7 1.7-1.7.9 0 1.7.8 1.7 1.7z"/><path fill="#FF87A9" d="M185 30.3c0 1.2-1 2.2-2.2 2.2-1.2 0-2.2-1-2.2-2.2 0-1.2 1-2.2 2.2-2.2 1.2 0 2.2 1 2.2 2.2z"/><path fill="#D96283" d="M173.5 52.5c0 1.2-1 2.2-2.2 2.2-1.2 0-2.2-1-2.2-2.2 0-1.2 1-2.2 2.2-2.2 1.2 0 2.2 1 2.2 2.2z"/><path fill="#BA426A" d="M158.7 24.7c0 .6-.5 1.1-1.1 1.1-.6 0-1.1-.5-1.1-1.1 0-.6.5-1.1 1.1-1.1.6-.1 1.1.4 1.1 1.1z"/><path fill="#FF87A9" d="M131.5 14.7c0 .6-.5 1.1-1.1 1.1-.6 0-1.1-.5-1.1-1.1 0-.6.5-1.1 1.1-1.1.6 0 1.1.5 1.1 1.1z"/></svg>