<?xml version="1.0" encoding="utf-8"?>
<!-- Generator: Adobe Illustrator 16.0.4, SVG Export Plug-In . SVG Version: 6.00 Build 0)  -->
<!DOCTYPE svg PUBLIC "-//W3C//DTD SVG 1.1//EN" "http://www.w3.org/Graphics/SVG/1.1/DTD/svg11.dtd">
<svg version="1.1" id="Lager_1" xmlns="http://www.w3.org/2000/svg" xmlns:xlink="http://www.w3.org/1999/xlink" x="0px" y="0px"
	 width="595.279px" height="90.286px" viewBox="0 0 595.279 90.286" enable-background="new 0 0 595.279 90.286"
	 xml:space="preserve">
<metadata><?xpacket begin="﻿" id="W5M0MpCehiHzreSzNTczkc9d"?>
<x:xmpmeta xmlns:x="adobe:ns:meta/" x:xmptk="Adobe XMP Core 5.3-c011 66.145661, 2012/02/06-14:56:27        ">
   <rdf:RDF xmlns:rdf="http://www.w3.org/1999/02/22-rdf-syntax-ns#">
      <rdf:Description rdf:about=""
            xmlns:xmp="http://ns.adobe.com/xap/1.0/"
            xmlns:xmpGImg="http://ns.adobe.com/xap/1.0/g/img/">
         <xmp:CreatorTool>Adobe Illustrator CS6 (Macintosh)</xmp:CreatorTool>
         <xmp:CreateDate>2016-03-29T16:16:37+02:00</xmp:CreateDate>
         <xmp:Thumbnails>
            <rdf:Alt>
               <rdf:li rdf:parseType="Resource">
                  <xmpGImg:width>256</xmpGImg:width>
                  <xmpGImg:height>40</xmpGImg:height>
                  <xmpGImg:format>JPEG</xmpGImg:format>
                  <xmpGImg:image>/9j/4AAQSkZJRgABAgEASABIAAD/7QAsUGhvdG9zaG9wIDMuMAA4QklNA+0AAAAAABAASAAAAAEA&#xA;AQBIAAAAAQAB/+4ADkFkb2JlAGTAAAAAAf/bAIQABgQEBAUEBgUFBgkGBQYJCwgGBggLDAoKCwoK&#xA;DBAMDAwMDAwQDA4PEA8ODBMTFBQTExwbGxscHx8fHx8fHx8fHwEHBwcNDA0YEBAYGhURFRofHx8f&#xA;Hx8fHx8fHx8fHx8fHx8fHx8fHx8fHx8fHx8fHx8fHx8fHx8fHx8fHx8fHx8f/8AAEQgAKAEAAwER&#xA;AAIRAQMRAf/EAaIAAAAHAQEBAQEAAAAAAAAAAAQFAwIGAQAHCAkKCwEAAgIDAQEBAQEAAAAAAAAA&#xA;AQACAwQFBgcICQoLEAACAQMDAgQCBgcDBAIGAnMBAgMRBAAFIRIxQVEGE2EicYEUMpGhBxWxQiPB&#xA;UtHhMxZi8CRygvElQzRTkqKyY3PCNUQnk6OzNhdUZHTD0uIIJoMJChgZhJRFRqS0VtNVKBry4/PE&#xA;1OT0ZXWFlaW1xdXl9WZ2hpamtsbW5vY3R1dnd4eXp7fH1+f3OEhYaHiImKi4yNjo+Ck5SVlpeYmZ&#xA;qbnJ2en5KjpKWmp6ipqqusra6voRAAICAQIDBQUEBQYECAMDbQEAAhEDBCESMUEFURNhIgZxgZEy&#xA;obHwFMHR4SNCFVJicvEzJDRDghaSUyWiY7LCB3PSNeJEgxdUkwgJChgZJjZFGidkdFU38qOzwygp&#xA;0+PzhJSktMTU5PRldYWVpbXF1eX1RlZmdoaWprbG1ub2R1dnd4eXp7fH1+f3OEhYaHiImKi4yNjo&#xA;+DlJWWl5iZmpucnZ6fkqOkpaanqKmqq6ytrq+v/aAAwDAQACEQMRAD8A9U4q8s1f811s/wA4bHy4&#xA;JR+iVj+pXnh9cuCGRq/5BCJ7cmzXT1lZxD+Hl8XstN7OcfZUtRX72+KP9SPP57n4B6nmxeNfOPmL&#xA;/jr/AJr/APGKD/qJizRZfqy/jq+q6H+60Hvl/uZPafyz/wDJfeXv+YCD/iAza6X+6j7ngO3v8ezf&#xA;8Ml97I5HEcbSEEhAWIG52FdsyC6qIs0w/wDLj8y7LzwmotbWM1l+j3RT6pDB1l5cSCvRvgPJe22+&#xA;Yul1Qy3Qqne9udgz7PMBKQnxg8ulV+vYsyzKdC7FXYq7FXYq7FXYq7FXYqxf8yfOX+EPKlzq6RCa&#xA;65LDaRPXgZZOnKhBooBO3hmPqs/hQMncdhdl/ntSMRNR5n3B5vqXmH88/LuhQeb9UvbK70tvTkud&#xA;K9KNWijnKhORSNG6sF2kNCe+YEsmohHjJBHc9Xg0XY2qzHS44zjk3AnZ3MefMkf7EfB7Jo2pxarp&#xA;FjqkKlIb+3iuY0b7QWZA4Bp3o2bWE+KIPe8HqsBw5ZYzzhIx+RpiH5qfmLc+VLaxstKthea/qzmK&#xA;xhYEotCq8mVSCxLOFVa7n5Zi6vUnGAIi5F3vs92HHWylPLLhw4xcj+PdZLFL2f8A5yI0SwbXry6s&#xA;dQt4VMtzpKJEXSMbtX04oieIH7ErH55jSOqgOIkHy/H63c4odhaifgwjOEjsJ2aJ+Mjz84hk+t/m&#xA;xHovkbTPM97o9ykuousX6Pf900bkMxLM6/ZIQlDx+IEZkZNZwYxMg79HUaT2cOo1k9NDJGoC+Lnf&#xA;Lu6779ybeYfPtro/kaPzabKaeCaG3nS12WQC548RIfiC8ee/vluTUCOPjr8FwdF2PLPrDpeKIkDI&#xA;X09N8u/klWv/AJt2ekeSNK81Npk8sWqsipakhCnJWarOQRT4Ph2+LKsmsEcYnXNzdH7Nzz6zJpuO&#xA;IOO9+d8unx37mO/85E3S3f5caTdKjRrcahbyrHIKOoe1najDsRXfKe0jeIHzH3F2vsRj4Nfkjz4c&#xA;ch8pxes6f/vBbf8AGJP+IjNjHkHis31y95V8k1OxV2KuxV2KuxVKfNnmG28u+XNQ1q4pwsoWdUO3&#xA;OQ/DGn+zchcrzZBCBkejm9naKWq1EMMf4j8h1PwG7wO2/Li91X8qdS84XAZ/Md1ctqsUu4c28TN6&#xA;ny58nk260XNKNKZYTkP1E2+lZO3IYe04aWP9xGPhkdOI1Xy2j83tv5c+aV8z+TtO1UsDcsnpXo8J&#xA;4vhk2HTkRyHsRm302bxMYk+fdudnflNVPF/Ddx/qnl+r4PFvMX/HX/Nf/jFB/wBRMWanL9WX8dXv&#xA;9D/daD3y/wBzJkvlj830sPK2j6NoGg3vmPULGxt1vhaK4jibgPhLIkzVHf4ae+ZGLW1ARjEyIDqd&#xA;f7MnJqcmXPlhghOcuHiqzv5mP3sx8i/mxonmq9l0trebS9ahBL6fdUDMF+1wbapXuCAfbMrT6yOQ&#xA;1yl3Oh7X9nM2jgMljJiP8Uf0/ghLtN/N7Q28p695ht9Jkgg0e4jjuLdTGrSvPIsfMECnV6muVx1s&#xA;eCUgPpLl5/ZnMNTiwSyAnLEkHfYAE19iXXH5+PLbi80Tytf6pp0caPfXq80ihcoGkTksUqn060JJ&#xA;X7t8ge0drjEkOVD2OAlwZs+PHMk8MdiZb7H6hz+PzZJafm35Wn8jSeb2MiWkDejPaUBnFxtSECoB&#xA;J5Ag1pTc03y8ayBx8fR1OT2b1MdYNLsZHcH+Hh7/AMddkp8sfnbb6prtnpGqaFd6M2p0OlzzVZJg&#xA;w+E7pGQG6AryGV4teJSETExvk52v9lJYcMsuPLDL4f1gcx9p5edN+afzrttJ1u80nSdEutck0wE6&#xA;pNASscAX7e6pL9joxPEV745tcIyMYxMq5o7P9lJZsMcuXLHCMn0A85d3Uc+nMso0nz/5c1HyiPNZ&#xA;nNppSqTO044tGyniUIFanlsONa9syIamEocfIOn1PY2oxar8tXFk6V18/wC3kwg/nzc3Re50Xyhq&#xA;epaRGSH1BQwAC9TRI5V+9xmJ/KBO8YSMe96H/QfGFRzajHjyn+H+2QP2Mr8ufmf5c8w+Xr/WNOLm&#xA;TTIXmvdPkASdOCM9OpUhuJowNPp2zIxauE4mQ6dHS672f1GlzwxZKrIQIyH0mzX2dQxOD/nIBdRt&#xA;lOgeV9Q1a+WrXNtECViWtFLPHHMd+v2ae+Y47R4h6Ykl3c/Yzwpfv8+PHDoT1+BI+9ln5efmVpfn&#xA;S3uhDbyWOo2LBbywmNWXlUBlai8hVSDsCD1HTMjTaoZQehDpO2+wsmglGyJ45/TIIb85rXQLryFf&#xA;QaxepYjaSymfcm5jq0aqoqzct1PEdCTg1wicZ4jX6272WyZ4a2JxRM+kh/RPM/Dn73jflvWfNn5m&#xA;R6V5Fur+Gz0yxjD3U3Se4jgNF2P23RaUA8OTVzVYpzz1jJoB7zXaXTdknJrYwMskzsP4YmX3An9Q&#xA;fSun2NtYWFtYWq8La0iSCBOtI41CKPoAzfRiIgAdHyXNmlknKcvqkST7zu81/Obyr5jubvRfNnl2&#xA;H63qOgyc3swC7OgdZFKoKFqMpDKNyDtmDrsMyYzhuYvWey/aOCEculznhhmH1d21c+nkeWyK8pfn&#xA;n5S1p1stTLaHq1eD293tEX6ELNQAb/zhTksOvhPY+ktPaXsjqsA48f77H3x51/V/VbIvzB806d5Z&#xA;8tvqmoWX6QtRLHGbccTUudj8dRtTL9TmGOFkW6vsXs/Jq9QMcJcEqJv+xS80/mH5a8ueX7bU9WJC&#xA;30ata2CAPLLyUMVVTRaKGHIk0+8YM2phCIMuvRn2f2JqNVnljxfwHeXID8dOrDW/PWeGNLnV/Jmo&#xA;2WiOV9O/ZSyEHoQHjjT5UfMT+UK3lAiPe74eyAkTHFqcc8383+yRP2IP8+9b0vXPyx0nVNLuFubK&#xA;41OIxyrUdLe4BBBoQQdiDke0cgnhBHLi/QW/2O0mTT9o5MeQcM44z/uoJh/yu93jEflzyvqOvWVo&#xA;Fjub+FXWIFV+Irxjm22/a45P8/8AzImQHVxv9CYBvUZ8eGctxE1f+6H2Wy7yH+Y+g+crSWSx5295&#xA;bUF3Yz0Esdf2hQ0Za9/vpmTp9THKNubo+2Ow8+gkBOpRlykOR/axfVfz1tDqs+m+V9Cu/MslttNN&#xA;a8hHsaEpwSZmX/K4gHttvmPPtAcVQiZu40/shLwhk1OWGAS5CXP42Y7+SfeQ/wA1NE83XE9gsE2n&#xA;axbAtNp9yAGopoxRh14k0IIB9su0+rjkNcpdzre2PZ7NooiZInilylH9P4IYrD/zkPaXlmZdK8uX&#xA;19cxMzXVvGaiGBQv753RJOpYgCnbcjMcdpAj0xJdzL2JljnWXNCETyJ6y39IBI/BRup/ntaJdxad&#xA;omg3mtav6Ye6soesLlatETGsxZ4zs9FoD3yc+0BdRiZSaNP7ISMTkzZYYsV7SP8AF57mOx6b2oXf&#xA;/OQmkWFm36S0S+stYjlVJdKnHpuEdWb1AzhagFQCCoO+RPaUQN4kS7mzH7FZck/3eWE8RG0xuL22&#xA;2/WeSWfn1qep65quleQtCjNzfTk3dzAjKtSFb0kLMVUUUO55H+U5X2hMzkMcefNy/Y7T49Pjya3M&#xA;eGA9IP3n7ht5rrS7/wCciLSwh0+Dy3py2cESwRwl7cqI0XiF3utxxGEHVAVwivh+tGTH2FOZmc2T&#xA;iJu6lz5/6mgPyRvNZ8q+cdQ8la/b/UZr9Bd2tuXV1WZV5EIyM6nnF35H7FOuQ0EpY8hxy2vdyfaz&#xA;Fi1mlhrMB4xA8JPl53XKXl/ElPmL/jr/AJr/APGKD/qJiyrL9WX8dXN0P91oPfL/AHMnrf5Pafp9&#xA;l+XWjfUlUC5hFxcOvVppD+8LHuQfh+imbPRRAxCnifafPkya/Jx/wyoe4cv1sM/N2GHT/wAz/I2q&#xA;WACapdXKw3PDZnjWaJEDU68lldPltmJrRw5oEcyXfezUjl7O1WOf93GNjyPDIn5UCwjRf/JO+fv+&#xA;Y+0/6iYsxMf9xk94+96HVf8AGrpP+Fz/ANxJ7z+W9nb235f+XoYUCxvp9vKy0FC80Qkc/Szk5udL&#xA;EDFH3B837dyynrsxJ38SQ+RofYHj3kTyKnmryf5u0GCYWrw6sslk7AmNXiDKAwH7JWq7dOvamavT&#xA;6fxITiNvU912x2udHqtPnkOIHFUu+jX6U/sPzE85+TNT07SfzB0uJ7R/9HtNfgoTxJUFiR8LDYch&#xA;RWpvQ5dHU5MREco273WZuxNJr8c8uhmRL6jjP4+X1DpYVdY8p/mJ5M80ax5m8npDq2m6xKbnUdLk&#xA;FZeRZnagqpajSNx4NXehU4Z4cuKZnj3EuYYaXtLQa/TY9PqiceTEOGMxy6D4chdjpzDFfPf5g2Hn&#xA;Tyz5cs0jbSrQ6mLfWLUfZi4KoQqQFHDjI5AIG46bZj6jUjLCI5Di3dz2R2LPQajNMnxJeHcD387+&#xA;NgfPzfQtnZ2tlaQ2dpEsNtboscMSCiqiigAzdxiAKD5hlyyySM5G5SNkvCfOFtbaR+cWoQ6VSKLV&#xA;dDvZNThjFFDmznc1A2HJoY3+Z980+YCOc8PWJv5F9G7MnLP2VA5dzjzwED5ccB/vpBlv/OOttBF+&#xA;XvqogWSe8maV+7FeKivyAzJ7MA8L4ul9t8hOuo8hCNfelvkkCL/nILzdDGAkT2bSMgFAXL2xLfe7&#xA;H6crwbamfu/U5Xavq7D05PPjr7J/qCX6fpMP5ifm9rp15zLpXlp2t7XTakI3CQx7gH7JZCzeOw6b&#xA;ZCMPHzy4uUejlZtSey+y8XgbZM4sy94v9NDu36p3+bv5eyCCDzf5WUWOt6EiuUgUIHghFRRR8PKJ&#xA;R0puvw+Ay3W6bbjhtKLr/ZrtocR0up9eHN39JH/ivsO/el/k/wDM/wA7eevNWmQ6Nbx6fpenxLJ5&#xA;gaRfUSRn2YKeq8qfugDXqTUDIYdXkzTHDsBz/H3OT2n2Bo+ztNM5SZ5JmsdbEfj+LpyAovUf8U+X&#xA;/wDEA8vfXU/TJQy/UgGL8AoapNOI+E1pXNj40eLhv1PHfyfn8Dx+E+FdcSUefPy88seadMuDf20U&#xA;V8sTGDU1ASWNlBKlnG7IO6tUfTlWo00Mg3G/e53Y/beo0eQcEiYXvDofh0PmHiK6zqGo/wDOPtzD&#xA;eO0q6dqsVrbSNvSIKkgSp/kLmngKDNTxmWmN9JPoZ0uPF25EwFceIyPv3F/GvnbKLG3t9X/OzRrX&#xA;VaSW+m6Rby6dA4+BpFt1kGx2JDOzf7H2zIiBLUAS6RFfJ0+acsHZGSWLaWTNISPlxV9wA+L265to&#xA;Lm3kt7iNZYJlKSxOKqysKEEHsc2xAIovnsJyhISiaI5PkrWT9V8p+Y9HtZDJpGn+ZIBYMakENDex&#xA;lgT4pCmc3PaEoj6RPb/ZPtml9epw5ZCss9NLi/02I/fIvqjy7pum6boVhY6YqixggRYCgADLxB57&#xA;d3+0T3OdFiiIxAHJ8a12fJlzTnk+syN/q+HJ4P8AmfI2hfmnqUuiH0pdR0W5bUViFKM9vLyPw9D+&#xA;6R6+O+abVngzHh6xN/J9I9n4/mezYDNuIZo8N+Uo/rI92yJ/K2X82tP8o27eVtD0q4026eSX63O1&#xA;J5WDsh9SlxH9njxHwjYZLSHPGHojGvx5tXtDHszLqj+Zy5Y5I0OEchte3oPPnzTO08q/mtf/AJk6&#xA;P5p1bSbHT3tnWO9lspVX1IN0dnUyyszcH47dqZZHDmOUTkAPd/a4eTtHs3H2fk02LJOYkPSJDlLm&#xA;K9IrcWs/IwvZflX5o1S0X/cgkt16bClSYLNHiH0M5wdn7YZEc9/uZe11ZO0sGOX0VH/ZTIP2BO/+&#xA;cc9O06LyRJfwqrX13dSC8l2L/u6BEJ60Cnl/ssu7MiPDvqS6/wBuM+Q6wQP0RiOEe/mf0fBBf85M&#xA;afpz+V9N1Bwq6hFeCCF6fE0Ukbs6/KqKfb6ch2pEcAPW3I9g82QamcB9BhZ94Ir7z+AnHkDyH5ht&#xA;vO2ueb/MyxC+vSUsIo39X043O+/biiIi+1ct0+nkMkpz5nk4HbPbGCejxaXT3wQ+qxVn9pJJ+D0r&#xA;M95N5t+aXkHXtX1vQ/MnloRDWdKkAkEr+mHiRvUSrezcgR3DZgavTylKM4fUHrPZ7tnDgw5dPqL8&#xA;LIOgujyP6Pkkmqflj5tvLzzzcLDCo8wxQiwUyivJZkkYPttQKcqnpZkzP87k7DT9v6WENLEk/uCe&#xA;Lb+iRsoeXfLX53+R9Jhs9EjsdYs5R6jWNwwBtpWNXCMZIKqTvs5HXYHrHFi1GKNRqQ+5s1uv7H7Q&#xA;ymeYzxSG3EP4h0v0y+74pr5P/Lrzdf8Am5POXn2eNtQthTT9OhKskRFQpbjVAE5VUKSa7k+NuHTT&#xA;lPxMnPoHC7T7c0uPSnSaIHgl9Uj1/Tv1uttgEp038qPN9v8Al55r0KSOD6/q91bzWaiUFSkcyO3J&#xA;qbfCpyqOjmMU49ZFzs/tHpZa7BmBlwYoyEtu+JD1jypp1zpvlfR9OugBc2VjbW84U1AkihVGoe4q&#xA;ubLDExgAegDxXaOeOXU5MkfpnORHuMiXk1r+U3n+30XWBY6h+jNTk1T9IWSRTkRzxipCS8ehDUZe&#xA;QIr18RrRo8oiaNHit7bJ7R6GWbHxw8TGMXBK47xPeP01uvvvKH5s+e7zTbHzla2ml6Jp8omuHt2R&#xA;nnIHHYJJN8TLUfsgVJp0GGWHNmIGQARDDD2n2Z2dCc9JKeTLMULuo/MR/SfvRQ0b88PK2pajDoTQ&#xA;+YtNv5TLDcX8waWEt8IJ9WWI1CgAgcl26dslwajGTw+oHvavzXY+sxwOa8GSAoiA2l8on9BVdE/I&#xA;5ZfI1/pevXIOt6pcC+e6iFVgnRWEYH2ef2259PtbdAcOPQfuyJH1Hdhq/a2tZDJgj+5xx4KP8Uev&#xA;u5Cvdv3KVqf+ch9EtV0i3stP1mGECODU5JE5hBspPOaBmoP5kJ+eAfmoDhAEvP8ABZZP5C1EvFlL&#xA;JiJ3MADX2Rl9h+SN8sflXrVra69rfmC7XUfN2tWc9urA/uovVjKhQ1FFT8I2ACjYbZLFpJASlI3O&#xA;QaO0PaLDOWLDgjwabFOJ8zR/t8ydyyD8pPKureWPJ0elaqqLdrPLIRGwdeLkEbjL9Hhljx8MubrP&#xA;aTtHFq9UcuK+HhA325Jf5e8k67Y/m7r3mi4SMaVqFqYbZlcFy9bc7p2/umyvHgkM8pnkR+pydb2t&#xA;hydl4tNG/EhKztt/H1+ISzzd+XPm7TvN8nnLyFcRrfXQI1DTZyFSUmnLiWopV+IJDEUbcHwhm004&#xA;z8THzPMOX2b25pculGk1oPBH6ZDp+nbyvbYjvLr7yp+dPnl1svNE1t5f0OoNza2rKxkANeiPMW+T&#xA;yce9Mrlh1GbadRi5eLtHsjs4cemEs2boZdPmI18I35ohPyp8weT/ADfY6z5EKzacYlh1PT7qbiZF&#xA;Wgf4iKHn9ofyt/k7ZL8nLFMSx8uoaj7RYNdpZYtbtku4SjHl3beXLzHnum/5mflrqutanZeaPLF0&#xA;LHzNp4AXmeKyqpJUcgGAYciN9mGx2yzVaWUyJwNTDg9g9u4tPjlptRHj08/s/Z9oO4Y9qNh/zkH5&#xA;ntDoeowWej2E49O8vonjDSR/tBvTlmf4h2VVr0O1cplHU5Bwmoh2mDN2HpJeNjM8sxvGJB2PxjEf&#xA;Mld+aHlKw8qfksmjWbGRYbqBpp2FGlldiXcjtXsOwoMdXhGPT8I70ez/AGlPW9rnNPa4yodw6D8d&#xA;U581flxe69p2geYfL94NO80aZawC3nbZJECBgjbNQgsaGhBBIIp0tzaUzEZRNTAcDs7tyGmyZcGe&#xA;PHp8k5WOoN8x+PMJbdTf85F6panSXsLDTFlBjl1eOSMPxOxI4yzFSR3WOvhTIE6qQ4aA83Kxx7Bw&#xA;y8UTyZK34CD/AMTH7Ze+1PzL+Sd5D+XFn5c8vlLrUhqCX2oXMzCISMIJI2IrWgXmoVf41wZdARiE&#xA;I87ss9B7Vwlr5ajPccfhmEQN69UT+g2V9pp/58+VLJNF0eGx17TYV4Wd3OyrNFHT4UIeaH7HYfF9&#xA;22MY6nGOGNSH482OXN2LrJ+NlM8OQ/UByJ79oy5/5vzTLyH+VWoRXeqa952nXUtb1mF7eaIHkkcM&#xA;o4yLyFBVkAUcRRV2GWafSEEyybyk4nbHtFCUYYNGODDiIkD1JHL7d99ydykum+Uvzg8g3FxZeUkt&#xA;te0KeQyQQXTqjRV8Q0kFG8eLEHrQZVHDnwmoVKLsM/aXZXaURPVcWHMBRMRz/wBjL7RY7038peR/&#xA;Peo+b4vN/ne8W3uLRSljpVnIQiBhQhihK8O5Xk3I/aNBQ2YdPklPjyHl0Dg9pdraLFpTpdHHijL6&#xA;pyHP59fOhXTdMfyf8nap5S8oX2na+sKNLdy3LcXDx+i0ESEs2w/3W1cs0WA44ES73F9pu1Met1Uc&#xA;mCzUBHlvfFI/pDDtJ8r+ffKt9d335ZXVj5i8tX0hK2rTxyJG47E+pEvJfs8lkqR9odMxYYsmMk4S&#xA;JQLvdT2hotZCMO0YzwaiA58JBP8AsTsedGO3Qsb/ADg0v8wp9FtfMHnOe3t5DdLaWOi2pqkavG8k&#xA;khozitY1H2m+Y2yjWwymIlk7+TtvZnUaGOaWDSCUhw8Upy5miAByHeegfS2b58ldirsVdirsVdir&#xA;sVdirsVdirsVdirsVdirsVdirsVdirsVdirsVeffnppepal5BltdOtJr25NzAwgt43lkoCanigY0&#xA;GYXaEDLHQF7vT+yOox4taJZJRhHhluSAPtZpokckei2EcilJEtoVdGBBBEYBBB6EZlYx6R7nQauQ&#xA;OaZHLiP3o3JuO7FXYq7FXYq7FVssUc0TxSqHjkUo6HoVYUIOAi2UZGJBHMPE9JsvzI/K67vbDTNG&#xA;fzN5YuJWntRAW9ZCRT9hXZW4gcvgIPY9c1UI5dOSAOOD6BqcvZ/bEYzyZPA1ERRvkfnQ92996pNo&#xA;fnz8zfMGm3HmLST5f8r6ZJ6ps5iTNKSQWUhgjksBx5FFCitN8Jx5NRIGQ4YBjDV6LsnBOODJ42oy&#xA;CuIch9486s2a6P8A/9k=</xmpGImg:image>
               </rdf:li>
            </rdf:Alt>
         </xmp:Thumbnails>
      </rdf:Description>
      <rdf:Description rdf:about=""
            xmlns:xmpTPg="http://ns.adobe.com/xap/1.0/t/pg/"
            xmlns:stDim="http://ns.adobe.com/xap/1.0/sType/Dimensions#"
            xmlns:xmpG="http://ns.adobe.com/xap/1.0/g/">
         <xmpTPg:MaxPageSize rdf:parseType="Resource">
            <stDim:w>595.279297</stDim:w>
            <stDim:h>90.285645</stDim:h>
            <stDim:unit>Pixels</stDim:unit>
         </xmpTPg:MaxPageSize>
         <xmpTPg:NPages>1</xmpTPg:NPages>
         <xmpTPg:HasVisibleTransparency>False</xmpTPg:HasVisibleTransparency>
         <xmpTPg:HasVisibleOverprint>False</xmpTPg:HasVisibleOverprint>
         <xmpTPg:PlateNames>
            <rdf:Seq>
               <rdf:li>Magenta</rdf:li>
               <rdf:li>Yellow</rdf:li>
            </rdf:Seq>
         </xmpTPg:PlateNames>
         <xmpTPg:SwatchGroups>
            <rdf:Seq>
               <rdf:li rdf:parseType="Resource">
                  <xmpG:groupName>Standardfärgrutegrupp</xmpG:groupName>
                  <xmpG:groupType>0</xmpG:groupType>
               </rdf:li>
            </rdf:Seq>
         </xmpTPg:SwatchGroups>
      </rdf:Description>
      <rdf:Description rdf:about=""
            xmlns:dc="http://purl.org/dc/elements/1.1/">
         <dc:format>image/svg+xml</dc:format>
      </rdf:Description>
   </rdf:RDF>
</x:xmpmeta>
                                                                                                    
                                                                                                    
                                                                                                    
                                                                                                    
                                                                                                    
                                                                                                    
                                                                                                    
                                                                                                    
                                                                                                    
                                                                                                    
                                                                                                    
                                                                                                    
                                                                                                    
                                                                                                    
                                                                                                    
                                                                                                    
                                                                                                    
                                                                                                    
                                                                                                    
                                                                                                    
                           
<?xpacket end="w"?>
	</metadata>
<g>
	<path fill="#E30613" d="M15.228,50.651L7.668,68.364H0L28.835,2.917l28.079,65.553h-7.668l-7.344-17.71H15.228V50.651z
		 M28.727,19.116L18.036,44.17h21.168L28.727,19.116z"/>
	<path fill="#E30613" d="M66.094,68.364h-6.589V0h6.589V68.364z"/>
	<path fill="#E30613" d="M70.63,0h6.588v34.99h0.217c3.132-4.104,7.991-6.588,13.392-6.588c11.556,0,18.792,9.504,18.792,20.52
		c0,10.908-7.236,20.52-18.684,20.52c-5.4,0-10.261-2.268-13.393-6.479h-0.216v5.4h-6.588V0H70.63L70.63,0z M76.894,48.491
		c0,7.668,4.428,14.797,12.744,14.797c8.53,0,13.066-6.912,13.066-14.797c0-7.775-4.859-14.146-13.066-14.146
		C81.97,34.452,76.894,41.254,76.894,48.491z"/>
	<path fill="#E30613" d="M119.229,68.364h-6.588v-38.88h6.588V68.364z M120.633,14.795c0,2.701-2.159,4.752-4.752,4.752
		c-2.592,0-4.752-2.051-4.752-4.752c0-2.592,2.16-4.752,4.752-4.752C118.473,10.043,120.633,12.204,120.633,14.795z"/>
	<path fill="#E30613" d="M132.296,34.127h0.218c2.698-3.779,6.264-5.832,11.123-5.832c10.8,0,13.283,7.777,13.283,16.957v23.111
		h-6.804V46.44c0-6.264-0.54-11.988-8.208-11.988c-9.072,0-9.72,8.424-9.72,15.444v18.468H125.6v-38.88h6.588v4.644H132.296
		L132.296,34.127z"/>
	<path fill="#E30613" d="M177.656,38.448c-0.864-2.052-2.916-3.996-5.292-3.996c-2.268,0-4.86,1.836-4.86,4.32
		c0,3.564,4.43,4.859,9.072,6.805c4.536,1.943,9.071,4.644,9.071,11.23c0,7.344-5.939,12.635-13.176,12.635
		c-6.588,0-11.663-3.779-13.716-9.826l5.939-2.484c1.62,3.67,3.563,6.264,7.992,6.264c3.562,0,6.264-2.375,6.264-5.939
		c0-8.748-17.604-5.725-17.604-18.037c0-6.586,5.292-11.016,11.663-11.016c4.429,0,8.641,3.133,10.367,7.236L177.656,38.448z"/>
	<path fill="#E30613" d="M204.979,38.448c-0.864-2.052-2.916-3.996-5.292-3.996s-4.86,1.836-4.86,4.32
		c0,3.564,4.429,4.859,9.072,6.805c4.536,1.943,9.071,4.644,9.071,11.23c0,7.344-5.939,12.635-13.176,12.635
		c-6.588,0-11.664-3.779-13.716-9.826l5.939-2.484c1.62,3.67,3.563,6.264,7.992,6.264c3.562,0,6.264-2.375,6.264-5.939
		c0-8.748-17.604-5.725-17.604-18.037c0-6.586,5.292-11.016,11.557-11.016c4.428,0,8.64,3.133,10.367,7.236L204.979,38.448z"/>
	<path fill="#E30613" d="M214.698,49.032c0-11.449,9.071-20.627,20.52-20.627c11.447,0,20.521,9.18,20.521,20.627
		s-9.072,20.52-20.521,20.52C223.77,69.442,214.698,60.479,214.698,49.032z M221.286,48.922c0,7.992,5.615,14.473,13.823,14.473
		s13.824-6.48,13.824-14.473c0-7.883-5.616-14.471-13.824-14.471S221.286,41.04,221.286,48.922z"/>
	<path fill="#E30613" d="M265.565,34.127h0.216c2.7-3.779,6.265-5.832,11.124-5.832c10.8,0,13.284,7.777,13.284,16.957v23.111
		h-6.588V46.44c0-6.264-0.54-11.988-8.208-11.988c-9.072,0-9.721,8.424-9.721,15.444v18.468h-6.588v-38.88h6.588v4.644H265.565
		L265.565,34.127z"/>
	<path fill="#E30613" d="M338.571,59.616c-5.508,4.967-12.203,9.826-19.979,9.826c-9.504,0-18.251-7.127-18.251-17.062
		c0-10.477,7.56-15.444,15.335-20.521l0.757-0.54c-2.81-3.888-6.265-8.1-6.265-13.283c0-7.885,5.939-13.285,13.716-13.285
		c7.02,0,13.284,4.969,13.284,12.312c0,7.452-5.616,11.557-11.018,15.551l13.176,16.848l7.021-8.207l5.075,4.104l-7.991,9.288
		l10.583,13.716h-8.747L338.571,59.616z M322.696,27.215c3.563-2.699,7.775-5.184,7.775-10.15c0-3.779-3.132-6.372-6.804-6.372
		c-3.78,0-6.912,3.024-6.912,6.912c0,3.132,2.052,5.509,3.779,7.992l1.513,2.052L322.696,27.215z M317.511,38.448
		c-4.752,3.24-10.367,7.021-10.367,13.393c0,5.939,5.184,11.232,11.016,11.232c6.265,0,11.771-4.861,16.199-8.748l-13.932-17.929
		L317.511,38.448z"/>
	<path fill="#E30613" d="M389.978,18.036c-2.484-4.32-5.508-6.804-10.8-6.804c-5.508,0-10.368,3.996-10.368,9.72
		c0,5.4,5.508,7.885,9.828,9.828l4.104,1.836c8.101,3.564,15.013,7.668,15.013,17.604c0,10.907-8.748,19.331-19.655,19.331
		c-10.044,0-17.496-6.479-19.439-16.199l6.805-1.943c0.863,6.371,5.832,11.555,12.526,11.555c6.696,0,12.853-5.184,12.853-12.203
		c0-7.344-5.725-9.828-11.557-12.42l-3.778-1.619c-7.345-3.348-13.608-7.02-13.608-15.982c0-9.721,8.208-15.877,17.496-15.877
		c6.912,0,12.852,3.564,16.199,9.721L389.978,18.036z"/>
	<path fill="#E30613" d="M410.065,90.286h-6.588V29.484h6.588V90.286z M411.469,14.795c0,2.701-2.16,4.752-4.752,4.752
		c-2.593,0-4.752-2.051-4.752-4.752c0-2.592,2.159-4.752,4.752-4.752C409.309,10.043,411.469,12.204,411.469,14.795z"/>
	<path fill="#E30613" d="M431.448,14.472c0,2.483-1.943,4.428-4.428,4.428s-4.428-1.944-4.428-4.428s1.942-4.429,4.428-4.429
		C429.505,9.936,431.448,11.989,431.448,14.472z M447.757,14.472c0,2.483-1.944,4.428-4.429,4.428c-2.483,0-4.428-1.944-4.428-4.428
		s1.943-4.429,4.428-4.429C445.812,9.936,447.757,11.989,447.757,14.472z M414.601,49.032c0-11.449,9.071-20.627,20.52-20.627
		c11.447,0,20.521,9.18,20.521,20.627s-9.072,20.52-20.521,20.52C423.781,69.442,414.601,60.479,414.601,49.032z M421.298,48.922
		c0,7.992,5.614,14.473,13.822,14.473s13.823-6.48,13.823-14.473c0-7.883-5.615-14.471-13.823-14.471S421.298,41.04,421.298,48.922z
		"/>
	<path fill="#E30613" d="M458.556,0h6.588v34.99h0.216c3.132-4.104,7.991-6.588,13.393-6.588c11.556,0,18.791,9.504,18.791,20.52
		c0,10.908-7.235,20.52-18.685,20.52c-5.398,0-10.259-2.268-13.392-6.479h-0.216v5.4h-6.589V0H458.556L458.556,0z M464.927,48.491
		c0,7.668,4.429,14.797,12.744,14.797c8.531,0,13.066-6.912,13.066-14.797c0-7.775-4.858-14.146-13.066-14.146
		C469.896,34.452,464.927,41.254,464.927,48.491z"/>
	<path fill="#E30613" d="M505.967,50.327c0.107,7.236,5.185,13.068,12.744,13.068c5.614,0,9.288-3.35,11.88-7.992l5.614,3.24
		c-3.778,6.912-10.043,10.908-18.034,10.908c-11.557,0-19.115-8.855-19.115-20.088c0-11.555,6.695-21.06,18.898-21.06
		c12.527,0,19.115,10.368,18.468,21.923H505.967L505.967,50.327z M529.51,44.711c-0.864-5.616-5.616-10.152-11.448-10.152
		c-5.724,0-11.016,4.536-11.88,10.152H529.51z"/>
	<path fill="#E30613" d="M546.141,33.696h0.217c2.268-3.023,4.319-5.291,8.64-5.291c2.269,0,4.104,0.756,5.939,1.836l-3.132,6.047
		c-1.296-0.863-2.269-1.728-3.996-1.728c-7.344,0-7.668,9.396-7.668,14.472v19.439h-6.588V29.484h6.588V33.696z"/>
	<path fill="#E30613" d="M595.28,66.528c0,6.264,0,11.555-3.995,16.738c-3.672,4.645-9.288,6.912-15.12,6.912
		c-10.906,0-18.898-6.912-19.114-17.928h6.588c0.106,7.234,5.292,11.771,12.42,11.771c10.26,0,12.527-7.561,12.527-16.309v-4.645
		h-0.217c-3.132,4.104-8.315,6.479-13.5,6.479c-11.34,0-18.574-9.504-18.574-20.411c0-10.908,7.344-20.735,18.791-20.735
		c5.399,0,10.151,2.376,13.283,6.588h0.217v-5.508h6.588v37.043h0.106V66.528z M563.205,48.491c0,7.668,4.429,14.797,12.743,14.797
		c8.532,0,13.067-6.912,13.067-14.797c0-7.775-4.859-14.146-13.067-14.146C568.174,34.452,563.205,41.254,563.205,48.491z"/>
</g>
</svg>
