<?xml version="1.0" standalone="no"?>
<!DOCTYPE svg PUBLIC "-//W3C//DTD SVG 1.1//EN" "http://www.w3.org/Graphics/SVG/1.1/DTD/svg11.dtd" >
<svg xmlns="http://www.w3.org/2000/svg" xmlns:xlink="http://www.w3.org/1999/xlink" version="1.1">
<metadata>
Created by FontForge 20161116 at Wed Feb 12 13:10:36 2014
 By Jimmy Warting
Copyright (c) 2013 by Dino dos Santos. All rights reserved.
</metadata>
<defs>
<font id="BreveDisplay-Regular" horiz-adv-x="705" >
  <font-face 
    font-family="Breve Display"
    font-weight="400"
    font-stretch="normal"
    units-per-em="1000"
    panose-1="0 0 5 0 0 0 0 0 0 0"
    ascent="800"
    descent="-200"
    x-height="500"
    cap-height="720"
    bbox="-115 -319 1166 950"
    underline-thickness="50"
    underline-position="-100"
    stemh="80"
    stemv="210"
    unicode-range="U+0020-FB02"
  />
<missing-glyph horiz-adv-x="530" 
d="M480 450l-93 -92c27 -29 43 -67 43 -108s-16 -79 -43 -108l93 -92l-14 -14l-93 92c-29 -27 -67 -43 -108 -43s-79 16 -108 43l-93 -92l-14 14l93 92c-27 29 -43 67 -43 108s16 79 43 108l-93 92l14 14l93 -92c29 27 67 43 108 43s79 -16 108 -43l93 92zM120 250
c0 -80 65 -145 145 -145s145 65 145 145s-65 145 -145 145s-145 -65 -145 -145z" />
    <glyph glyph-name="fi" unicode="fi" horiz-adv-x="695" 
d="M13 500l47 10c5 108 90 220 320 220v-174l-6 -2c-36 82 -73 153 -113 153c-25 0 -41 -15 -41 -62c0 -42 24 -106 40 -145h110v-10h-110v-410c0 -20 0 -40 70 -70v-10h-320v10c50 30 50 50 50 70v410h-47v10zM525 560c-54 0 -95 31 -95 85c0 53 41 85 95 85
c53 0 95 -32 95 -85c0 -54 -42 -85 -95 -85zM635 500v-420c0 -20 0 -40 50 -70v-10h-300v10c50 30 50 50 50 70v310c0 30 0 70 -50 100v10h250z" />
    <glyph glyph-name="fl" unicode="fl" horiz-adv-x="695" 
d="M13 500l47 10c5 108 90 220 320 220v-174l-6 -2c-36 82 -73 153 -113 153c-25 0 -41 -15 -41 -62c0 -42 24 -106 40 -145h110v-10h-110v-410c0 -20 0 -40 70 -70v-10h-320v10c50 30 50 50 50 70v410h-47v10zM635 720v-640c0 -20 0 -40 50 -70v-10h-300v10
c50 30 50 50 50 70v530c0 30 0 70 -50 100v10h250z" />
    <glyph glyph-name=".notdef" horiz-adv-x="530" 
d="M480 450l-93 -92c27 -29 43 -67 43 -108s-16 -79 -43 -108l93 -92l-14 -14l-93 92c-29 -27 -67 -43 -108 -43s-79 16 -108 43l-93 -92l-14 14l93 92c-27 29 -43 67 -43 108s16 79 43 108l-93 92l14 14l93 -92c29 27 67 43 108 43s79 -16 108 -43l93 92zM120 250
c0 -80 65 -145 145 -145s145 65 145 145s-65 145 -145 145s-145 -65 -145 -145z" />
    <glyph glyph-name="A" unicode="A" 
d="M422 720l228 -620c10 -27 27 -76 55 -90v-10h-310v10c32 6 45 21 45 45c0 12 -4 27 -10 45l-54 150h-221l-48 -150c-2 -7 -4 -16 -4 -23c0 -38 38 -58 102 -67v-10h-205v10c43 24 84 54 103 113l150 464l-48 133h217zM372 260l-113 312l-101 -312h214z" />
    <glyph glyph-name="Aacute" unicode="&#xc1;" 
d="M286 770l-4 8l102 122c13 16 29 21 41 21c26 0 50 -19 50 -47c0 -37 -26 -48 -46 -55zM422 720l228 -620c10 -27 27 -76 55 -90v-10h-310v10c32 6 45 21 45 45c0 12 -4 27 -10 45l-54 150h-221l-48 -150c-2 -7 -4 -16 -4 -23c0 -38 38 -58 102 -67v-10h-205v10
c43 24 84 54 103 113l150 464l-48 133h217zM372 260l-113 312l-101 -312h214z" />
    <glyph glyph-name="Abreve" unicode="&#x102;" 
d="M320 770c-90 0 -120 87 -120 160h10c5 -30 35 -70 110 -70s105 40 110 70h10c0 -73 -30 -160 -120 -160zM422 720l228 -620c10 -27 27 -76 55 -90v-10h-310v10c32 6 45 21 45 45c0 12 -4 27 -10 45l-54 150h-221l-48 -150c-2 -7 -4 -16 -4 -23c0 -38 38 -58 102 -67v-10
h-205v10c43 24 84 54 103 113l150 464l-48 133h217zM372 260l-113 312l-101 -312h214z" />
    <glyph glyph-name="Acircumflex" unicode="&#xc2;" 
d="M185 770h-10l139 180h12l139 -180h-10l-135 65zM422 720l228 -620c10 -27 27 -76 55 -90v-10h-310v10c32 6 45 21 45 45c0 12 -4 27 -10 45l-54 150h-221l-48 -150c-2 -7 -4 -16 -4 -23c0 -38 38 -58 102 -67v-10h-205v10c43 24 84 54 103 113l150 464l-48 133h217z
M372 260l-113 312l-101 -312h214z" />
    <glyph glyph-name="Adieresis" unicode="&#xc4;" 
d="M221 770c-45 0 -81 27 -81 72s36 72 81 72s81 -27 81 -72s-36 -72 -81 -72zM419 770c-45 0 -81 27 -81 72s36 72 81 72s81 -27 81 -72s-36 -72 -81 -72zM422 720l228 -620c10 -27 27 -76 55 -90v-10h-310v10c32 6 45 21 45 45c0 12 -4 27 -10 45l-54 150h-221l-48 -150
c-2 -7 -4 -16 -4 -23c0 -38 38 -58 102 -67v-10h-205v10c43 24 84 54 103 113l150 464l-48 133h217zM372 260l-113 312l-101 -312h214z" />
    <glyph glyph-name="Agrave" unicode="&#xc0;" 
d="M338 770l-143 49c-20 7 -46 18 -46 55c0 28 24 47 50 47c12 0 28 -5 41 -21l102 -122zM422 720l228 -620c10 -27 27 -76 55 -90v-10h-310v10c32 6 45 21 45 45c0 12 -4 27 -10 45l-54 150h-221l-48 -150c-2 -7 -4 -16 -4 -23c0 -38 38 -58 102 -67v-10h-205v10
c43 24 84 54 103 113l150 464l-48 133h217zM372 260l-113 312l-101 -312h214z" />
    <glyph glyph-name="Amacron" unicode="&#x100;" 
d="M475 795h-310v20h310v-20zM422 720l228 -620c10 -27 27 -76 55 -90v-10h-310v10c32 6 45 21 45 45c0 12 -4 27 -10 45l-54 150h-221l-48 -150c-2 -7 -4 -16 -4 -23c0 -38 38 -58 102 -67v-10h-205v10c43 24 84 54 103 113l150 464l-48 133h217zM372 260l-113 312
l-101 -312h214z" />
    <glyph glyph-name="Aogonek" unicode="&#x104;" 
d="M705 0h-111c-31 -28 -42 -65 -42 -86c0 -29 18 -50 54 -50c17 0 31 6 38 11v-10c-14 -44 -54 -65 -95 -65c-52 0 -93 27 -93 74c0 43 27 76 128 126h-189v10c32 6 45 21 45 45c0 12 -4 27 -10 45l-54 150h-221l-48 -150c-2 -7 -4 -16 -4 -23c0 -38 38 -58 102 -67v-10
h-205v10c43 24 84 54 103 113l150 464l-48 133h217l228 -620c10 -27 27 -76 55 -90v-10zM372 260l-113 312l-101 -312h214z" />
    <glyph glyph-name="Aring" unicode="&#xc5;" 
d="M320 755c-64 0 -102 35 -102 87c0 51 37 88 102 88c64 0 102 -37 102 -88c0 -52 -38 -87 -102 -87zM320 920c-25 0 -39 -21 -39 -78c0 -56 14 -77 39 -77s39 21 39 77c0 57 -14 78 -39 78zM422 720l228 -620c10 -27 27 -76 55 -90v-10h-310v10c32 6 45 21 45 45
c0 12 -4 27 -10 45l-54 150h-221l-48 -150c-2 -7 -4 -16 -4 -23c0 -38 38 -58 102 -67v-10h-205v10c43 24 84 54 103 113l150 464l-48 133h217zM372 260l-113 312l-101 -312h214z" />
    <glyph glyph-name="Atilde" unicode="&#xc3;" 
d="M204 810c-36 0 -50 -13 -60 -40h-10c1 83 45 150 110 150s143 -50 200 -50c24 0 41 13 50 40h10c-4 -121 -49 -150 -95 -150c-57 0 -148 50 -205 50zM422 720l228 -620c10 -27 27 -76 55 -90v-10h-310v10c32 6 45 21 45 45c0 12 -4 27 -10 45l-54 150h-221l-48 -150
c-2 -7 -4 -16 -4 -23c0 -38 38 -58 102 -67v-10h-205v10c43 24 84 54 103 113l150 464l-48 133h217zM372 260l-113 312l-101 -312h214z" />
    <glyph glyph-name="AE" unicode="&#xc6;" horiz-adv-x="940" 
d="M910 0h-560v10c50 30 50 50 50 70v170h-226l-70 -150c-4 -9 -6 -17 -6 -24c0 -35 44 -58 107 -66v-10h-205v10c43 24 77 57 103 113l282 597h525v-170h-10c-150 150 -167 160 -206 160h-84v-335h223v-10h-223v-355h84c39 0 66 10 216 160h10zM400 710h-10l-211 -450h221
v450z" />
    <glyph glyph-name="B" unicode="B" horiz-adv-x="710" 
d="M415 365v-5c194 2 275 -65 275 -175c0 -145 -110 -185 -262 -185h-398v10c50 30 50 50 50 70v560c0 20 0 40 -50 70v10h424c107 0 206 -40 206 -175c0 -115 -69 -176 -245 -180zM290 10h77c70 0 103 50 103 175s-36 170 -145 170h-5v10h5c85 0 115 35 115 175
c0 134 -35 170 -82 170h-68v-700z" />
    <glyph glyph-name="C" unicode="C" horiz-adv-x="655" 
d="M20 360c0 240 153 370 395 370c77 0 143 -10 210 -30v-150h-10c-67 90 -117 170 -200 170c-140 0 -175 -120 -175 -360s35 -360 175 -360c83 0 143 80 210 170h10l-9 -150c-67 -20 -134 -30 -211 -30c-242 0 -395 130 -395 370z" />
    <glyph glyph-name="Cacute" unicode="&#x106;" horiz-adv-x="655" 
d="M377 778l102 122c13 16 29 21 41 21c26 0 50 -19 50 -47c0 -37 -26 -48 -46 -55l-143 -49zM20 360c0 240 153 370 395 370c77 0 143 -10 210 -30v-150h-10c-67 90 -117 170 -200 170c-140 0 -175 -120 -175 -360s35 -360 175 -360c83 0 143 80 210 170h10l-9 -150
c-67 -20 -134 -30 -211 -30c-242 0 -395 130 -395 370z" />
    <glyph glyph-name="Ccaron" unicode="&#x10c;" horiz-adv-x="655" 
d="M550 950h10l-139 -180h-12l-139 180h10l135 -65zM20 360c0 240 153 370 395 370c77 0 143 -10 210 -30v-150h-10c-67 90 -117 170 -200 170c-140 0 -175 -120 -175 -360s35 -360 175 -360c83 0 143 80 210 170h10l-9 -150c-67 -20 -134 -30 -211 -30
c-242 0 -395 130 -395 370z" />
    <glyph glyph-name="Ccedilla" unicode="&#xc7;" horiz-adv-x="655" 
d="M635 170l-9 -150c-66 -20 -132 -30 -207 -30v-45c69 0 110 -24 110 -74c0 -47 -31 -76 -93 -76c-44 0 -75 20 -90 38v10c15 -6 33 -11 50 -11c26 0 51 15 51 53c0 35 -6 50 -38 50v55c-239 2 -389 132 -389 370c0 240 153 370 395 370c77 0 143 -10 210 -30v-150h-10
c-67 90 -117 170 -200 170c-140 0 -175 -120 -175 -360s35 -360 175 -360c83 0 143 80 210 170h10z" />
    <glyph glyph-name="Cdotaccent" unicode="&#x10a;" horiz-adv-x="655" 
d="M320 865c0 53 41 85 95 85c53 0 95 -32 95 -85c0 -54 -42 -85 -95 -85c-54 0 -95 31 -95 85zM20 360c0 240 153 370 395 370c77 0 143 -10 210 -30v-150h-10c-67 90 -117 170 -200 170c-140 0 -175 -120 -175 -360s35 -360 175 -360c83 0 143 80 210 170h10l-9 -150
c-67 -20 -134 -30 -211 -30c-242 0 -395 130 -395 370z" />
    <glyph glyph-name="D" unicode="D" horiz-adv-x="780" 
d="M30 720h365c228 0 365 -127 365 -360c0 -234 -137 -360 -365 -360h-365v10c50 30 50 50 50 70v560c0 20 0 40 -50 70v10zM290 710v-700h105c130 0 145 160 145 350s-15 350 -145 350h-105z" />
    <glyph glyph-name="Eth" unicode="&#xd0;" horiz-adv-x="780" 
d="M30 720h365c228 0 365 -127 365 -360c0 -234 -137 -360 -365 -360h-365v10c50 30 50 50 50 70v280h-50v10h50v270c0 20 0 40 -50 70v10zM290 10h105c130 0 145 160 145 350s-15 350 -145 350h-105v-340h100v-10h-100v-350z" />
    <glyph glyph-name="Dcaron" unicode="&#x10e;" horiz-adv-x="780" 
d="M511 950h10l-139 -180h-12l-139 180h10l135 -65zM30 720h365c228 0 365 -127 365 -360c0 -234 -137 -360 -365 -360h-365v10c50 30 50 50 50 70v560c0 20 0 40 -50 70v10zM290 710v-700h105c130 0 145 160 145 350s-15 350 -145 350h-105z" />
    <glyph glyph-name="Dcroat" unicode="&#x110;" horiz-adv-x="780" 
d="M30 720h365c228 0 365 -127 365 -360c0 -234 -137 -360 -365 -360h-365v10c50 30 50 50 50 70v280h-50v10h50v270c0 20 0 40 -50 70v10zM290 10h105c130 0 145 160 145 350s-15 350 -145 350h-105v-340h100v-10h-100v-350z" />
    <glyph glyph-name="E" unicode="E" horiz-adv-x="620" 
d="M600 170l-10 -170h-560v10c50 30 50 50 50 70v560c0 20 0 40 -50 70v10h560v-170h-10c-150 150 -167 160 -206 160h-84v-335h223v-10h-223v-355h84c39 0 66 10 216 160h10z" />
    <glyph glyph-name="Eacute" unicode="&#xc9;" horiz-adv-x="620" 
d="M298 770l-4 8l102 122c13 16 29 21 41 21c26 0 50 -19 50 -47c0 -37 -26 -48 -46 -55zM600 170l-10 -170h-560v10c50 30 50 50 50 70v560c0 20 0 40 -50 70v10h560v-170h-10c-150 150 -167 160 -206 160h-84v-335h223v-10h-223v-355h84c39 0 66 10 216 160h10z" />
    <glyph glyph-name="Ecaron" unicode="&#x11a;" horiz-adv-x="620" 
d="M326 770l-139 180h10l135 -65l135 65h10l-139 -180h-12zM600 170l-10 -170h-560v10c50 30 50 50 50 70v560c0 20 0 40 -50 70v10h560v-170h-10c-150 150 -167 160 -206 160h-84v-335h223v-10h-223v-355h84c39 0 66 10 216 160h10z" />
    <glyph glyph-name="Ecircumflex" unicode="&#xca;" horiz-adv-x="620" 
d="M197 770h-10l139 180h12l139 -180h-10l-135 65zM600 170l-10 -170h-560v10c50 30 50 50 50 70v560c0 20 0 40 -50 70v10h560v-170h-10c-150 150 -167 160 -206 160h-84v-335h223v-10h-223v-355h84c39 0 66 10 216 160h10z" />
    <glyph glyph-name="Edieresis" unicode="&#xcb;" horiz-adv-x="620" 
d="M233 770c-45 0 -81 27 -81 72s36 72 81 72s81 -27 81 -72s-36 -72 -81 -72zM431 770c-45 0 -81 27 -81 72s36 72 81 72s81 -27 81 -72s-36 -72 -81 -72zM600 170l-10 -170h-560v10c50 30 50 50 50 70v560c0 20 0 40 -50 70v10h560v-170h-10c-150 150 -167 160 -206 160
h-84v-335h223v-10h-223v-355h84c39 0 66 10 216 160h10z" />
    <glyph glyph-name="Edotaccent" unicode="&#x116;" horiz-adv-x="620" 
d="M332 780c-54 0 -95 31 -95 85c0 53 41 85 95 85c53 0 95 -32 95 -85c0 -54 -42 -85 -95 -85zM600 170l-10 -170h-560v10c50 30 50 50 50 70v560c0 20 0 40 -50 70v10h560v-170h-10c-150 150 -167 160 -206 160h-84v-335h223v-10h-223v-355h84c39 0 66 10 216 160h10z" />
    <glyph glyph-name="Egrave" unicode="&#xc8;" horiz-adv-x="620" 
d="M350 770l-143 49c-20 7 -46 18 -46 55c0 28 24 47 50 47c12 0 28 -5 41 -21l102 -122zM600 170l-10 -170h-560v10c50 30 50 50 50 70v560c0 20 0 40 -50 70v10h560v-170h-10c-150 150 -167 160 -206 160h-84v-335h223v-10h-223v-355h84c39 0 66 10 216 160h10z" />
    <glyph glyph-name="Emacron" unicode="&#x112;" horiz-adv-x="620" 
d="M487 795h-310v20h310v-20zM600 170l-10 -170h-560v10c50 30 50 50 50 70v560c0 20 0 40 -50 70v10h560v-170h-10c-150 150 -167 160 -206 160h-84v-335h223v-10h-223v-355h84c39 0 66 10 216 160h10z" />
    <glyph glyph-name="Eogonek" unicode="&#x118;" horiz-adv-x="620" 
d="M602 -136c17 0 31 6 38 11v-10c-14 -44 -54 -65 -95 -65c-52 0 -93 27 -93 74c0 43 27 76 128 126h-550v10c50 30 50 50 50 70v560c0 20 0 40 -50 70v10h560v-170h-10c-150 150 -167 160 -206 160h-84v-335h223v-10h-223v-355h84c39 0 66 10 216 160h10l-10 -170
c-31 -28 -42 -65 -42 -86c0 -29 18 -50 54 -50z" />
    <glyph glyph-name="F" unicode="F" horiz-adv-x="600" 
d="M585 550h-10c-150 150 -167 160 -206 160h-79v-355h223v-10h-223v-265c0 -20 0 -40 80 -70v-10h-340v10c50 30 50 50 50 70v560c0 20 0 40 -50 70v10h555v-170z" />
    <glyph glyph-name="G" unicode="G" 
d="M695 340v-10c-50 -30 -50 -50 -50 -70v-240c-67 -20 -153 -30 -230 -30c-242 0 -395 130 -395 370s153 370 395 370c77 0 143 -10 210 -30v-150h-10c-67 90 -117 170 -200 170c-140 0 -175 -120 -175 -360s35 -360 175 -360c7 0 13 1 20 2v258c0 20 0 40 -50 70v10h310z
" />
    <glyph glyph-name="Gbreve" unicode="&#x11e;" 
d="M412 770c-90 0 -120 87 -120 160h10c5 -30 35 -70 110 -70s105 40 110 70h10c0 -73 -30 -160 -120 -160zM695 340v-10c-50 -30 -50 -50 -50 -70v-240c-67 -20 -153 -30 -230 -30c-242 0 -395 130 -395 370s153 370 395 370c77 0 143 -10 210 -30v-150h-10
c-67 90 -117 170 -200 170c-140 0 -175 -120 -175 -360s35 -360 175 -360c7 0 13 1 20 2v258c0 20 0 40 -50 70v10h310z" />
    <glyph glyph-name="Gcommaaccent" unicode="&#x122;" 
d="M695 340v-10c-50 -30 -50 -50 -50 -70v-240c-67 -20 -153 -30 -230 -30c-242 0 -395 130 -395 370s153 370 395 370c77 0 143 -10 210 -30v-150h-10c-67 90 -117 170 -200 170c-140 0 -175 -120 -175 -360s35 -360 175 -360c7 0 13 1 20 2v258c0 20 0 40 -50 70v10h310z
M362 -319l85 107c-72 0 -108 34 -108 83c0 51 32 84 77 84c55 0 80 -35 80 -89c0 -84 -93 -169 -124 -185h-10z" />
    <glyph glyph-name="Gdotaccent" unicode="&#x120;" 
d="M317 865c0 53 41 85 95 85c53 0 95 -32 95 -85c0 -54 -42 -85 -95 -85c-54 0 -95 31 -95 85zM695 340v-10c-50 -30 -50 -50 -50 -70v-240c-67 -20 -153 -30 -230 -30c-242 0 -395 130 -395 370s153 370 395 370c77 0 143 -10 210 -30v-150h-10c-67 90 -117 170 -200 170
c-140 0 -175 -120 -175 -360s35 -360 175 -360c7 0 13 1 20 2v258c0 20 0 40 -50 70v10h310z" />
    <glyph glyph-name="H" unicode="H" horiz-adv-x="820" 
d="M790 720v-10c-50 -30 -50 -50 -50 -70v-560c0 -20 0 -40 50 -70v-10h-310v10c50 30 50 50 50 70v285h-240v-285c0 -20 0 -40 50 -70v-10h-310v10c50 30 50 50 50 70v560c0 20 0 40 -50 70v10h310v-10c-50 -30 -50 -50 -50 -70v-265h240v265c0 20 0 40 -50 70v10h310z" />
    <glyph glyph-name="Hbar" unicode="&#x126;" horiz-adv-x="820" 
d="M790 720v-10c-50 -30 -50 -50 -50 -70v-80h50v-10h-50v-470c0 -20 0 -40 50 -70v-10h-310v10c50 30 50 50 50 70v285h-240v-285c0 -20 0 -40 50 -70v-10h-310v10c50 30 50 50 50 70v470h-50v10h50v80c0 20 0 40 -50 70v10h310v-10c-50 -30 -50 -50 -50 -70v-80h240v80
c0 20 0 40 -50 70v10h310zM530 550h-240v-175h240v175z" />
    <glyph glyph-name="I" unicode="I" horiz-adv-x="370" 
d="M290 640v-560c0 -20 0 -40 50 -70v-10h-310v10c50 30 50 50 50 70v560c0 20 0 40 -50 70v10h310v-10c-50 -30 -50 -50 -50 -70z" />
    <glyph glyph-name="IJ" unicode="&#x132;" horiz-adv-x="720" 
d="M290 640v-560c0 -20 0 -40 50 -70v-10h-310v10c50 30 50 50 50 70v560c0 20 0 40 -50 70v10h310v-10c-50 -30 -50 -50 -50 -70zM445 270v370c0 20 0 40 -50 70v10h310v-10c-50 -30 -50 -50 -50 -70v-370c0 -199 -55 -240 -255 -300l-5 10c50 50 50 70 50 290z" />
    <glyph glyph-name="Iacute" unicode="&#xcd;" horiz-adv-x="370" 
d="M140 778l102 122c13 16 29 21 41 21c26 0 50 -19 50 -47c0 -37 -26 -48 -46 -55l-143 -49zM290 640v-560c0 -20 0 -40 50 -70v-10h-310v10c50 30 50 50 50 70v560c0 20 0 40 -50 70v10h310v-10c-50 -30 -50 -50 -50 -70z" />
    <glyph glyph-name="Icircumflex" unicode="&#xce;" horiz-adv-x="370" 
d="M43 770h-10l139 180h12l139 -180h-10l-135 65zM290 640v-560c0 -20 0 -40 50 -70v-10h-310v10c50 30 50 50 50 70v560c0 20 0 40 -50 70v10h310v-10c-50 -30 -50 -50 -50 -70z" />
    <glyph glyph-name="Idieresis" unicode="&#xcf;" horiz-adv-x="370" 
d="M-2 842c0 45 36 72 81 72s81 -27 81 -72s-36 -72 -81 -72s-81 27 -81 72zM196 842c0 45 36 72 81 72s81 -27 81 -72s-36 -72 -81 -72s-81 27 -81 72zM290 640v-560c0 -20 0 -40 50 -70v-10h-310v10c50 30 50 50 50 70v560c0 20 0 40 -50 70v10h310v-10
c-50 -30 -50 -50 -50 -70z" />
    <glyph glyph-name="Idotaccent" unicode="&#x130;" horiz-adv-x="370" 
d="M83 865c0 53 41 85 95 85c53 0 95 -32 95 -85c0 -54 -42 -85 -95 -85c-54 0 -95 31 -95 85zM290 640v-560c0 -20 0 -40 50 -70v-10h-310v10c50 30 50 50 50 70v560c0 20 0 40 -50 70v10h310v-10c-50 -30 -50 -50 -50 -70z" />
    <glyph glyph-name="Igrave" unicode="&#xcc;" horiz-adv-x="370" 
d="M196 770l-143 49c-20 7 -46 18 -46 55c0 28 24 47 50 47c12 0 28 -5 41 -21l102 -122zM290 640v-560c0 -20 0 -40 50 -70v-10h-310v10c50 30 50 50 50 70v560c0 20 0 40 -50 70v10h310v-10c-50 -30 -50 -50 -50 -70z" />
    <glyph glyph-name="Imacron" unicode="&#x12a;" horiz-adv-x="370" 
d="M333 795h-310v20h310v-20zM290 640v-560c0 -20 0 -40 50 -70v-10h-310v10c50 30 50 50 50 70v560c0 20 0 40 -50 70v10h310v-10c-50 -30 -50 -50 -50 -70z" />
    <glyph glyph-name="Iogonek" unicode="&#x12e;" horiz-adv-x="370" 
d="M340 720v-10c-50 -30 -50 -50 -50 -70v-560c0 -20 0 -40 50 -70v-10h-99c-31 -28 -42 -65 -42 -86c0 -29 18 -50 54 -50c17 0 31 6 38 11v-10c-14 -44 -54 -65 -95 -65c-52 0 -93 27 -93 74c0 43 27 76 128 126h-201v10c50 30 50 50 50 70v560c0 20 0 40 -50 70v10h310z
" />
    <glyph glyph-name="J" unicode="J" horiz-adv-x="350" 
d="M75 270v370c0 20 0 40 -50 70v10h310v-10c-50 -30 -50 -50 -50 -70v-370c0 -199 -55 -240 -255 -300l-5 10c50 50 50 70 50 290z" />
    <glyph glyph-name="K" unicode="K" horiz-adv-x="773" 
d="M290 640v-560c0 -20 0 -40 50 -70v-10h-310v10c50 30 50 50 50 70v560c0 20 0 40 -50 70v10h310v-10c-50 -30 -50 -50 -50 -70zM468 484l233 -401c12 -20 33 -58 72 -73v-10h-348v10c50 10 45 41 27 70l-147 240v10l262 277c26 28 57 95 -58 103v10h251v-10
c-70 -24 -124 -53 -170 -100z" />
    <glyph glyph-name="Kcommaaccent" unicode="&#x136;" horiz-adv-x="773" 
d="M290 640v-560c0 -20 0 -40 50 -70v-10h-310v10c50 30 50 50 50 70v560c0 20 0 40 -50 70v10h310v-10c-50 -30 -50 -50 -50 -70zM468 484l233 -401c12 -20 33 -58 72 -73v-10h-348v10c50 10 45 41 27 70l-147 240v10l262 277c26 28 57 95 -58 103v10h251v-10
c-70 -24 -124 -53 -170 -100zM333 -314l85 107c-72 0 -108 34 -108 83c0 51 32 84 77 84c55 0 80 -35 80 -89c0 -84 -93 -169 -124 -185h-10z" />
    <glyph glyph-name="L" unicode="L" horiz-adv-x="605" 
d="M590 0h-560v10c50 30 50 50 50 70v560c0 20 0 40 -50 70v10h310v-10c-50 -30 -50 -50 -50 -70v-630h84c39 0 66 10 216 160h10z" />
    <glyph glyph-name="Lacute" unicode="&#x139;" horiz-adv-x="605" 
d="M141 778l102 122c13 16 29 21 41 21c26 0 50 -19 50 -47c0 -37 -26 -48 -46 -55l-143 -49zM590 0h-560v10c50 30 50 50 50 70v560c0 20 0 40 -50 70v10h310v-10c-50 -30 -50 -50 -50 -70v-630h84c39 0 66 10 216 160h10z" />
    <glyph glyph-name="Lcaron" unicode="&#x13d;" horiz-adv-x="605" 
d="M397 455l85 105c-70 0 -110 35 -110 85s35 85 80 85c55 0 80 -35 80 -90c0 -85 -95 -170 -125 -185h-10zM590 0h-560v10c50 30 50 50 50 70v560c0 20 0 40 -50 70v10h310v-10c-50 -30 -50 -50 -50 -70v-630h84c39 0 66 10 216 160h10z" />
    <glyph glyph-name="Lcommaaccent" unicode="&#x13b;" horiz-adv-x="605" 
d="M590 0h-560v10c50 30 50 50 50 70v560c0 20 0 40 -50 70v10h310v-10c-50 -30 -50 -50 -50 -70v-630h84c39 0 66 10 216 160h10zM262 -314l85 107c-72 0 -108 34 -108 83c0 51 32 84 77 84c55 0 80 -35 80 -89c0 -84 -93 -169 -124 -185h-10z" />
    <glyph glyph-name="Ldot" unicode="&#x13f;" horiz-adv-x="605" 
d="M590 0h-560v10c50 30 50 50 50 70v560c0 20 0 40 -50 70v10h310v-10c-50 -30 -50 -50 -50 -70v-630h84c39 0 66 10 216 160h10zM360 387c0 45 35 80 80 80s80 -35 80 -80s-35 -80 -80 -80s-80 35 -80 80z" />
    <glyph glyph-name="Lslash" unicode="&#x141;" horiz-adv-x="605" 
d="M600 170l-10 -170h-560v10c50 30 50 50 50 70v245l-50 -15v10l50 15v305c0 20 0 40 -50 70v10h310v-10c-50 -30 -50 -50 -50 -70v-241l100 31v-10l-100 -31v-379h84c39 0 66 10 216 160h10z" />
    <glyph glyph-name="M" unicode="M" horiz-adv-x="880" 
d="M850 720v-10c-50 -30 -50 -50 -50 -70v-560c0 -20 0 -40 50 -70v-10h-310v10c50 30 50 50 50 70v606l-205 -696h-10l-275 633v-543c0 -30 0 -50 110 -70v-10h-190v10c60 20 70 40 70 70v556c0 34 1 55 -70 74v10h260l187 -410l123 410h260z" />
    <glyph glyph-name="N" unicode="N" 
d="M695 720v-10c-70 -25 -70 -45 -70 -70v-650h-10l-515 633v-543c0 -30 0 -50 110 -70v-10h-190v10c60 20 70 40 70 70v556l-70 84h260l335 -394v314c0 25 0 45 -100 70v10h180z" />
    <glyph glyph-name="Nacute" unicode="&#x143;" 
d="M330 778l102 122c13 16 29 21 41 21c26 0 50 -19 50 -47c0 -37 -26 -48 -46 -55l-143 -49zM695 720v-10c-70 -25 -70 -45 -70 -70v-650h-10l-515 633v-543c0 -30 0 -50 110 -70v-10h-190v10c60 20 70 40 70 70v556l-70 84h260l335 -394v314c0 25 0 45 -100 70v10h180z
" />
    <glyph glyph-name="Ncaron" unicode="&#x147;" 
d="M503 950h10l-139 -180h-12l-139 180h10l135 -65zM695 720v-10c-70 -25 -70 -45 -70 -70v-650h-10l-515 633v-543c0 -30 0 -50 110 -70v-10h-190v10c60 20 70 40 70 70v556l-70 84h260l335 -394v314c0 25 0 45 -100 70v10h180z" />
    <glyph glyph-name="Ncommaaccent" unicode="&#x145;" 
d="M695 720v-10c-70 -25 -70 -45 -70 -70v-650h-10l-515 633v-543c0 -30 0 -50 110 -70v-10h-190v10c60 20 70 40 70 70v556l-70 84h260l335 -394v314c0 25 0 45 -100 70v10h180zM307 -314l85 107c-72 0 -108 34 -108 83c0 51 32 84 77 84c55 0 80 -35 80 -89
c0 -84 -93 -169 -124 -185h-10z" />
    <glyph glyph-name="Eng" unicode="&#x14a;" 
d="M695 720v-10c-70 -25 -70 -45 -70 -70v-600c0 -154 -5 -220 -145 -260l-2 10c107 31 132 73 135 202l-513 631v-543c0 -30 0 -50 110 -70v-10h-190v10c60 20 70 40 70 70v556l-70 84h260l335 -394v314c0 25 0 45 -100 70v10h180z" />
    <glyph glyph-name="Ntilde" unicode="&#xd1;" 
d="M192 770h-10c1 83 45 150 110 150s143 -50 200 -50c24 0 41 13 50 40h10c-4 -121 -49 -150 -95 -150c-57 0 -148 50 -205 50c-36 0 -50 -13 -60 -40zM695 720v-10c-70 -25 -70 -45 -70 -70v-650h-10l-515 633v-543c0 -30 0 -50 110 -70v-10h-190v10c60 20 70 40 70 70
v556l-70 84h260l335 -394v314c0 25 0 45 -100 70v10h180z" />
    <glyph glyph-name="O" unicode="O" horiz-adv-x="770" 
d="M20 360c0 233 137 370 365 370s365 -137 365 -370c0 -234 -137 -370 -365 -370s-365 136 -365 370zM240 360c0 -190 15 -360 145 -360s145 170 145 360s-15 360 -145 360s-145 -170 -145 -360z" />
    <glyph glyph-name="Oacute" unicode="&#xd3;" horiz-adv-x="770" 
d="M347 778l102 122c13 16 29 21 41 21c26 0 50 -19 50 -47c0 -37 -26 -48 -46 -55l-143 -49zM20 360c0 233 137 370 365 370s365 -137 365 -370c0 -234 -137 -370 -365 -370s-365 136 -365 370zM240 360c0 -190 15 -360 145 -360s145 170 145 360s-15 360 -145 360
s-145 -170 -145 -360z" />
    <glyph glyph-name="Ocircumflex" unicode="&#xd4;" horiz-adv-x="770" 
d="M250 770h-10l139 180h12l139 -180h-10l-135 65zM20 360c0 233 137 370 365 370s365 -137 365 -370c0 -234 -137 -370 -365 -370s-365 136 -365 370zM240 360c0 -190 15 -360 145 -360s145 170 145 360s-15 360 -145 360s-145 -170 -145 -360z" />
    <glyph glyph-name="Odieresis" unicode="&#xd6;" horiz-adv-x="770" 
d="M205 842c0 45 36 72 81 72s81 -27 81 -72s-36 -72 -81 -72s-81 27 -81 72zM403 842c0 45 36 72 81 72s81 -27 81 -72s-36 -72 -81 -72s-81 27 -81 72zM20 360c0 233 137 370 365 370s365 -137 365 -370c0 -234 -137 -370 -365 -370s-365 136 -365 370zM240 360
c0 -190 15 -360 145 -360s145 170 145 360s-15 360 -145 360s-145 -170 -145 -360z" />
    <glyph glyph-name="Ograve" unicode="&#xd2;" horiz-adv-x="770" 
d="M403 770l-143 49c-20 7 -46 18 -46 55c0 28 24 47 50 47c12 0 28 -5 41 -21l102 -122zM20 360c0 233 137 370 365 370s365 -137 365 -370c0 -234 -137 -370 -365 -370s-365 136 -365 370zM240 360c0 -190 15 -360 145 -360s145 170 145 360s-15 360 -145 360
s-145 -170 -145 -360z" />
    <glyph glyph-name="Ohungarumlaut" unicode="&#x150;" horiz-adv-x="770" 
d="M269 775l82 144c12 21 28 25 42 25c34 0 50 -24 50 -49c0 -29 -20 -42 -37 -51l-132 -74zM459 775l82 144c11 19 28 25 42 25c34 0 50 -24 50 -49c0 -29 -20 -42 -37 -51l-132 -74zM20 360c0 233 137 370 365 370s365 -137 365 -370c0 -234 -137 -370 -365 -370
s-365 136 -365 370zM240 360c0 -190 15 -360 145 -360s145 170 145 360s-15 360 -145 360s-145 -170 -145 -360z" />
    <glyph glyph-name="Omacron" unicode="&#x14c;" horiz-adv-x="770" 
d="M540 795h-310v20h310v-20zM20 360c0 233 137 370 365 370s365 -137 365 -370c0 -234 -137 -370 -365 -370s-365 136 -365 370zM240 360c0 -190 15 -360 145 -360s145 170 145 360s-15 360 -145 360s-145 -170 -145 -360z" />
    <glyph glyph-name="Oslash" unicode="&#xd8;" horiz-adv-x="770" 
d="M385 730c228 0 365 -137 365 -370c0 -234 -137 -370 -365 -370s-365 136 -365 370c0 233 137 370 365 370zM385 720c-130 0 -145 -170 -145 -360c0 -95 4 -186 24 -252l225 547c-22 41 -55 65 -104 65zM385 0c130 0 145 170 145 360c0 111 -5 215 -35 283l-227 -549
c21 -58 57 -94 117 -94z" />
    <glyph glyph-name="Otilde" unicode="&#xd5;" horiz-adv-x="770" 
d="M209 770h-10c1 83 45 150 110 150s143 -50 200 -50c24 0 41 13 50 40h10c-4 -121 -49 -150 -95 -150c-57 0 -148 50 -205 50c-36 0 -50 -13 -60 -40zM20 360c0 233 137 370 365 370s365 -137 365 -370c0 -234 -137 -370 -365 -370s-365 136 -365 370zM240 360
c0 -190 15 -360 145 -360s145 170 145 360s-15 360 -145 360s-145 -170 -145 -360z" />
    <glyph glyph-name="OE" unicode="&#x152;" horiz-adv-x="1075" 
d="M1045 0h-560c-30 -7 -63 -10 -100 -10c-228 0 -365 136 -365 370c0 233 137 370 365 370c37 0 70 -4 100 -10h560v-170h-10c-150 150 -167 160 -206 160h-84v-335h223v-10h-223v-355h84c39 0 66 10 216 160h10zM385 0c130 0 145 170 145 360s-15 360 -145 360
s-145 -170 -145 -360s15 -360 145 -360z" />
    <glyph glyph-name="P" unicode="P" horiz-adv-x="685" 
d="M30 720h370c150 0 265 -75 265 -221s-115 -229 -265 -229h-80v10h30c80 0 95 113 95 219c0 107 -15 211 -95 211h-60v-630c0 -20 0 -40 80 -70v-10h-340v10c50 30 50 50 50 70v560c0 20 0 40 -50 70v10z" />
    <glyph glyph-name="Thorn" unicode="&#xde;" horiz-adv-x="685" 
d="M290 595h110c150 0 265 -75 265 -221s-115 -229 -265 -229h-80v10h30c80 0 95 113 95 219c0 107 -15 211 -95 211h-60v-505c0 -20 0 -40 50 -70v-10h-310v10c50 30 50 50 50 70v560c0 20 0 40 -50 70v10h310v-10c-50 -30 -50 -50 -50 -70v-45z" />
    <glyph glyph-name="Q" unicode="Q" horiz-adv-x="770" 
d="M750 10v-10c-34 -20 -95 -40 -162 -40c-53 0 -93 14 -124 36c-25 -4 -51 -6 -79 -6c-228 0 -365 136 -365 370c0 233 137 370 365 370s365 -137 365 -370c0 -131 -43 -231 -121 -294c33 -32 69 -56 121 -56zM385 720c-130 0 -145 -170 -145 -360c0 -48 1 -95 5 -139
c30 13 64 20 98 20c81 0 135 -27 178 -63c7 54 9 117 9 182c0 190 -15 360 -145 360zM385 0c22 0 40 5 56 14c-80 71 -104 189 -195 192c12 -119 46 -206 139 -206z" />
    <glyph glyph-name="R" unicode="R" horiz-adv-x="715" 
d="M387 338v-5c159 -7 220 -54 246 -148l29 -105c10 -36 13 -55 43 -70v-10h-244l-81 295c-6 22 -12 34 -40 34h-20v11h20c69 0 105 60 105 191c0 129 -36 179 -105 179h-50v-630c0 -20 0 -40 43 -70v-10h-303v10c50 30 50 50 50 70v560c0 20 0 40 -50 70v10h369
c165 0 266 -73 266 -189c0 -114 -53 -181 -278 -193z" />
    <glyph glyph-name="Racute" unicode="&#x154;" horiz-adv-x="715" 
d="M303 778l102 122c13 16 29 21 41 21c26 0 50 -19 50 -47c0 -37 -26 -48 -46 -55l-143 -49zM387 338v-5c159 -7 220 -54 246 -148l29 -105c10 -36 13 -55 43 -70v-10h-244l-81 295c-6 22 -12 34 -40 34h-20v11h20c69 0 105 60 105 191c0 129 -36 179 -105 179h-50v-630
c0 -20 0 -40 43 -70v-10h-303v10c50 30 50 50 50 70v560c0 20 0 40 -50 70v10h369c165 0 266 -73 266 -189c0 -114 -53 -181 -278 -193z" />
    <glyph glyph-name="Rcaron" unicode="&#x158;" horiz-adv-x="715" 
d="M476 950h10l-139 -180h-12l-139 180h10l135 -65zM387 338v-5c159 -7 220 -54 246 -148l29 -105c10 -36 13 -55 43 -70v-10h-244l-81 295c-6 22 -12 34 -40 34h-20v11h20c69 0 105 60 105 191c0 129 -36 179 -105 179h-50v-630c0 -20 0 -40 43 -70v-10h-303v10
c50 30 50 50 50 70v560c0 20 0 40 -50 70v10h369c165 0 266 -73 266 -189c0 -114 -53 -181 -278 -193z" />
    <glyph glyph-name="Rcommaaccent" unicode="&#x156;" horiz-adv-x="715" 
d="M387 338v-5c159 -7 220 -54 246 -148l29 -105c10 -36 13 -55 43 -70v-10h-244l-81 295c-6 22 -12 34 -40 34h-20v11h20c69 0 105 60 105 191c0 129 -36 179 -105 179h-50v-630c0 -20 0 -40 43 -70v-10h-303v10c50 30 50 50 50 70v560c0 20 0 40 -50 70v10h369
c165 0 266 -73 266 -189c0 -114 -53 -181 -278 -193zM313 -314l85 107c-72 0 -108 34 -108 83c0 51 32 84 77 84c55 0 80 -35 80 -89c0 -84 -93 -169 -124 -185h-10z" />
    <glyph glyph-name="S" unicode="S" horiz-adv-x="585" 
d="M355 95c0 169 -330 221 -330 440c0 135 120 195 282 195c98 0 158 -10 228 -30v-150h-10c-66 88 -119 170 -198 170c-57 0 -92 -35 -92 -90c0 -187 330 -223 330 -428c0 -156 -147 -212 -301 -212c-67 0 -173 9 -244 29v151h10c85 -120 147 -170 225 -170
c48 0 100 30 100 95z" />
    <glyph glyph-name="Sacute" unicode="&#x15a;" horiz-adv-x="585" 
d="M273 778l102 122c13 16 29 21 41 21c26 0 50 -19 50 -47c0 -37 -26 -48 -46 -55l-143 -49zM355 95c0 169 -330 221 -330 440c0 135 120 195 282 195c98 0 158 -10 228 -30v-150h-10c-66 88 -119 170 -198 170c-57 0 -92 -35 -92 -90c0 -187 330 -223 330 -428
c0 -156 -147 -212 -301 -212c-67 0 -173 9 -244 29v151h10c85 -120 147 -170 225 -170c48 0 100 30 100 95z" />
    <glyph glyph-name="Scaron" unicode="&#x160;" horiz-adv-x="585" 
d="M446 950h10l-139 -180h-12l-139 180h10l135 -65zM355 95c0 169 -330 221 -330 440c0 135 120 195 282 195c98 0 158 -10 228 -30v-150h-10c-66 88 -119 170 -198 170c-57 0 -92 -35 -92 -90c0 -187 330 -223 330 -428c0 -156 -147 -212 -301 -212c-67 0 -173 9 -244 29
v151h10c85 -120 147 -170 225 -170c48 0 100 30 100 95z" />
    <glyph glyph-name="Scedilla" unicode="&#x15e;" horiz-adv-x="585" 
d="M565 202c0 -156 -147 -212 -301 -212v-44c69 0 110 -24 110 -74c0 -47 -31 -76 -93 -76c-44 0 -75 20 -90 38v10c15 -6 33 -11 50 -11c26 0 51 15 51 53c0 35 -6 50 -38 50v54c-67 1 -166 10 -234 29v151h10c85 -120 147 -170 225 -170c48 0 100 30 100 95
c0 169 -330 221 -330 440c0 135 120 195 282 195c98 0 158 -10 228 -30v-150h-10c-66 88 -119 170 -198 170c-57 0 -92 -35 -92 -90c0 -187 330 -223 330 -428z" />
    <glyph glyph-name="Scommaaccent" unicode="&#x218;" horiz-adv-x="585" 
d="M355 95c0 169 -330 221 -330 440c0 135 120 195 282 195c98 0 158 -10 228 -30v-150h-10c-66 88 -119 170 -198 170c-57 0 -92 -35 -92 -90c0 -187 330 -223 330 -428c0 -156 -147 -212 -301 -212c-67 0 -173 9 -244 29v151h10c85 -120 147 -170 225 -170
c48 0 100 30 100 95zM205 -318l85 107c-72 0 -108 34 -108 83c0 51 32 84 77 84c55 0 80 -35 80 -89c0 -84 -93 -169 -124 -185h-10z" />
    <glyph glyph-name="T" unicode="T" horiz-adv-x="630" 
d="M615 550h-10c-120 150 -136 160 -175 160h-10v-630c0 -20 0 -40 50 -70v-10h-310v10c50 30 50 50 50 70v630h-10c-39 0 -55 -10 -175 -160h-10v170h600v-170z" />
    <glyph glyph-name="Tbar" unicode="&#x166;" horiz-adv-x="630" 
d="M615 720v-170h-10c-120 150 -137 160 -175 160h-10v-345h100v-10h-100v-275c0 -20 0 -40 50 -70v-10h-310v10c50 30 50 50 50 70v275h-100v10h100v345h-10c-38 0 -55 -10 -175 -160h-10v170h600z" />
    <glyph glyph-name="Tcaron" unicode="&#x164;" horiz-adv-x="630" 
d="M450 950h10l-139 -180h-12l-139 180h10l135 -65zM615 550h-10c-120 150 -136 160 -175 160h-10v-630c0 -20 0 -40 50 -70v-10h-310v10c50 30 50 50 50 70v630h-10c-39 0 -55 -10 -175 -160h-10v170h600v-170z" />
    <glyph glyph-name="Tcedilla" unicode="&#x162;" horiz-adv-x="630" 
d="M615 720v-170h-10c-120 150 -136 160 -175 160h-10v-630c0 -20 0 -40 50 -70v-10h-150v-50c69 0 110 -24 110 -74c0 -47 -31 -76 -93 -76c-44 0 -75 20 -90 38v10c15 -6 33 -11 50 -11c26 0 51 15 51 53c0 35 -6 50 -38 50v60h-150v10c50 30 50 50 50 70v630h-10
c-39 0 -55 -10 -175 -160h-10v170h600z" />
    <glyph glyph-name="uni021A" unicode="&#x21a;" horiz-adv-x="630" 
d="M615 550h-10c-120 150 -136 160 -175 160h-10v-630c0 -20 0 -40 50 -70v-10h-310v10c50 30 50 50 50 70v630h-10c-39 0 -55 -10 -175 -160h-10v170h600v-170zM261 -314l85 107c-72 0 -108 34 -108 83c0 51 32 84 77 84c55 0 80 -35 80 -89c0 -84 -93 -169 -124 -185h-10z
" />
    <glyph glyph-name="U" unicode="U" horiz-adv-x="745" 
d="M665 640v-378c0 -174 -106 -272 -285 -272c-202 0 -310 106 -310 274v376c0 20 0 40 -50 70v10h310v-10c-50 -30 -50 -50 -50 -70v-418c0 -132 73 -192 180 -192c108 0 195 72 195 232v378c0 25 0 45 -100 70v10h180v-10c-70 -25 -70 -45 -70 -70z" />
    <glyph glyph-name="Uacute" unicode="&#xda;" horiz-adv-x="745" 
d="M370 778l102 122c13 16 29 21 41 21c26 0 50 -19 50 -47c0 -37 -26 -48 -46 -55l-143 -49zM665 640v-378c0 -174 -106 -272 -285 -272c-202 0 -310 106 -310 274v376c0 20 0 40 -50 70v10h310v-10c-50 -30 -50 -50 -50 -70v-418c0 -132 73 -192 180 -192
c108 0 195 72 195 232v378c0 25 0 45 -100 70v10h180v-10c-70 -25 -70 -45 -70 -70z" />
    <glyph glyph-name="Ucircumflex" unicode="&#xdb;" horiz-adv-x="745" 
d="M273 770h-10l139 180h12l139 -180h-10l-135 65zM665 640v-378c0 -174 -106 -272 -285 -272c-202 0 -310 106 -310 274v376c0 20 0 40 -50 70v10h310v-10c-50 -30 -50 -50 -50 -70v-418c0 -132 73 -192 180 -192c108 0 195 72 195 232v378c0 25 0 45 -100 70v10h180v-10
c-70 -25 -70 -45 -70 -70z" />
    <glyph glyph-name="Udieresis" unicode="&#xdc;" horiz-adv-x="745" 
d="M228 842c0 45 36 72 81 72s81 -27 81 -72s-36 -72 -81 -72s-81 27 -81 72zM426 842c0 45 36 72 81 72s81 -27 81 -72s-36 -72 -81 -72s-81 27 -81 72zM665 640v-378c0 -174 -106 -272 -285 -272c-202 0 -310 106 -310 274v376c0 20 0 40 -50 70v10h310v-10
c-50 -30 -50 -50 -50 -70v-418c0 -132 73 -192 180 -192c108 0 195 72 195 232v378c0 25 0 45 -100 70v10h180v-10c-70 -25 -70 -45 -70 -70z" />
    <glyph glyph-name="Ugrave" unicode="&#xd9;" horiz-adv-x="745" 
d="M426 770l-143 49c-20 7 -46 18 -46 55c0 28 24 47 50 47c12 0 28 -5 41 -21l102 -122zM665 640v-378c0 -174 -106 -272 -285 -272c-202 0 -310 106 -310 274v376c0 20 0 40 -50 70v10h310v-10c-50 -30 -50 -50 -50 -70v-418c0 -132 73 -192 180 -192
c108 0 195 72 195 232v378c0 25 0 45 -100 70v10h180v-10c-70 -25 -70 -45 -70 -70z" />
    <glyph glyph-name="Uhungarumlaut" unicode="&#x170;" horiz-adv-x="745" 
d="M292 775l82 144c12 21 28 25 42 25c34 0 50 -24 50 -49c0 -29 -20 -42 -37 -51l-132 -74zM482 775l82 144c11 19 28 25 42 25c34 0 50 -24 50 -49c0 -29 -20 -42 -37 -51l-132 -74zM665 640v-378c0 -174 -106 -272 -285 -272c-202 0 -310 106 -310 274v376
c0 20 0 40 -50 70v10h310v-10c-50 -30 -50 -50 -50 -70v-418c0 -132 73 -192 180 -192c108 0 195 72 195 232v378c0 25 0 45 -100 70v10h180v-10c-70 -25 -70 -45 -70 -70z" />
    <glyph glyph-name="Umacron" unicode="&#x16a;" horiz-adv-x="745" 
d="M563 795h-310v20h310v-20zM665 640v-378c0 -174 -106 -272 -285 -272c-202 0 -310 106 -310 274v376c0 20 0 40 -50 70v10h310v-10c-50 -30 -50 -50 -50 -70v-418c0 -132 73 -192 180 -192c108 0 195 72 195 232v378c0 25 0 45 -100 70v10h180v-10
c-70 -25 -70 -45 -70 -70z" />
    <glyph glyph-name="Uogonek" unicode="&#x172;" horiz-adv-x="745" 
d="M735 720v-10c-70 -25 -70 -45 -70 -70v-378c0 -171 -102 -268 -275 -272c-23 -26 -32 -57 -32 -76c0 -29 18 -50 54 -50c17 0 31 6 38 11v-10c-14 -44 -54 -65 -95 -65c-52 0 -93 27 -93 74c0 40 23 71 109 116c-196 3 -301 109 -301 274v376c0 20 0 40 -50 70v10h310
v-10c-50 -30 -50 -50 -50 -70v-418c0 -132 73 -192 180 -192c108 0 195 72 195 232v378c0 25 0 45 -100 70v10h180z" />
    <glyph glyph-name="Uring" unicode="&#x16e;" horiz-adv-x="745" 
d="M306 842c0 51 37 88 102 88c64 0 102 -37 102 -88c0 -52 -38 -87 -102 -87s-102 35 -102 87zM369 842c0 -56 14 -77 39 -77s39 21 39 77c0 57 -14 78 -39 78s-39 -21 -39 -78zM665 640v-378c0 -174 -106 -272 -285 -272c-202 0 -310 106 -310 274v376c0 20 0 40 -50 70
v10h310v-10c-50 -30 -50 -50 -50 -70v-418c0 -132 73 -192 180 -192c108 0 195 72 195 232v378c0 25 0 45 -100 70v10h180v-10c-70 -25 -70 -45 -70 -70z" />
    <glyph glyph-name="V" unicode="V" horiz-adv-x="725" 
d="M725 720v-10c-43 -24 -84 -54 -103 -113l-193 -597h-146l-228 620c-10 27 -27 76 -55 90v10h310v-10c-32 -6 -45 -21 -45 -45c0 -12 4 -29 10 -45l183 -499l160 499c2 7 4 15 4 22c0 38 -38 59 -102 68v10h205z" />
    <glyph glyph-name="W" unicode="W" horiz-adv-x="1110" 
d="M1110 720v-10c-43 -24 -88 -54 -103 -113l-153 -597h-156l-158 488l-121 -488h-156l-208 620c-9 27 -27 76 -55 90v10h310v-10c-32 -6 -44 -21 -44 -45c0 -12 4 -29 9 -45l164 -502l96 387l-70 215h220l189 -601l129 501c2 8 3 14 3 20c0 39 -36 61 -101 70v10h205z" />
    <glyph glyph-name="Wacute" unicode="&#x1e82;" horiz-adv-x="1110" 
d="M538 770l-4 8l102 122c13 16 29 21 41 21c26 0 50 -19 50 -47c0 -37 -26 -48 -46 -55zM1110 720v-10c-43 -24 -88 -54 -103 -113l-153 -597h-156l-158 488l-121 -488h-156l-208 620c-9 27 -27 76 -55 90v10h310v-10c-32 -6 -44 -21 -44 -45c0 -12 4 -29 9 -45l164 -502
l96 387l-70 215h220l189 -601l129 501c2 8 3 14 3 20c0 39 -36 61 -101 70v10h205z" />
    <glyph glyph-name="Wcircumflex" unicode="&#x174;" horiz-adv-x="1110" 
d="M437 770h-10l139 180h12l139 -180h-10l-135 65zM1110 720v-10c-43 -24 -88 -54 -103 -113l-153 -597h-156l-158 488l-121 -488h-156l-208 620c-9 27 -27 76 -55 90v10h310v-10c-32 -6 -44 -21 -44 -45c0 -12 4 -29 9 -45l164 -502l96 387l-70 215h220l189 -601l129 501
c2 8 3 14 3 20c0 39 -36 61 -101 70v10h205z" />
    <glyph glyph-name="Wdieresis" unicode="&#x1e84;" horiz-adv-x="1110" 
d="M473 770c-45 0 -81 27 -81 72s36 72 81 72s81 -27 81 -72s-36 -72 -81 -72zM671 770c-45 0 -81 27 -81 72s36 72 81 72s81 -27 81 -72s-36 -72 -81 -72zM1110 720v-10c-43 -24 -88 -54 -103 -113l-153 -597h-156l-158 488l-121 -488h-156l-208 620c-9 27 -27 76 -55 90
v10h310v-10c-32 -6 -44 -21 -44 -45c0 -12 4 -29 9 -45l164 -502l96 387l-70 215h220l189 -601l129 501c2 8 3 14 3 20c0 39 -36 61 -101 70v10h205z" />
    <glyph glyph-name="Wgrave" unicode="&#x1e80;" horiz-adv-x="1110" 
d="M590 770l-143 49c-20 7 -46 18 -46 55c0 28 24 47 50 47c12 0 28 -5 41 -21l102 -122zM1110 720v-10c-43 -24 -88 -54 -103 -113l-153 -597h-156l-158 488l-121 -488h-156l-208 620c-9 27 -27 76 -55 90v10h310v-10c-32 -6 -44 -21 -44 -45c0 -12 4 -29 9 -45l164 -502
l96 387l-70 215h220l189 -601l129 501c2 8 3 14 3 20c0 39 -36 61 -101 70v10h205z" />
    <glyph glyph-name="X" unicode="X" horiz-adv-x="708" 
d="M428 454l207 -359c12 -22 35 -70 73 -85v-10h-348v10c40 6 52 22 52 40c0 14 -7 29 -14 42l-114 198l-128 -173c-9 -13 -19 -31 -19 -50c0 -26 19 -52 81 -57v-10h-218v10c59 24 100 52 133 96l145 195l-186 322c-14 22 -42 73 -72 87v10h348v-10c-40 -6 -52 -23 -52 -43
c0 -14 9 -33 15 -44l91 -158l107 138c10 12 19 31 19 50c0 26 -19 52 -81 57v10h218v-10c-59 -24 -101 -54 -133 -96z" />
    <glyph glyph-name="Y" unicode="Y" horiz-adv-x="707" 
d="M707 720v-10c-43 -24 -78 -57 -105 -113l-135 -282v-235c0 -20 0 -40 50 -70v-10h-310v10c50 30 50 50 50 70v200l-185 350c-15 28 -42 66 -72 80v10h348v-10c-38 -6 -50 -22 -50 -40c0 -13 8 -30 13 -40l151 -301l140 291c4 8 6 17 6 24c0 35 -44 58 -106 66v10h205z
" />
    <glyph glyph-name="Yacute" unicode="&#xdd;" horiz-adv-x="707" 
d="M367 770l-4 8l102 122c13 16 29 21 41 21c26 0 50 -19 50 -47c0 -37 -26 -48 -46 -55zM707 720v-10c-43 -24 -78 -57 -105 -113l-135 -282v-235c0 -20 0 -40 50 -70v-10h-310v10c50 30 50 50 50 70v200l-185 350c-15 28 -42 66 -72 80v10h348v-10c-38 -6 -50 -22 -50 -40
c0 -13 8 -30 13 -40l151 -301l140 291c4 8 6 17 6 24c0 35 -44 58 -106 66v10h205z" />
    <glyph glyph-name="Ycircumflex" unicode="&#x176;" horiz-adv-x="707" 
d="M266 770h-10l139 180h12l139 -180h-10l-135 65zM707 720v-10c-43 -24 -78 -57 -105 -113l-135 -282v-235c0 -20 0 -40 50 -70v-10h-310v10c50 30 50 50 50 70v200l-185 350c-15 28 -42 66 -72 80v10h348v-10c-38 -6 -50 -22 -50 -40c0 -13 8 -30 13 -40l151 -301l140 291
c4 8 6 17 6 24c0 35 -44 58 -106 66v10h205z" />
    <glyph glyph-name="Ydieresis" unicode="&#x178;" horiz-adv-x="707" 
d="M302 770c-45 0 -81 27 -81 72s36 72 81 72s81 -27 81 -72s-36 -72 -81 -72zM500 770c-45 0 -81 27 -81 72s36 72 81 72s81 -27 81 -72s-36 -72 -81 -72zM707 720v-10c-43 -24 -78 -57 -105 -113l-135 -282v-235c0 -20 0 -40 50 -70v-10h-310v10c50 30 50 50 50 70v200
l-185 350c-15 28 -42 66 -72 80v10h348v-10c-38 -6 -50 -22 -50 -40c0 -13 8 -30 13 -40l151 -301l140 291c4 8 6 17 6 24c0 35 -44 58 -106 66v10h205z" />
    <glyph glyph-name="Ygrave" unicode="&#x1ef2;" horiz-adv-x="707" 
d="M419 770l-143 49c-20 7 -46 18 -46 55c0 28 24 47 50 47c12 0 28 -5 41 -21l102 -122zM707 720v-10c-43 -24 -78 -57 -105 -113l-135 -282v-235c0 -20 0 -40 50 -70v-10h-310v10c50 30 50 50 50 70v200l-185 350c-15 28 -42 66 -72 80v10h348v-10c-38 -6 -50 -22 -50 -40
c0 -13 8 -30 13 -40l151 -301l140 291c4 8 6 17 6 24c0 35 -44 58 -106 66v10h205z" />
    <glyph glyph-name="Z" unicode="Z" horiz-adv-x="610" 
d="M590 0h-580v10l340 700h-130c-39 0 -55 -10 -175 -160h-10v170h555v-10l-325 -700h109c39 0 66 10 216 160h10z" />
    <glyph glyph-name="Zacute" unicode="&#x179;" horiz-adv-x="610" 
d="M279 778l102 122c13 16 29 21 41 21c26 0 50 -19 50 -47c0 -37 -26 -48 -46 -55l-143 -49zM590 0h-580v10l340 700h-130c-39 0 -55 -10 -175 -160h-10v170h555v-10l-325 -700h109c39 0 66 10 216 160h10z" />
    <glyph glyph-name="Zcaron" unicode="&#x17d;" horiz-adv-x="610" 
d="M452 950h10l-139 -180h-12l-139 180h10l135 -65zM590 0h-580v10l340 700h-130c-39 0 -55 -10 -175 -160h-10v170h555v-10l-325 -700h109c39 0 66 10 216 160h10z" />
    <glyph glyph-name="Zdotaccent" unicode="&#x17b;" horiz-adv-x="610" 
d="M222 865c0 53 41 85 95 85c53 0 95 -32 95 -85c0 -54 -42 -85 -95 -85c-54 0 -95 31 -95 85zM590 0h-580v10l340 700h-130c-39 0 -55 -10 -175 -160h-10v170h555v-10l-325 -700h109c39 0 66 10 216 160h10z" />
    <glyph glyph-name="A.ss01" horiz-adv-x="700" 
d="M429 0h-158v300h-221l300 430l300 -430h-221v-300zM612 320l-262 375l-262 -375h203v-300h118v300h203z" />
    <glyph glyph-name="B.ss01" horiz-adv-x="700" 
d="M350 -10l-300 430h221v300h158v-300h221zM409 400v300h-118v-300h-203l262 -375l262 375h-203z" />
    <glyph glyph-name="C.ss01" horiz-adv-x="830" 
d="M480 286v-221l-430 300l430 300v-221h300v-158h-300zM760 424h-300v203l-375 -262l375 -262v203h300v118z" />
    <glyph glyph-name="D.ss01" horiz-adv-x="830" 
d="M50 286v158h300v221l430 -300l-430 -300v221h-300zM745 365l-375 262v-203h-300v-118h300v-203z" />
    <glyph glyph-name="E.ss01" horiz-adv-x="700" 
d="M429 0h-158v380l-54 -80h-167l300 430l300 -430h-167l-54 80v-380zM612 320l-262 375l-262 -375h118l85 125v-425h118v425l85 -125h118z" />
    <glyph glyph-name="F.ss01" horiz-adv-x="700" 
d="M350 -10l-300 430h167l54 -80v380h158v-380l54 80h167zM494 400l-85 -125v425h-118v-425l-85 125h-118l262 -375l262 375h-118z" />
    <glyph glyph-name="G.ss01" horiz-adv-x="830" 
d="M400 286l80 -54v-167l-430 300l430 300v-167l-80 -54h380v-158h-380zM760 424h-425l125 85v118l-375 -262l375 -262v118l-125 85h425v118z" />
    <glyph glyph-name="H.ss01" horiz-adv-x="830" 
d="M430 286h-380v158h380l-80 54v167l430 -300l-430 -300v167zM370 103l375 262l-375 262v-118l125 -85h-425v-118h425l-125 -85v-118z" />
    <glyph glyph-name="I.ss01" horiz-adv-x="840" 
d="M420 -10c-205 0 -370 166 -370 370s165 370 370 370c204 0 370 -166 370 -370s-166 -370 -370 -370zM420 10c194 0 350 156 350 350s-156 350 -350 350c-195 0 -350 -156 -350 -350s155 -350 350 -350zM349 457l-161 -22l117 -112l-28 -159l143 76l143 -77l-29 160
l118 113l-162 21l-69 147zM477 439l131 -17l-96 -92l24 -129l-116 62l-116 -62l23 129l-95 91l130 18l58 119z" />
    <glyph glyph-name="J.ss01" horiz-adv-x="840" 
d="M420 -10c-205 0 -370 166 -370 370s165 370 370 370c204 0 370 -166 370 -370s-166 -370 -370 -370zM420 10c194 0 350 156 350 350s-156 350 -350 350c-195 0 -350 -156 -350 -350s155 -350 350 -350zM349 457l-161 -22l117 -112l-28 -159l143 76l143 -77l-29 160
l118 113l-162 21l-69 147z" />
    <glyph glyph-name="K.ss01" horiz-adv-x="826" 
d="M770 169v-169h-719v720h168v-417l433 427l124 -139l-422 -422h416zM748 592l-97 109l-452 -446v445h-128v-680h679v129h-444z" />
    <glyph glyph-name="L.ss01" horiz-adv-x="826" 
d="M472 169l-422 422l124 139l432 -427v417h170v-720h-720v169h416zM76 20h680v680h-130v-445l-451 446l-97 -109l442 -443h-444v-129z" />
    <glyph glyph-name="M.ss01" horiz-adv-x="826" 
d="M220 417v-417h-170v720h720v-169h-416l422 -422l-124 -139zM748 128l-442 443h444v129h-680v-680h130v445l451 -446z" />
    <glyph glyph-name="N.ss01" horiz-adv-x="826" 
d="M607 0v417l-433 -427l-124 139l422 422h-416v169h719v-720h-168zM76 700v-129h444l-442 -443l97 -109l452 446v-445h128v680h-679z" />
    <glyph glyph-name="O.ss01" horiz-adv-x="840" 
d="M420 -10c-205 0 -370 166 -370 370s165 370 370 370c204 0 370 -166 370 -370s-166 -370 -370 -370zM420 10c194 0 350 156 350 350s-156 350 -350 350c-195 0 -350 -156 -350 -350s155 -350 350 -350zM420 262c55 0 98 43 98 98s-43 98 -98 98s-98 -43 -98 -98
s43 -98 98 -98z" />
    <glyph glyph-name="P.ss01" horiz-adv-x="840" 
d="M420 -10c-205 0 -370 166 -370 370s165 370 370 370c204 0 370 -166 370 -370s-166 -370 -370 -370zM420 10c194 0 350 156 350 350s-156 350 -350 350c-195 0 -350 -156 -350 -350s155 -350 350 -350z" />
    <glyph glyph-name="Q.ss01" horiz-adv-x="816" 
d="M770 720v-720h-720v720h720zM70 20h680v680h-680v-680z" />
    <glyph glyph-name="R.ss01" horiz-adv-x="840" 
d="M420 730l370 -730h-740zM757 20l-337 666l-337 -666h674z" />
    <glyph glyph-name="S.ss01" horiz-adv-x="840" 
d="M790 720l-370 -730l-370 730h740zM420 34l337 666h-674z" />
    <glyph glyph-name="T.ss01" horiz-adv-x="840" 
d="M420 -10l-370 370l370 370l370 -370zM420 702l-342 -342l342 -342l342 342z" />
    <glyph glyph-name="U.ss01" horiz-adv-x="950" 
d="M80 0l195 330c-141 0 -225 83 -225 200c0 110 90 200 200 200c111 0 200 -92 200 -232c0 -109 -91 -286 -274 -498h-96zM530 0l195 330c-141 0 -225 83 -225 200c0 110 90 200 200 200c111 0 200 -92 200 -232c0 -109 -91 -286 -274 -498h-96zM115 20h52
c177 207 263 375 263 478c0 130 -80 212 -180 212s-180 -80 -180 -180c0 -116 88 -193 241 -178zM565 20h52c177 207 263 375 263 478c0 130 -80 212 -180 212s-180 -80 -180 -180c0 -116 88 -193 241 -178z" />
    <glyph glyph-name="V.ss01" horiz-adv-x="950" 
d="M420 720l-195 -330c141 0 225 -83 225 -200c0 -110 -90 -200 -200 -200c-111 0 -200 92 -200 232c0 109 91 286 274 498h96zM870 720l-195 -330c141 0 225 -83 225 -200c0 -110 -90 -200 -200 -200c-111 0 -200 92 -200 232c0 109 91 286 274 498h96zM385 700h-52
c-177 -207 -263 -375 -263 -478c0 -130 80 -212 180 -212s180 80 180 180c0 116 -88 193 -241 178zM835 700h-52c-177 -207 -263 -375 -263 -478c0 -130 80 -212 180 -212s180 80 180 180c0 116 -88 193 -241 178z" />
    <glyph glyph-name="W.ss01" horiz-adv-x="689" 
d="M249 720l100 -360l-100 -360h-199l100 360l-100 360h199zM539 720l100 -360l-100 -360h-200l100 360l-100 360h200zM171 360l-95 -340h158l94 340l-94 340h-158zM460 360l-95 -340h159l94 340l-94 340h-159z" />
    <glyph glyph-name="X.ss01" horiz-adv-x="689" 
d="M249 360l100 -360h-199l-100 360l100 360h199zM539 360l100 -360h-200l-100 360l100 360h200zM165 700l-94 -340l94 -340h158l-95 340l95 340h-158zM454 700l-94 -340l94 -340h159l-95 340l95 340h-159z" />
    <glyph glyph-name="Y.ss01" horiz-adv-x="840" 
d="M420 730c204 0 370 -166 370 -370s-166 -370 -370 -370c-205 0 -370 166 -370 370s165 370 370 370zM420 710c-195 0 -350 -156 -350 -350s155 -350 350 -350c194 0 350 156 350 350s-156 350 -350 350zM220 370v-20h400v20h-400z" />
    <glyph glyph-name="Z.ss01" horiz-adv-x="840" 
d="M420 730c204 0 370 -166 370 -370s-166 -370 -370 -370c-205 0 -370 166 -370 370s165 370 370 370zM420 10c194 0 350 156 350 350s-156 350 -350 350c-195 0 -350 -156 -350 -350s155 -350 350 -350zM620 370v-20h-190v-190h-20v190h-190v20h190v190h20v-190h190z" />
    <glyph glyph-name="a" unicode="a" horiz-adv-x="575" 
d="M515 300v-220c0 -20 0 -40 50 -70v-10h-245l-5 84h-2l-59 -70c-16 -11 -50 -24 -99 -24c-76 0 -140 40 -140 120c0 59 18 119 137 145l163 35v20c0 38 -11 60 -80 60c-57 0 -112 -12 -185 -40l-5 5l20 135c44 17 120 40 210 40c200 0 246 -71 240 -210zM315 280l-45 -21
c-39 -18 -55 -48 -55 -99c0 -49 20 -80 57 -80c20 0 31 7 43 14v186z" />
    <glyph glyph-name="aacute" unicode="&#xe1;" horiz-adv-x="575" 
d="M255 558l102 122c13 16 29 21 41 21c26 0 50 -19 50 -47c0 -37 -26 -48 -46 -55l-143 -49zM515 300v-220c0 -20 0 -40 50 -70v-10h-245l-5 84h-2l-59 -70c-16 -11 -50 -24 -99 -24c-76 0 -140 40 -140 120c0 59 18 119 137 145l163 35v20c0 38 -11 60 -80 60
c-57 0 -112 -12 -185 -40l-5 5l20 135c44 17 120 40 210 40c200 0 246 -71 240 -210zM315 280l-45 -21c-39 -18 -55 -48 -55 -99c0 -49 20 -80 57 -80c20 0 31 7 43 14v186z" />
    <glyph glyph-name="abreve" unicode="&#x103;" horiz-adv-x="575" 
d="M293 550c-90 0 -120 87 -120 160h10c5 -30 35 -70 110 -70s105 40 110 70h10c0 -73 -30 -160 -120 -160zM515 300v-220c0 -20 0 -40 50 -70v-10h-245l-5 84h-2l-59 -70c-16 -11 -50 -24 -99 -24c-76 0 -140 40 -140 120c0 59 18 119 137 145l163 35v20
c0 38 -11 60 -80 60c-57 0 -112 -12 -185 -40l-5 5l20 135c44 17 120 40 210 40c200 0 246 -71 240 -210zM315 280l-45 -21c-39 -18 -55 -48 -55 -99c0 -49 20 -80 57 -80c20 0 31 7 43 14v186z" />
    <glyph glyph-name="acircumflex" unicode="&#xe2;" horiz-adv-x="575" 
d="M158 550h-10l139 180h12l139 -180h-10l-135 65zM515 300v-220c0 -20 0 -40 50 -70v-10h-245l-5 84h-2l-59 -70c-16 -11 -50 -24 -99 -24c-76 0 -140 40 -140 120c0 59 18 119 137 145l163 35v20c0 38 -11 60 -80 60c-57 0 -112 -12 -185 -40l-5 5l20 135
c44 17 120 40 210 40c200 0 246 -71 240 -210zM315 280l-45 -21c-39 -18 -55 -48 -55 -99c0 -49 20 -80 57 -80c20 0 31 7 43 14v186z" />
    <glyph glyph-name="adieresis" unicode="&#xe4;" horiz-adv-x="575" 
d="M113 622c0 45 36 72 81 72s81 -27 81 -72s-36 -72 -81 -72s-81 27 -81 72zM311 622c0 45 36 72 81 72s81 -27 81 -72s-36 -72 -81 -72s-81 27 -81 72zM515 300v-220c0 -20 0 -40 50 -70v-10h-245l-5 84h-2l-59 -70c-16 -11 -50 -24 -99 -24c-76 0 -140 40 -140 120
c0 59 18 119 137 145l163 35v20c0 38 -11 60 -80 60c-57 0 -112 -12 -185 -40l-5 5l20 135c44 17 120 40 210 40c200 0 246 -71 240 -210zM315 280l-45 -21c-39 -18 -55 -48 -55 -99c0 -49 20 -80 57 -80c20 0 31 7 43 14v186z" />
    <glyph glyph-name="agrave" unicode="&#xe0;" horiz-adv-x="575" 
d="M311 550l-143 49c-20 7 -46 18 -46 55c0 28 24 47 50 47c12 0 28 -5 41 -21l102 -122zM515 300v-220c0 -20 0 -40 50 -70v-10h-245l-5 84h-2l-59 -70c-16 -11 -50 -24 -99 -24c-76 0 -140 40 -140 120c0 59 18 119 137 145l163 35v20c0 38 -11 60 -80 60
c-57 0 -112 -12 -185 -40l-5 5l20 135c44 17 120 40 210 40c200 0 246 -71 240 -210zM315 280l-45 -21c-39 -18 -55 -48 -55 -99c0 -49 20 -80 57 -80c20 0 31 7 43 14v186z" />
    <glyph glyph-name="amacron" unicode="&#x101;" horiz-adv-x="575" 
d="M448 575h-310v20h310v-20zM515 300v-220c0 -20 0 -40 50 -70v-10h-245l-5 84h-2l-59 -70c-16 -11 -50 -24 -99 -24c-76 0 -140 40 -140 120c0 59 18 119 137 145l163 35v20c0 38 -11 60 -80 60c-57 0 -112 -12 -185 -40l-5 5l20 135c44 17 120 40 210 40
c200 0 246 -71 240 -210zM315 280l-45 -21c-39 -18 -55 -48 -55 -99c0 -49 20 -80 57 -80c20 0 31 7 43 14v186z" />
    <glyph glyph-name="aogonek" unicode="&#x105;" horiz-adv-x="575" 
d="M565 0h-87c-31 -28 -42 -65 -42 -86c0 -29 18 -50 54 -50c17 0 31 6 38 11v-10c-14 -44 -54 -65 -95 -65c-52 0 -93 27 -93 74c0 43 27 76 128 126h-148l-5 84h-2l-59 -70c-16 -11 -50 -24 -99 -24c-76 0 -140 40 -140 120c0 59 18 119 137 145l163 35v20
c0 38 -11 60 -80 60c-57 0 -112 -12 -185 -40l-5 5l20 135c44 17 120 40 210 40c200 0 246 -71 240 -210v-220c0 -20 0 -40 50 -70v-10zM315 280l-45 -21c-39 -18 -55 -48 -55 -99c0 -49 20 -80 57 -80c20 0 31 7 43 14v186z" />
    <glyph glyph-name="aring" unicode="&#xe5;" horiz-adv-x="575" 
d="M191 622c0 51 37 88 102 88c64 0 102 -37 102 -88c0 -52 -38 -87 -102 -87s-102 35 -102 87zM254 622c0 -56 14 -77 39 -77s39 21 39 77c0 57 -14 78 -39 78s-39 -21 -39 -78zM515 300v-220c0 -20 0 -40 50 -70v-10h-245l-5 84h-2l-59 -70c-16 -11 -50 -24 -99 -24
c-76 0 -140 40 -140 120c0 59 18 119 137 145l163 35v20c0 38 -11 60 -80 60c-57 0 -112 -12 -185 -40l-5 5l20 135c44 17 120 40 210 40c200 0 246 -71 240 -210zM315 280l-45 -21c-39 -18 -55 -48 -55 -99c0 -49 20 -80 57 -80c20 0 31 7 43 14v186z" />
    <glyph glyph-name="atilde" unicode="&#xe3;" horiz-adv-x="575" 
d="M117 550h-10c1 83 45 150 110 150s143 -50 200 -50c24 0 41 13 50 40h10c-4 -121 -49 -150 -95 -150c-57 0 -148 50 -205 50c-36 0 -50 -13 -60 -40zM515 300v-220c0 -20 0 -40 50 -70v-10h-245l-5 84h-2l-59 -70c-16 -11 -50 -24 -99 -24c-76 0 -140 40 -140 120
c0 59 18 119 137 145l163 35v20c0 38 -11 60 -80 60c-57 0 -112 -12 -185 -40l-5 5l20 135c44 17 120 40 210 40c200 0 246 -71 240 -210zM315 280l-45 -21c-39 -18 -55 -48 -55 -99c0 -49 20 -80 57 -80c20 0 31 7 43 14v186z" />
    <glyph glyph-name="ae" unicode="&#xe6;" horiz-adv-x="835" 
d="M45 335l20 135c44 17 120 40 210 40c87 0 137 -13 166 -40c42 25 96 40 163 40c89 0 216 -41 216 -190c0 -19 -2 -41 -6 -63h-292c9 -83 56 -152 153 -152c54 0 93 20 125 40v-10c-20 -80 -100 -145 -210 -145c-121 0 -204 46 -245 125l-91 -101c-16 -11 -50 -24 -99 -24
c-76 0 -140 40 -140 120c0 59 18 119 137 145l163 35v20c0 38 -11 60 -80 60c-57 0 -112 -12 -185 -40zM521 266l116 9c8 32 13 71 13 117c0 71 -12 108 -55 108c-50 0 -75 -70 -75 -210c0 -8 0 -16 1 -24zM315 280l-45 -21c-39 -18 -55 -48 -55 -99c0 -49 20 -80 57 -80
c18 0 42 6 68 44c-16 36 -25 78 -25 126v30z" />
    <glyph glyph-name="b" unicode="b" horiz-adv-x="610" 
d="M257 410l88 85c14 7 35 15 71 15c119 0 179 -90 179 -250c0 -180 -76 -270 -210 -270c-56 0 -97 16 -130 35l-190 -35h-10v620c0 30 0 70 -50 100v10h250v-310h2zM255 399v-363c17 -6 27 -11 52 -11c50 0 83 56 83 205c0 142 -25 192 -75 192c-23 0 -40 -8 -60 -23z" />
    <glyph glyph-name="c" unicode="c" horiz-adv-x="495" 
d="M436 336l-6 -2c-25 91 -60 166 -110 166s-100 -60 -100 -200c0 -97 40 -195 150 -195c34 0 83 10 115 30v-10c-20 -85 -100 -135 -210 -135c-159 0 -260 101 -260 260c0 120 92 260 304 260c61 0 108 -6 161 -30z" />
    <glyph glyph-name="cacute" unicode="&#x107;" horiz-adv-x="495" 
d="M262 558l102 122c13 16 29 21 41 21c26 0 50 -19 50 -47c0 -37 -26 -48 -46 -55l-143 -49zM436 336l-6 -2c-25 91 -60 166 -110 166s-100 -60 -100 -200c0 -97 40 -195 150 -195c34 0 83 10 115 30v-10c-20 -85 -100 -135 -210 -135c-159 0 -260 101 -260 260
c0 120 92 260 304 260c61 0 108 -6 161 -30z" />
    <glyph glyph-name="ccaron" unicode="&#x10d;" horiz-adv-x="495" 
d="M435 730h10l-139 -180h-12l-139 180h10l135 -65zM436 336l-6 -2c-25 91 -60 166 -110 166s-100 -60 -100 -200c0 -97 40 -195 150 -195c34 0 83 10 115 30v-10c-20 -85 -100 -135 -210 -135c-159 0 -260 101 -260 260c0 120 92 260 304 260c61 0 108 -6 161 -30z" />
    <glyph glyph-name="ccedilla" unicode="&#xe7;" horiz-adv-x="495" 
d="M370 105c34 0 83 10 115 30v-10c-20 -84 -98 -133 -205 -135v-40c69 0 110 -24 110 -74c0 -47 -31 -76 -93 -76c-44 0 -75 20 -90 38v10c15 -6 33 -11 50 -11c26 0 51 15 51 53c0 35 -6 50 -38 50v50c-156 2 -255 103 -255 260c0 120 92 260 304 260c61 0 108 -6 161 -30
l-44 -144l-6 -2c-25 91 -60 166 -110 166s-100 -60 -100 -200c0 -97 40 -195 150 -195z" />
    <glyph glyph-name="cdotaccent" unicode="&#x10b;" horiz-adv-x="495" 
d="M205 645c0 53 41 85 95 85c53 0 95 -32 95 -85c0 -54 -42 -85 -95 -85c-54 0 -95 31 -95 85zM436 336l-6 -2c-25 91 -60 166 -110 166s-100 -60 -100 -200c0 -97 40 -195 150 -195c34 0 83 10 115 30v-10c-20 -85 -100 -135 -210 -135c-159 0 -260 101 -260 260
c0 120 92 260 304 260c61 0 108 -6 161 -30z" />
    <glyph glyph-name="d" unicode="d" horiz-adv-x="615" 
d="M355 101v509c0 30 0 70 -50 100v10h250v-610c0 -30 0 -70 50 -100v-10h-245l-5 90h-2l-88 -85c-14 -7 -35 -15 -71 -15c-119 0 -179 90 -179 250c0 180 76 270 210 270c45 0 81 -10 110 -25v-14c-8 2 -18 4 -32 4c-50 0 -83 -56 -83 -205c0 -142 25 -192 75 -192
c23 0 40 8 60 23z" />
    <glyph glyph-name="eth" unicode="&#xf0;" horiz-adv-x="590" 
d="M389 713l-81 -44c177 -82 267 -248 267 -409c0 -159 -103 -270 -278 -270c-179 0 -282 98 -282 260s106 260 267 260c15 0 30 -2 46 -8l2 2c-13 22 -45 74 -100 122l-113 -62l-5 8l111 60c-38 34 -89 65 -144 88h12c79 -4 148 -21 207 -47l87 47zM297 0
c61 0 73 80 73 250c0 145 -10 194 -33 237c-15 7 -27 9 -37 9c-63 0 -80 -78 -80 -246s15 -250 77 -250z" />
    <glyph glyph-name="dcaron" unicode="&#x10f;" horiz-adv-x="615" 
d="M609 455l85 105c-70 0 -110 35 -110 85s35 85 80 85c55 0 80 -35 80 -90c0 -85 -95 -170 -125 -185h-10zM355 101v509c0 30 0 70 -50 100v10h250v-610c0 -30 0 -70 50 -100v-10h-245l-5 90h-2l-88 -85c-14 -7 -35 -15 -71 -15c-119 0 -179 90 -179 250
c0 180 76 270 210 270c45 0 81 -10 110 -25v-14c-8 2 -18 4 -32 4c-50 0 -83 -56 -83 -205c0 -142 25 -192 75 -192c23 0 40 8 60 23z" />
    <glyph glyph-name="dcroat" unicode="&#x111;" horiz-adv-x="615" 
d="M555 550v-440c0 -30 0 -70 50 -100v-10h-245l-5 90h-2l-88 -85c-14 -7 -35 -15 -71 -15c-119 0 -179 90 -179 250c0 180 76 270 210 270c45 0 81 -10 110 -25v-14c-8 2 -18 4 -32 4c-50 0 -83 -56 -83 -205c0 -142 25 -192 75 -192c23 0 40 8 60 23v449h-85v10h85v50
c0 30 0 70 -50 100v10h250v-160h50v-10h-50z" />
    <glyph glyph-name="e" unicode="e" horiz-adv-x="535" 
d="M520 320c0 -19 -2 -41 -6 -65l-292 2c9 -83 56 -152 153 -152c54 0 93 20 125 40v-10c-20 -80 -100 -145 -210 -145c-179 0 -275 101 -275 260c0 120 87 260 289 260c89 0 216 -41 216 -190zM221 266l116 9c8 32 13 71 13 117c0 71 -12 108 -55 108
c-50 0 -75 -70 -75 -210c0 -8 0 -16 1 -24z" />
    <glyph glyph-name="eacute" unicode="&#xe9;" horiz-adv-x="535" 
d="M261 550l-4 8l102 122c13 16 29 21 41 21c26 0 50 -19 50 -47c0 -37 -26 -48 -46 -55zM520 320c0 -19 -2 -41 -6 -65l-292 2c9 -83 56 -152 153 -152c54 0 93 20 125 40v-10c-20 -80 -100 -145 -210 -145c-179 0 -275 101 -275 260c0 120 87 260 289 260
c89 0 216 -41 216 -190zM221 266l116 9c8 32 13 71 13 117c0 71 -12 108 -55 108c-50 0 -75 -70 -75 -210c0 -8 0 -16 1 -24z" />
    <glyph glyph-name="ecaron" unicode="&#x11b;" horiz-adv-x="535" 
d="M289 550l-139 180h10l135 -65l135 65h10l-139 -180h-12zM520 320c0 -19 -2 -41 -6 -65l-292 2c9 -83 56 -152 153 -152c54 0 93 20 125 40v-10c-20 -80 -100 -145 -210 -145c-179 0 -275 101 -275 260c0 120 87 260 289 260c89 0 216 -41 216 -190zM221 266l116 9
c8 32 13 71 13 117c0 71 -12 108 -55 108c-50 0 -75 -70 -75 -210c0 -8 0 -16 1 -24z" />
    <glyph glyph-name="ecircumflex" unicode="&#xea;" horiz-adv-x="535" 
d="M160 550h-10l139 180h12l139 -180h-10l-135 65zM520 320c0 -19 -2 -41 -6 -65l-292 2c9 -83 56 -152 153 -152c54 0 93 20 125 40v-10c-20 -80 -100 -145 -210 -145c-179 0 -275 101 -275 260c0 120 87 260 289 260c89 0 216 -41 216 -190zM221 266l116 9
c8 32 13 71 13 117c0 71 -12 108 -55 108c-50 0 -75 -70 -75 -210c0 -8 0 -16 1 -24z" />
    <glyph glyph-name="edieresis" unicode="&#xeb;" horiz-adv-x="535" 
d="M196 550c-45 0 -81 27 -81 72s36 72 81 72s81 -27 81 -72s-36 -72 -81 -72zM394 550c-45 0 -81 27 -81 72s36 72 81 72s81 -27 81 -72s-36 -72 -81 -72zM520 320c0 -19 -2 -41 -6 -65l-292 2c9 -83 56 -152 153 -152c54 0 93 20 125 40v-10c-20 -80 -100 -145 -210 -145
c-179 0 -275 101 -275 260c0 120 87 260 289 260c89 0 216 -41 216 -190zM221 266l116 9c8 32 13 71 13 117c0 71 -12 108 -55 108c-50 0 -75 -70 -75 -210c0 -8 0 -16 1 -24z" />
    <glyph glyph-name="edotaccent" unicode="&#x117;" horiz-adv-x="535" 
d="M295 560c-54 0 -95 31 -95 85c0 53 41 85 95 85c53 0 95 -32 95 -85c0 -54 -42 -85 -95 -85zM520 320c0 -19 -2 -41 -6 -65l-292 2c9 -83 56 -152 153 -152c54 0 93 20 125 40v-10c-20 -80 -100 -145 -210 -145c-179 0 -275 101 -275 260c0 120 87 260 289 260
c89 0 216 -41 216 -190zM221 266l116 9c8 32 13 71 13 117c0 71 -12 108 -55 108c-50 0 -75 -70 -75 -210c0 -8 0 -16 1 -24z" />
    <glyph glyph-name="egrave" unicode="&#xe8;" horiz-adv-x="535" 
d="M313 550l-143 49c-20 7 -46 18 -46 55c0 28 24 47 50 47c12 0 28 -5 41 -21l102 -122zM520 320c0 -19 -2 -41 -6 -65l-292 2c9 -83 56 -152 153 -152c54 0 93 20 125 40v-10c-20 -80 -100 -145 -210 -145c-179 0 -275 101 -275 260c0 120 87 260 289 260
c89 0 216 -41 216 -190zM221 266l116 9c8 32 13 71 13 117c0 71 -12 108 -55 108c-50 0 -75 -70 -75 -210c0 -8 0 -16 1 -24z" />
    <glyph glyph-name="emacron" unicode="&#x113;" horiz-adv-x="535" 
d="M450 575h-310v20h310v-20zM520 320c0 -19 -2 -41 -6 -65l-292 2c9 -83 56 -152 153 -152c54 0 93 20 125 40v-10c-20 -80 -100 -145 -210 -145c-179 0 -275 101 -275 260c0 120 87 260 289 260c89 0 216 -41 216 -190zM221 266l116 9c8 32 13 71 13 117
c0 71 -12 108 -55 108c-50 0 -75 -70 -75 -210c0 -8 0 -16 1 -24z" />
    <glyph glyph-name="eogonek" unicode="&#x119;" horiz-adv-x="535" 
d="M520 320c0 -19 -2 -41 -6 -65l-292 2c9 -83 56 -152 153 -152c54 0 93 20 125 40v-10c-12 -46 -43 -88 -89 -114c-30 -28 -40 -64 -40 -84c0 -29 18 -50 54 -50c17 0 31 6 38 11v-10c-14 -44 -54 -65 -95 -65c-52 0 -93 27 -93 74c0 36 19 64 83 102
c-21 -6 -44 -9 -68 -9c-179 0 -275 101 -275 260c0 120 87 260 289 260c89 0 216 -41 216 -190zM221 266l116 9c8 32 13 71 13 117c0 71 -12 108 -55 108c-50 0 -75 -70 -75 -210c0 -8 0 -16 1 -24z" />
    <glyph glyph-name="f" unicode="f" horiz-adv-x="375" 
d="M13 500l47 10c5 108 90 220 320 220v-174l-6 -2c-36 82 -73 153 -113 153c-25 0 -41 -15 -41 -62c0 -42 24 -106 40 -145h110v-10h-110v-410c0 -20 0 -40 70 -70v-10h-320v10c50 30 50 50 50 70v410h-47v10z" />
    <glyph glyph-name="g" unicode="g" horiz-adv-x="560" 
d="M139 130l281 -42c110 -16 160 -63 160 -143c0 -77 -48 -175 -309 -175c-200 0 -266 40 -266 102c0 41 50 63 112 63l9 -3l-31 -52c0 -64 53 -100 169 -100c99 0 161 17 161 77c0 46 -47 48 -76 53l-184 30c-63 10 -104 37 -104 99c0 52 39 99 99 127
c-81 25 -130 81 -130 164c0 107 97 180 245 180c36 0 69 -4 99 -11l166 61v-70h-138c74 -27 118 -81 118 -160c0 -117 -98 -180 -245 -180c-39 0 -75 4 -106 13zM275 500c-58 0 -65 -62 -65 -160c0 -108 7 -180 65 -180s65 72 65 160c0 118 -8 180 -65 180z" />
    <glyph glyph-name="gbreve" unicode="&#x11f;" horiz-adv-x="560" 
d="M280 550c-90 0 -120 87 -120 160h10c5 -30 35 -70 110 -70s105 40 110 70h10c0 -73 -30 -160 -120 -160zM139 130l281 -42c110 -16 160 -63 160 -143c0 -77 -48 -175 -309 -175c-200 0 -266 40 -266 102c0 41 50 63 112 63l9 -3l-31 -52c0 -64 53 -100 169 -100
c99 0 161 17 161 77c0 46 -47 48 -76 53l-184 30c-63 10 -104 37 -104 99c0 52 39 99 99 127c-81 25 -130 81 -130 164c0 107 97 180 245 180c36 0 69 -4 99 -11l166 61v-70h-138c74 -27 118 -81 118 -160c0 -117 -98 -180 -245 -180c-39 0 -75 4 -106 13zM275 500
c-58 0 -65 -62 -65 -160c0 -108 7 -180 65 -180s65 72 65 160c0 118 -8 180 -65 180z" />
    <glyph glyph-name="gcommaaccent" unicode="&#x123;" horiz-adv-x="560" 
d="M280 540c-55 0 -80 35 -80 89c0 84 93 169 124 185h10l-85 -107c72 0 108 -34 108 -83c0 -51 -32 -84 -77 -84zM139 130l281 -42c110 -16 160 -63 160 -143c0 -77 -48 -175 -309 -175c-200 0 -266 40 -266 102c0 41 50 63 112 63l9 -3l-31 -52c0 -64 53 -100 169 -100
c99 0 161 17 161 77c0 46 -47 48 -76 53l-184 30c-63 10 -104 37 -104 99c0 52 39 99 99 127c-81 25 -130 81 -130 164c0 107 97 180 245 180c36 0 69 -4 99 -11l166 61v-70h-138c74 -27 118 -81 118 -160c0 -117 -98 -180 -245 -180c-39 0 -75 4 -106 13zM275 500
c-58 0 -65 -62 -65 -160c0 -108 7 -180 65 -180s65 72 65 160c0 118 -8 180 -65 180z" />
    <glyph glyph-name="gdotaccent" unicode="&#x121;" horiz-adv-x="560" 
d="M280 560c-54 0 -95 31 -95 85c0 53 41 85 95 85c53 0 95 -32 95 -85c0 -54 -42 -85 -95 -85zM139 130l281 -42c110 -16 160 -63 160 -143c0 -77 -48 -175 -309 -175c-200 0 -266 40 -266 102c0 41 50 63 112 63l9 -3l-31 -52c0 -64 53 -100 169 -100c99 0 161 17 161 77
c0 46 -47 48 -76 53l-184 30c-63 10 -104 37 -104 99c0 52 39 99 99 127c-81 25 -130 81 -130 164c0 107 97 180 245 180c36 0 69 -4 99 -11l166 61v-70h-138c74 -27 118 -81 118 -160c0 -117 -98 -180 -245 -180c-39 0 -75 4 -106 13zM275 500c-58 0 -65 -62 -65 -160
c0 -108 7 -180 65 -180s65 72 65 160c0 118 -8 180 -65 180z" />
    <glyph glyph-name="h" unicode="h" horiz-adv-x="640" 
d="M260 390h2l88 96c19 11 49 24 85 24c90 0 145 -50 145 -150v-280c0 -20 0 -40 50 -70v-10h-290v10c40 30 40 50 40 70v265c0 35 -10 55 -50 55c-30 0 -52 -9 -70 -20v-300c0 -20 0 -40 50 -70v-10h-300v10c50 30 50 50 50 70v530c0 30 0 70 -50 100v10h250v-330z" />
    <glyph glyph-name="hbar" unicode="&#x127;" horiz-adv-x="640" 
d="M580 360v-280c0 -20 0 -40 50 -70v-10h-290v10c40 30 40 50 40 70v265c0 35 -10 55 -50 55c-30 0 -52 -9 -70 -20v-300c0 -20 0 -40 50 -70v-10h-300v10c50 30 50 50 50 70v470h-50v10h50v50c0 30 0 70 -50 100v10h250v-160h85v-10h-85v-160h2l88 96c19 11 49 24 85 24
c90 0 145 -50 145 -150z" />
    <glyph glyph-name="i" unicode="i" horiz-adv-x="320" 
d="M55 645c0 53 41 85 95 85c53 0 95 -32 95 -85c0 -54 -42 -85 -95 -85c-54 0 -95 31 -95 85zM260 500v-420c0 -20 0 -40 50 -70v-10h-300v10c50 30 50 50 50 70v310c0 30 0 70 -50 100v10h250z" />
    <glyph glyph-name="dotlessi" unicode="&#x131;" horiz-adv-x="320" 
d="M260 500v-420c0 -20 0 -40 50 -70v-10h-300v10c50 30 50 50 50 70v310c0 30 0 70 -50 100v10h250z" />
    <glyph glyph-name="iacute" unicode="&#xed;" horiz-adv-x="320" 
d="M112 558l102 122c13 16 29 21 41 21c26 0 50 -19 50 -47c0 -37 -26 -48 -46 -55l-143 -49zM260 500v-420c0 -20 0 -40 50 -70v-10h-300v10c50 30 50 50 50 70v310c0 30 0 70 -50 100v10h250z" />
    <glyph glyph-name="icircumflex" unicode="&#xee;" horiz-adv-x="320" 
d="M15 550h-10l139 180h12l139 -180h-10l-135 65zM260 500v-420c0 -20 0 -40 50 -70v-10h-300v10c50 30 50 50 50 70v310c0 30 0 70 -50 100v10h250z" />
    <glyph glyph-name="idieresis" unicode="&#xef;" horiz-adv-x="320" 
d="M-30 622c0 45 36 72 81 72s81 -27 81 -72s-36 -72 -81 -72s-81 27 -81 72zM168 622c0 45 36 72 81 72s81 -27 81 -72s-36 -72 -81 -72s-81 27 -81 72zM260 500v-420c0 -20 0 -40 50 -70v-10h-300v10c50 30 50 50 50 70v310c0 30 0 70 -50 100v10h250z" />
    <glyph glyph-name="igrave" unicode="&#xec;" horiz-adv-x="320" 
d="M168 550l-143 49c-20 7 -46 18 -46 55c0 28 24 47 50 47c12 0 28 -5 41 -21l102 -122zM260 500v-420c0 -20 0 -40 50 -70v-10h-300v10c50 30 50 50 50 70v310c0 30 0 70 -50 100v10h250z" />
    <glyph glyph-name="ij" unicode="&#x133;" horiz-adv-x="625" 
d="M55 645c0 53 41 85 95 85c53 0 95 -32 95 -85c0 -54 -42 -85 -95 -85c-54 0 -95 31 -95 85zM372 645c0 53 41 85 95 85c53 0 95 -32 95 -85c0 -54 -42 -85 -95 -85c-54 0 -95 31 -95 85zM260 500v-420c0 -20 0 -40 50 -70v-10h-300v10c50 30 50 50 50 70v310
c0 30 0 70 -50 100v10h250zM575 500v-420c0 -199 -45 -240 -245 -300l-5 10c50 50 50 70 50 290v310c0 30 0 70 -50 100v10h250z" />
    <glyph glyph-name="imacron" unicode="&#x12b;" horiz-adv-x="320" 
d="M305 575h-310v20h310v-20zM260 500v-420c0 -20 0 -40 50 -70v-10h-300v10c50 30 50 50 50 70v310c0 30 0 70 -50 100v10h250z" />
    <glyph glyph-name="iogonek" unicode="&#x12f;" horiz-adv-x="320" 
d="M150 560c-54 0 -95 31 -95 85c0 53 41 85 95 85c53 0 95 -32 95 -85c0 -54 -42 -85 -95 -85zM310 0h-117c-31 -28 -42 -65 -42 -86c0 -29 18 -50 54 -50c17 0 31 6 38 11v-10c-14 -44 -54 -65 -95 -65c-52 0 -93 27 -93 74c0 43 27 76 128 126h-173v10c50 30 50 50 50 70
v310c0 30 0 70 -50 100v10h250v-420c0 -20 0 -40 50 -70v-10z" />
    <glyph glyph-name="j" unicode="j" horiz-adv-x="305" 
d="M52 645c0 53 41 85 95 85c53 0 95 -32 95 -85c0 -54 -42 -85 -95 -85c-54 0 -95 31 -95 85zM255 500v-420c0 -199 -45 -240 -245 -300l-5 10c50 50 50 70 50 290v310c0 30 0 70 -50 100v10h250z" />
    <glyph glyph-name="dotlessj" unicode="&#x237;" horiz-adv-x="305" 
d="M255 500v-420c0 -199 -45 -240 -245 -300l-5 10c50 50 50 70 50 290v310c0 30 0 70 -50 100v10h250z" />
    <glyph glyph-name="k" unicode="k" horiz-adv-x="665" 
d="M260 720v-640c0 -20 0 -40 50 -70v-10h-300v10c50 30 50 50 50 70v530c0 30 0 70 -50 100v10h250zM425 347l150 -237c29 -46 46 -80 90 -100v-10h-260l-135 245l174 134c27 21 41 35 41 58c0 19 -20 38 -60 53v10h220v-10c-45 -20 -98 -57 -145 -90z" />
    <glyph glyph-name="kcommaaccent" unicode="&#x137;" horiz-adv-x="665" 
d="M260 720v-640c0 -20 0 -40 50 -70v-10h-300v10c50 30 50 50 50 70v530c0 30 0 70 -50 100v10h250zM425 347l150 -237c29 -46 46 -80 90 -100v-10h-260l-135 245l174 134c27 21 41 35 41 58c0 19 -20 38 -60 53v10h220v-10c-45 -20 -98 -57 -145 -90zM294 -314l85 107
c-72 0 -108 34 -108 83c0 51 32 84 77 84c55 0 80 -35 80 -89c0 -84 -93 -169 -124 -185h-10z" />
    <glyph glyph-name="l" unicode="l" horiz-adv-x="320" 
d="M260 720v-640c0 -20 0 -40 50 -70v-10h-300v10c50 30 50 50 50 70v530c0 30 0 70 -50 100v10h250z" />
    <glyph glyph-name="lacute" unicode="&#x13a;" horiz-adv-x="320" 
d="M114 776l102 122c13 16 29 21 41 21c26 0 50 -19 50 -47c0 -37 -26 -48 -46 -55l-143 -49zM260 720v-640c0 -20 0 -40 50 -70v-10h-300v10c50 30 50 50 50 70v530c0 30 0 70 -50 100v10h250z" />
    <glyph glyph-name="lcaron" unicode="&#x13e;" horiz-adv-x="320" 
d="M314 455l85 105c-70 0 -110 35 -110 85s35 85 80 85c55 0 80 -35 80 -90c0 -85 -95 -170 -125 -185h-10zM260 720v-640c0 -20 0 -40 50 -70v-10h-300v10c50 30 50 50 50 70v530c0 30 0 70 -50 100v10h250z" />
    <glyph glyph-name="lcommaaccent" unicode="&#x13c;" horiz-adv-x="320" 
d="M260 720v-640c0 -20 0 -40 50 -70v-10h-300v10c50 30 50 50 50 70v530c0 30 0 70 -50 100v10h250zM102 -314l85 107c-72 0 -108 34 -108 83c0 51 32 84 77 84c55 0 80 -35 80 -89c0 -84 -93 -169 -124 -185h-10z" />
    <glyph glyph-name="ldot" unicode="&#x140;" horiz-adv-x="475" 
d="M260 720v-640c0 -20 0 -40 50 -70v-10h-300v10c50 30 50 50 50 70v530c0 30 0 70 -50 100v10h250zM295 370c0 45 35 80 80 80s80 -35 80 -80s-35 -80 -80 -80s-80 35 -80 80z" />
    <glyph glyph-name="lslash" unicode="&#x142;" horiz-adv-x="320" 
d="M260 435v-355c0 -20 0 -40 50 -70v-10h-300v10c50 30 50 50 50 70v213l-50 -36v15l50 36v302c0 30 0 70 -50 100v10h250v-270l50 35v-15z" />
    <glyph glyph-name="m" unicode="m" horiz-adv-x="960" 
d="M900 360v-280c0 -20 0 -40 50 -70v-10h-290v10c40 30 40 50 40 70v265c0 35 -10 55 -50 55c-30 0 -51 -9 -70 -20v-300c0 -20 0 -40 50 -70v-10h-290v10c40 30 40 50 40 70v265c0 35 -10 55 -50 55c-30 0 -52 -9 -70 -20v-300c0 -20 0 -40 50 -70v-10h-300v10
c50 30 50 50 50 70v310c0 30 0 70 -50 100v10h250v-110h2l88 96c19 11 49 24 85 24c80 0 133 -40 145 -120h2l88 96c19 11 49 24 85 24c90 0 145 -50 145 -150z" />
    <glyph glyph-name="n" unicode="n" horiz-adv-x="640" 
d="M260 390h2l88 96c19 11 49 24 85 24c90 0 145 -50 145 -150v-280c0 -20 0 -40 50 -70v-10h-290v10c40 30 40 50 40 70v265c0 35 -10 55 -50 55c-30 0 -52 -9 -70 -20v-300c0 -20 0 -40 50 -70v-10h-300v10c50 30 50 50 50 70v310c0 30 0 70 -50 100v10h250v-110z" />
    <glyph glyph-name="nacute" unicode="&#x144;" horiz-adv-x="640" 
d="M268 558l102 122c13 16 29 21 41 21c26 0 50 -19 50 -47c0 -37 -26 -48 -46 -55l-143 -49zM260 390h2l88 96c19 11 49 24 85 24c90 0 145 -50 145 -150v-280c0 -20 0 -40 50 -70v-10h-290v10c40 30 40 50 40 70v265c0 35 -10 55 -50 55c-30 0 -52 -9 -70 -20v-300
c0 -20 0 -40 50 -70v-10h-300v10c50 30 50 50 50 70v310c0 30 0 70 -50 100v10h250v-110z" />
    <glyph glyph-name="ncaron" unicode="&#x148;" horiz-adv-x="640" 
d="M441 730h10l-139 -180h-12l-139 180h10l135 -65zM260 390h2l88 96c19 11 49 24 85 24c90 0 145 -50 145 -150v-280c0 -20 0 -40 50 -70v-10h-290v10c40 30 40 50 40 70v265c0 35 -10 55 -50 55c-30 0 -52 -9 -70 -20v-300c0 -20 0 -40 50 -70v-10h-300v10
c50 30 50 50 50 70v310c0 30 0 70 -50 100v10h250v-110z" />
    <glyph glyph-name="ncommaaccent" unicode="&#x146;" horiz-adv-x="640" 
d="M260 390h2l88 96c19 11 49 24 85 24c90 0 145 -50 145 -150v-280c0 -20 0 -40 50 -70v-10h-290v10c40 30 40 50 40 70v265c0 35 -10 55 -50 55c-30 0 -52 -9 -70 -20v-300c0 -20 0 -40 50 -70v-10h-300v10c50 30 50 50 50 70v310c0 30 0 70 -50 100v10h250v-110z
M250 -314l85 107c-72 0 -108 34 -108 83c0 51 32 84 77 84c55 0 80 -35 80 -89c0 -84 -93 -169 -124 -185h-10z" />
    <glyph glyph-name="eng" unicode="&#x14b;" horiz-adv-x="630" 
d="M580 360v-280c0 -199 -45 -240 -245 -300l-5 10c50 50 50 70 50 287v268c0 35 -10 55 -50 55c-30 0 -52 -9 -70 -20v-300c0 -20 0 -40 50 -70v-10h-300v10c50 30 50 50 50 70v310c0 30 0 70 -50 100v10h250v-110h2l88 96c19 11 49 24 85 24c90 0 145 -50 145 -150z" />
    <glyph glyph-name="ntilde" unicode="&#xf1;" horiz-adv-x="640" 
d="M130 550h-10c1 83 45 150 110 150s143 -50 200 -50c24 0 41 13 50 40h10c-4 -121 -49 -150 -95 -150c-57 0 -148 50 -205 50c-36 0 -50 -13 -60 -40zM260 390h2l88 96c19 11 49 24 85 24c90 0 145 -50 145 -150v-280c0 -20 0 -40 50 -70v-10h-290v10c40 30 40 50 40 70
v265c0 35 -10 55 -50 55c-30 0 -52 -9 -70 -20v-300c0 -20 0 -40 50 -70v-10h-300v10c50 30 50 50 50 70v310c0 30 0 70 -50 100v10h250v-110z" />
    <glyph glyph-name="o" unicode="o" horiz-adv-x="590" 
d="M295 -10c178 0 280 103 280 260s-102 260 -280 260s-280 -103 -280 -260s102 -260 280 -260zM295 500c58 0 75 -52 75 -250c0 -188 -17 -250 -75 -250s-75 62 -75 250c0 198 17 250 75 250z" />
    <glyph glyph-name="oacute" unicode="&#xf3;" horiz-adv-x="590" 
d="M254 558l102 122c13 16 29 21 41 21c26 0 50 -19 50 -47c0 -37 -26 -48 -46 -55l-143 -49zM295 -10c178 0 280 103 280 260s-102 260 -280 260s-280 -103 -280 -260s102 -260 280 -260zM295 500c58 0 75 -52 75 -250c0 -188 -17 -250 -75 -250s-75 62 -75 250
c0 198 17 250 75 250z" />
    <glyph glyph-name="ocircumflex" unicode="&#xf4;" horiz-adv-x="590" 
d="M157 550h-10l139 180h12l139 -180h-10l-135 65zM295 -10c178 0 280 103 280 260s-102 260 -280 260s-280 -103 -280 -260s102 -260 280 -260zM295 500c58 0 75 -52 75 -250c0 -188 -17 -250 -75 -250s-75 62 -75 250c0 198 17 250 75 250z" />
    <glyph glyph-name="odieresis" unicode="&#xf6;" horiz-adv-x="590" 
d="M112 622c0 45 36 72 81 72s81 -27 81 -72s-36 -72 -81 -72s-81 27 -81 72zM310 622c0 45 36 72 81 72s81 -27 81 -72s-36 -72 -81 -72s-81 27 -81 72zM295 -10c178 0 280 103 280 260s-102 260 -280 260s-280 -103 -280 -260s102 -260 280 -260zM295 500
c58 0 75 -52 75 -250c0 -188 -17 -250 -75 -250s-75 62 -75 250c0 198 17 250 75 250z" />
    <glyph glyph-name="ograve" unicode="&#xf2;" horiz-adv-x="590" 
d="M310 550l-143 49c-20 7 -46 18 -46 55c0 28 24 47 50 47c12 0 28 -5 41 -21l102 -122zM295 -10c178 0 280 103 280 260s-102 260 -280 260s-280 -103 -280 -260s102 -260 280 -260zM295 500c58 0 75 -52 75 -250c0 -188 -17 -250 -75 -250s-75 62 -75 250
c0 198 17 250 75 250z" />
    <glyph glyph-name="ohungarumlaut" unicode="&#x151;" horiz-adv-x="590" 
d="M176 555l82 144c12 21 28 25 42 25c34 0 50 -24 50 -49c0 -29 -20 -42 -37 -51l-132 -74zM366 555l82 144c11 19 28 25 42 25c34 0 50 -24 50 -49c0 -29 -20 -42 -37 -51l-132 -74zM295 -10c178 0 280 103 280 260s-102 260 -280 260s-280 -103 -280 -260
s102 -260 280 -260zM295 500c58 0 75 -52 75 -250c0 -188 -17 -250 -75 -250s-75 62 -75 250c0 198 17 250 75 250z" />
    <glyph glyph-name="omacron" unicode="&#x14d;" horiz-adv-x="590" 
d="M447 575h-310v20h310v-20zM295 -10c178 0 280 103 280 260s-102 260 -280 260s-280 -103 -280 -260s102 -260 280 -260zM295 500c58 0 75 -52 75 -250c0 -188 -17 -250 -75 -250s-75 62 -75 250c0 198 17 250 75 250z" />
    <glyph glyph-name="oslash" unicode="&#xf8;" horiz-adv-x="590" 
d="M470 530l-32 -48c89 -41 137 -124 137 -232c0 -157 -102 -260 -280 -260c-62 0 -115 13 -157 36l-37 -56h-10l39 60c-74 43 -115 121 -115 220c0 157 102 260 280 260c51 0 97 -9 135 -25l29 45h11zM220 250c0 -30 0 -57 1 -82l144 219c-8 87 -29 113 -70 113
c-58 0 -75 -52 -75 -250zM295 0c58 0 75 62 75 250c0 50 -1 90 -4 123l-144 -219c6 -114 26 -154 73 -154z" />
    <glyph glyph-name="otilde" unicode="&#xf5;" horiz-adv-x="590" 
d="M116 550h-10c1 83 45 150 110 150s143 -50 200 -50c24 0 41 13 50 40h10c-4 -121 -49 -150 -95 -150c-57 0 -148 50 -205 50c-36 0 -50 -13 -60 -40zM295 -10c178 0 280 103 280 260s-102 260 -280 260s-280 -103 -280 -260s102 -260 280 -260zM295 500
c58 0 75 -52 75 -250c0 -188 -17 -250 -75 -250s-75 62 -75 250c0 198 17 250 75 250z" />
    <glyph glyph-name="oe" unicode="&#x153;" horiz-adv-x="895" 
d="M860 145v-10c-20 -80 -100 -145 -210 -145c-73 0 -133 17 -177 48c-46 -31 -106 -48 -178 -48c-178 0 -280 103 -280 260s102 260 280 260c76 0 139 -19 185 -53c46 32 106 53 184 53c89 0 216 -41 216 -190c0 -19 -2 -41 -6 -63h-292c9 -83 56 -152 153 -152
c54 0 93 20 125 40zM295 0c58 0 75 62 75 250c0 198 -17 250 -75 250s-75 -52 -75 -250c0 -188 17 -250 75 -250zM581 266l116 9c8 32 13 71 13 117c0 71 -12 108 -55 108c-50 0 -75 -70 -75 -210c0 -8 0 -16 1 -24z" />
    <glyph glyph-name="p" unicode="p" horiz-adv-x="610" 
d="M257 410l88 85c14 7 35 15 71 15c119 0 179 -90 179 -250c0 -180 -76 -270 -210 -270c-45 0 -81 10 -110 25v14c8 -2 18 -4 32 -4c50 0 83 56 83 205c0 142 -25 192 -75 192c-23 0 -40 -8 -60 -23v-539c0 -20 0 -40 50 -70v-10h-300v10c50 30 50 50 50 70v530
c0 30 0 70 -50 100v10h245l5 -90h2z" />
    <glyph glyph-name="thorn" unicode="&#xfe;" horiz-adv-x="610" 
d="M257 410l88 85c14 7 35 15 71 15c119 0 179 -90 179 -250c0 -180 -76 -270 -210 -270c-45 0 -81 10 -110 25v14c8 -2 18 -4 32 -4c50 0 83 56 83 205c0 142 -25 192 -75 192c-23 0 -40 -8 -60 -23v-539c0 -20 0 -40 50 -70v-10h-300v10c50 30 50 50 50 70v750
c0 30 0 70 -50 100v10h250v-310h2z" />
    <glyph glyph-name="q" unicode="q" horiz-adv-x="605" 
d="M555 510v-650c0 -20 0 -40 50 -70v-10h-300v10c50 30 50 50 50 70v230h-2l-88 -85c-14 -7 -35 -15 -71 -15c-119 0 -179 90 -179 250c0 180 76 270 210 270c56 0 97 -16 130 -35l190 35h10zM355 101v363c-17 6 -27 11 -52 11c-50 0 -83 -56 -83 -205
c0 -142 25 -192 75 -192c23 0 40 8 60 23z" />
    <glyph glyph-name="r" unicode="r" horiz-adv-x="465" 
d="M260 330h2l58 156c24 16 49 24 80 24c20 0 50 -4 65 -10l-51 -177c-9 2 -43 7 -64 7c-40 0 -62 -4 -90 -10v-240c0 -20 0 -40 70 -70v-10h-320v10c50 30 50 50 50 70v310c0 30 0 70 -50 100v10h250v-170z" />
    <glyph glyph-name="racute" unicode="&#x155;" horiz-adv-x="465" 
d="M218 558l102 122c13 16 29 21 41 21c26 0 50 -19 50 -47c0 -37 -26 -48 -46 -55l-143 -49zM260 330h2l58 156c24 16 49 24 80 24c20 0 50 -4 65 -10l-51 -177c-9 2 -43 7 -64 7c-40 0 -62 -4 -90 -10v-240c0 -20 0 -40 70 -70v-10h-320v10c50 30 50 50 50 70v310
c0 30 0 70 -50 100v10h250v-170z" />
    <glyph glyph-name="rcaron" unicode="&#x159;" horiz-adv-x="465" 
d="M391 730h10l-139 -180h-12l-139 180h10l135 -65zM260 330h2l58 156c24 16 49 24 80 24c20 0 50 -4 65 -10l-51 -177c-9 2 -43 7 -64 7c-40 0 -62 -4 -90 -10v-240c0 -20 0 -40 70 -70v-10h-320v10c50 30 50 50 50 70v310c0 30 0 70 -50 100v10h250v-170z" />
    <glyph glyph-name="rcommaaccent" unicode="&#x157;" horiz-adv-x="465" 
d="M260 330h2l58 156c24 16 49 24 80 24c20 0 50 -4 65 -10l-51 -177c-9 2 -43 7 -64 7c-40 0 -62 -4 -90 -10v-240c0 -20 0 -40 70 -70v-10h-320v10c50 30 50 50 50 70v310c0 30 0 70 -50 100v10h250v-170zM93 -314l85 107c-72 0 -108 34 -108 83c0 51 32 84 77 84
c55 0 80 -35 80 -89c0 -84 -93 -169 -124 -185h-10z" />
    <glyph glyph-name="s" unicode="s" horiz-adv-x="475" 
d="M287 69c0 115 -265 105 -265 285c0 77 64 156 238 156c86 0 146 -16 183 -30l-43 -141l-7 -2c-33 114 -64 163 -121 163c-33 0 -72 -17 -72 -63c0 -112 255 -96 255 -276c0 -75 -45 -171 -243 -171c-42 0 -130 7 -178 20l-14 154l4 2c37 -67 94 -166 188 -166
c42 0 75 24 75 69z" />
    <glyph glyph-name="sacute" unicode="&#x15b;" horiz-adv-x="475" 
d="M215 558l102 122c13 16 29 21 41 21c26 0 50 -19 50 -47c0 -37 -26 -48 -46 -55l-143 -49zM287 69c0 115 -265 105 -265 285c0 77 64 156 238 156c86 0 146 -16 183 -30l-43 -141l-7 -2c-33 114 -64 163 -121 163c-33 0 -72 -17 -72 -63c0 -112 255 -96 255 -276
c0 -75 -45 -171 -243 -171c-42 0 -130 7 -178 20l-14 154l4 2c37 -67 94 -166 188 -166c42 0 75 24 75 69z" />
    <glyph glyph-name="scaron" unicode="&#x161;" horiz-adv-x="475" 
d="M388 730h10l-139 -180h-12l-139 180h10l135 -65zM287 69c0 115 -265 105 -265 285c0 77 64 156 238 156c86 0 146 -16 183 -30l-43 -141l-7 -2c-33 114 -64 163 -121 163c-33 0 -72 -17 -72 -63c0 -112 255 -96 255 -276c0 -75 -45 -171 -243 -171c-42 0 -130 7 -178 20
l-14 154l4 2c37 -67 94 -166 188 -166c42 0 75 24 75 69z" />
    <glyph glyph-name="scedilla" unicode="&#x15f;" horiz-adv-x="475" 
d="M455 161c0 -74 -44 -169 -237 -171v-45c69 0 110 -24 110 -74c0 -47 -31 -76 -93 -76c-44 0 -75 20 -90 38v10c15 -6 33 -11 50 -11c26 0 51 15 51 53c0 35 -6 50 -38 50v55c-43 0 -127 7 -174 20l-14 154l4 2c37 -67 94 -166 188 -166c42 0 75 24 75 69
c0 115 -265 105 -265 285c0 77 64 156 238 156c86 0 146 -16 183 -30l-43 -141l-7 -2c-33 114 -64 163 -121 163c-33 0 -72 -17 -72 -63c0 -112 255 -96 255 -276z" />
    <glyph glyph-name="scommaaccent" unicode="&#x219;" horiz-adv-x="475" 
d="M287 69c0 115 -265 105 -265 285c0 77 64 156 238 156c86 0 146 -16 183 -30l-43 -141l-7 -2c-33 114 -64 163 -121 163c-33 0 -72 -17 -72 -63c0 -112 255 -96 255 -276c0 -75 -45 -171 -243 -171c-42 0 -130 7 -178 20l-14 154l4 2c37 -67 94 -166 188 -166
c42 0 75 24 75 69zM159 -319l85 107c-72 0 -108 34 -108 83c0 51 32 84 77 84c55 0 80 -35 80 -89c0 -84 -93 -169 -124 -185h-10z" />
    <glyph glyph-name="germandbls" unicode="&#xdf;" horiz-adv-x="670" 
d="M379 426c0 -69 271 -113 271 -276c0 -67 -39 -160 -208 -160c-42 0 -96 8 -145 20l-14 135l4 2c37 -58 101 -146 151 -146c36 0 41 36 41 51c0 118 -180 140 -180 233c0 80 116 147 116 330c0 51 -21 105 -70 105c-74 0 -88 -63 -88 -164v-556h-250v10c50 30 50 50 50 70
v410h-47v10l47 10v26c0 145 155 194 255 194c121 0 252 -45 252 -151c0 -146 -185 -105 -185 -153z" />
    <glyph glyph-name="t" unicode="t" horiz-adv-x="350" 
d="M254 490v-380c0 -67 28 -72 96 -70v-10c-50 -25 -117 -40 -170 -40c-80 0 -126 35 -126 120v380h-44v10l44 10l190 90h10v-100h96v-10h-96z" />
    <glyph glyph-name="tbar" unicode="&#x167;" horiz-adv-x="350" 
d="M254 490v-220h76v-10h-76v-150c0 -67 28 -72 96 -70v-10c-50 -25 -117 -40 -170 -40c-80 0 -126 35 -126 120v150h-44v10h44v220h-44v10l44 10l190 90h10v-100h96v-10h-96z" />
    <glyph glyph-name="tcaron" unicode="&#x165;" horiz-adv-x="350" 
d="M293 550l85 105c-70 0 -110 35 -110 85s35 85 80 85c55 0 80 -35 80 -90c0 -85 -95 -170 -125 -185h-10zM254 490v-380c0 -67 28 -72 96 -70v-10c-50 -25 -117 -40 -170 -40c-80 0 -126 35 -126 120v380h-44v10l44 10l190 90h10v-100h96v-10h-96z" />
    <glyph glyph-name="tcedilla" unicode="&#x163;" horiz-adv-x="350" 
d="M254 490v-380c0 -67 28 -72 96 -70v-10c-49 -25 -115 -40 -168 -40v-40c69 0 110 -24 110 -74c0 -47 -31 -76 -93 -76c-44 0 -75 20 -90 38v10c15 -6 33 -11 50 -11c26 0 51 15 51 53c0 35 -6 50 -38 50v50c-75 2 -118 38 -118 120v380h-44v10l44 10l190 90h10v-100h96
v-10h-96z" />
    <glyph glyph-name="uni021B" unicode="&#x21b;" horiz-adv-x="350" 
d="M254 490v-380c0 -67 28 -72 96 -70v-10c-50 -25 -117 -40 -170 -40c-80 0 -126 35 -126 120v380h-44v10l44 10l190 90h10v-100h96v-10h-96zM123 -314l85 107c-72 0 -108 34 -108 83c0 51 32 84 77 84c55 0 80 -35 80 -89c0 -84 -93 -169 -124 -185h-10z" />
    <glyph glyph-name="u" unicode="u" horiz-adv-x="635" 
d="M375 110h-2l-88 -96c-19 -11 -49 -24 -85 -24c-90 0 -145 50 -145 150v280c0 20 0 40 -50 70v10h250v-345c0 -35 10 -55 50 -55c30 0 52 9 70 20v300c0 20 0 40 -50 70v10h250v-390c0 -30 0 -70 50 -100v-10h-245z" />
    <glyph glyph-name="uacute" unicode="&#xfa;" horiz-adv-x="635" 
d="M252 558l102 122c13 16 29 21 41 21c26 0 50 -19 50 -47c0 -37 -26 -48 -46 -55l-143 -49zM375 110h-2l-88 -96c-19 -11 -49 -24 -85 -24c-90 0 -145 50 -145 150v280c0 20 0 40 -50 70v10h250v-345c0 -35 10 -55 50 -55c30 0 52 9 70 20v300c0 20 0 40 -50 70v10h250
v-390c0 -30 0 -70 50 -100v-10h-245z" />
    <glyph glyph-name="ucircumflex" unicode="&#xfb;" horiz-adv-x="635" 
d="M155 550h-10l139 180h12l139 -180h-10l-135 65zM375 110h-2l-88 -96c-19 -11 -49 -24 -85 -24c-90 0 -145 50 -145 150v280c0 20 0 40 -50 70v10h250v-345c0 -35 10 -55 50 -55c30 0 52 9 70 20v300c0 20 0 40 -50 70v10h250v-390c0 -30 0 -70 50 -100v-10h-245z" />
    <glyph glyph-name="udieresis" unicode="&#xfc;" horiz-adv-x="635" 
d="M110 622c0 45 36 72 81 72s81 -27 81 -72s-36 -72 -81 -72s-81 27 -81 72zM308 622c0 45 36 72 81 72s81 -27 81 -72s-36 -72 -81 -72s-81 27 -81 72zM375 110h-2l-88 -96c-19 -11 -49 -24 -85 -24c-90 0 -145 50 -145 150v280c0 20 0 40 -50 70v10h250v-345
c0 -35 10 -55 50 -55c30 0 52 9 70 20v300c0 20 0 40 -50 70v10h250v-390c0 -30 0 -70 50 -100v-10h-245z" />
    <glyph glyph-name="ugrave" unicode="&#xf9;" horiz-adv-x="635" 
d="M308 550l-143 49c-20 7 -46 18 -46 55c0 28 24 47 50 47c12 0 28 -5 41 -21l102 -122zM375 110h-2l-88 -96c-19 -11 -49 -24 -85 -24c-90 0 -145 50 -145 150v280c0 20 0 40 -50 70v10h250v-345c0 -35 10 -55 50 -55c30 0 52 9 70 20v300c0 20 0 40 -50 70v10h250v-390
c0 -30 0 -70 50 -100v-10h-245z" />
    <glyph glyph-name="uhungarumlaut" unicode="&#x171;" horiz-adv-x="635" 
d="M174 555l82 144c12 21 28 25 42 25c34 0 50 -24 50 -49c0 -29 -20 -42 -37 -51l-132 -74zM364 555l82 144c11 19 28 25 42 25c34 0 50 -24 50 -49c0 -29 -20 -42 -37 -51l-132 -74zM375 110h-2l-88 -96c-19 -11 -49 -24 -85 -24c-90 0 -145 50 -145 150v280
c0 20 0 40 -50 70v10h250v-345c0 -35 10 -55 50 -55c30 0 52 9 70 20v300c0 20 0 40 -50 70v10h250v-390c0 -30 0 -70 50 -100v-10h-245z" />
    <glyph glyph-name="umacron" unicode="&#x16b;" horiz-adv-x="635" 
d="M445 575h-310v20h310v-20zM375 110h-2l-88 -96c-19 -11 -49 -24 -85 -24c-90 0 -145 50 -145 150v280c0 20 0 40 -50 70v10h250v-345c0 -35 10 -55 50 -55c30 0 52 9 70 20v300c0 20 0 40 -50 70v10h250v-390c0 -30 0 -70 50 -100v-10h-245z" />
    <glyph glyph-name="uogonek" unicode="&#x173;" horiz-adv-x="635" 
d="M625 0h-91c-31 -28 -42 -65 -42 -86c0 -29 18 -50 54 -50c17 0 31 6 38 11v-10c-14 -44 -54 -65 -95 -65c-52 0 -93 27 -93 74c0 43 27 76 128 126h-144l-5 110h-2l-88 -96c-19 -11 -49 -24 -85 -24c-90 0 -145 50 -145 150v280c0 20 0 40 -50 70v10h250v-345
c0 -35 10 -55 50 -55c30 0 52 9 70 20v300c0 20 0 40 -50 70v10h250v-390c0 -30 0 -70 50 -100v-10z" />
    <glyph glyph-name="uring" unicode="&#x16f;" horiz-adv-x="635" 
d="M188 622c0 51 37 88 102 88c64 0 102 -37 102 -88c0 -52 -38 -87 -102 -87s-102 35 -102 87zM251 622c0 -56 14 -77 39 -77s39 21 39 77c0 57 -14 78 -39 78s-39 -21 -39 -78zM375 110h-2l-88 -96c-19 -11 -49 -24 -85 -24c-90 0 -145 50 -145 150v280c0 20 0 40 -50 70
v10h250v-345c0 -35 10 -55 50 -55c30 0 52 9 70 20v300c0 20 0 40 -50 70v10h250v-390c0 -30 0 -70 50 -100v-10h-245z" />
    <glyph glyph-name="v" unicode="v" horiz-adv-x="591" 
d="M591 500v-10c-34 -20 -58 -54 -70 -90l-140 -405h-165l-146 388c-15 41 -34 86 -70 107v10h313v-10c-33 -12 -44 -25 -44 -42c0 -11 3 -23 9 -38l123 -330l100 297c4 12 8 26 8 40c0 30 -20 61 -105 73v10h187z" />
    <glyph glyph-name="w" unicode="w" horiz-adv-x="900" 
d="M900 500v-10c-34 -20 -58 -54 -70 -90l-129 -405h-165l-96 370l-84 -370h-165l-121 388c-13 41 -34 86 -70 107v10h308v-10c-33 -12 -44 -25 -44 -42c0 -11 4 -23 8 -38l94 -320l69 296l-30 114h209l102 -430l94 307c4 12 8 26 8 40c0 30 -20 61 -105 73v10h187z" />
    <glyph glyph-name="wacute" unicode="&#x1e83;" horiz-adv-x="900" 
d="M474 550l-4 8l102 122c13 16 29 21 41 21c26 0 50 -19 50 -47c0 -37 -26 -48 -46 -55zM900 500v-10c-34 -20 -58 -54 -70 -90l-129 -405h-165l-96 370l-84 -370h-165l-121 388c-13 41 -34 86 -70 107v10h308v-10c-33 -12 -44 -25 -44 -42c0 -11 4 -23 8 -38l94 -320
l69 296l-30 114h209l102 -430l94 307c4 12 8 26 8 40c0 30 -20 61 -105 73v10h187z" />
    <glyph glyph-name="wcircumflex" unicode="&#x175;" horiz-adv-x="900" 
d="M373 550h-10l139 180h12l139 -180h-10l-135 65zM900 500v-10c-34 -20 -58 -54 -70 -90l-129 -405h-165l-96 370l-84 -370h-165l-121 388c-13 41 -34 86 -70 107v10h308v-10c-33 -12 -44 -25 -44 -42c0 -11 4 -23 8 -38l94 -320l69 296l-30 114h209l102 -430l94 307
c4 12 8 26 8 40c0 30 -20 61 -105 73v10h187z" />
    <glyph glyph-name="wdieresis" unicode="&#x1e85;" horiz-adv-x="900" 
d="M409 550c-45 0 -81 27 -81 72s36 72 81 72s81 -27 81 -72s-36 -72 -81 -72zM607 550c-45 0 -81 27 -81 72s36 72 81 72s81 -27 81 -72s-36 -72 -81 -72zM900 500v-10c-34 -20 -58 -54 -70 -90l-129 -405h-165l-96 370l-84 -370h-165l-121 388c-13 41 -34 86 -70 107v10
h308v-10c-33 -12 -44 -25 -44 -42c0 -11 4 -23 8 -38l94 -320l69 296l-30 114h209l102 -430l94 307c4 12 8 26 8 40c0 30 -20 61 -105 73v10h187z" />
    <glyph glyph-name="wgrave" unicode="&#x1e81;" horiz-adv-x="900" 
d="M526 550l-143 49c-20 7 -46 18 -46 55c0 28 24 47 50 47c12 0 28 -5 41 -21l102 -122zM900 500v-10c-34 -20 -58 -54 -70 -90l-129 -405h-165l-96 370l-84 -370h-165l-121 388c-13 41 -34 86 -70 107v10h308v-10c-33 -12 -44 -25 -44 -42c0 -11 4 -23 8 -38l94 -320
l69 296l-30 114h209l102 -430l94 307c4 12 8 26 8 40c0 30 -20 61 -105 73v10h187z" />
    <glyph glyph-name="x" unicode="x" horiz-adv-x="567" 
d="M361 317l134 -220c31 -52 52 -76 72 -87v-10h-297v10c19 5 33 14 33 27c0 6 -3 11 -7 18l-83 137l-64 -80c-21 -26 -27 -42 -27 -55c0 -12 6 -35 77 -46v-10h-199v10c58 21 85 36 122 83l85 107l-130 213c-32 52 -42 65 -65 76v10h297v-10c-22 -5 -33 -11 -33 -25
c0 -9 3 -13 8 -21l72 -118l51 63c21 25 28 42 28 55c0 12 -6 35 -77 46v10h199v-10c-58 -21 -85 -38 -122 -83z" />
    <glyph glyph-name="y" unicode="y" horiz-adv-x="591" 
d="M591 500v-10c-34 -20 -58 -54 -70 -90l-85 -248c-63 -183 -132 -301 -185 -372h-201v10c120 33 266 117 315 205h-149l-146 388c-15 41 -34 86 -70 107v10h313v-10c-33 -12 -44 -25 -44 -42c0 -11 3 -23 9 -38l123 -330l100 297c4 12 8 26 8 40c0 30 -20 61 -105 73v10
h187z" />
    <glyph glyph-name="yacute" unicode="&#xfd;" horiz-adv-x="591" 
d="M308 558l102 122c13 16 29 21 41 21c26 0 50 -19 50 -47c0 -37 -26 -48 -46 -55l-143 -49zM591 500v-10c-34 -20 -58 -54 -70 -90l-85 -248c-63 -183 -132 -301 -185 -372h-201v10c120 33 266 117 315 205h-149l-146 388c-15 41 -34 86 -70 107v10h313v-10
c-33 -12 -44 -25 -44 -42c0 -11 3 -23 9 -38l123 -330l100 297c4 12 8 26 8 40c0 30 -20 61 -105 73v10h187z" />
    <glyph glyph-name="ycircumflex" unicode="&#x177;" horiz-adv-x="591" 
d="M211 550h-10l139 180h12l139 -180h-10l-135 65zM591 500v-10c-34 -20 -58 -54 -70 -90l-85 -248c-63 -183 -132 -301 -185 -372h-201v10c120 33 266 117 315 205h-149l-146 388c-15 41 -34 86 -70 107v10h313v-10c-33 -12 -44 -25 -44 -42c0 -11 3 -23 9 -38l123 -330
l100 297c4 12 8 26 8 40c0 30 -20 61 -105 73v10h187z" />
    <glyph glyph-name="ydieresis" unicode="&#xff;" horiz-adv-x="591" 
d="M166 622c0 45 36 72 81 72s81 -27 81 -72s-36 -72 -81 -72s-81 27 -81 72zM364 622c0 45 36 72 81 72s81 -27 81 -72s-36 -72 -81 -72s-81 27 -81 72zM591 500v-10c-34 -20 -58 -54 -70 -90l-85 -248c-63 -183 -132 -301 -185 -372h-201v10c120 33 266 117 315 205h-149
l-146 388c-15 41 -34 86 -70 107v10h313v-10c-33 -12 -44 -25 -44 -42c0 -11 3 -23 9 -38l123 -330l100 297c4 12 8 26 8 40c0 30 -20 61 -105 73v10h187z" />
    <glyph glyph-name="ygrave" unicode="&#x1ef3;" horiz-adv-x="591" 
d="M364 550l-143 49c-20 7 -46 18 -46 55c0 28 24 47 50 47c12 0 28 -5 41 -21l102 -122zM591 500v-10c-34 -20 -58 -54 -70 -90l-85 -248c-63 -183 -132 -301 -185 -372h-201v10c120 33 266 117 315 205h-149l-146 388c-15 41 -34 86 -70 107v10h313v-10
c-33 -12 -44 -25 -44 -42c0 -11 3 -23 9 -38l123 -330l100 297c4 12 8 26 8 40c0 30 -20 61 -105 73v10h187z" />
    <glyph glyph-name="z" unicode="z" horiz-adv-x="501" 
d="M189 180h158c66 0 92 8 131 33l8 -3l-25 -210h-446v10l294 310h-152c-66 0 -92 -8 -131 -26l-8 3l35 203h433v-10z" />
    <glyph glyph-name="zacute" unicode="&#x17a;" horiz-adv-x="501" 
d="M235 558l102 122c13 16 29 21 41 21c26 0 50 -19 50 -47c0 -37 -26 -48 -46 -55l-143 -49zM189 180h158c66 0 92 8 131 33l8 -3l-25 -210h-446v10l294 310h-152c-66 0 -92 -8 -131 -26l-8 3l35 203h433v-10z" />
    <glyph glyph-name="zcaron" unicode="&#x17e;" horiz-adv-x="501" 
d="M408 730h10l-139 -180h-12l-139 180h10l135 -65zM189 180h158c66 0 92 8 131 33l8 -3l-25 -210h-446v10l294 310h-152c-66 0 -92 -8 -131 -26l-8 3l35 203h433v-10z" />
    <glyph glyph-name="zdotaccent" unicode="&#x17c;" horiz-adv-x="501" 
d="M178 645c0 53 41 85 95 85c53 0 95 -32 95 -85c0 -54 -42 -85 -95 -85c-54 0 -95 31 -95 85zM189 180h158c66 0 92 8 131 33l8 -3l-25 -210h-446v10l294 310h-152c-66 0 -92 -8 -131 -26l-8 3l35 203h433v-10z" />
    <glyph glyph-name="ordfeminine" unicode="&#xaa;" horiz-adv-x="450" 
d="M376 590v-143c0 -14 1 -27 34 -47v-10h-164l-3 53h-2l-39 -43c-11 -8 -33 -16 -66 -16c-51 0 -96 26 -96 80c0 39 15 79 94 96l109 24v13c0 25 -8 40 -54 40c-38 0 -74 -8 -123 -27l-3 4l13 90c29 11 80 26 140 26c133 0 160 -47 160 -140zM243 574l-30 -11
c-26 -10 -37 -32 -37 -66c0 -33 13 -50 38 -50c13 0 21 4 29 9v118zM45 317v20h365v-20h-365z" />
    <glyph glyph-name="ordmasculine" unicode="&#xba;" horiz-adv-x="455" 
d="M227 383c119 0 188 68 188 173s-69 173 -188 173s-187 -68 -187 -173s68 -173 187 -173zM227 718c39 0 51 -35 51 -162c0 -120 -12 -162 -51 -162s-50 42 -50 162c0 127 11 162 50 162zM45 317v20h365v-20h-365z" />
    <glyph glyph-name="Delta" unicode="&#x394;" horiz-adv-x="560" 
d="M0 0l290 730l270 -730h-560zM190 450l-175 -440h320z" />
    <glyph glyph-name="Omega" unicode="&#x3a9;" horiz-adv-x="780" 
d="M390 720c-91 0 -133 -52 -133 -280c0 -191 23 -250 96 -289v-151h-323l-10 177h10c63 -41 80 -52 123 -52h190v22c-187 22 -308 142 -308 293c0 180 162 290 355 290s355 -110 355 -290c0 -151 -121 -271 -308 -293v-22h190c43 0 60 11 123 52h10l-10 -177h-323v151
c73 39 96 98 96 289c0 228 -42 280 -133 280z" />
    <glyph glyph-name="mu" unicode="&#x3bc;" horiz-adv-x="635" 
d="M575 500v-390c0 -30 0 -70 50 -100v-10h-245l-5 110h-2l-88 -96c-9 -5 -20 -11 -34 -15c-11 -128 -59 -165 -237 -219l-5 10c46 53 46 77 46 290v340c0 20 0 40 -50 70v10h250v-345c0 -35 10 -55 50 -55c30 0 52 9 70 20v300c0 20 0 40 -50 70v10h250z" />
    <glyph glyph-name="pi" unicode="&#x3c0;" horiz-adv-x="654" 
d="M644 500v-10c-50 -30 -50 -70 -50 -100v-310c0 -20 0 -40 50 -70v-10h-300v10c50 30 50 50 50 70v410h-134v-410c0 -20 0 -40 50 -70v-10h-300v10c50 30 50 50 50 70v310c0 30 0 70 -50 100v10h634z" />
    <glyph glyph-name="zero" unicode="0" horiz-adv-x="700" 
d="M30 360c0 241 144 370 320 370c177 0 320 -129 320 -370c0 -242 -143 -370 -320 -370c-176 0 -320 128 -320 370zM250 360c0 -230 10 -360 100 -360s100 130 100 360s-10 360 -100 360s-100 -130 -100 -360z" />
    <glyph glyph-name="one" unicode="1" horiz-adv-x="385" 
d="M300 730v-640c0 -40 0 -60 70 -80v-10h-350v10c70 20 70 40 70 80v484c0 60 0 82 -70 82v10z" />
    <glyph glyph-name="two" unicode="2" horiz-adv-x="590" 
d="M49 180h398c42 0 62 3 93 20h10l-10 -200h-510v180c250 80 317 249 317 384c0 106 -37 156 -98 156c-79 0 -140 -87 -192 -177h-10v159c71 20 149 28 216 28c183 0 302 -65 302 -210c0 -237 -380 -309 -516 -340z" />
    <glyph glyph-name="three" unicode="3" horiz-adv-x="600" 
d="M258 377v-5c218 -1 312 -74 312 -188c0 -140 -167 -194 -323 -194c-68 0 -136 9 -207 28l-10 152h10c72 -108 106 -170 185 -170c105 0 125 95 125 179c0 112 -72 191 -195 191v10c129 0 205 51 205 178c0 132 -69 162 -120 162c-69 0 -99 -52 -182 -170h-10v152
c72 19 150 28 216 28c183 0 296 -49 296 -175c0 -69 -42 -177 -302 -178z" />
    <glyph glyph-name="four" unicode="4" horiz-adv-x="660" 
d="M570 200v-120c0 -20 0 -40 50 -70v-10h-310v10c50 30 50 50 50 70v120h-350v10c244 80 319 336 319 510h240c0 -284 -332 -493 -550 -510h341v80l200 110h10v-190h70v-10h-70z" />
    <glyph glyph-name="five" unicode="5" horiz-adv-x="585" 
d="M71 530l-2 -150c32 9 111 30 201 30c134 0 285 -49 285 -202c0 -159 -126 -218 -322 -218c-67 0 -131 8 -203 28l-10 152h10c73 -109 128 -170 198 -170c50 0 112 40 112 186c0 94 -34 194 -170 194c-25 0 -78 -5 -111 -10v350h374c39 0 53 4 72 20h10l-10 -210h-434z
" />
    <glyph glyph-name="six" unicode="6" horiz-adv-x="640" 
d="M383 730c67 0 116 -8 190 -28v-152h-10c-74 106 -110 170 -183 170c-109 0 -130 -102 -130 -367c0 -230 10 -353 81 -353c50 0 69 69 69 199c0 173 -22 218 -87 218c-9 0 -23 -3 -33 -7v10c25 12 80 17 105 17c146 0 235 -74 235 -214c0 -151 -139 -233 -289 -233
c-173 0 -301 109 -301 362c0 278 162 378 353 378z" />
    <glyph glyph-name="seven" unicode="7" horiz-adv-x="560" 
d="M545 720v-190c-164 -110 -174 -356 -174 -530h-240c0 284 267 483 405 530h-439c-39 0 -53 -4 -72 -20h-10l10 210h520z" />
    <glyph glyph-name="eight" unicode="8" horiz-adv-x="620" 
d="M380 121c0 181 -335 171 -335 402c0 132 126 207 280 207c194 0 245 -89 245 -159c0 -56 -38 -136 -133 -136l-9 5c22 24 47 70 47 144c0 95 -54 136 -118 136c-71 0 -122 -46 -122 -108c0 -192 355 -196 355 -415c0 -132 -121 -207 -315 -207s-245 89 -245 159
c0 56 38 136 133 136l9 -5c-22 -24 -47 -70 -47 -144c0 -95 64 -136 128 -136c81 0 127 49 127 121z" />
    <glyph glyph-name="nine" unicode="9" horiz-adv-x="640" 
d="M257 -10c-67 0 -116 8 -190 28v152h10c74 -106 110 -170 183 -170c109 0 130 102 130 367c0 230 -10 353 -81 353c-50 0 -69 -69 -69 -199c0 -173 22 -218 87 -218c9 0 23 3 33 7v-10c-25 -12 -80 -17 -105 -17c-146 0 -235 74 -235 214c0 151 139 233 289 233
c173 0 301 -109 301 -362c0 -278 -162 -378 -353 -378z" />
    <glyph glyph-name="zero.lf" horiz-adv-x="700" 
d="M30 360c0 241 144 370 320 370c177 0 320 -129 320 -370c0 -242 -143 -370 -320 -370c-176 0 -320 128 -320 370zM250 360c0 -230 10 -360 100 -360s100 130 100 360s-10 360 -100 360s-100 -130 -100 -360z" />
    <glyph glyph-name="one.lf" horiz-adv-x="385" 
d="M300 730v-640c0 -40 0 -60 70 -80v-10h-350v10c70 20 70 40 70 80v484c0 60 0 82 -70 82v10z" />
    <glyph glyph-name="two.lf" horiz-adv-x="590" 
d="M49 180h398c42 0 62 3 93 20h10l-10 -200h-510v180c250 80 317 249 317 384c0 106 -37 156 -98 156c-79 0 -140 -87 -192 -177h-10v159c71 20 149 28 216 28c183 0 302 -65 302 -210c0 -237 -380 -309 -516 -340z" />
    <glyph glyph-name="three.lf" horiz-adv-x="600" 
d="M258 377v-5c218 -1 312 -74 312 -188c0 -140 -167 -194 -323 -194c-68 0 -136 9 -207 28l-10 152h10c72 -108 106 -170 185 -170c105 0 125 95 125 179c0 112 -72 191 -195 191v10c129 0 205 51 205 178c0 132 -69 162 -120 162c-69 0 -99 -52 -182 -170h-10v152
c72 19 150 28 216 28c183 0 296 -49 296 -175c0 -69 -42 -177 -302 -178z" />
    <glyph glyph-name="four.lf" horiz-adv-x="660" 
d="M570 200v-120c0 -20 0 -40 50 -70v-10h-310v10c50 30 50 50 50 70v120h-350v10c244 80 319 336 319 510h240c0 -284 -332 -493 -550 -510h341v80l200 110h10v-190h70v-10h-70z" />
    <glyph glyph-name="five.lf" horiz-adv-x="585" 
d="M71 530l-2 -150c32 9 111 30 201 30c134 0 285 -49 285 -202c0 -159 -126 -218 -322 -218c-67 0 -131 8 -203 28l-10 152h10c73 -109 128 -170 198 -170c50 0 112 40 112 186c0 94 -34 194 -170 194c-25 0 -78 -5 -111 -10v350h374c39 0 53 4 72 20h10l-10 -210h-434z
" />
    <glyph glyph-name="six.lf" horiz-adv-x="640" 
d="M383 730c67 0 116 -8 190 -28v-152h-10c-74 106 -110 170 -183 170c-109 0 -130 -102 -130 -367c0 -230 10 -353 81 -353c50 0 69 69 69 199c0 173 -22 218 -87 218c-9 0 -23 -3 -33 -7v10c25 12 80 17 105 17c146 0 235 -74 235 -214c0 -151 -139 -233 -289 -233
c-173 0 -301 109 -301 362c0 278 162 378 353 378z" />
    <glyph glyph-name="seven.lf" horiz-adv-x="560" 
d="M545 720v-190c-164 -110 -174 -356 -174 -530h-240c0 284 267 483 405 530h-439c-39 0 -53 -4 -72 -20h-10l10 210h520z" />
    <glyph glyph-name="eight.lf" horiz-adv-x="620" 
d="M380 121c0 181 -335 171 -335 402c0 132 126 207 280 207c194 0 245 -89 245 -159c0 -56 -38 -136 -133 -136l-9 5c22 24 47 70 47 144c0 95 -54 136 -118 136c-71 0 -122 -46 -122 -108c0 -192 355 -196 355 -415c0 -132 -121 -207 -315 -207s-245 89 -245 159
c0 56 38 136 133 136l9 -5c-22 -24 -47 -70 -47 -144c0 -95 64 -136 128 -136c81 0 127 49 127 121z" />
    <glyph glyph-name="nine.lf" horiz-adv-x="640" 
d="M257 -10c-67 0 -116 8 -190 28v152h10c74 -106 110 -170 183 -170c109 0 130 102 130 367c0 230 -10 353 -81 353c-50 0 -69 -69 -69 -199c0 -173 22 -218 87 -218c9 0 23 3 33 7v-10c-25 -12 -80 -17 -105 -17c-146 0 -235 74 -235 214c0 151 139 233 289 233
c173 0 301 -109 301 -362c0 -278 -162 -378 -353 -378z" />
    <glyph glyph-name="zero.osf" horiz-adv-x="670" 
d="M30 250c0 191 129 260 305 260c177 0 305 -69 305 -260c0 -192 -128 -260 -305 -260c-176 0 -305 68 -305 260zM250 250c0 -170 15 -250 85 -250s85 80 85 250s-15 250 -85 250s-85 -80 -85 -250z" />
    <glyph glyph-name="one.osf" horiz-adv-x="385" 
d="M300 510v-420c0 -40 0 -60 70 -80v-10h-350v10c70 20 70 40 70 80v264c0 60 0 82 -70 82v10z" />
    <glyph glyph-name="two.osf" horiz-adv-x="570" 
d="M50 160h377c42 0 62 3 93 20h10l-10 -180h-490v160c250 80 297 169 297 244c0 66 -27 96 -88 96c-79 0 -130 -87 -182 -177h-10v159c71 20 139 28 206 28c183 0 292 -45 292 -150c0 -178 -359 -175 -495 -200z" />
    <glyph glyph-name="three.osf" horiz-adv-x="600" 
d="M258 157v-5c218 -1 312 -74 312 -188c0 -140 -167 -194 -323 -194c-68 0 -136 9 -207 28l-10 152h10c72 -108 106 -170 185 -170c105 0 125 95 125 179c0 112 -72 191 -195 191v10c129 0 205 51 205 178c0 132 -69 162 -120 162c-69 0 -99 -52 -182 -170h-10v152
c72 19 150 28 216 28c183 0 296 -49 296 -175c0 -69 -42 -177 -302 -178z" />
    <glyph glyph-name="four.osf" horiz-adv-x="660" 
d="M640 0h-70v-220h-210v220h-350v10c244 80 319 316 319 490h240c0 -264 -332 -473 -550 -490h341v80l200 110h10v-190h70v-10z" />
    <glyph glyph-name="five.osf" horiz-adv-x="585" 
d="M71 310l-2 -150c32 9 111 30 201 30c134 0 285 -49 285 -202c0 -159 -126 -218 -322 -218c-67 0 -131 8 -203 28l-10 152h10c73 -109 128 -170 198 -170c50 0 112 40 112 186c0 94 -34 194 -170 194c-25 0 -78 -5 -111 -10v350h374c39 0 53 4 72 20h10l-10 -210h-434z
" />
    <glyph glyph-name="six.osf" horiz-adv-x="650" 
d="M383 730c67 0 116 -8 190 -28v-152h-10c-74 106 -110 170 -183 170c-109 0 -130 -102 -130 -367c0 -230 10 -353 81 -353c50 0 69 69 69 199c0 173 -22 218 -87 218c-9 0 -23 -3 -33 -7v10c25 12 80 17 105 17c146 0 235 -74 235 -214c0 -151 -139 -233 -289 -233
c-173 0 -301 109 -301 362c0 278 162 378 353 378z" />
    <glyph glyph-name="seven.osf" horiz-adv-x="580" 
d="M555 500v-190c-164 -110 -174 -356 -174 -530h-240c0 284 267 483 405 530h-439c-39 0 -53 -4 -72 -20h-10l10 210h520z" />
    <glyph glyph-name="eight.osf" horiz-adv-x="620" 
d="M380 121c0 181 -335 171 -335 402c0 132 126 207 280 207c194 0 245 -89 245 -159c0 -56 -38 -136 -133 -136l-9 5c22 24 47 70 47 144c0 95 -54 136 -118 136c-71 0 -122 -46 -122 -108c0 -192 355 -196 355 -415c0 -132 -121 -207 -315 -207s-245 89 -245 159
c0 56 38 136 133 136l9 -5c-22 -24 -47 -70 -47 -144c0 -95 64 -136 128 -136c81 0 127 49 127 121z" />
    <glyph glyph-name="nine.osf" horiz-adv-x="650" 
d="M267 -230c-67 0 -116 8 -190 28v152h10c74 -106 110 -170 183 -170c109 0 130 102 130 367c0 230 -10 353 -81 353c-50 0 -69 -69 -69 -199c0 -173 22 -218 87 -218c9 0 23 3 33 7v-10c-25 -12 -80 -17 -105 -17c-146 0 -235 74 -235 214c0 151 139 233 289 233
c173 0 301 -109 301 -362c0 -278 -162 -378 -353 -378z" />
    <glyph glyph-name="zero.subs" horiz-adv-x="486" 
d="M30 140c0 161 96 250 213 250c118 0 213 -89 213 -250s-95 -250 -213 -250c-117 0 -213 89 -213 250zM176 140c0 -153 7 -240 67 -240s67 87 67 240s-7 240 -67 240s-67 -87 -67 -240z" />
    <glyph glyph-name="one.subs" horiz-adv-x="268" 
d="M206 387v-424c0 -27 0 -40 47 -53v-10h-233v10c46 13 46 26 46 53v320c0 40 0 54 -46 54v10z" />
    <glyph glyph-name="two.subs" horiz-adv-x="412" 
d="M49 20h256c28 0 42 2 62 13h10l-7 -133h-340v120c167 53 212 166 212 256c0 71 -25 104 -66 104c-52 0 -89 -58 -124 -118h-10v106c47 13 99 22 144 22c122 0 201 -47 201 -143c0 -159 -248 -207 -338 -227z" />
    <glyph glyph-name="three.subs" horiz-adv-x="420" 
d="M182 151v-3c145 -1 208 -49 208 -125c0 -94 -111 -133 -215 -133c-46 0 -91 9 -138 22l-7 101h10c48 -72 67 -113 120 -113c70 0 83 63 83 119c0 75 -48 126 -130 126v10c86 0 137 32 137 117c0 88 -46 108 -80 108c-46 0 -63 -35 -118 -113h-10v101c48 13 100 22 144 22
c122 0 197 -36 197 -120c0 -46 -28 -118 -201 -119z" />
    <glyph glyph-name="four.subs" horiz-adv-x="450" 
d="M383 30v-74c0 -13 0 -26 33 -46v-10h-206v10c33 20 33 33 33 46v74h-233v10c162 53 212 224 212 340h160c0 -189 -207 -309 -352 -340h213v53l133 74h7v-127h47v-10h-47z" />
    <glyph glyph-name="five.subs" horiz-adv-x="407" 
d="M57 253v-99c21 6 70 19 130 19c89 0 190 -32 190 -134c0 -106 -84 -149 -215 -149c-45 0 -87 9 -135 22l-7 101h10c48 -72 82 -113 129 -113c33 0 74 27 74 124c0 63 -22 129 -113 129c-20 0 -51 -6 -74 -12v239h246c26 0 36 3 48 13h10l-7 -140h-286z" />
    <glyph glyph-name="six.subs" horiz-adv-x="443" 
d="M265 390c45 0 77 -9 127 -22v-101h-10c-49 70 -70 113 -119 113c-73 0 -87 -68 -87 -245c0 -153 7 -235 54 -235c34 0 46 46 46 133c0 112 -14 142 -58 142c-6 0 -15 -2 -22 -5v10c17 8 54 11 70 11c98 0 157 -49 157 -142c0 -101 -93 -159 -193 -159
c-115 0 -200 76 -200 245c0 185 108 255 235 255z" />
    <glyph glyph-name="seven.subs" horiz-adv-x="384" 
d="M369 380v-127c-110 -73 -116 -237 -116 -353h-160c0 189 172 322 264 353h-284c-26 0 -35 -2 -48 -13h-10l7 140h347z" />
    <glyph glyph-name="eight.subs" horiz-adv-x="434" 
d="M264 -19c0 120 -224 114 -224 268c0 88 84 141 187 141c129 0 163 -63 163 -109c0 -38 -25 -91 -84 -91l-10 3c14 16 31 47 31 96c0 64 -36 91 -79 91c-47 0 -81 -31 -81 -72c0 -128 237 -131 237 -277c0 -88 -81 -141 -210 -141c-130 0 -164 63 -164 109
c0 38 26 91 85 91l10 -3c-15 -16 -31 -47 -31 -96c0 -64 42 -91 85 -91c54 0 85 33 85 81z" />
    <glyph glyph-name="nine.subs" horiz-adv-x="443" 
d="M178 -110c-45 0 -77 9 -127 22v101h10c49 -70 70 -113 119 -113c73 0 87 68 87 245c0 153 -7 235 -54 235c-34 0 -46 -46 -46 -133c0 -112 14 -142 58 -142c6 0 15 2 22 5v-10c-17 -8 -54 -11 -70 -11c-98 0 -157 49 -157 142c0 101 93 159 193 159
c115 0 200 -76 200 -245c0 -185 -108 -255 -235 -255z" />
    <glyph glyph-name="zero.sups" horiz-adv-x="486" 
d="M30 580c0 161 96 250 213 250c118 0 213 -89 213 -250s-95 -250 -213 -250c-117 0 -213 89 -213 250zM176 580c0 -153 7 -240 67 -240s67 87 67 240s-7 240 -67 240s-67 -87 -67 -240z" />
    <glyph glyph-name="one.sups" horiz-adv-x="268" 
d="M206 827v-424c0 -27 0 -40 47 -53v-10h-233v10c46 13 46 26 46 53v320c0 40 0 54 -46 54v10z" />
    <glyph glyph-name="two.sups" horiz-adv-x="412" 
d="M49 460h256c28 0 42 2 62 13h10l-7 -133h-340v120c167 53 212 166 212 256c0 71 -25 104 -66 104c-52 0 -89 -58 -124 -118h-10v106c47 13 99 22 144 22c122 0 201 -47 201 -143c0 -159 -248 -207 -338 -227z" />
    <glyph glyph-name="three.sups" horiz-adv-x="420" 
d="M182 591v-3c145 -1 208 -49 208 -125c0 -94 -111 -133 -215 -133c-46 0 -91 9 -138 22l-7 101h10c48 -72 67 -113 120 -113c70 0 83 63 83 119c0 75 -48 126 -130 126v10c86 0 137 32 137 117c0 88 -46 108 -80 108c-46 0 -63 -35 -118 -113h-10v101c48 13 100 22 144 22
c122 0 197 -36 197 -120c0 -46 -28 -118 -201 -119z" />
    <glyph glyph-name="four.sups" horiz-adv-x="450" 
d="M383 470v-74c0 -13 0 -26 33 -46v-10h-206v10c33 20 33 33 33 46v74h-233v10c162 53 212 224 212 340h160c0 -189 -207 -309 -352 -340h213v53l133 74h7v-127h47v-10h-47z" />
    <glyph glyph-name="five.sups" horiz-adv-x="407" 
d="M57 693v-99c21 6 70 19 130 19c89 0 190 -32 190 -134c0 -106 -84 -149 -215 -149c-45 0 -87 9 -135 22l-7 101h10c48 -72 82 -113 129 -113c33 0 74 27 74 124c0 63 -22 129 -113 129c-20 0 -51 -6 -74 -12v239h246c26 0 36 3 48 13h10l-7 -140h-286z" />
    <glyph glyph-name="six.sups" horiz-adv-x="443" 
d="M265 830c45 0 77 -9 127 -22v-101h-10c-49 70 -70 113 -119 113c-73 0 -87 -68 -87 -245c0 -153 7 -235 54 -235c34 0 46 46 46 133c0 112 -14 142 -58 142c-6 0 -15 -2 -22 -5v10c17 8 54 11 70 11c98 0 157 -49 157 -142c0 -101 -93 -159 -193 -159
c-115 0 -200 76 -200 245c0 185 108 255 235 255z" />
    <glyph glyph-name="seven.sups" horiz-adv-x="384" 
d="M369 820v-127c-110 -73 -116 -237 -116 -353h-160c0 189 172 322 264 353h-284c-26 0 -35 -2 -48 -13h-10l7 140h347z" />
    <glyph glyph-name="eight.sups" horiz-adv-x="434" 
d="M264 421c0 120 -224 114 -224 268c0 88 84 141 187 141c129 0 163 -63 163 -109c0 -38 -25 -91 -84 -91l-10 3c14 16 31 47 31 96c0 64 -36 91 -79 91c-47 0 -81 -31 -81 -72c0 -128 237 -131 237 -277c0 -88 -81 -141 -210 -141c-130 0 -164 63 -164 109
c0 38 26 91 85 91l10 -3c-15 -16 -31 -47 -31 -96c0 -64 42 -91 85 -91c54 0 85 33 85 81z" />
    <glyph glyph-name="nine.sups" horiz-adv-x="443" 
d="M178 330c-45 0 -77 9 -127 22v101h10c49 -70 70 -113 119 -113c73 0 87 68 87 245c0 153 -7 235 -54 235c-34 0 -46 -46 -46 -133c0 -112 14 -142 58 -142c6 0 15 2 22 5v-10c-17 -8 -54 -11 -70 -11c-98 0 -157 49 -157 142c0 101 93 159 193 159
c115 0 200 -76 200 -245c0 -185 -108 -255 -235 -255z" />
    <glyph glyph-name="zero.tf" horiz-adv-x="700" 
d="M30 360c0 241 144 370 320 370c177 0 320 -129 320 -370c0 -242 -143 -370 -320 -370c-176 0 -320 128 -320 370zM250 360c0 -230 10 -360 100 -360s100 130 100 360s-10 360 -100 360s-100 -130 -100 -360z" />
    <glyph glyph-name="one.tf" horiz-adv-x="700" 
d="M455 730v-640c0 -40 0 -60 170 -80v-10h-550v10c170 20 170 40 170 80v484c0 60 0 82 -170 82v10z" />
    <glyph glyph-name="two.tf" horiz-adv-x="700" 
d="M99 180h398c42 0 62 3 93 20h10l-10 -200h-510v180c250 80 317 249 317 384c0 106 -37 156 -98 156c-79 0 -140 -87 -192 -177h-10v159c71 20 149 28 216 28c183 0 302 -65 302 -210c0 -237 -380 -309 -516 -340z" />
    <glyph glyph-name="three.tf" horiz-adv-x="700" 
d="M308 377v-5c218 -1 312 -74 312 -188c0 -140 -167 -194 -323 -194c-68 0 -136 9 -207 28l-10 152h10c72 -108 106 -170 185 -170c105 0 125 95 125 179c0 112 -72 191 -195 191v10c129 0 205 51 205 178c0 132 -69 162 -120 162c-69 0 -99 -52 -182 -170h-10v152
c72 19 150 28 216 28c183 0 296 -49 296 -175c0 -69 -42 -177 -302 -178z" />
    <glyph glyph-name="four.tf" horiz-adv-x="700" 
d="M595 200v-120c0 -20 0 -40 50 -70v-10h-310v10c50 30 50 50 50 70v120h-350v10c244 80 319 336 319 510h240c0 -284 -332 -493 -550 -510h341v80l200 110h10v-190h70v-10h-70z" />
    <glyph glyph-name="five.tf" horiz-adv-x="700" 
d="M131 530l-2 -150c32 9 111 30 201 30c134 0 285 -49 285 -202c0 -159 -126 -218 -322 -218c-67 0 -131 8 -203 28l-10 152h10c73 -109 128 -170 198 -170c50 0 112 40 112 186c0 94 -34 194 -170 194c-25 0 -78 -5 -111 -10v350h374c39 0 53 4 72 20h10l-10 -210h-434z
" />
    <glyph glyph-name="six.tf" horiz-adv-x="700" 
d="M408 730c67 0 116 -8 190 -28v-152h-10c-74 106 -110 170 -183 170c-109 0 -130 -102 -130 -367c0 -230 10 -353 81 -353c50 0 69 69 69 199c0 173 -22 218 -87 218c-9 0 -23 -3 -33 -7v10c25 12 80 17 105 17c146 0 235 -74 235 -214c0 -151 -139 -233 -289 -233
c-173 0 -301 109 -301 362c0 278 162 378 353 378z" />
    <glyph glyph-name="seven.tf" horiz-adv-x="700" 
d="M615 720v-190c-164 -110 -174 -356 -174 -530h-240c0 284 267 483 405 530h-439c-39 0 -53 -4 -72 -20h-10l10 210h520z" />
    <glyph glyph-name="eight.tf" horiz-adv-x="700" 
d="M420 121c0 181 -335 171 -335 402c0 132 126 207 280 207c194 0 245 -89 245 -159c0 -56 -38 -136 -133 -136l-9 5c22 24 47 70 47 144c0 95 -54 136 -118 136c-71 0 -122 -46 -122 -108c0 -192 355 -196 355 -415c0 -132 -121 -207 -315 -207s-245 89 -245 159
c0 56 38 136 133 136l9 -5c-22 -24 -47 -70 -47 -144c0 -95 64 -136 128 -136c81 0 127 49 127 121z" />
    <glyph glyph-name="nine.tf" horiz-adv-x="700" 
d="M292 -10c-67 0 -116 8 -190 28v152h10c74 -106 110 -170 183 -170c109 0 130 102 130 367c0 230 -10 353 -81 353c-50 0 -69 -69 -69 -199c0 -173 22 -218 87 -218c9 0 23 3 33 7v-10c-25 -12 -80 -17 -105 -17c-146 0 -235 74 -235 214c0 151 139 233 289 233
c173 0 301 -109 301 -362c0 -278 -162 -378 -353 -378z" />
    <glyph glyph-name="zero.tosf" horiz-adv-x="670" 
d="M30 250c0 191 129 260 305 260c177 0 305 -69 305 -260c0 -192 -128 -260 -305 -260c-176 0 -305 68 -305 260zM250 250c0 -170 15 -250 85 -250s85 80 85 250s-15 250 -85 250s-85 -80 -85 -250z" />
    <glyph glyph-name="one.tosf" horiz-adv-x="670" 
d="M440 510v-420c0 -40 0 -60 130 -80v-10h-470v10c130 20 130 40 130 80v264c0 60 0 82 -130 82v10z" />
    <glyph glyph-name="two.tosf" horiz-adv-x="670" 
d="M95 160h377c42 0 62 3 93 20h10l-10 -180h-490v160c250 80 297 169 297 244c0 66 -27 96 -88 96c-79 0 -130 -87 -182 -177h-10v159c71 20 139 28 206 28c183 0 292 -45 292 -150c0 -178 -359 -175 -495 -200z" />
    <glyph glyph-name="three.tosf" horiz-adv-x="670" 
d="M293 157v-5c218 -1 312 -74 312 -188c0 -140 -167 -194 -323 -194c-68 0 -136 9 -207 28l-10 152h10c72 -108 106 -170 185 -170c105 0 125 95 125 179c0 112 -72 191 -195 191v10c129 0 205 51 205 178c0 132 -69 162 -120 162c-69 0 -99 -52 -182 -170h-10v152
c72 19 150 28 216 28c183 0 296 -49 296 -175c0 -69 -42 -177 -302 -178z" />
    <glyph glyph-name="four.tosf" horiz-adv-x="670" 
d="M650 0h-70v-220h-210v220h-350v10c244 80 319 316 319 490h240c0 -264 -332 -473 -550 -490h341v80l200 110h10v-190h70v-10z" />
    <glyph glyph-name="five.tosf" horiz-adv-x="670" 
d="M121 310l-2 -150c32 9 111 30 201 30c134 0 285 -49 285 -202c0 -159 -126 -218 -322 -218c-67 0 -131 8 -203 28l-10 152h10c73 -109 128 -170 198 -170c50 0 112 40 112 186c0 94 -34 194 -170 194c-25 0 -78 -5 -111 -10v350h374c39 0 53 4 72 20h10l-10 -210h-434z
" />
    <glyph glyph-name="six.tosf" horiz-adv-x="670" 
d="M393 730c67 0 116 -8 190 -28v-152h-10c-74 106 -110 170 -183 170c-109 0 -130 -102 -130 -367c0 -230 10 -353 81 -353c50 0 69 69 69 199c0 173 -22 218 -87 218c-9 0 -23 -3 -33 -7v10c25 12 80 17 105 17c146 0 235 -74 235 -214c0 -151 -139 -233 -289 -233
c-173 0 -301 109 -301 362c0 278 162 378 353 378z" />
    <glyph glyph-name="seven.tosf" horiz-adv-x="670" 
d="M600 500v-190c-164 -110 -174 -356 -174 -530h-240c0 284 267 483 405 530h-439c-39 0 -53 -4 -72 -20h-10l10 210h520z" />
    <glyph glyph-name="eight.tosf" horiz-adv-x="670" 
d="M405 121c0 181 -335 171 -335 402c0 132 126 207 280 207c194 0 245 -89 245 -159c0 -56 -38 -136 -133 -136l-9 5c22 24 47 70 47 144c0 95 -54 136 -118 136c-71 0 -122 -46 -122 -108c0 -192 355 -196 355 -415c0 -132 -121 -207 -315 -207s-245 89 -245 159
c0 56 38 136 133 136l9 -5c-22 -24 -47 -70 -47 -144c0 -95 64 -136 128 -136c81 0 127 49 127 121z" />
    <glyph glyph-name="nine.tosf" horiz-adv-x="670" 
d="M277 -230c-67 0 -116 8 -190 28v152h10c74 -106 110 -170 183 -170c109 0 130 102 130 367c0 230 -10 353 -81 353c-50 0 -69 -69 -69 -199c0 -173 22 -218 87 -218c9 0 23 3 33 7v-10c-25 -12 -80 -17 -105 -17c-146 0 -235 74 -235 214c0 151 139 233 289 233
c173 0 301 -109 301 -362c0 -278 -162 -378 -353 -378z" />
    <glyph glyph-name="fraction" unicode="&#x2044;" horiz-adv-x="522" 
d="M282 380h-20l215 340h20zM45 0h-20l215 340h20z" />
    <glyph glyph-name="onehalf" unicode="&#xbd;" horiz-adv-x="922" 
d="M253 240h-233v10c46 13 46 26 46 53v320c0 40 0 54 -46 54v10l186 40v-424c0 -27 0 -40 47 -53v-10zM645 720l-215 -340h-20l215 340h20zM559 120h256c28 0 42 2 62 13h10l-7 -133h-340v120c167 53 212 166 212 256c0 71 -25 104 -66 104c-52 0 -89 -58 -124 -118h-10
v106c47 13 99 22 144 22c122 0 201 -47 201 -143c0 -159 -248 -207 -338 -227zM388 340h20l-215 -340h-20z" />
    <glyph glyph-name="onequarter" unicode="&#xbc;" horiz-adv-x="870" 
d="M253 240h-233v10c46 13 46 26 46 53v320c0 40 0 54 -46 54v10l186 40v-424c0 -27 0 -40 47 -53v-10zM430 380h-20l215 340h20zM803 130v-74c0 -13 0 -26 33 -46v-10h-206v10c33 20 33 33 33 46v74h-233v10c162 53 212 224 212 340h160c0 -189 -207 -309 -352 -340h213v53
l133 74h7v-127h47v-10h-47zM388 340h20l-215 -340h-20z" />
    <glyph glyph-name="threequarters" unicode="&#xbe;" horiz-adv-x="962" 
d="M390 363c0 -94 -111 -133 -215 -133c-46 0 -91 9 -138 22l-7 101h10c48 -72 67 -113 120 -113c70 0 83 63 83 119c0 75 -48 126 -130 126v10c86 0 137 32 137 117c0 88 -46 108 -80 108c-46 0 -63 -35 -118 -113h-10v101c48 13 100 22 144 22c122 0 197 -36 197 -120
c0 -46 -28 -118 -201 -119v-3c145 -1 208 -49 208 -125zM522 380h-20l215 340h20zM895 130v-74c0 -13 0 -26 33 -46v-10h-206v10c33 20 33 33 33 46v74h-233v10c162 53 212 224 212 340h160c0 -189 -207 -309 -352 -340h213v53l133 74h7v-127h47v-10h-47zM480 340h20
l-215 -340h-20z" />
    <glyph glyph-name="oneeighth" unicode="&#x215b;" horiz-adv-x="924" 
d="M206 727v-424c0 -27 0 -40 47 -53v-10h-233v10c46 13 46 26 46 53v320c0 40 0 54 -46 54v10zM430 380h-20l215 340h20zM754 81c0 120 -224 114 -224 268c0 88 84 141 187 141c129 0 163 -63 163 -109c0 -38 -25 -91 -84 -91l-10 3c14 16 31 47 31 96c0 64 -36 91 -79 91
c-47 0 -81 -31 -81 -72c0 -128 237 -131 237 -277c0 -88 -81 -141 -210 -141c-130 0 -164 63 -164 109c0 38 26 91 85 91l10 -3c-15 -16 -31 -47 -31 -96c0 -64 42 -91 85 -91c54 0 85 33 85 81zM193 0h-20l215 340h20z" />
    <glyph glyph-name="threeeighths" unicode="&#x215c;" horiz-adv-x="1016" 
d="M182 491v-3c145 -1 208 -49 208 -125c0 -94 -111 -133 -215 -133c-46 0 -91 9 -138 22l-7 101h10c48 -72 67 -113 120 -113c70 0 83 63 83 119c0 75 -48 126 -130 126v10c86 0 137 32 137 117c0 88 -46 108 -80 108c-46 0 -63 -35 -118 -113h-10v101c48 13 100 22 144 22
c122 0 197 -36 197 -120c0 -46 -28 -118 -201 -119zM522 380h-20l215 340h20zM846 81c0 120 -224 114 -224 268c0 88 84 141 187 141c129 0 163 -63 163 -109c0 -38 -25 -91 -84 -91l-10 3c14 16 31 47 31 96c0 64 -36 91 -79 91c-47 0 -81 -31 -81 -72
c0 -128 237 -131 237 -277c0 -88 -81 -141 -210 -141c-130 0 -164 63 -164 109c0 38 26 91 85 91l10 -3c-15 -16 -31 -47 -31 -96c0 -64 42 -91 85 -91c54 0 85 33 85 81zM285 0h-20l215 340h20z" />
    <glyph glyph-name="fiveeighths" unicode="&#x215d;" horiz-adv-x="1003" 
d="M57 593v-99c21 6 70 19 130 19c89 0 190 -32 190 -134c0 -106 -84 -149 -215 -149c-45 0 -87 9 -135 22l-7 101h10c48 -72 82 -113 129 -113c33 0 74 27 74 124c0 63 -22 129 -113 129c-20 0 -51 -6 -74 -12v239h246c26 0 36 3 48 13h10l-7 -140h-286zM509 380h-20
l215 340h20zM833 81c0 120 -224 114 -224 268c0 88 84 141 187 141c129 0 163 -63 163 -109c0 -38 -25 -91 -84 -91l-10 3c14 16 31 47 31 96c0 64 -36 91 -79 91c-47 0 -81 -31 -81 -72c0 -128 237 -131 237 -277c0 -88 -81 -141 -210 -141c-130 0 -164 63 -164 109
c0 38 26 91 85 91l10 -3c-15 -16 -31 -47 -31 -96c0 -64 42 -91 85 -91c54 0 85 33 85 81zM272 0h-20l215 340h20z" />
    <glyph glyph-name="seveneighths" unicode="&#x215e;" horiz-adv-x="960" 
d="M369 720v-127c-110 -73 -116 -237 -116 -353h-160c0 189 172 322 264 353h-284c-26 0 -35 -2 -48 -13h-10l7 140h347zM466 380h-20l215 340h20zM790 81c0 120 -224 114 -224 268c0 88 84 141 187 141c129 0 163 -63 163 -109c0 -38 -25 -91 -84 -91l-10 3
c14 16 31 47 31 96c0 64 -36 91 -79 91c-47 0 -81 -31 -81 -72c0 -128 237 -131 237 -277c0 -88 -81 -141 -210 -141c-130 0 -164 63 -164 109c0 38 26 91 85 91l10 -3c-15 -16 -31 -47 -31 -96c0 -64 42 -91 85 -91c54 0 85 33 85 81zM229 0h-20l215 340h20z" />
    <glyph glyph-name="zero.dnom" horiz-adv-x="486" 
d="M30 240c0 161 96 250 213 250c118 0 213 -89 213 -250s-95 -250 -213 -250c-117 0 -213 89 -213 250zM176 240c0 -153 7 -240 67 -240s67 87 67 240s-7 240 -67 240s-67 -87 -67 -240z" />
    <glyph glyph-name="one.dnom" horiz-adv-x="268" 
d="M206 487v-424c0 -27 0 -40 47 -53v-10h-233v10c46 13 46 26 46 53v320c0 40 0 54 -46 54v10z" />
    <glyph glyph-name="two.dnom" horiz-adv-x="412" 
d="M49 120h256c28 0 42 2 62 13h10l-7 -133h-340v120c167 53 212 166 212 256c0 71 -25 104 -66 104c-52 0 -89 -58 -124 -118h-10v106c47 13 99 22 144 22c122 0 201 -47 201 -143c0 -159 -248 -207 -338 -227z" />
    <glyph glyph-name="three.dnom" horiz-adv-x="420" 
d="M182 251v-3c145 -1 208 -49 208 -125c0 -94 -111 -133 -215 -133c-46 0 -91 9 -138 22l-7 101h10c48 -72 67 -113 120 -113c70 0 83 63 83 119c0 75 -48 126 -130 126v10c86 0 137 32 137 117c0 88 -46 108 -80 108c-46 0 -63 -35 -118 -113h-10v101c48 13 100 22 144 22
c122 0 197 -36 197 -120c0 -46 -28 -118 -201 -119z" />
    <glyph glyph-name="four.dnom" horiz-adv-x="450" 
d="M383 130v-74c0 -13 0 -26 33 -46v-10h-206v10c33 20 33 33 33 46v74h-233v10c162 53 212 224 212 340h160c0 -189 -207 -309 -352 -340h213v53l133 74h7v-127h47v-10h-47z" />
    <glyph glyph-name="five.dnom" horiz-adv-x="407" 
d="M57 353v-99c21 6 70 19 130 19c89 0 190 -32 190 -134c0 -106 -84 -149 -215 -149c-45 0 -87 9 -135 22l-7 101h10c48 -72 82 -113 129 -113c33 0 74 27 74 124c0 63 -22 129 -113 129c-20 0 -51 -6 -74 -12v239h246c26 0 36 3 48 13h10l-7 -140h-286z" />
    <glyph glyph-name="six.dnom" horiz-adv-x="443" 
d="M265 490c45 0 77 -9 127 -22v-101h-10c-49 70 -70 113 -119 113c-73 0 -87 -68 -87 -245c0 -153 7 -235 54 -235c34 0 46 46 46 133c0 112 -14 142 -58 142c-6 0 -15 -2 -22 -5v10c17 8 54 11 70 11c98 0 157 -49 157 -142c0 -101 -93 -159 -193 -159
c-115 0 -200 76 -200 245c0 185 108 255 235 255z" />
    <glyph glyph-name="seven.dnom" horiz-adv-x="384" 
d="M369 480v-127c-110 -73 -116 -237 -116 -353h-160c0 189 172 322 264 353h-284c-26 0 -35 -2 -48 -13h-10l7 140h347z" />
    <glyph glyph-name="eight.dnom" horiz-adv-x="434" 
d="M264 81c0 120 -224 114 -224 268c0 88 84 141 187 141c129 0 163 -63 163 -109c0 -38 -25 -91 -84 -91l-10 3c14 16 31 47 31 96c0 64 -36 91 -79 91c-47 0 -81 -31 -81 -72c0 -128 237 -131 237 -277c0 -88 -81 -141 -210 -141c-130 0 -164 63 -164 109
c0 38 26 91 85 91l10 -3c-15 -16 -31 -47 -31 -96c0 -64 42 -91 85 -91c54 0 85 33 85 81z" />
    <glyph glyph-name="nine.dnom" horiz-adv-x="443" 
d="M178 -10c-45 0 -77 9 -127 22v101h10c49 -70 70 -113 119 -113c73 0 87 68 87 245c0 153 -7 235 -54 235c-34 0 -46 -46 -46 -133c0 -112 14 -142 58 -142c6 0 15 2 22 5v-10c-17 -8 -54 -11 -70 -11c-98 0 -157 49 -157 142c0 101 93 159 193 159
c115 0 200 -76 200 -245c0 -185 -108 -255 -235 -255z" />
    <glyph glyph-name="zero.numr" horiz-adv-x="486" 
d="M30 480c0 161 96 250 213 250c118 0 213 -89 213 -250s-95 -250 -213 -250c-117 0 -213 89 -213 250zM176 480c0 -153 7 -240 67 -240s67 87 67 240s-7 240 -67 240s-67 -87 -67 -240z" />
    <glyph glyph-name="one.numr" horiz-adv-x="268" 
d="M206 727v-424c0 -27 0 -40 47 -53v-10h-233v10c46 13 46 26 46 53v320c0 40 0 54 -46 54v10z" />
    <glyph glyph-name="two.numr" horiz-adv-x="412" 
d="M49 360h256c28 0 42 2 62 13h10l-7 -133h-340v120c167 53 212 166 212 256c0 71 -25 104 -66 104c-52 0 -89 -58 -124 -118h-10v106c47 13 99 22 144 22c122 0 201 -47 201 -143c0 -159 -248 -207 -338 -227z" />
    <glyph glyph-name="three.numr" horiz-adv-x="420" 
d="M182 491v-3c145 -1 208 -49 208 -125c0 -94 -111 -133 -215 -133c-46 0 -91 9 -138 22l-7 101h10c48 -72 67 -113 120 -113c70 0 83 63 83 119c0 75 -48 126 -130 126v10c86 0 137 32 137 117c0 88 -46 108 -80 108c-46 0 -63 -35 -118 -113h-10v101c48 13 100 22 144 22
c122 0 197 -36 197 -120c0 -46 -28 -118 -201 -119z" />
    <glyph glyph-name="four.numr" horiz-adv-x="450" 
d="M383 370v-74c0 -13 0 -26 33 -46v-10h-206v10c33 20 33 33 33 46v74h-233v10c162 53 212 224 212 340h160c0 -189 -207 -309 -352 -340h213v53l133 74h7v-127h47v-10h-47z" />
    <glyph glyph-name="five.numr" horiz-adv-x="407" 
d="M57 593v-99c21 6 70 19 130 19c89 0 190 -32 190 -134c0 -106 -84 -149 -215 -149c-45 0 -87 9 -135 22l-7 101h10c48 -72 82 -113 129 -113c33 0 74 27 74 124c0 63 -22 129 -113 129c-20 0 -51 -6 -74 -12v239h246c26 0 36 3 48 13h10l-7 -140h-286z" />
    <glyph glyph-name="six.numr" horiz-adv-x="443" 
d="M265 730c45 0 77 -9 127 -22v-101h-10c-49 70 -70 113 -119 113c-73 0 -87 -68 -87 -245c0 -153 7 -235 54 -235c34 0 46 46 46 133c0 112 -14 142 -58 142c-6 0 -15 -2 -22 -5v10c17 8 54 11 70 11c98 0 157 -49 157 -142c0 -101 -93 -159 -193 -159
c-115 0 -200 76 -200 245c0 185 108 255 235 255z" />
    <glyph glyph-name="seven.numr" horiz-adv-x="384" 
d="M369 720v-127c-110 -73 -116 -237 -116 -353h-160c0 189 172 322 264 353h-284c-26 0 -35 -2 -48 -13h-10l7 140h347z" />
    <glyph glyph-name="eight.numr" horiz-adv-x="434" 
d="M264 321c0 120 -224 114 -224 268c0 88 84 141 187 141c129 0 163 -63 163 -109c0 -38 -25 -91 -84 -91l-10 3c14 16 31 47 31 96c0 64 -36 91 -79 91c-47 0 -81 -31 -81 -72c0 -128 237 -131 237 -277c0 -88 -81 -141 -210 -141c-130 0 -164 63 -164 109
c0 38 26 91 85 91l10 -3c-15 -16 -31 -47 -31 -96c0 -64 42 -91 85 -91c54 0 85 33 85 81z" />
    <glyph glyph-name="nine.numr" horiz-adv-x="443" 
d="M178 230c-45 0 -77 9 -127 22v101h10c49 -70 70 -113 119 -113c73 0 87 68 87 245c0 153 -7 235 -54 235c-34 0 -46 -46 -46 -133c0 -112 14 -142 58 -142c6 0 15 2 22 5v-10c-17 -8 -54 -11 -70 -11c-98 0 -157 49 -157 142c0 101 93 159 193 159
c115 0 200 -76 200 -245c0 -185 -108 -255 -235 -255z" />
    <glyph glyph-name="asterisk" unicode="*" horiz-adv-x="338" 
d="M68 688c10 10 28 13 39 3c7 -8 36 -58 58 -94c-6 40 -26 97 -26 108c0 14 16 24 30 24s29 -10 29 -24c0 -10 -18 -70 -25 -108c19 29 50 86 58 94c10 10 28 8 38 -2s13 -28 2 -39c-7 -8 -57 -36 -93 -58c41 6 96 26 107 26c14 0 25 -16 25 -30s-11 -29 -25 -29
c-10 0 -68 17 -107 24c30 -19 85 -49 93 -56c10 -10 8 -29 -2 -39s-29 -13 -39 -2c-8 7 -35 57 -57 92c7 -39 26 -96 26 -106c0 -14 -16 -25 -30 -25s-29 11 -29 25c0 10 18 68 24 106c-18 -29 -49 -86 -56 -93c-10 -10 -29 -7 -39 3s-13 28 -2 39c6 7 57 34 93 56
c-40 -7 -98 -25 -108 -25c-14 0 -24 16 -24 30s10 29 24 29c10 0 69 -19 108 -25c-30 18 -87 50 -94 58c-10 10 -8 28 2 38z" />
    <glyph glyph-name="backslash" unicode="\" horiz-adv-x="290" 
d="M265 0h-20l-220 720h21z" />
    <glyph glyph-name="bullet" unicode="&#x2022;" horiz-adv-x="310" 
d="M55 230c0 55 45 100 100 100s100 -45 100 -100s-45 -100 -100 -100s-100 45 -100 100z" />
    <glyph glyph-name="colon" unicode=":" horiz-adv-x="260" 
d="M50 345c0 45 35 80 80 80s80 -35 80 -80s-35 -80 -80 -80s-80 35 -80 80zM50 70c0 45 35 80 80 80s80 -35 80 -80s-35 -80 -80 -80s-80 35 -80 80z" />
    <glyph glyph-name="comma" unicode="," horiz-adv-x="252" 
d="M68 -122l85 107c-72 0 -108 33 -108 82c0 51 32 85 77 85c55 0 80 -36 80 -90c0 -84 -93 -168 -124 -184h-10z" />
    <glyph glyph-name="ellipsis" unicode="&#x2026;" horiz-adv-x="660" 
d="M40 70c0 45 35 80 80 80s80 -35 80 -80s-35 -80 -80 -80s-80 35 -80 80zM250 70c0 45 35 80 80 80s80 -35 80 -80s-35 -80 -80 -80s-80 35 -80 80zM460 70c0 45 35 80 80 80s80 -35 80 -80s-35 -80 -80 -80s-80 35 -80 80z" />
    <glyph glyph-name="exclam" unicode="!" horiz-adv-x="300" 
d="M45 720h210l-100 -525h-10zM70 70c0 45 35 80 80 80s80 -35 80 -80s-35 -80 -80 -80s-80 35 -80 80z" />
    <glyph glyph-name="exclamdbl" unicode="&#x203c;" horiz-adv-x="535" 
d="M45 720h210l-100 -525h-10zM280 720h210l-100 -525h-10zM70 70c0 45 35 80 80 80s80 -35 80 -80s-35 -80 -80 -80s-80 35 -80 80zM305 70c0 45 35 80 80 80s80 -35 80 -80s-35 -80 -80 -80s-80 35 -80 80z" />
    <glyph glyph-name="exclamdown" unicode="&#xa1;" horiz-adv-x="280" 
d="M60 430c0 45 35 80 80 80s80 -35 80 -80s-35 -80 -80 -80s-80 35 -80 80zM145 305l100 -525h-210l100 525h10z" />
    <glyph glyph-name="numbersign" unicode="#" horiz-adv-x="525" 
d="M345 205h150v-20h-150v-145h-20v145h-125v-145h-20v145h-150v20h150v120h-150v20h150v145h20v-145h125v145h20v-145h150v-20h-150v-120zM200 325v-120h125v120h-125z" />
    <glyph glyph-name="onedotenleader" unicode="&#x2024;" horiz-adv-x="220" 
d="M30 70c0 45 35 80 80 80s80 -35 80 -80s-35 -80 -80 -80s-80 35 -80 80z" />
    <glyph glyph-name="period" unicode="." horiz-adv-x="240" 
d="M40 70c0 45 35 80 80 80s80 -35 80 -80s-35 -80 -80 -80s-80 35 -80 80z" />
    <glyph glyph-name="periodcentered" unicode="&#xb7;" horiz-adv-x="260" 
d="M50 290c0 45 35 80 80 80s80 -35 80 -80s-35 -80 -80 -80s-80 35 -80 80z" />
    <glyph glyph-name="question" unicode="?" horiz-adv-x="580" 
d="M330 564c0 106 -37 156 -98 156c-79 0 -140 -87 -192 -177h-10v159c71 20 149 28 216 28c183 0 304 -65 304 -210c0 -194 -215 -220 -340 -220v-100h-10v110c87 29 130 95 130 254zM125 70c0 45 35 80 80 80s80 -35 80 -80s-35 -80 -80 -80s-80 35 -80 80z" />
    <glyph glyph-name="questiondown" unicode="&#xbf;" horiz-adv-x="580" 
d="M455 430c0 -45 -35 -80 -80 -80s-80 35 -80 80s35 80 80 80s80 -35 80 -80zM250 -64c0 -106 37 -156 98 -156c79 0 140 87 192 177h10v-159c-71 -20 -149 -28 -216 -28c-183 0 -304 65 -304 210c0 194 215 220 340 220v100h10v-110c-87 -29 -130 -95 -130 -254z" />
    <glyph glyph-name="quotedbl" unicode="&#x22;" horiz-adv-x="430" 
d="M15 720h190l-90 -230h-10zM225 720h190l-90 -230h-10z" />
    <glyph glyph-name="quotesingle" unicode="'" horiz-adv-x="220" 
d="M15 720h190l-90 -230h-10z" />
    <glyph glyph-name="semicolon" unicode=";" horiz-adv-x="260" 
d="M50 345c0 45 35 80 80 80s80 -35 80 -80s-35 -80 -80 -80s-80 35 -80 80zM75 -125l85 105c-70 0 -110 35 -110 85s35 85 80 85c55 0 80 -35 80 -90c0 -85 -95 -170 -125 -185h-10z" />
    <glyph glyph-name="slash" unicode="/" horiz-adv-x="290" 
d="M265 720l-220 -720h-20l220 720h20z" />
    <glyph glyph-name="underscore" unicode="_" horiz-adv-x="565" 
d="M50 -55v20h465v-20h-465z" />
    <glyph glyph-name="braceleft" unicode="{" horiz-adv-x="350" 
d="M69 356v-2c196 -7 220 -32 220 -109c0 -57 -31 -160 -31 -229c0 -30 9 -86 52 -86v-10c-193 0 -250 36 -250 130c0 74 31 136 31 194c0 65 -24 106 -76 106v10c52 0 76 53 76 93c0 63 -31 126 -31 200c0 94 57 147 250 147v-10c-43 0 -52 -59 -52 -90
c0 -69 31 -168 31 -225c0 -78 -25 -110 -220 -119z" />
    <glyph glyph-name="braceright" unicode="}" horiz-adv-x="350" 
d="M281 364v2c-196 7 -220 32 -220 109c0 57 31 160 31 229c0 30 -9 86 -52 86v10c193 0 250 -36 250 -130c0 -74 -31 -136 -31 -194c0 -65 24 -106 76 -106v-10c-52 0 -76 -53 -76 -93c0 -63 31 -126 31 -200c0 -94 -57 -147 -250 -147v10c43 0 52 59 52 90
c0 69 -31 168 -31 225c0 78 25 110 220 119z" />
    <glyph glyph-name="bracketleft" unicode="[" horiz-adv-x="395" 
d="M380 800v-10h-90v-860h90v-10h-300v880h300z" />
    <glyph glyph-name="bracketright" unicode="]" horiz-adv-x="395" 
d="M15 -80v10h90v860h-90v10h300v-880h-300z" />
    <glyph glyph-name="parenleft" unicode="(" horiz-adv-x="375" 
d="M30 360c0 187 118 356 320 440h10c-90 -123 -120 -287 -120 -440s30 -317 120 -440h-10c-202 84 -320 253 -320 440z" />
    <glyph glyph-name="parenright" unicode=")" horiz-adv-x="375" 
d="M345 360c0 -187 -118 -356 -320 -440h-10c90 123 120 287 120 440s-30 317 -120 440h10c202 -84 320 -253 320 -440z" />
    <glyph glyph-name="emdash" unicode="&#x2014;" horiz-adv-x="860" 
d="M50 255v20h760v-20h-760z" />
    <glyph glyph-name="endash" unicode="&#x2013;" horiz-adv-x="660" 
d="M50 255v20h560v-20h-560z" />
    <glyph glyph-name="figuredash" unicode="&#x2012;" horiz-adv-x="565" 
d="M50 255v20h465v-20h-465z" />
    <glyph glyph-name="hyphen" unicode="-" horiz-adv-x="460" 
d="M50 255v20h360v-20h-360z" />
    <glyph glyph-name="softhyphen" unicode="&#xad;" horiz-adv-x="460" 
d="M50 255v20h360v-20h-360z" />
    <glyph glyph-name="guillemotleft" unicode="&#xab;" horiz-adv-x="605" 
d="M310 85l-10 -10l-280 189v12l280 189l10 -10l-115 -185zM570 85l-10 -10l-280 189v12l280 189l10 -10l-115 -185z" />
    <glyph glyph-name="guillemotright" unicode="&#xbb;" horiz-adv-x="605" 
d="M35 455l10 10l280 -189v-12l-280 -189l-10 10l115 185zM295 455l10 10l280 -189v-12l-280 -189l-10 10l115 185z" />
    <glyph glyph-name="guilsinglleft" unicode="&#x2039;" horiz-adv-x="345" 
d="M310 85l-10 -10l-280 189v12l280 189l10 -10l-115 -185z" />
    <glyph glyph-name="guilsinglright" unicode="&#x203a;" horiz-adv-x="345" 
d="M35 455l10 10l280 -189v-12l-280 -189l-10 10l115 185z" />
    <glyph glyph-name="quotedblbase" unicode="&#x201e;" horiz-adv-x="465" 
d="M70 -125l85 105c-70 0 -110 35 -110 85s35 85 80 85c55 0 80 -35 80 -90c0 -85 -95 -170 -125 -185h-10zM280 -125l85 105c-70 0 -110 35 -110 85s35 85 80 85c55 0 80 -35 80 -90c0 -85 -95 -170 -125 -185h-10z" />
    <glyph glyph-name="quotedblleft" unicode="&#x201c;" horiz-adv-x="450" 
d="M170 730l-85 -105c70 0 110 -35 110 -85s-35 -85 -80 -85c-55 0 -80 35 -80 90c0 85 95 170 125 185h10zM380 730l-85 -105c70 0 110 -35 110 -85s-35 -85 -80 -85c-55 0 -80 35 -80 90c0 85 95 170 125 185h10z" />
    <glyph glyph-name="quotedblright" unicode="&#x201d;" horiz-adv-x="450" 
d="M70 455l85 105c-70 0 -110 35 -110 85s35 85 80 85c55 0 80 -35 80 -90c0 -85 -95 -170 -125 -185h-10zM280 455l85 105c-70 0 -110 35 -110 85s35 85 80 85c55 0 80 -35 80 -90c0 -85 -95 -170 -125 -185h-10z" />
    <glyph glyph-name="quoteleft" unicode="&#x2018;" horiz-adv-x="240" 
d="M170 730l-85 -105c70 0 110 -35 110 -85s-35 -85 -80 -85c-55 0 -80 35 -80 90c0 85 95 170 125 185h10z" />
    <glyph glyph-name="quoteright" unicode="&#x2019;" horiz-adv-x="240" 
d="M70 455l85 105c-70 0 -110 35 -110 85s35 85 80 85c55 0 80 -35 80 -90c0 -85 -95 -170 -125 -185h-10z" />
    <glyph glyph-name="quotesinglbase" unicode="&#x201a;" horiz-adv-x="255" 
d="M70 -125l85 105c-70 0 -110 35 -110 85s35 85 80 85c55 0 80 -35 80 -90c0 -85 -95 -170 -125 -185h-10z" />
    <glyph glyph-name="space" unicode=" " horiz-adv-x="215" 
 />
    <glyph glyph-name="florin" unicode="&#x192;" horiz-adv-x="435" 
d="M102 370l20 131c17 111 122 229 358 229l-30 -174l-6 -2c-29 111 -44 156 -64 156c-25 0 -31 -17 -45 -110l-34 -230h140l-1 -10h-141l-56 -375c-17 -111 -122 -230 -358 -230l29 174l6 2c29 -111 44 -156 64 -156c25 0 31 17 44 110l72 475h-100l1 10h101z" />
    <glyph glyph-name="cent" unicode="&#xa2;" horiz-adv-x="675" 
d="M645 170l-9 -150c-67 -20 -134 -30 -211 -30c-242 0 -395 130 -395 370s153 370 395 370c77 0 143 -10 210 -30v-150h-10c-66 88 -115 167 -195 170v-720c80 3 139 82 205 170h10zM250 360c0 -237 34 -357 170 -360v720c-136 -3 -170 -123 -170 -360z" />
    <glyph glyph-name="colonsign" unicode="&#x20a1;" horiz-adv-x="675" 
d="M645 170l-9 -150c-67 -20 -134 -30 -211 -30c-242 0 -395 130 -395 370s153 370 395 370c77 0 143 -10 210 -30v-150h-10c-31 42 -58 81 -87 112l-255 -568c26 -63 71 -94 142 -94c83 0 143 80 210 170h10zM425 720c-140 0 -175 -120 -175 -360c0 -31 1 -61 2 -88
l199 445c-8 2 -17 3 -26 3zM279 106l252 563c-22 22 -45 38 -71 46l-207 -463c4 -59 12 -108 26 -146z" />
    <glyph glyph-name="currency" unicode="&#xa4;" horiz-adv-x="735" 
d="M705 170l-9 -150c-67 -20 -134 -30 -211 -30c-215 0 -360 103 -390 295h-65v10h64c-3 21 -4 42 -4 65s1 44 4 65h-64v10h65c30 192 175 295 390 295c77 0 143 -10 210 -30v-150h-10c-67 90 -117 170 -200 170c-125 0 -166 -95 -174 -285h179v-10h-179
c-1 -21 -1 -42 -1 -65s0 -44 1 -65h179v-10h-179c8 -190 49 -285 174 -285c83 0 143 80 210 170h10z" />
    <glyph glyph-name="dollar" unicode="$" horiz-adv-x="585" 
d="M330 720l-23 -227c98 -87 258 -148 258 -291c0 -156 -147 -212 -301 -212c-67 0 -173 9 -244 29v151h10c83 -117 144 -168 219 -170l23 233c-98 83 -247 155 -247 302c0 135 120 195 282 195c98 0 158 -10 228 -30v-150h-10c-65 87 -118 168 -195 170zM235 630
c0 -52 26 -93 63 -129l21 219c-52 -3 -84 -37 -84 -90zM281 225l-22 -225c47 2 96 32 96 95c0 52 -31 92 -74 130z" />
    <glyph glyph-name="Euro" unicode="&#x20ac;" horiz-adv-x="735" 
d="M705 170l-9 -150c-67 -20 -134 -30 -211 -30c-215 0 -360 103 -390 295h-65v10h64c-3 21 -4 42 -4 65s1 44 4 65h-64v10h65c30 192 175 295 390 295c77 0 143 -10 210 -30v-150h-10c-67 90 -117 170 -200 170c-125 0 -166 -95 -174 -285h179v-10h-179
c-1 -21 -1 -42 -1 -65s0 -44 1 -65h179v-10h-179c8 -190 49 -285 174 -285c83 0 143 80 210 170h10z" />
    <glyph glyph-name="uni20A8" unicode="&#x20a8;" horiz-adv-x="625" 
d="M600 710h-268c106 -24 168 -88 168 -179v-16h100v-10h-101c-8 -98 -70 -156 -277 -167v-5c159 -7 220 -54 246 -148l29 -105c10 -36 13 -55 43 -70v-10h-244l-81 295c-6 22 -12 34 -40 34h-140v11h140c64 0 100 52 104 165h-244v10h245v16c0 129 -36 179 -105 179h-140
v10h565v-10z" />
    <glyph glyph-name="sterling" unicode="&#xa3;" horiz-adv-x="565" 
d="M337 720c-47 0 -82 -35 -82 -90c0 -105 93 -172 125 -275h115v-10h-112c4 -18 7 -37 7 -58c0 -145 -232 -251 -345 -277h239c99 0 126 10 236 160h10l-10 -170h-490v10c100 40 150 115 150 185c0 63 -28 107 -59 150h-88v10h81c-34 49 -69 99 -69 180
c0 135 120 195 282 195c78 0 138 -10 208 -30v-150h-10c-66 88 -119 170 -188 170z" />
    <glyph glyph-name="yen" unicode="&#xa5;" horiz-adv-x="707" 
d="M707 720v-10c-43 -24 -78 -57 -105 -113l-135 -282v-25h149v-10h-149v-200c0 -20 0 -40 50 -70v-10h-310v10c50 30 50 50 50 70v200h-151v10h146l-180 340c-15 28 -42 66 -72 80v10h348v-10c-38 -6 -50 -22 -50 -40c0 -13 8 -30 13 -40l151 -301l140 291c4 8 6 17 6 24
c0 35 -44 58 -106 66v10h205z" />
    <glyph glyph-name="approxequal" unicode="&#x2248;" horiz-adv-x="470" 
d="M60 305h-10c1 83 45 150 110 150s143 -50 200 -50c24 0 41 13 50 40h10c-4 -121 -49 -150 -95 -150c-57 0 -148 50 -205 50c-36 0 -50 -13 -60 -40zM60 115h-10c1 83 45 150 110 150s143 -50 200 -50c24 0 41 13 50 40h10c-4 -121 -49 -150 -95 -150
c-57 0 -148 50 -205 50c-36 0 -50 -13 -60 -40z" />
    <glyph glyph-name="asciitilde" unicode="~" horiz-adv-x="470" 
d="M60 345h-10c1 83 45 150 110 150s143 -50 200 -50c24 0 41 13 50 40h10c-4 -121 -49 -150 -95 -150c-57 0 -148 50 -205 50c-36 0 -50 -13 -60 -40z" />
    <glyph glyph-name="divide" unicode="&#xf7;" horiz-adv-x="440" 
d="M140 420c0 45 35 80 80 80s80 -35 80 -80s-35 -80 -80 -80s-80 35 -80 80zM30 255v20h380v-20h-380zM140 110c0 45 35 80 80 80s80 -35 80 -80s-35 -80 -80 -80s-80 35 -80 80z" />
    <glyph glyph-name="equal" unicode="=" horiz-adv-x="440" 
d="M40 325v20h360v-20h-360zM40 185v20h360v-20h-360z" />
    <glyph glyph-name="greater" unicode="&#x3e;" horiz-adv-x="360" 
d="M45 105v22l258 143l-258 143v22l290 -160v-10z" />
    <glyph glyph-name="greaterequal" unicode="&#x2265;" horiz-adv-x="380" 
d="M45 105v22l258 143l-258 143v22l290 -160v-10zM45 30v20h290v-20h-290z" />
    <glyph glyph-name="infinity" unicode="&#x221e;" horiz-adv-x="1030" 
d="M515 258c79 74 164 147 295 147c110 0 190 -70 190 -160s-80 -160 -190 -160c-132 0 -216 74 -295 147c-80 -73 -163 -147 -295 -147c-110 0 -190 70 -190 160s80 160 190 160c131 0 216 -74 295 -147zM501 245c-77 71 -158 140 -281 140c-101 0 -170 -65 -170 -140
s69 -140 170 -140c124 0 203 69 281 140zM530 245c77 -71 157 -140 280 -140c101 0 170 65 170 140s-69 140 -170 140c-123 0 -204 -70 -280 -140z" />
    <glyph glyph-name="integral" unicode="&#x222b;" horiz-adv-x="565" 
d="M128 -115l94 616c17 111 122 229 358 229l-30 -174l-6 -2c-29 111 -44 156 -64 156c-25 0 -31 -17 -45 -110l-92 -615c-17 -111 -122 -230 -358 -230l29 174l6 2c29 -111 44 -156 64 -156c25 0 31 17 44 110z" />
    <glyph glyph-name="less" unicode="&#x3c;" horiz-adv-x="360" 
d="M25 275l290 160v-22l-258 -143l258 -143v-22l-290 160v10z" />
    <glyph glyph-name="lessequal" unicode="&#x2264;" horiz-adv-x="380" 
d="M45 275l290 160v-22l-258 -143l258 -143v-22l-290 160v10zM45 50h290v-20h-290v20z" />
    <glyph glyph-name="logicalnot" unicode="&#xac;" horiz-adv-x="448" 
d="M388 85v170h-348v20h368v-190h-20z" />
    <glyph glyph-name="minus" unicode="&#x2212;" horiz-adv-x="440" 
d="M40 255v20h360v-20h-360z" />
    <glyph glyph-name="multiply" unicode="&#xd7;" horiz-adv-x="423" 
d="M210 251l-140 -140l-14 14l140 140l-140 140l14 14l140 -140l140 140l14 -14l-140 -140l140 -140l-14 -14z" />
    <glyph glyph-name="notequal" unicode="&#x2260;" horiz-adv-x="500" 
d="M287 325l-42 -120h185v-20h-192l-78 -225h-20l78 225h-148v20h155l42 120h-197v20h204l81 235h20l-81 -235h136v-20h-143z" />
    <glyph glyph-name="partialdiff" unicode="&#x2202;" horiz-adv-x="605" 
d="M277 -10c-165 0 -257 83 -257 223c0 121 72 297 297 297c15 0 29 -2 45 -8l2 2c-52 101 -122 169 -228 216h12c238 -12 437 -158 437 -410c0 -125 -63 -320 -308 -320zM278 0c101 0 109 304 109 386c0 28 -7 76 -18 101c-14 7 -26 9 -36 9c-107 0 -114 -291 -114 -375
c0 -81 16 -121 59 -121z" />
    <glyph glyph-name="percent" unicode="%" horiz-adv-x="798" 
d="M29 557c0 106 52 173 177 173c124 0 176 -68 176 -173c0 -106 -53 -173 -177 -173c-125 0 -176 68 -176 173zM161 564c0 -106 0 -170 44 -170s46 34 46 156c0 106 0 170 -44 170s-46 -34 -46 -156zM427 380h-20l215 340h20zM190 0h-20l215 340h20zM416 163
c0 106 52 173 177 173c124 0 176 -68 176 -173c0 -106 -53 -173 -177 -173c-126 0 -176 68 -176 173zM547 170c0 -106 0 -170 44 -170s46 34 46 156c0 106 0 170 -44 170s-46 -34 -46 -156z" />
    <glyph glyph-name="perthousand" unicode="&#x2030;" horiz-adv-x="1193" 
d="M29 557c0 106 52 173 177 173c124 0 176 -68 176 -173c0 -106 -53 -173 -177 -173c-125 0 -176 68 -176 173zM161 564c1 -106 0 -170 44 -170s47 34 46 156c-1 106 -1 170 -45 170s-46 -34 -45 -156zM427 380h-20l215 340h20zM190 0h-20l215 340h20zM416 163
c0 106 52 173 177 173c124 0 176 -68 176 -173c0 -106 -53 -173 -177 -173c-126 0 -176 68 -176 173zM812 163c0 106 52 173 178 173c124 0 176 -68 176 -173c0 -106 -54 -173 -178 -173c-125 0 -176 68 -176 173zM547 170c1 -106 1 -170 45 -170s46 34 45 156
c-1 106 0 170 -44 170s-47 -34 -46 -156zM944 170c0 -106 0 -170 44 -170s46 34 46 156c0 106 0 170 -44 170s-46 -34 -46 -156z" />
    <glyph glyph-name="plus" unicode="+" horiz-adv-x="420" 
d="M220 255v-170h-20v170h-170v20h170v170h20v-170h170v-20h-170z" />
    <glyph glyph-name="plusminus" unicode="&#xb1;" horiz-adv-x="440" 
d="M230 255v-170h-20v170h-170v20h170v170h20v-170h170v-20h-170zM40 35v20h360v-20h-360z" />
    <glyph glyph-name="product" unicode="&#x220f;" horiz-adv-x="820" 
d="M790 720v-10c-50 -30 -50 -50 -50 -70v-560c0 -20 0 -40 50 -70v-10h-310v10c50 30 50 50 50 70v630h-240v-630c0 -20 0 -40 50 -70v-10h-310v10c50 30 50 50 50 70v560c0 20 0 40 -50 70v10h760z" />
    <glyph glyph-name="radical" unicode="&#x221a;" horiz-adv-x="699" 
d="M400 0h-135l-170 380h-80v10h270l137 -310l268 640h10z" />
    <glyph glyph-name="summation" unicode="&#x2211;" horiz-adv-x="650" 
d="M605 0h-580v10l188 365l-198 335v10h580l10 -170h-10c-150 150 -176 160 -215 160h-110l190 -335l-180 -365h110c39 0 65 10 215 160h10z" />
    <glyph glyph-name="lozenge" unicode="&#x25ca;" horiz-adv-x="470" 
d="M230 730h10l205 -370l-205 -370h-10l-205 370zM235 700l-187 -340l187 -340l187 340z" />
    <glyph glyph-name="ampersand" unicode="&#x26;" horiz-adv-x="718" 
d="M708 10v-10h-236l-24 28c-52 -24 -112 -38 -178 -38c-166 0 -250 67 -250 170c0 95 99 154 181 162c-69 82 -113 146 -113 213c0 125 112 195 250 195c154 0 223 -89 223 -159c0 -56 -45 -115 -133 -136l-9 5c22 24 47 70 47 144c0 95 -54 136 -98 136
c-55 0 -90 -35 -90 -100c0 -50 15 -100 80 -180l224 -275c14 26 22 54 22 80c0 51 -29 95 -96 110v10h145c0 -79 -22 -152 -61 -212zM345 24c33 0 64 6 93 16l-213 253l-10 11c-19 -34 -27 -75 -27 -115c0 -85 50 -165 157 -165z" />
    <glyph glyph-name="asciicircum" unicode="^" horiz-adv-x="370" 
d="M50 350h-10l139 180h12l139 -180h-10l-135 65z" />
    <glyph glyph-name="at" unicode="@" horiz-adv-x="800" 
d="M593 425c-23 -138 -41 -274 -41 -309c0 -30 3 -51 28 -51c30 0 85 65 85 255c0 215 -110 280 -240 280s-290 -115 -290 -370c0 -195 130 -330 300 -330c80 0 165 35 225 90v-10c-60 -60 -145 -105 -260 -105c-220 0 -375 135 -375 355c0 190 160 380 400 380
c180 0 350 -100 350 -295c0 -140 -115 -265 -225 -265c-55 0 -115 15 -120 95l-55 -80c-10 -10 -25 -15 -45 -15c-60 0 -100 52 -100 120c0 170 84 280 196 280c42 0 113 -9 167 -25zM425 155l35 279c-7 3 -15 6 -30 6c-35 0 -65 -30 -65 -250c0 -30 10 -45 30 -45
c14 0 21 4 30 10z" />
    <glyph glyph-name="bar" unicode="|" horiz-adv-x="180" 
d="M100 740v-760h-20v760h20z" />
    <glyph glyph-name="brokenbar" unicode="&#xa6;" horiz-adv-x="180" 
d="M100 740v-340h-20v340h20zM100 320v-340h-20v340h20z" />
    <glyph glyph-name="copyright" unicode="&#xa9;" horiz-adv-x="800" 
d="M400 -10c-205 0 -370 166 -370 370s165 370 370 370c204 0 370 -166 370 -370s-166 -370 -370 -370zM400 10c194 0 350 156 350 350s-156 350 -350 350c-195 0 -350 -156 -350 -350s155 -350 350 -350zM187 360c0 141 90 218 232 218c45 0 84 -6 123 -18v-88h-5
c-40 53 -69 96 -118 96c-82 0 -103 -67 -103 -208s21 -208 103 -208c49 0 84 43 123 96h6l-5 -88c-39 -12 -79 -18 -124 -18c-142 0 -232 77 -232 218z" />
    <glyph glyph-name="dagger" unicode="&#x2020;" horiz-adv-x="580" 
d="M215 720h150l-70 -235h-10zM30 365v150l235 -70v-10zM315 445l235 70v-150l-235 70v10zM295 395l70 -395h-150l70 395h10z" />
    <glyph glyph-name="daggerdbl" unicode="&#x2021;" horiz-adv-x="580" 
d="M215 780h150l-70 -235h-10zM30 425v150l235 -70v-10zM550 425l-235 70v10l235 70v-150zM295 455l70 -95l-70 -95h-10l-70 95l70 95h10zM30 145v150l235 -70v-10zM550 295v-150l-235 70v10zM365 -60h-150l70 235h10z" />
    <glyph glyph-name="degree" unicode="&#xb0;" horiz-adv-x="320" 
d="M35 605c0 70 55 125 125 125s125 -55 125 -125s-55 -125 -125 -125s-125 55 -125 125zM55 605c0 -60 45 -105 105 -105s105 45 105 105s-45 105 -105 105s-105 -45 -105 -105z" />
    <glyph glyph-name="estimated" unicode="&#x212e;" horiz-adv-x="765" 
d="M187 349v-235c55 -52 121 -78 195 -78c112 0 199 53 260 157l47 -26c-88 -123 -167 -177 -307 -177c-207 0 -347 156 -347 359c0 208 142 361 347 361c185 0 339 -123 348 -361h-543zM578 397v189c-56 51 -121 77 -197 77c-77 0 -141 -26 -194 -77v-189h391z" />
    <glyph glyph-name="uni2113" unicode="&#x2113;" horiz-adv-x="410" 
d="M102 266v243c0 118 49 201 144 201c61 0 99 -39 99 -99c0 -90 -74 -187 -165 -288v-168c0 -85 25 -135 86 -135c57 0 97 57 120 132h19c-26 -94 -78 -162 -161 -162c-123 0 -142 85 -142 197v52l-84 -83l-13 11zM180 543v-193c92 103 138 183 138 242c0 57 -31 89 -69 89
c-53 0 -69 -57 -69 -138z" />
    <glyph glyph-name="uni2116" unicode="&#x2116;" horiz-adv-x="1160" 
d="M932 383c119 0 188 68 188 173s-69 173 -188 173s-187 -68 -187 -173s68 -173 187 -173zM695 720v-10c-70 -25 -70 -45 -70 -70v-650h-10l-515 633v-543c0 -30 0 -50 110 -70v-10h-190v10c60 20 70 40 70 70v556l-70 84h260l335 -394v314c0 25 0 45 -100 70v10h180z
M932 718c39 0 51 -35 51 -162c0 -120 -12 -162 -51 -162s-50 42 -50 162c0 127 11 162 50 162zM750 317v20h365v-20h-365z" />
    <glyph glyph-name="paragraph" unicode="&#xb6;" horiz-adv-x="685" 
d="M635 720v-10c-50 -30 -50 -50 -50 -70v-560c0 -20 0 -40 50 -70v-10h-340v10c80 30 80 50 80 70v630h-70v-450h-10c-190 0 -265 93 -265 239s75 221 265 221h340z" />
    <glyph glyph-name="registered" unicode="&#xae;" horiz-adv-x="800" 
d="M400 -10c-205 0 -370 166 -370 370s165 370 370 370c204 0 370 -166 370 -370s-166 -370 -370 -370zM400 10c194 0 350 156 350 350s-156 350 -350 350c-195 0 -350 -156 -350 -350s155 -350 350 -350zM419 347v-3c94 -4 129 -33 145 -87l17 -58c6 -21 7 -32 25 -41v-10
h-143l-48 174c-4 13 -7 20 -24 20h-11v10h11c41 0 62 32 62 109c0 75 -21 101 -62 101h-29v-363c0 -11 0 -23 25 -41v-10h-178v10c29 18 29 30 29 41v322c0 11 0 23 -29 41v10h217c97 0 157 -43 157 -111c0 -67 -32 -107 -164 -114z" />
    <glyph glyph-name="section" unicode="&#xa7;" horiz-adv-x="577" 
d="M236 780c0 -195 321 -229 321 -385c0 -59 -46 -96 -91 -123c-218 213 -440 238 -440 413c0 135 120 195 282 195c98 0 158 -10 228 -30v-150h-10c-66 88 -119 170 -198 170c-57 0 -92 -35 -92 -90zM341 -61c0 195 -321 229 -321 385c0 59 46 96 91 123
c218 -213 440 -238 440 -413c0 -135 -120 -195 -282 -195c-98 0 -158 10 -228 30v150h10c66 -88 119 -170 198 -170c57 0 92 35 92 90z" />
    <glyph glyph-name="trademark" unicode="&#x2122;" horiz-adv-x="912" 
d="M40 720h334v-94h-10c-67 83 -71 84 -93 84h-6v-342c0 -11 0 -22 28 -38v-10h-172v10c28 16 28 27 28 38v342h-6c-22 0 -26 -1 -93 -84h-10v94zM870 720v-10c-28 -16 -28 -28 -28 -39v-302c0 -11 0 -22 28 -39v-10h-173v10c28 17 28 28 28 39v318l-114 -373h-10l-144 352
v-297c0 -16 6 -28 57 -39v-10h-106v10c34 11 39 23 39 39v300c0 19 1 31 -39 41v10h145l103 -226l69 226h145z" />
    <glyph glyph-name="acute" unicode="&#xb4;" horiz-adv-x="391" 
d="M100 558l102 122c13 16 29 21 41 21c26 0 50 -19 50 -47c0 -37 -26 -48 -46 -55l-143 -49z" />
    <glyph glyph-name="breve" unicode="&#x2d8;" horiz-adv-x="453" 
d="M226 550c-90 0 -120 87 -120 160h10c5 -30 35 -70 110 -70s105 40 110 70h10c0 -73 -30 -160 -120 -160z" />
    <glyph glyph-name="caron" unicode="&#x2c7;" horiz-adv-x="484" 
d="M377 730h10l-139 -180h-12l-139 180h10l135 -65z" />
    <glyph glyph-name="cedilla" unicode="&#xb8;" horiz-adv-x="386" 
d="M179 0v-50c69 0 110 -24 110 -74c0 -47 -31 -76 -93 -76c-44 0 -75 20 -90 38v10c15 -6 33 -11 50 -11c26 0 51 15 51 53c0 35 -6 50 -38 50v60h10z" />
    <glyph glyph-name="circumflex" unicode="&#x2c6;" horiz-adv-x="484" 
d="M107 550h-10l139 180h12l139 -180h-10l-135 65z" />
    <glyph glyph-name="dieresis" unicode="&#xa8;" horiz-adv-x="521" 
d="M80 622c0 45 36 72 81 72s81 -27 81 -72s-36 -72 -81 -72s-81 27 -81 72zM278 622c0 45 36 72 81 72s81 -27 81 -72s-36 -72 -81 -72s-81 27 -81 72z" />
    <glyph glyph-name="dotaccent" unicode="&#x2d9;" horiz-adv-x="339" 
d="M75 645c0 53 41 85 95 85c53 0 95 -32 95 -85c0 -54 -42 -85 -95 -85c-54 0 -95 31 -95 85z" />
    <glyph glyph-name="grave" unicode="`" horiz-adv-x="391" 
d="M280 550l-143 49c-20 7 -46 18 -46 55c0 28 24 47 50 47c12 0 28 -5 41 -21l102 -122z" />
    <glyph glyph-name="hungarumlaut" unicode="&#x2dd;" horiz-adv-x="580" 
d="M116 555l82 144c12 21 28 25 42 25c34 0 50 -24 50 -49c0 -29 -20 -42 -37 -51l-132 -74zM306 555l82 144c11 19 28 25 42 25c34 0 50 -24 50 -49c0 -29 -20 -42 -37 -51l-132 -74z" />
    <glyph glyph-name="macron" unicode="&#xaf;" horiz-adv-x="484" 
d="M397 575h-310v20h310v-20z" />
    <glyph glyph-name="ogonek" unicode="&#x2db;" horiz-adv-x="371" 
d="M281 -125v-10c-14 -44 -54 -65 -95 -65c-52 0 -93 27 -93 74c0 43 27 76 128 126h10c-31 -28 -42 -65 -42 -86c0 -29 18 -50 54 -50c17 0 31 6 38 11z" />
    <glyph glyph-name="ring" unicode="&#x2da;" horiz-adv-x="386" 
d="M90 622c0 51 37 88 102 88c64 0 102 -37 102 -88c0 -52 -38 -87 -102 -87s-102 35 -102 87zM153 622c0 -56 14 -77 39 -77s39 21 39 77c0 57 -14 78 -39 78s-39 -21 -39 -78z" />
    <glyph glyph-name="tilde" unicode="&#x2dc;" horiz-adv-x="571" 
d="M110 550h-10c1 83 45 150 110 150s143 -50 200 -50c24 0 41 13 50 40h10c-4 -121 -49 -150 -95 -150c-57 0 -148 50 -205 50c-36 0 -50 -13 -60 -40z" />
    <glyph glyph-name="commaaccentcomb" unicode="&#x326;" horiz-adv-x="0" 
d="M112 -314l85 107c-72 0 -108 34 -108 83c0 51 32 84 77 84c55 0 80 -35 80 -89c0 -84 -93 -169 -124 -185h-10z" />
    <glyph glyph-name="AT" horiz-adv-x="800" 
d="M593 545c-23 -138 -41 -274 -41 -309c0 -30 3 -51 28 -51c30 0 85 65 85 255c0 215 -110 280 -240 280s-290 -115 -290 -370c0 -195 130 -335 300 -335c80 0 165 35 225 90v-10c-60 -60 -145 -105 -260 -105c-220 0 -375 140 -375 360c0 190 160 380 400 380
c180 0 350 -100 350 -295c0 -140 -115 -265 -225 -265c-55 0 -115 15 -120 95l-55 -80c-10 -10 -25 -15 -45 -15c-60 0 -100 52 -100 120c0 170 84 280 196 280c42 0 113 -9 167 -25zM425 275l35 279c-7 3 -15 6 -30 6c-35 0 -65 -30 -65 -250c0 -30 10 -45 30 -45
c14 0 21 4 30 10z" />
    <glyph glyph-name="Exclamdown" horiz-adv-x="300" 
d="M70 650c0 45 35 80 80 80s80 -35 80 -80s-35 -80 -80 -80s-80 35 -80 80zM155 525l100 -525h-210l100 525h10z" />
    <glyph glyph-name="Questiondown" horiz-adv-x="580" 
d="M455 650c0 -45 -35 -80 -80 -80s-80 35 -80 80s35 80 80 80s80 -35 80 -80zM250 156c0 -106 37 -156 98 -156c79 0 140 87 192 177h10v-159c-71 -20 -149 -28 -216 -28c-183 0 -304 65 -304 210c0 194 215 220 340 220v100h10v-110c-87 -29 -130 -95 -130 -254z" />
    </font>
</defs>
</svg>
