<?xml version="1.0" encoding="utf-8"?>
<!-- Generator: Adobe Illustrator 18.0.0, SVG Export Plug-In . SVG Version: 6.00 Build 0)  -->
<!DOCTYPE svg PUBLIC "-//W3C//DTD SVG 1.1//EN" "http://www.w3.org/Graphics/SVG/1.1/DTD/svg11.dtd">
<svg version="1.1" id="Layer_1" xmlns="http://www.w3.org/2000/svg" xmlns:xlink="http://www.w3.org/1999/xlink" x="0px" y="0px"
	 viewBox="0 0 390 70" enable-background="new 0 0 390 70" xml:space="preserve">
<g>
	<path d="M48,21.9c-2,1.7-4,4.3-5.3,7.9L30.2,65H19.7l-13-34.7C5.3,26.8,4,23.7,1,21.9V21h22v0.9c-3,1-3.8,2.1-3.8,3.6
		c0,1,0.3,2,0.8,3.4l9.2,25.6l7.3-24.3c0.3-1.2,0.7-2.3,0.7-3.5c0-2-1.2-3.6-4.2-4.8V21h15V21.9z"/>
	<path d="M66,16.2c2.3,0,3.6-1.8,3.6-5.7c0-4-1.4-5.8-3.6-5.8c-2.3,0-3.6,1.8-3.6,5.8C62.4,14.4,63.7,16.2,66,16.2 M61.3,45.6
		c-2,0.7-2.9,2.6-2.9,4.9c0,3.4,1.6,6.1,5.7,6.1c2.3,0,4.8-1.1,5.8-2.1v-12L61.3,45.6z M66,3c4.6,0,7.8,3.1,7.8,7.5
		c0,4.4-3.2,7.4-7.8,7.4c-4.5,0-7.7-2.9-7.7-7.4C58.3,6.2,61.4,3,66,3 M51.3,22.6c3.8-1.4,9-2.4,13.4-2.4C75,20.2,82,23.8,82,33.8
		v23.6c0,2.1,0,3.8,5,6.2V64H70.4L70,57l-5.3,6.1c-1.5,1-3.6,2.1-7.7,2.1c-7.5,0-11.6-5.2-11.6-11.8c0-5.6,3.7-9.6,10.2-11L70,39.6
		V36c0-5.4-3-7.3-7.4-7.3c-4.9,0-8.7,0.6-14.1,2.6L48.2,31L51.3,22.6z"/>
	<path d="M110.6,22.5c2-1.4,4.2-2.2,6.9-2.2c1.6,0,4.2,0.3,5.4,0.7l-4,11.3c-0.8-0.2-2.5-0.5-4.3-0.5c-4.2,0-7.6,1.5-8.6,3v22.3
		c0,2.3,0,4,6,6.4V64H89v-0.4c4-2.4,4-4.2,4-6.4V30c0-2.6,0-5.8-4-8.1V21h17v11h-0.3L110.6,22.5z"/>
	<path d="M140,55.3c0,5.6,2,6.2,10,6.1v0.9c-4,2-8.1,3.1-12.4,3.1c-6.3,0-10.6-2.7-10.6-10.1V25h-4v-0.7l6.2-4.2l9.7-8.1h1.1v9h10v4
		h-10V55.3z"/>
	<path d="M242,57.4c0,2.1,0,3.8,5,6.2V64h-21v-0.4c4-2.4,4-4.2,4-6.2V11.9c0-2.6,0-5.8-4-8.1V3h16V57.4z"/>
	<path d="M265.1,45.6c-2,0.7-3,2.6-3,4.9c0,3.4,1.7,6.1,5.8,6.1c2.3,0,4.1-1.1,6.1-2.1v-12L265.1,45.6z M254.9,22.6
		c3.8-1.4,9.2-2.4,13.6-2.4c10.3,0,17.5,3.6,17.5,13.5v23.6c0,2.1,0,3.8,4,6.2V64h-16l-0.4-7l-5.3,6.1c-1.5,1-3.6,2.1-7.7,2.1
		c-7.5,0-11.6-5.2-11.6-11.8c0-5.6,3.9-9.6,10.4-11l14.7-2.9V36c0-5.4-3.2-7.3-7.6-7.3c-4.9,0-8.8,0.6-14.2,2.6l-0.4-0.3L254.9,22.6
		z"/>
	<path d="M316.6,22.3c1.6-1,4-2,7.1-2c7.6,0,12.2,4.1,12.2,12.6v24.5c0,2.1,0,3.8,5,6.2V64h-21v-0.4c4-2.4,4-4.2,4-6.2V35.5
		c0-3.6-2.3-5.2-5.8-5.2c-4.3,0-7.2,1.6-9.2,2.9v24.2c0,2.1,0,3.8,5,6.2V64h-22v-0.4c5-2.4,5-4.2,5-6.2V30c0-2.6,0-5.8-5-8.1V21h17
		v9h0.3L316.6,22.3z"/>
	<path d="M384,57.4c0,2.1,0.5,3.8,5,6.2V64h-16.5l-0.4-6h-0.2l-7.3,6.1c-1.2,0.6-3.1,1.3-6.3,1.3c-10.4,0-15.4-9-15.4-22.6
		c0-15.6,6.9-22.6,17.4-22.6c4.9,0,7.8,1.5,9.8,3.5V25c-1-0.4-2.6-0.8-4.3-0.8c-7.1,0-9.8,5.6-9.8,17.9c0,12,2.9,15.1,8.3,15.1
		c3,0,4.8-1,7.8-2.6V11.9c0-2.6,0-5.8-4-8.1V3h16V57.4z"/>
	<path fill="#E40134" d="M165,60c5.6,4.5,13,7.3,21,7.7V56.8C180,57.4,172.8,58.5,165,60"/>
	<path fill="#E40134" d="M221.8,38.6c0-16.1-15.1-29.2-33.8-29.2c-6.2,0-12,1.4-17,3.9c3.1,0.7,9,2,15,3.6v-5.5l0.8-0.4
		c0.2-0.1,0.8-0.1,1.3,0c0.7,0.1,1.7,0.6,1.8,0.7c0,0,0,0,0,0c0,0,0,0,0,0c0,0,0,0,0,0c0.2,0.5,0.4,3.2,0.6,6.2
		c0.4,0.1,0.8,0.2,1.2,0.3l0,0c8.2,2.2,14.3,3.9,14.3,4.2c0.1,0.2,0.3,0.7,0.3,1.3c0,0.7-0.1,1.2-0.3,1.3l-0.6,0.4l-1.6-0.4
		L192,22.4v0l-1.2-0.3c0.1,1.3,0.2,2.8,0.2,4.3l10.4,2.3c24,5.9,10.9,29.5,7,31.8c-2.8-3.1-8.5-4.2-16.6-4.1c0.1,4.4,0.1,8.3,0,11.1
		C208.8,65.8,221.8,53.5,221.8,38.6"/>
	<path fill="#E40134" d="M163.6,21.3l0.7-0.9l21.8,4.9v-4.3l-6.8-1.6c-4.5-1.1-9.4-2.4-12.7-3.2c-7.5,5.4-12.3,13.4-12.3,22.5
		c0,5.1,1.5,9.8,4.1,14C162.4,49.2,176.9,29.1,163.6,21.3"/>
</g>
</svg>
