<?xml version="1.0" standalone="no"?>
<!DOCTYPE svg PUBLIC "-//W3C//DTD SVG 1.1//EN" "http://www.w3.org/Graphics/SVG/1.1/DTD/svg11.dtd" >
<svg xmlns="http://www.w3.org/2000/svg" xmlns:xlink="http://www.w3.org/1999/xlink" version="1.1">
<metadata></metadata>
<defs>
<font id="breve_sans_textbook" horiz-adv-x="1081" >
<font-face units-per-em="2048" ascent="1638" descent="-410" />
<missing-glyph horiz-adv-x="458" />
<glyph unicode="&#xfb01;" horiz-adv-x="1105" d="M55 887v71l121 66v68q0 102 21.5 174t58 116.5t98 69.5t129 34t162.5 9v-156l-22 -12q-65 21 -115 21q-67 0 -103 -40t-36 -132v-152h225v-137h-225v-887h-193v887h-121zM754 1296q0 43 31.5 74t80.5 31q48 0 79.5 -31t31.5 -74q0 -44 -31 -74t-80 -30q-50 0 -81 30 t-31 74zM772 0v1024h193v-1024h-193z" />
<glyph unicode="&#xfb02;" horiz-adv-x="1132" d="M55 887v71l121 66v68q0 102 21.5 174t58 116.5t98 69.5t129 34t162.5 9v-156l-22 -12q-65 21 -115 21q-67 0 -103 -40t-36 -132v-152h225v-137h-225v-887h-193v887h-121zM768 156v1237l145 82h48v-1268q0 -86 65 -86q31 0 66 14v-133q-60 -22 -142 -22q-84 0 -133 44.5 t-49 131.5z" />
<glyph horiz-adv-x="0" />
<glyph horiz-adv-x="682" />
<glyph unicode=" "  horiz-adv-x="458" />
<glyph unicode="&#x09;" horiz-adv-x="458" />
<glyph unicode="&#xa0;" horiz-adv-x="458" />
<glyph unicode="!" horiz-adv-x="497" d="M137 1393h223l-55 -1049h-115zM150 88q0 42 30.5 73.5t71.5 31.5q42 0 72 -31.5t30 -73.5q0 -46 -29.5 -77t-72.5 -31q-42 0 -72 31.5t-30 76.5z" />
<glyph unicode="&#x22;" horiz-adv-x="806" d="M121 1393h186l-22 -471h-142zM500 1393h186l-24 -471h-142z" />
<glyph unicode="#" horiz-adv-x="1064" d="M109 358v115h231v139h-231v115h231v277h117v-277h153v277h115v-277h233v-115h-233v-139h233v-115h-233v-278h-115v278h-153v-278h-117v278h-231zM457 473h153v139h-153v-139z" />
<glyph unicode="$" horiz-adv-x="1062" d="M102 74v180q192 -96 347 -113l26 498l-58.5 28.5t-56.5 28.5t-57 32.5t-50 36t-47 42t-37.5 47.5t-30.5 56.5t-17.5 64t-7.5 74.5q0 165 115 262t290 102l4 82h113l-4 -86q155 -14 305 -86v-182q-148 90 -313 108l-25 -438q39 -19 60.5 -29.5t58.5 -31t59 -35.5t53 -39 t49 -45.5t39.5 -51.5t33 -61t19 -70t7.5 -81q0 -161 -120 -267.5t-302 -117.5l-4 -84h-115l4 86q-184 16 -338 90zM328 1075q0 -67 41.5 -116t119.5 -91l21 383q-94 -8 -138 -57.5t-44 -118.5zM563 141q102 13 150.5 69.5t48.5 139.5q0 78 -45.5 132.5t-128.5 101.5z" />
<glyph unicode="%" horiz-adv-x="1460" d="M78 1032q0 89 12.5 154t41 115.5t79.5 76t125 25.5q73 0 124 -25.5t80 -76t41.5 -116t12.5 -153.5q0 -184 -58.5 -283.5t-199.5 -99.5q-73 0 -124.5 27t-80 80t-41 119.5t-12.5 156.5zM184 1032q0 -155 34 -229t118 -74q85 0 118 73.5t33 229.5q0 153 -32.5 222 t-118.5 69q-85 0 -118.5 -69.5t-33.5 -221.5zM211 0l459 686l69 -41l-370 -645h-158zM723 768l358 625h160l-448 -666zM868 373q0 89 12.5 153.5t41 115t79.5 76t125 25.5q73 0 124 -25.5t80 -75.5t41.5 -115.5t12.5 -153.5q0 -184 -58.5 -283.5t-199.5 -99.5 q-73 0 -124.5 27t-80 80t-41 119.5t-12.5 156.5zM975 373q0 -156 33 -229.5t118 -73.5q86 0 119 73.5t33 229.5q0 153 -33 222t-119 69t-118.5 -69t-32.5 -222z" />
<glyph unicode="&#x26;" horiz-adv-x="1284" d="M104 360q0 204 224 371q-144 176 -144 338q0 167 113.5 255.5t300.5 88.5q105 0 186 -25.5t128 -69t70.5 -96t23.5 -112.5q0 -84 -45.5 -161.5t-122.5 -119.5h-158q64 49 96.5 112t32.5 126q0 80 -52.5 133t-148.5 53q-115 0 -169 -52t-54 -130q0 -39 11.5 -76 t28.5 -68.5t55.5 -78t71.5 -83t98 -104.5q25 -26 38 -40l252 -271q70 143 70 369h178q0 -318 -123 -504l160 -172v-43h-215l-76 82q-146 -102 -371 -102q-223 0 -341 102t-118 278zM315 373q0 -114 74.5 -174t196.5 -60q137 0 231 66l-383 409q-65 -58 -92 -113.5 t-27 -127.5z" />
<glyph unicode="'" horiz-adv-x="430" d="M121 1393h186l-22 -471h-142z" />
<glyph unicode="(" horiz-adv-x="567" d="M90 696q0 258 86.5 478t224.5 382h113q-219 -337 -219 -860t219 -860h-113q-138 162 -224.5 382t-86.5 478z" />
<glyph unicode=")" horiz-adv-x="567" d="M53 -164q219 337 219 860t-219 860h113q138 -162 224.5 -382t86.5 -478t-86.5 -478t-224.5 -382h-113z" />
<glyph unicode="*" horiz-adv-x="770" d="M96 1122q0 23 14 41.5t35 18.5q8 0 41.5 -8t81.5 -19t82 -16q-12 7 -64 38t-79 48t-33 24q-15 15 -13 39t17 39q16 16 39 18t41 -12q9 -10 111 -178q-5 35 -16.5 82.5t-20 81.5t-8.5 43q0 21 19 35t42 14t41 -14t18 -35q0 -8 -7.5 -42t-18.5 -82.5t-17 -80.5q15 23 41 66 t44.5 73t25.5 37q15 15 39 13t39 -17q16 -16 18 -39t-14 -41q-9 -11 -176 -112q46 7 121 27t84 20q21 0 36 -19.5t15 -42.5t-15 -41t-36 -18q-8 0 -41 7t-81 17.5t-81 16.5q24 -16 66 -40.5t71.5 -42.5t36.5 -24q15 -15 13 -39.5t-17 -39.5q-16 -16 -40 -18.5t-40 13.5 q-7 6 -22 29t-47.5 75.5t-41.5 67.5q6 -34 18 -80.5t20.5 -79t8.5 -40.5q0 -21 -19 -36t-42 -15t-41 15t-18 36q0 8 7.5 41t18 79.5t15.5 79.5q-14 -22 -39.5 -65.5t-43.5 -73t-24 -35.5q-16 -14 -40 -11.5t-40 18.5t-18 38.5t14 40.5q5 6 28 20.5t76.5 46.5t69.5 42 q-34 -6 -82.5 -17.5t-81.5 -19.5t-41 -8q-21 0 -35 19t-14 42z" />
<glyph unicode="+" horiz-adv-x="876" d="M109 479v127h266v268h129v-268h264v-127h-264v-266h-129v266h-266z" />
<glyph unicode="," horiz-adv-x="462" d="M119 88q0 45 31.5 76t78.5 31q56 0 86.5 -38.5t30.5 -90.5q0 -47 -23 -107.5t-45 -98.5t-57 -91h-90l98 211q-43 0 -76.5 28t-33.5 80z" />
<glyph unicode="-" horiz-adv-x="917" d="M129 502v127h659v-127h-659z" />
<glyph unicode="." horiz-adv-x="436" d="M117 88q0 42 30.5 73.5t71.5 31.5t70.5 -31.5t29.5 -73.5q0 -45 -29 -76.5t-71 -31.5t-72 31.5t-30 76.5z" />
<glyph unicode="/" horiz-adv-x="600" d="M68 -41l325 1475h139l-329 -1475h-135z" />
<glyph unicode="0" horiz-adv-x="1253" d="M106 707q0 135 15 240.5t51.5 195t95.5 147.5t149 90.5t210 32.5q148 0 250.5 -48t161 -143.5t83.5 -220t25 -294.5q0 -136 -15 -243.5t-52 -200t-95.5 -153.5t-148.5 -95.5t-209 -34.5q-120 0 -210 34.5t-149 95.5t-95.5 153.5t-51.5 200t-15 243.5zM322 707 q0 -296 66 -432t239 -136t239 136t66 432q0 293 -65.5 419.5t-239.5 126.5t-239.5 -126.5t-65.5 -419.5z" />
<glyph unicode="1" horiz-adv-x="651" d="M63 1223v129l310 51h100v-1403h-205v1223h-205z" />
<glyph unicode="2" horiz-adv-x="1114" d="M86 0v170q399 281 556 457.5t157 347.5q0 80 -23.5 136t-67.5 86t-95.5 43t-118.5 13q-80 0 -177.5 -30.5t-175.5 -81.5v182q188 90 400 90q80 0 148 -14t127.5 -46.5t101.5 -82t66 -124t24 -169.5q0 -53 -11 -104.5t-29.5 -96.5t-50.5 -92.5t-64 -87t-81.5 -85.5 t-92.5 -82t-107 -83t-114 -82t-124 -86v-8h674l-21 -170h-901z" />
<glyph unicode="3" horiz-adv-x="1112" d="M100 74v180q92 -52 196.5 -83.5t197.5 -31.5q143 0 227 63.5t84 180.5q0 123 -107 184.5t-284 61.5h-127v155h127q63 0 121 11.5t115 37.5t91.5 78.5t34.5 126.5q0 105 -77.5 160t-194.5 55q-96 0 -175.5 -24.5t-197.5 -79.5v180q206 84 397 84q203 0 328 -97t125 -251 q0 -146 -82 -232.5t-219 -109.5v-10q142 -19 236 -105.5t94 -230.5q0 -189 -136.5 -293t-363.5 -104q-197 0 -410 94z" />
<glyph unicode="4" horiz-adv-x="1144" d="M66 281v172l692 950h157v-952h146v-170h-146v-281h-204v281h-645zM260 451h451v604z" />
<glyph unicode="5" horiz-adv-x="1089" d="M104 74v180q69 -36 115.5 -56.5t120.5 -39.5t147 -19q157 0 227 80t70 213q0 85 -25.5 143.5t-75 90.5t-110 45.5t-141.5 13.5q-118 0 -276 -37v705h792v-170h-633v-353q87 19 170 19q104 0 192.5 -24t162.5 -75.5t116.5 -143.5t42.5 -218q0 -213 -136 -330.5 t-359 -117.5q-198 0 -400 94z" />
<glyph unicode="6" horiz-adv-x="1185" d="M102 635q0 181 32.5 321.5t100 244t178 158t259.5 54.5q101 0 183 -21t181 -73v-178q-99 61 -180.5 86.5t-177.5 25.5q-156 0 -239 -103.5t-107 -305.5q165 78 297 78q101 0 182 -26t134 -69t88 -103t50 -124.5t15 -136.5q0 -92 -28.5 -176t-84 -154t-150.5 -111.5 t-217 -41.5q-116 0 -206.5 36t-148 96t-94.5 146t-52 178t-15 199zM319 631q0 -86 8.5 -156t29 -134t54 -107.5t86 -69t121.5 -25.5q72 0 125 26t82.5 72.5t43.5 102.5t14 123q0 69 -14.5 121.5t-47.5 95t-93.5 64.5t-147.5 22q-119 0 -258 -66z" />
<glyph unicode="7" horiz-adv-x="1019" d="M66 1223v170h907v-148q-217 -277 -345 -610.5t-128 -634.5h-234q0 294 145.5 618t379.5 605h-725z" />
<glyph unicode="8" horiz-adv-x="1183" d="M96 332q0 108 70 209.5t211 160.5q-114 60 -178 139t-64 199q0 156 133.5 264.5t337.5 108.5q110 0 195.5 -26.5t138.5 -73t80 -106.5t27 -130q0 -45 -12 -89t-39 -91t-79.5 -89.5t-125.5 -74.5q65 -31 112.5 -62t91.5 -75t67 -102t23 -129q0 -118 -69.5 -208t-184 -136 t-253.5 -46q-232 0 -357 98.5t-125 258.5zM303 350q0 -93 74.5 -154t200.5 -61q123 0 200.5 60t77.5 155q0 42 -18.5 78.5t-43.5 61.5t-72 52t-83 43.5t-96 41.5q-29 12 -43 18q-103 -59 -150 -137.5t-47 -157.5zM367 1059q0 -29 9.5 -55.5t22 -47t39 -42t46 -35t58 -33.5 t61 -30l67.5 -30q174 96 174 271q0 97 -67.5 146.5t-170.5 49.5q-110 0 -174.5 -51t-64.5 -143z" />
<glyph unicode="9" horiz-adv-x="1185" d="M90 930q0 93 28 176.5t83 153.5t149.5 111.5t216.5 41.5q116 0 206.5 -36t148 -96t94.5 -146t52 -178t15 -199q0 -181 -32.5 -321.5t-99.5 -244t-177.5 -158t-259.5 -54.5q-100 0 -181.5 21t-180.5 73v178q98 -61 179 -87t177 -26q157 0 240.5 104t107.5 306 q-165 -78 -299 -78q-125 0 -218.5 38.5t-146 105t-77.5 145.5t-25 170zM305 930q0 -69 14.5 -121.5t47.5 -95t93 -64.5t146 -22q123 0 260 65l2 70q0 86 -8.5 156t-29.5 134t-54 107t-86 68.5t-123 25.5q-72 0 -124.5 -26t-81.5 -72.5t-42.5 -102t-13.5 -122.5z" />
<glyph unicode=":" horiz-adv-x="460" d="M129 88q0 42 29.5 73.5t70.5 31.5t71 -31.5t30 -73.5q0 -45 -29.5 -76.5t-71.5 -31.5t-71 31.5t-29 76.5zM129 678q0 44 29.5 75t70.5 31t71 -31t30 -75q0 -43 -30 -75t-71 -32t-70.5 32t-29.5 75z" />
<glyph unicode=";" horiz-adv-x="503" d="M139 88q0 45 32 76t79 31q57 0 87 -38t30 -91q0 -47 -23 -107.5t-45 -98.5t-57 -91h-90l98 211q-42 0 -76.5 28.5t-34.5 79.5zM141 678q0 44 30 75t71 31q43 0 72.5 -31t29.5 -75q0 -43 -30 -75t-72 -32q-41 0 -71 32t-30 75z" />
<glyph unicode="&#x3c;" horiz-adv-x="843" d="M100 518v152l609 262v-148l-430 -190l430 -191v-147z" />
<glyph unicode="=" horiz-adv-x="919" d="M129 334v127h662v-127h-662zM129 625v127h662v-127h-662z" />
<glyph unicode="&#x3e;" horiz-adv-x="843" d="M135 256v147l430 191l-430 190v148l608 -262v-152z" />
<glyph unicode="?" horiz-adv-x="940" d="M78 1141v182q99 47 180 68.5t186 21.5q192 0 308 -107.5t116 -293.5q0 -99 -28.5 -175.5t-73 -121.5t-105 -74t-116.5 -39t-117 -10l-18 -248h-115l-21 371q89 0 155 12.5t121.5 43.5t84.5 88.5t29 141.5q0 119 -65 185.5t-189 66.5q-86 0 -160.5 -27t-171.5 -85zM254 88 q0 42 29.5 73.5t70.5 31.5q42 0 72.5 -31.5t30.5 -73.5q0 -46 -30 -77t-73 -31q-42 0 -71 31.5t-29 76.5z" />
<glyph unicode="@" horiz-adv-x="1669" d="M94 485q0 213 95 386t275 275.5t413 102.5q191 0 345 -72t246.5 -212.5t92.5 -325.5q0 -144 -51.5 -265.5t-152 -196.5t-231.5 -75q-86 0 -134.5 36.5t-63.5 117.5l-129 -119q-45 -35 -117 -35q-91 0 -146 79.5t-55 205.5q0 535 396 535q67 0 152 -11.5t147 -31.5 q-15 -77 -31.5 -159t-24.5 -123t-17 -86t-12.5 -65t-7 -43t-4 -36t-0.5 -29q0 -113 84 -113q101 0 173.5 107t72.5 303q0 100 -29.5 182t-79.5 137.5t-118.5 93.5t-145.5 55t-162 17q-291 0 -455.5 -173t-164.5 -470q0 -146 46 -255.5t131 -177t201 -101t261 -33.5 q129 0 256 33.5t225 97.5v-127q-202 -141 -530 -141q-154 0 -290 49t-238.5 139t-162 225.5t-59.5 298.5zM629 395q0 -82 26.5 -117.5t79.5 -35.5q37 0 91.5 32.5t101.5 81.5l71 420q-89 27 -165 27q-100 0 -152.5 -96t-52.5 -312z" />
<glyph unicode="A" horiz-adv-x="1191" d="M53 0v43l412 1360h264l410 -1360v-43h-205l-109 367h-469l-108 -367h-195zM408 537h366l-106 360q-53 177 -76 289h-2q-26 -125 -76 -289z" />
<glyph unicode="B" horiz-adv-x="1191" d="M162 0v1393h493q184 0 289 -97t105 -260q0 -116 -55 -200.5t-144 -116.5v-4q107 -31 178.5 -119.5t71.5 -214.5q0 -173 -111.5 -277t-298.5 -104h-528zM367 170h288h7q97 0 159 58q64 60 64 173q0 106 -70 166t-182 60h-266v-457zM367 797h260q98 0 157.5 56t59.5 159 q0 97 -59 155q-57 56 -148 56h-6h-264v-426z" />
<glyph unicode="C" horiz-adv-x="1161" d="M98 696q0 717 572 717q206 0 403 -94v-178q-200 112 -403 112q-104 0 -176 -41t-110.5 -119.5t-54.5 -173.5t-16 -223t16 -223t54.5 -173.5t110.5 -119.5t176 -41q229 0 424 123l-21 -188q-197 -94 -403 -94q-572 0 -572 716z" />
<glyph unicode="D" horiz-adv-x="1310" d="M162 0v1393h487q295 0 428 -174t133 -512q0 -167 -31 -295t-97 -221.5t-174.5 -142t-258.5 -48.5h-487zM367 170h282q193 0 269.5 124.5t76.5 412.5q0 284 -76 400t-270 116h-282v-1053z" />
<glyph unicode="E" horiz-adv-x="1114" d="M162 0v1393h854v-170h-649v-426h557v-170h-557v-457h659l-20 -170h-844z" />
<glyph unicode="F" horiz-adv-x="1095" d="M162 0v1393h854v-170h-649v-451h557v-170h-557v-602h-205z" />
<glyph unicode="G" horiz-adv-x="1198" d="M98 696q0 717 572 717q206 0 403 -94v-178q-200 112 -403 112q-104 0 -176 -41t-110.5 -119.5t-54.5 -173.5t-16 -223t16 -223t54.5 -173.5t110.5 -119.5t176 -41q99 0 198 29v377h-260v170h465v-641q-197 -94 -403 -94q-572 0 -572 716z" />
<glyph unicode="H" horiz-adv-x="1300" d="M162 0v1393h205v-596h569v596h205v-1393h-205v627h-569v-627h-205z" />
<glyph unicode="I" horiz-adv-x="526" d="M162 0v1393h205v-1393h-205z" />
<glyph unicode="J" horiz-adv-x="532" d="M-10 -229q49 22 83 48t52.5 50.5t28 59.5t12 62.5t2.5 71.5v1330h205v-1330q0 -63 -6 -111t-26 -100.5t-54.5 -91t-94 -73t-141.5 -56.5z" />
<glyph unicode="K" horiz-adv-x="1169" d="M162 0v1393h205v-1393h-205zM428 666v79l490 648h196v-43l-481 -633l491 -674v-43h-209z" />
<glyph unicode="L" horiz-adv-x="1050" d="M162 0v1393h205v-1223h639l-21 -170h-823z" />
<glyph unicode="M" horiz-adv-x="1540" d="M162 0v1393h262l272 -639q52 -130 76 -213h8q23 90 72 213l264 639h264v-1393h-194v639q0 266 10 442h-10l-326 -786h-182l-326 786h-10q10 -176 10 -442v-639h-190z" />
<glyph unicode="N" horiz-adv-x="1300" d="M162 0v1393h205l581 -1018h10q-12 176 -12 442v576h195v-1393h-205l-584 1018h-10q12 -176 12 -443v-575h-192z" />
<glyph unicode="O" horiz-adv-x="1318" d="M98 707q0 167 30.5 294t96.5 221t175 142.5t259 48.5q562 0 562 -706q0 -168 -31 -298.5t-97 -228t-175.5 -149t-258.5 -51.5q-561 0 -561 727zM313 707q0 -292 78.5 -430t267.5 -138t268 138.5t79 429.5q0 288 -78 417t-269 129t-268.5 -129t-77.5 -417z" />
<glyph unicode="P" horiz-adv-x="1171" d="M162 0v1393h463q246 0 363.5 -110t117.5 -298q0 -93 -27.5 -168.5t-83.5 -134t-150.5 -91t-219.5 -32.5h-258v-559h-205zM367 729h258q147 0 206.5 61.5t59.5 194.5q0 131 -58 184.5t-208 53.5h-258v-494z" />
<glyph unicode="Q" horiz-adv-x="1318" d="M98 707q0 167 30.5 294t96.5 221t175 142.5t259 48.5q562 0 562 -706q0 -651 -451 -719q14 -68 46.5 -110t113 -68.5t213.5 -26.5l-21 -135q-112 0 -188 7.5t-143 28t-109.5 58.5t-72.5 97.5t-46 146.5q-465 60 -465 721zM313 707q0 -292 78.5 -430t267.5 -138t268 138.5 t79 429.5q0 288 -78 417t-269 129t-268.5 -129t-77.5 -417z" />
<glyph unicode="R" horiz-adv-x="1214" d="M162 0v1393h463q245 0 363 -109t118 -289q0 -139 -68.5 -242t-210.5 -145v-8q66 -23 104.5 -74.5t78.5 -154.5l123 -328v-43h-207l-144 375q-30 78 -47 104q-66 103 -207 103h-161v-582h-205zM367 752h258q147 0 206.5 59t59.5 184q0 124 -58 176t-208 52h-258v-471z" />
<glyph unicode="S" horiz-adv-x="1058" d="M96 74v180q232 -115 412 -115q128 0 189 58t61 153q0 67 -36 119t-93.5 87t-127 67.5t-139 69.5t-127 81.5t-93.5 114.5t-36 160q0 169 121 266.5t303 97.5q114 0 207.5 -21.5t194.5 -68.5v-182q-87 53 -189 82.5t-200 29.5q-114 0 -167.5 -51t-53.5 -127 q0 -59 36 -106.5t93.5 -81.5t126.5 -66.5t138.5 -72t127 -88t93.5 -123.5t36 -170q0 -170 -132.5 -278.5t-326.5 -108.5q-216 0 -418 94z" />
<glyph unicode="T" horiz-adv-x="1052" d="M59 1223v170h934v-170h-364v-1223h-205v1223h-365z" />
<glyph unicode="U" horiz-adv-x="1282" d="M150 477v916h204v-916q0 -330 287 -330q69 0 121.5 20.5t83 52.5t49 77.5t25 88t6.5 91.5v916h204v-916q0 -256 -129.5 -376.5t-359.5 -120.5t-360.5 120.5t-130.5 376.5z" />
<glyph unicode="V" horiz-adv-x="1196" d="M55 1350v43h205l266 -895q45 -147 74 -287h4q25 119 76 287l266 895h195v-43l-412 -1360h-266z" />
<glyph unicode="W" horiz-adv-x="1769" d="M63 1350v43h197l223 -895q40 -165 64 -297h2q10 55 35 158.5t32 138.5l181 895h194l183 -895q20 -90 57 -297h2q21 116 65 297l220 895h186v-43l-342 -1360h-266l-211 934l-209 -934h-264z" />
<glyph unicode="X" horiz-adv-x="1103" d="M39 0v43l393 690l-354 617v43h205l282 -488l262 488h197v-43l-348 -633l389 -674v-43h-211l-313 545l-305 -545h-197z" />
<glyph unicode="Y" horiz-adv-x="1140" d="M49 1350v43h205l221 -469q32 -69 100 -240h3q49 135 100 242l219 467h197v-43l-422 -879v-471h-205v473z" />
<glyph unicode="Z" horiz-adv-x="1034" d="M68 0v147l634 1076h-600v170h832v-148l-635 -1075h670l-21 -170h-880z" />
<glyph unicode="[" horiz-adv-x="634" d="M160 -164v1720h397v-147h-192v-1425h192v-148h-397z" />
<glyph unicode="\" horiz-adv-x="600" d="M68 1434h137l327 -1475h-137z" />
<glyph unicode="]" horiz-adv-x="634" d="M78 -16h192v1425h-192v147h397v-1720h-397v148z" />
<glyph unicode="^" horiz-adv-x="796" d="M115 1126l243 344h80l246 -344h-129l-156 181l-157 -181h-127z" />
<glyph unicode="_" horiz-adv-x="1105" d="M129 -80h850v-127h-850v127z" />
<glyph unicode="`" horiz-adv-x="718" d="M174 1319q0 35 24.5 56.5t61.5 21.5q32 0 74 -29l227 -162l-41 -80l-284 111q-62 26 -62 82z" />
<glyph unicode="a" horiz-adv-x="1026" d="M68 238q0 68 25.5 119.5t73.5 84t100 51.5t120 33l275 58v123q0 33 -4 58t-17 52t-35 44.5t-61 28.5t-92 11q-145 0 -293 -65l-19 22l54 143q157 43 299 43q166 0 264 -72.5t98 -203.5v-561q0 -86 66 -86q30 0 65 14v-112q-65 -43 -153 -43q-78 0 -120 42t-52 111 l-125 -106q-73 -47 -183 -47q-124 0 -205 71t-81 187zM264 262q0 -67 43 -101t113 -34q71 0 134.5 33t107.5 82v241l-279 -71q-119 -30 -119 -150z" />
<glyph unicode="b" horiz-adv-x="1099" d="M143 -10v1403l146 82h47v-584l125 106q73 47 182 47q117 0 201 -70.5t125 -189t41 -272.5q0 -250 -122 -391t-321 -141q-153 0 -282 92l-84 -82h-58zM336 160q102 -58 213 -58q266 0 266 410q0 205 -65.5 296t-198.5 91q-64 0 -123.5 -30t-91.5 -64v-645z" />
<glyph unicode="c" horiz-adv-x="956" d="M90 512q0 251 124 391.5t351 140.5q161 0 314 -55l-33 -129l-27 -18q-127 57 -248 57q-143 0 -214.5 -108t-71.5 -279q0 -387 288 -387q143 0 295 92v-156q-150 -81 -327 -81q-218 0 -334.5 140t-116.5 392z" />
<glyph unicode="d" horiz-adv-x="1101" d="M92 512q0 250 115 391t305 141q141 0 254 -79v428l147 82h48v-1475h-185l-10 133l-123 -106q-75 -47 -184 -47q-117 0 -201 70.5t-125 189t-41 272.5zM287 512q0 -205 65.5 -296t198.5 -91q98 0 215 111v606q-102 67 -215 67q-264 0 -264 -397z" />
<glyph unicode="e" horiz-adv-x="1054" d="M90 512q0 251 124 391.5t351 140.5q61 0 114.5 -9.5t107.5 -35.5t92 -67.5t62 -110t24 -157.5q0 -88 -23 -197h-655q10 -173 94.5 -257.5t220.5 -84.5q73 0 169 27t159 65v-156q-78 -42 -176.5 -61.5t-184.5 -19.5q-222 0 -350.5 142t-128.5 390zM287 578l485 10 q6 44 6 80q0 63 -16.5 109t-38.5 69t-54 36.5t-52.5 16t-43.5 2.5q-265 0 -286 -323z" />
<glyph unicode="f" horiz-adv-x="628" d="M55 887v71l119 66v68q0 101 21.5 173.5t58.5 117t98.5 69.5t128.5 34t162 9v-156l-22 -12q-65 21 -113 21q-67 0 -103 -40t-36 -132v-152h225v-137h-225v-887h-195v887h-119z" />
<glyph unicode="g" horiz-adv-x="1030" d="M49 -227q0 102 98 200l84 -26l-16 -111q0 -98 71.5 -137t209.5 -39q155 0 228 48.5t73 127.5q0 60 -30 91t-110 38l-358 35q-78 7 -113.5 46.5t-35.5 92.5q0 48 38 101t107 94q-97 46 -150 136.5t-53 207.5q0 162 104 264t289 102q81 0 146 -18l319 18v-129h-141 q78 -93 78 -237q0 -176 -103 -281.5t-288 -105.5q-56 0 -95 8l-75 -119l376 -39q151 -17 224 -86.5t73 -191.5q0 -144 -127.5 -239t-371.5 -95q-101 0 -180 13.5t-129.5 36t-83 54t-45.5 66t-13 74.5zM274 696q0 -138 58.5 -205t167.5 -67q103 0 154 62.5t51 172.5 q0 125 -58 188.5t-166 63.5q-103 0 -155 -59.5t-52 -155.5z" />
<glyph unicode="h" horiz-adv-x="1075" d="M143 0v1393l146 82h47v-578h4l100 92q102 55 213 55q129 0 209 -73t80 -215v-756h-194v721q0 166 -148 166q-67 0 -128.5 -23.5t-135.5 -68.5v-795h-193z" />
<glyph unicode="i" horiz-adv-x="479" d="M127 1296q0 43 31.5 74t81.5 31q48 0 79 -31t31 -74q0 -44 -30.5 -74t-79.5 -30q-50 0 -81.5 30t-31.5 74zM143 0v1024h193v-1024h-193z" />
<glyph unicode="j" horiz-adv-x="479" d="M-27 -336q108 65 139 131t31 209v1020h195v-1020q0 -79 -11.5 -138t-42 -117.5t-89.5 -107.5t-150 -92zM127 1296q0 43 31.5 74t81.5 31q48 0 79 -31t31 -74q0 -44 -30.5 -74t-79.5 -30q-50 0 -81.5 30t-31.5 74z" />
<glyph unicode="k" horiz-adv-x="1026" d="M143 0v1393l146 82h47v-1475h-193zM377 532l401 492h170v-43l-358 -436l399 -502v-43h-194z" />
<glyph unicode="l" horiz-adv-x="505" d="M139 156v1237l146 82h47v-1268q0 -86 65 -86q31 0 66 14v-133q-61 -22 -141 -22q-85 0 -134 44.5t-49 131.5z" />
<glyph unicode="m" horiz-adv-x="1669" d="M143 0v1024h183l10 -127h4l100 92q102 55 213 55q96 0 162.5 -40.5t95.5 -122.5h4l119 108q102 55 213 55q129 0 209 -73t80 -215v-756h-195v721q0 166 -147 166q-67 0 -124.5 -23t-133.5 -69v-795h-193v721q0 84 -34.5 125t-110.5 41q-66 0 -127 -23.5t-135 -68.5v-795 h-193z" />
<glyph unicode="n" horiz-adv-x="1075" d="M143 0v1024h183l10 -127h4l100 92q102 55 213 55q129 0 209 -73t80 -215v-756h-194v721q0 166 -148 166q-67 0 -128.5 -23.5t-135.5 -68.5v-795h-193z" />
<glyph unicode="o" d="M92 512q0 257 111 394.5t338 137.5t338.5 -138t111.5 -394t-111.5 -394t-338.5 -138t-338 137.5t-111 394.5zM287 512q0 -197 58 -293t196 -96q140 0 198 96t58 293t-58 293t-198 96q-138 0 -196 -96t-58 -293z" />
<glyph unicode="p" horiz-adv-x="1101" d="M143 -451v1475h183l10 -133l125 106q73 47 182 47q117 0 201 -70.5t125 -189t41 -272.5q0 -250 -115 -391t-303 -141q-142 0 -256 83v-514h-193zM336 184q107 -69 215 -69q139 0 201.5 102t62.5 295q0 205 -65.5 296t-198.5 91q-19 0 -38.5 -4t-38 -12t-32.5 -15.5 t-32.5 -21t-27 -20t-26 -21t-20.5 -17.5v-604z" />
<glyph unicode="q" horiz-adv-x="1099" d="M90 512q0 250 122 391t323 141q150 0 282 -94l94 84h47v-1485h-194v584l-123 -106q-75 -47 -184 -47q-117 0 -201 70.5t-125 189t-41 272.5zM285 512q0 -205 65.5 -296t198.5 -91q64 0 123.5 30t91.5 64v647q-106 56 -213 56q-266 0 -266 -410z" />
<glyph unicode="r" horiz-adv-x="735" d="M143 0v1024h183l10 -168h4l100 137q60 51 164 51q50 0 107 -14l-68 -176q-42 10 -84 10q-61 0 -114 -30.5t-109 -96.5v-737h-193z" />
<glyph unicode="s" horiz-adv-x="890" d="M90 217q83 -44 178 -68t172 -24q93 0 138 42.5t45 100.5q0 42 -29 75.5t-75 56t-101.5 44.5t-111.5 49.5t-102 62t-75 90t-29 126.5q0 132 104 202t259 70q160 0 313 -55l-35 -129l-24 -18q-127 57 -250 57q-88 0 -131 -34.5t-43 -90.5q0 -41 29 -73.5t75 -55t102 -44.5 t112 -49t102 -60t75 -85.5t29 -119.5q0 -141 -100 -224t-262 -83q-190 0 -342 71z" />
<glyph unicode="t" horiz-adv-x="653" d="M51 887v71l119 66l143 209h52v-209h225v-137h-225v-649q0 -58 25 -84.5t85 -26.5q61 0 125 31v-146q-35 -14 -87 -23t-87 -9q-132 0 -194 53t-62 182v672h-119z" />
<glyph unicode="u" horiz-adv-x="1077" d="M135 268v756h195v-721q0 -166 147 -166q67 0 128.5 23.5t135.5 68.5v795h193v-1024h-182l-11 127h-4l-100 -92q-102 -55 -213 -55q-129 0 -209 73t-80 215z" />
<glyph unicode="v" horiz-adv-x="995" d="M63 981v43h185l256 -831h4l244 831h184v-43l-322 -991h-237z" />
<glyph unicode="w" horiz-adv-x="1538" d="M76 981v43h184l209 -823h4l209 823h197l180 -823h4l237 823h185v-43l-309 -991h-246l-158 745l-190 -745h-246z" />
<glyph unicode="x" horiz-adv-x="958" d="M43 0v43l330 489l-299 449v43h184l229 -342l226 342h172v-43l-297 -451l327 -487v-43h-188l-254 379l-256 -379h-174z" />
<glyph unicode="y" horiz-adv-x="989" d="M57 981v43h185l256 -831h4l243 831h185v-43l-248 -764q-20 -61 -40.5 -116.5t-43 -105.5t-40.5 -89t-43 -81t-39.5 -67.5t-41.5 -63.5t-37 -52t-37 -50t-32 -43h-189v43q56 66 89 108t80 112.5t85 146.5z" />
<glyph unicode="z" horiz-adv-x="919" d="M80 0v123l530 764h-530l45 137h704v-123l-528 -764h549l-33 -137h-737z" />
<glyph unicode="{" horiz-adv-x="628" d="M84 610v172q71 0 102 35t31 125q0 36 -27.5 150t-27.5 198q0 142 93 204t292 62v-147q-103 0 -147 -35.5t-44 -128.5q0 -58 29 -169.5t29 -184.5q0 -65 -43 -118t-133 -73v-6q90 -19 133 -73.5t43 -118.5q0 -73 -29 -185t-29 -170q0 -93 44 -128t147 -35v-148 q-199 0 -292 62t-93 204q0 84 27.5 198.5t27.5 150.5q0 90 -31 124.5t-102 34.5z" />
<glyph unicode="|" horiz-adv-x="501" d="M164 -41v1475h174v-1475h-174z" />
<glyph unicode="}" horiz-adv-x="628" d="M84 -16q103 0 145.5 35t42.5 128q0 58 -27.5 170t-27.5 185q0 65 42.5 119t133.5 73v6q-91 20 -133.5 72.5t-42.5 118.5q0 73 27.5 184.5t27.5 169.5q0 93 -43 128.5t-145 35.5v147q199 0 291 -62t92 -204q0 -84 -27.5 -198t-27.5 -150q0 -90 31.5 -125t103.5 -35v-172 q-73 0 -104 -34.5t-31 -124.5q0 -36 27.5 -150.5t27.5 -198.5q0 -142 -92 -204t-291 -62v148z" />
<glyph unicode="~" horiz-adv-x="892" d="M131 1126q10 121 63.5 192t131.5 71q42 0 95 -23.5t100 -46.5t75 -23q34 0 52 20.5t30 59.5h104q-10 -130 -53.5 -183.5t-114.5 -53.5q-56 0 -157.5 46t-128.5 46q-44 0 -61.5 -26t-24.5 -79h-111z" />
<glyph unicode="&#xa1;" horiz-adv-x="468" d="M123 -369l53 1049h115l55 -1049h-223zM135 936q0 45 30.5 76.5t72.5 31.5q43 0 72.5 -31t29.5 -77q0 -42 -30 -73.5t-72 -31.5q-41 0 -72 32t-31 73z" />
<glyph unicode="&#xa2;" horiz-adv-x="1196" d="M102 696q0 696 541 717v82h109v-84q155 -12 325 -92v-178q-170 93 -325 108v-1106q184 17 346 119l-21 -188q-170 -80 -325 -92v-84h-109v82q-541 21 -541 716zM317 696q0 -126 14.5 -219t50 -169.5t100.5 -118.5t161 -48v1110q-77 -5 -134.5 -35t-93.5 -78t-58.5 -119 t-31 -148.5t-8.5 -174.5z" />
<glyph unicode="&#xa3;" horiz-adv-x="1067" d="M119 1030q0 182 119.5 282.5t304.5 100.5q114 0 206 -21.5t195 -68.5v-182q-187 112 -387 112q-116 0 -168.5 -54t-52.5 -144q0 -22 3 -45t6.5 -41t12 -41t13 -36.5t17 -38t17.5 -34.5t20 -37t19 -34h394v-127h-334q20 -65 20 -125q0 -103 -37 -176t-108 -140v-10h588 l-21 -170h-825v139q205 110 205 338q0 64 -41 144h-164v127h94q-46 80 -71 146t-25 136z" />
<glyph unicode="&#xa4;" horiz-adv-x="1331" d="M88 496v129h143l-2 71q0 61 2 90h-143v129h158q79 498 557 498q206 0 401 -94v-178q-200 112 -401 112q-153 0 -234.5 -87.5t-109.5 -250.5h420v-129h-433q-2 -29 -2 -90l2 -71h433v-129h-422q23 -173 104.5 -265t241.5 -92q227 0 422 123l-21 -188q-195 -94 -401 -94 q-486 0 -559 516h-156z" />
<glyph unicode="&#xa5;" horiz-adv-x="1157" d="M57 1350v43h205l221 -469q38 -81 101 -240h2q49 135 100 242l219 467h197v-43l-387 -807h272v-127h-307v-416h-205v416h-307v127h274z" />
<glyph unicode="&#xa6;" horiz-adv-x="501" d="M164 -41v655h174v-655h-174zM164 778v656h174v-656h-174z" />
<glyph unicode="&#xa7;" horiz-adv-x="1046" d="M88 74q184 -113 389 -113q116 0 168.5 54t52.5 145q0 49 -29 92.5t-75.5 77.5t-103 65.5t-113 62t-103 61.5t-75.5 70t-29 81q0 51 27 81t73 54q28 -39 80 -77.5t109.5 -71.5t122.5 -69.5t123 -77t105 -87t75 -107.5t28 -131q0 -123 -57.5 -211.5t-152 -131t-214.5 -42.5 q-111 0 -203.5 22t-197.5 68v185zM133 1208q0 183 119.5 284t302.5 101q112 0 205 -21.5t198 -68.5v-184q-184 113 -391 113q-115 0 -167 -54.5t-52 -144.5q0 -49 29 -92.5t76 -77.5t103.5 -65.5t112.5 -62t103 -61.5t76 -70t29 -81q0 -51 -27 -81t-74 -54q-32 44 -96.5 90 t-133.5 82t-144 83.5t-134 96t-97 118.5t-38 150z" />
<glyph unicode="&#xa8;" horiz-adv-x="911" d="M162 1286q0 43 30.5 70.5t75.5 27.5q44 0 73.5 -27.5t29.5 -70.5q0 -46 -29.5 -74t-73.5 -28q-45 0 -75.5 28t-30.5 74zM541 1286q0 44 28.5 71t73.5 27q44 0 74.5 -27.5t30.5 -70.5q0 -46 -30.5 -74t-74.5 -28q-45 0 -73.5 27.5t-28.5 74.5z" />
<glyph unicode="&#xa9;" horiz-adv-x="1622" d="M94 696q0 146 56.5 278.5t152.5 228.5t229 153t279 57q145 0 278 -57t229 -153t153 -229t57 -278t-57 -278t-153 -228.5t-228.5 -152.5t-278.5 -57t-279 57t-229 152.5t-152.5 228t-56.5 278.5zM166 696q0 -174 86.5 -322.5t235 -235.5t323.5 -87q174 0 322.5 87 t235.5 235.5t87 322.5t-87 322.5t-235.5 235.5t-322.5 87q-175 0 -323.5 -87t-235 -235.5t-86.5 -322.5zM502 696q0 404 321 404q118 0 228 -51v-103q-115 66 -228 66q-48 0 -84 -16t-58 -43t-36 -68.5t-19 -86.5t-5 -102q0 -72 9 -126t30.5 -98.5t62 -67.5t100.5 -23 q127 0 238 72l-10 -109q-110 -51 -228 -51q-321 0 -321 403z" />
<glyph unicode="&#xaa;" horiz-adv-x="868" d="M113 526v82h651v-82h-651zM143 877q0 152 205 192l184 37v82q0 60 -28.5 95.5t-110.5 35.5q-103 0 -194 -45l-15 16l35 94q96 29 201 29q109 0 171 -48t62 -136v-373q0 -57 43 -57q22 0 43 8v-74q-40 -28 -94 -28q-51 0 -79.5 28t-33.5 74l-83 -72q-46 -30 -123 -30 q-80 0 -131.5 47.5t-51.5 124.5zM264 893q0 -45 30.5 -68.5t74.5 -23.5q89 0 163 78v161l-188 -49q-34 -9 -57 -33t-23 -65z" />
<glyph unicode="&#xab;" d="M96 518v70l363 364l100 -94l-291 -305l291 -305l-100 -94zM516 518v70l365 364l98 -94l-289 -305l289 -305l-98 -94z" />
<glyph unicode="&#xac;" horiz-adv-x="987" d="M129 522v133h729v-465h-135v332h-594z" />
<glyph unicode="&#xad;" horiz-adv-x="917" d="M129 502v127h659v-127h-659z" />
<glyph unicode="&#xae;" horiz-adv-x="1622" d="M94 696q0 146 56.5 278.5t152.5 228.5t229 153t279 57q145 0 278 -57t229 -153t153 -229t57 -278t-57 -278t-153 -228.5t-228.5 -152.5t-278.5 -57t-279 57t-229 152.5t-152.5 228t-56.5 278.5zM166 696q0 -174 86.5 -322.5t235 -235.5t323.5 -87q174 0 322.5 87 t235.5 235.5t87 322.5t-87 322.5t-235.5 235.5t-322.5 87q-175 0 -323.5 -87t-235 -235.5t-86.5 -322.5zM563 303v787h262q138 0 204.5 -60.5t66.5 -163.5q0 -80 -39 -137.5t-119 -81.5v-4q38 -14 60 -44t42 -87l74 -184v-25h-121l-80 211q-20 57 -40 79q-36 40 -103 40h-90 v-330h-117zM680 727h145q83 0 116.5 33.5t33.5 105.5q0 70 -32.5 98.5t-117.5 28.5h-145v-266z" />
<glyph unicode="&#xaf;" horiz-adv-x="888" d="M147 1165v113h594v-113h-594z" />
<glyph unicode="&#xb0;" horiz-adv-x="657" d="M96 1182q0 101 68.5 166t163.5 65q96 0 164.5 -64.5t68.5 -166.5q0 -101 -68.5 -167.5t-164.5 -66.5q-95 0 -163.5 66.5t-68.5 167.5zM199 1182q0 -52 32.5 -91.5t96.5 -39.5q66 0 98.5 39t32.5 92t-32 91t-99 38q-64 0 -96.5 -38t-32.5 -91z" />
<glyph unicode="&#xb1;" horiz-adv-x="917" d="M129 70v127h659v-127h-659zM129 524v129h266v262h129v-262h264v-129h-264v-260h-129v260h-266z" />
<glyph unicode="&#xb2;" horiz-adv-x="677" d="M55 762v102q237 165 332.5 273t95.5 209q0 167 -182 167q-49 0 -107 -18t-104 -49v110q111 54 238 54t203.5 -62t76.5 -200q0 -48 -13 -91.5t-42 -85.5t-60 -76.5t-84 -77t-94.5 -72.5t-109.5 -77v-4h403l-12 -102h-541z" />
<glyph unicode="&#xb3;" horiz-adv-x="679" d="M66 805v108q120 -67 235 -67q86 0 136 37.5t50 107.5q0 73 -64 110.5t-169 37.5h-76v94h76q38 0 72.5 6.5t69 22.5t55 47t20.5 75q0 64 -47 96.5t-117 32.5q-58 0 -105.5 -14.5t-117.5 -46.5v107q120 51 238 51q122 0 197 -58t75 -151q0 -87 -49 -140t-131 -67v-6 q83 -10 139.5 -62.5t56.5 -138.5q0 -113 -82 -175t-217 -62q-125 0 -245 55z" />
<glyph unicode="&#xb4;" horiz-adv-x="718" d="M156 1206l225 162q42 29 76 29q37 0 61.5 -21.5t24.5 -56.5q0 -34 -17 -52t-45 -30l-286 -111z" />
<glyph unicode="&#xb6;" horiz-adv-x="1146" d="M72 954q0 212 116 325.5t338 113.5h439v-1393h-205v1208h-144v-692h-90q-222 0 -338 113t-116 325z" />
<glyph unicode="&#xb7;" horiz-adv-x="450" d="M127 557q0 43 27.5 70.5t70.5 27.5q41 0 70 -28t29 -70q0 -43 -29 -70.5t-70 -27.5q-43 0 -70.5 27t-27.5 71z" />
<glyph unicode="&#xb8;" horiz-adv-x="690" d="M180 -309q78 -23 105 -23q112 0 112 103q0 51 -36.5 75.5t-122.5 24.5v129h90v-66q81 0 133.5 -42.5t52.5 -120.5q0 -85 -51.5 -133t-136.5 -48q-91 0 -146 27v74z" />
<glyph unicode="&#xb9;" horiz-adv-x="409" d="M43 1495v78l186 31h60v-842h-123v733h-123z" />
<glyph unicode="&#xba;" horiz-adv-x="882" d="M117 526v82h653v-82h-653zM147 1059q0 354 293 354t293 -354t-293 -354t-293 354zM270 1059q0 -132 38.5 -196t131.5 -64t131.5 64t38.5 196t-38.5 196t-131.5 64t-131.5 -64t-38.5 -196z" />
<glyph unicode="&#xbb;" d="M102 248l289 305l-289 305l99 94l364 -364v-70l-364 -364zM524 248l289 305l-289 305l99 94l364 -364v-70l-364 -364z" />
<glyph unicode="&#xbc;" horiz-adv-x="1564" d="M61 1290v78l187 31h59v-842h-123v733h-123zM233 0l457 686l70 -41l-369 -645h-158zM743 768l357 625h160l-447 -666zM897 168v104l416 570h94v-572h86v-102h-86v-168h-123v168h-387zM1014 270h270v363z" />
<glyph unicode="&#xbd;" horiz-adv-x="1669" d="M61 1290v78l187 31h59v-842h-123v733h-123zM233 0l457 686l70 -41l-369 -645h-158zM743 768l357 625h160l-447 -666zM1028 0v102q237 165 332.5 273t95.5 209q0 168 -184 168q-47 0 -106 -18.5t-105 -49.5v111q112 53 239 53q61 0 110 -14t88.5 -43.5t61 -81.5t21.5 -123 q0 -48 -13 -92t-42 -85.5t-60.5 -76t-84 -76.5t-95 -73t-110.5 -77v-4h405l-12 -102h-541z" />
<glyph unicode="&#xbe;" horiz-adv-x="1761" d="M96 600v109q122 -68 236 -68q86 0 136 37.5t50 107.5q0 73 -64 110.5t-169 37.5h-76v94h76q38 0 72.5 7t69 22.5t55 47t20.5 75.5q0 64 -47 96.5t-117 32.5q-56 0 -104.5 -15t-118.5 -47v107q120 51 239 51q121 0 196 -58t75 -151q0 -87 -49.5 -140t-131.5 -67v-6 q84 -10 141.5 -62.5t57.5 -138.5q0 -113 -82.5 -175t-218.5 -62q-122 0 -246 55zM428 0l459 686l69 -41l-368 -645h-160zM940 768l356 625h158l-444 -666zM1092 168v104l415 570h95v-572h88v-102h-88v-168h-123v168h-387zM1210 270h269v363z" />
<glyph unicode="&#xbf;" horiz-adv-x="927" d="M66 12q0 99 28.5 175.5t72.5 121.5t104.5 74t117 39t117.5 10l18 248h113l22 -371q-90 0 -156 -12.5t-121 -43.5t-83.5 -88.5t-28.5 -141.5q0 -119 65 -185.5t189 -66.5q86 0 160.5 27t171.5 85v-182q-98 -48 -180 -69t-187 -21q-192 0 -307.5 107.5t-115.5 293.5z M475 936q0 45 30.5 76.5t72.5 31.5q43 0 72.5 -31t29.5 -77q0 -42 -30 -73.5t-72 -31.5q-41 0 -72 32t-31 73z" />
<glyph unicode="&#xc0;" horiz-adv-x="1191" d="M53 0v43l412 1360h264l410 -1360v-43h-205l-109 367h-469l-108 -367h-195zM281 1688q0 35 24.5 56t61.5 21q33 0 73 -28l228 -162l-41 -80l-285 111q-61 25 -61 82zM408 537h366l-106 360q-46 154 -74 289h-2q-22 -105 -78 -289z" />
<glyph unicode="&#xc1;" horiz-adv-x="1191" d="M53 0v43l412 1360h264l410 -1360v-43h-205l-109 367h-469l-108 -367h-195zM408 537h366l-106 360q-46 154 -74 289h-2q-22 -105 -78 -289zM522 1575l226 162q40 28 75 28q37 0 61.5 -21t24.5 -56q0 -55 -61 -82l-287 -111z" />
<glyph unicode="&#xc2;" horiz-adv-x="1191" d="M53 0v43l412 1360h264l410 -1360v-43h-205l-109 367h-469l-108 -367h-195zM309 1495l246 344h78l246 -344h-127l-156 180l-158 -180h-129zM408 537h366l-106 360q-46 154 -74 289h-2q-22 -105 -78 -289z" />
<glyph unicode="&#xc3;" horiz-adv-x="1191" d="M53 0v43l412 1360h264l410 -1360v-43h-205l-109 367h-469l-108 -367h-195zM268 1495q10 121 63.5 191.5t131.5 70.5q42 0 95 -23t100 -46t75 -23q34 0 52 20.5t30 59.5h105q-18 -238 -168 -238q-56 0 -158 46t-129 46q-44 0 -61.5 -26t-24.5 -78h-111zM408 537h366 l-106 360q-46 154 -74 289h-2q-22 -105 -78 -289z" />
<glyph unicode="&#xc4;" horiz-adv-x="1191" d="M53 0v43l412 1360h264l410 -1360v-43h-205l-109 367h-469l-108 -367h-195zM301 1655q0 43 31 70.5t76 27.5q44 0 73 -27t29 -71q0 -46 -29 -74.5t-73 -28.5q-45 0 -76 28.5t-31 74.5zM408 537h366l-106 360q-46 154 -74 289h-2q-22 -105 -78 -289zM680 1655q0 44 28.5 71 t73.5 27q44 0 74.5 -27.5t30.5 -70.5q0 -46 -30.5 -74.5t-74.5 -28.5q-45 0 -73.5 28t-28.5 75z" />
<glyph unicode="&#xc5;" horiz-adv-x="1191" d="M53 0v43l412 1360h264l410 -1360v-43h-205l-109 367h-469l-108 -367h-195zM408 537h366l-106 360q-46 154 -74 289h-2q-22 -105 -78 -289zM426 1642q0 76 45.5 119t124.5 43q76 0 122 -43t46 -119q0 -75 -46 -117t-122 -42q-78 0 -124 42t-46 117zM502 1642 q0 -45 24.5 -69.5t69.5 -24.5q43 0 67.5 25t24.5 69q0 46 -24.5 71.5t-67.5 25.5q-45 0 -69.5 -25.5t-24.5 -71.5z" />
<glyph unicode="&#xc6;" horiz-adv-x="1636" d="M20 0v43l596 1350h922v-170h-588v-426h498v-170h-498v-457h600l-20 -170h-785v367h-368l-160 -367h-197zM451 537h294v686h-18q-50 -170 -104 -289z" />
<glyph unicode="&#xc7;" horiz-adv-x="1161" d="M98 696q0 717 572 717q206 0 403 -94v-178q-200 112 -403 112q-104 0 -176 -41t-110.5 -119.5t-54.5 -173.5t-16 -223t16 -223t54.5 -173.5t110.5 -119.5t176 -41q229 0 424 123l-21 -188q-182 -86 -354 -92v-48q81 0 133.5 -42.5t52.5 -120.5q0 -85 -51.5 -133 t-136.5 -48q-91 0 -146 27v74q78 -23 105 -23q112 0 112 103q0 51 -37 75.5t-122 24.5v109q-531 27 -531 716z" />
<glyph unicode="&#xc8;" horiz-adv-x="1114" d="M162 0v1393h854v-170h-649v-426h557v-170h-557v-457h661l-20 -170h-846zM274 1688q0 35 24.5 56t61.5 21q34 0 74 -28l228 -162l-41 -80l-285 111q-62 26 -62 82z" />
<glyph unicode="&#xc9;" horiz-adv-x="1114" d="M162 0v1393h854v-170h-649v-426h557v-170h-557v-457h661l-20 -170h-846zM516 1575l225 162q40 28 76 28q37 0 61.5 -21t24.5 -56q0 -55 -61 -82l-287 -111z" />
<glyph unicode="&#xca;" horiz-adv-x="1114" d="M162 0v1393h854v-170h-649v-426h557v-170h-557v-457h661l-20 -170h-846zM303 1495l246 344h78l245 -344h-127l-155 180l-158 -180h-129z" />
<glyph unicode="&#xcb;" horiz-adv-x="1114" d="M162 0v1393h854v-170h-649v-426h557v-170h-557v-457h661l-20 -170h-846zM295 1655q0 43 30.5 70.5t75.5 27.5q44 0 73.5 -27.5t29.5 -70.5q0 -46 -29.5 -74.5t-73.5 -28.5q-45 0 -75.5 28.5t-30.5 74.5zM674 1655q0 44 28.5 71t73.5 27q44 0 74.5 -27.5t30.5 -70.5 q0 -46 -30.5 -74.5t-74.5 -28.5q-45 0 -73.5 28t-28.5 75z" />
<glyph unicode="&#xcc;" horiz-adv-x="526" d="M-51 1688q0 35 24.5 56t61.5 21q34 0 74 -28l227 -162l-41 -80l-285 111q-61 25 -61 82zM162 0v1393h205v-1393h-205z" />
<glyph unicode="&#xcd;" horiz-adv-x="526" d="M162 0v1393h205v-1393h-205zM190 1575l226 162q40 28 76 28q37 0 61.5 -21t24.5 -56q0 -34 -17 -52t-45 -30l-287 -111z" />
<glyph unicode="&#xce;" horiz-adv-x="526" d="M-23 1495l246 344h78l246 -344h-127l-156 180l-158 -180h-129zM162 0v1393h205v-1393h-205z" />
<glyph unicode="&#xcf;" horiz-adv-x="526" d="M-31 1655q0 43 31 70.5t76 27.5q44 0 73 -27t29 -71q0 -46 -29 -74.5t-73 -28.5q-45 0 -76 28.5t-31 74.5zM162 0v1393h205v-1393h-205zM348 1655q0 44 29 71t74 27q44 0 74 -27.5t30 -70.5q0 -46 -30 -74.5t-74 -28.5q-45 0 -74 28t-29 75z" />
<glyph unicode="&#xd0;" horiz-adv-x="1316" d="M27 618v156h139v619h489q295 0 428.5 -174t133.5 -512q0 -167 -31 -295t-97 -221.5t-175 -142t-259 -48.5h-489v618h-139zM371 170h284q191 0 268.5 125t77.5 412q0 284 -76.5 400t-269.5 116h-284v-449h327v-156h-327v-448z" />
<glyph unicode="&#xd1;" horiz-adv-x="1300" d="M162 0v1393h205l581 -1018h10q-10 176 -10 442v576h193v-1393h-205l-582 1018h-10q10 -176 10 -443v-575h-192zM309 1495q10 121 63.5 191.5t131.5 70.5q42 0 95 -23t100 -46t75 -23q34 0 52 20.5t30 59.5h105q-18 -238 -168 -238q-56 0 -158 46t-129 46q-44 0 -61.5 -26 t-24.5 -78h-111z" />
<glyph unicode="&#xd2;" horiz-adv-x="1318" d="M98 707q0 167 30.5 294t96.5 221t175 142.5t259 48.5q562 0 562 -706q0 -168 -31 -298.5t-97 -228t-175.5 -149t-258.5 -51.5q-561 0 -561 727zM313 707q0 -292 78.5 -430t267.5 -138t268 138.5t79 429.5q0 288 -78 417t-269 129t-268.5 -129t-77.5 -417zM348 1688 q0 35 24.5 56t61.5 21q34 0 74 -28l227 -162l-41 -80l-284 111q-62 26 -62 82z" />
<glyph unicode="&#xd3;" horiz-adv-x="1318" d="M98 707q0 167 30.5 294t96.5 221t175 142.5t259 48.5q562 0 562 -706q0 -168 -31 -298.5t-97 -228t-175.5 -149t-258.5 -51.5q-561 0 -561 727zM313 707q0 -292 78.5 -430t267.5 -138t268 138.5t79 429.5q0 288 -78 417t-269 129t-268.5 -129t-77.5 -417zM590 1575 l225 162q40 28 76 28q37 0 61.5 -21t24.5 -56q0 -34 -17 -52t-45 -30l-286 -111z" />
<glyph unicode="&#xd4;" horiz-adv-x="1318" d="M98 707q0 167 30.5 294t96.5 221t175 142.5t259 48.5q562 0 562 -706q0 -168 -31 -298.5t-97 -228t-175.5 -149t-258.5 -51.5q-561 0 -561 727zM313 707q0 -292 78.5 -430t267.5 -138t268 138.5t79 429.5q0 288 -78 417t-269 129t-268.5 -129t-77.5 -417zM377 1495 l246 344h77l246 -344h-127l-155 180l-158 -180h-129z" />
<glyph unicode="&#xd5;" horiz-adv-x="1318" d="M98 707q0 167 30.5 294t96.5 221t175 142.5t259 48.5q562 0 562 -706q0 -168 -31 -298.5t-97 -228t-175.5 -149t-258.5 -51.5q-561 0 -561 727zM313 707q0 -292 78.5 -430t267.5 -138t268 138.5t79 429.5q0 288 -78 417t-269 129t-268.5 -129t-77.5 -417zM336 1495 q10 121 63 191.5t131 70.5q42 0 95 -23t100.5 -46t75.5 -23q34 0 52 20.5t30 59.5h104q-18 -238 -168 -238q-56 0 -158 46t-129 46q-44 0 -61.5 -26t-24.5 -78h-110z" />
<glyph unicode="&#xd6;" horiz-adv-x="1318" d="M98 707q0 167 30.5 294t96.5 221t175 142.5t259 48.5q562 0 562 -706q0 -168 -31 -298.5t-97 -228t-175.5 -149t-258.5 -51.5q-561 0 -561 727zM313 707q0 -292 78.5 -430t267.5 -138t268 138.5t79 429.5q0 288 -78 417t-269 129t-268.5 -129t-77.5 -417zM369 1655 q0 43 30.5 70.5t75.5 27.5q44 0 73.5 -27.5t29.5 -70.5q0 -46 -29.5 -74.5t-73.5 -28.5q-45 0 -75.5 28.5t-30.5 74.5zM748 1655q0 44 28.5 71t73.5 27q44 0 74 -27.5t30 -70.5q0 -46 -30 -74.5t-74 -28.5q-45 0 -73.5 28t-28.5 75z" />
<glyph unicode="&#xd7;" horiz-adv-x="915" d="M121 297l248 248l-248 246l90 90l248 -248l246 248l90 -90l-248 -246l248 -248l-90 -90l-246 248l-248 -248z" />
<glyph unicode="&#xd8;" horiz-adv-x="1318" d="M98 707q0 167 30.5 294t96.5 221t175 142.5t259 48.5q141 0 242 -43l66 146h145l-96 -213q205 -168 205 -596q0 -168 -31 -298.5t-97 -228t-175.5 -149t-258.5 -51.5q-134 0 -225 36l-63 -139h-146l92 205q-219 170 -219 625zM313 707q0 -310 86 -443l432 953 q-68 36 -172 36q-191 0 -268.5 -129t-77.5 -417zM504 172q62 -33 155 -33q189 0 268 138.5t79 429.5q0 285 -74 411z" />
<glyph unicode="&#xd9;" horiz-adv-x="1282" d="M150 477v916h204v-916q0 -330 285 -330q70 0 122.5 20.5t83 52.5t49.5 77.5t25.5 88t6.5 91.5v916h204v-916q0 -256 -130.5 -376.5t-360.5 -120.5t-359.5 120.5t-129.5 376.5zM311 1688q0 35 24.5 56t61.5 21q34 0 74 -28l227 -162l-41 -80l-284 111q-62 26 -62 82z" />
<glyph unicode="&#xda;" horiz-adv-x="1282" d="M150 477v916h204v-916q0 -330 285 -330q70 0 122.5 20.5t83 52.5t49.5 77.5t25.5 88t6.5 91.5v916h204v-916q0 -256 -130.5 -376.5t-360.5 -120.5t-359.5 120.5t-129.5 376.5zM553 1575l225 162q40 28 76 28q37 0 61.5 -21t24.5 -56q0 -55 -61 -82l-287 -111z" />
<glyph unicode="&#xdb;" horiz-adv-x="1282" d="M150 477v916h204v-916q0 -330 285 -330q70 0 122.5 20.5t83 52.5t49.5 77.5t25.5 88t6.5 91.5v916h204v-916q0 -256 -130.5 -376.5t-360.5 -120.5t-359.5 120.5t-129.5 376.5zM342 1495l246 344h78l245 -344h-127l-155 180l-158 -180h-129z" />
<glyph unicode="&#xdc;" horiz-adv-x="1282" d="M150 477v916h204v-916q0 -330 285 -330q70 0 122.5 20.5t83 52.5t49.5 77.5t25.5 88t6.5 91.5v916h204v-916q0 -256 -130.5 -376.5t-360.5 -120.5t-359.5 120.5t-129.5 376.5zM332 1655q0 43 30.5 70.5t75.5 27.5q44 0 73.5 -27.5t29.5 -70.5q0 -46 -29.5 -74.5 t-73.5 -28.5q-45 0 -75.5 28.5t-30.5 74.5zM711 1655q0 44 28.5 71t73.5 27q44 0 74.5 -27.5t30.5 -70.5q0 -46 -30.5 -74.5t-74.5 -28.5q-45 0 -73.5 28t-28.5 75z" />
<glyph unicode="&#xdd;" horiz-adv-x="1140" d="M49 1350v43h205l221 -469q49 -104 100 -240h3q64 166 100 242l219 467h197v-43l-422 -879v-471h-205v473zM508 1575l225 162q40 28 76 28q37 0 61.5 -21t24.5 -56q0 -55 -61 -82l-287 -111z" />
<glyph unicode="&#xde;" horiz-adv-x="1173" d="M162 0v1393h205v-279h258q126 0 220 -30t150 -85.5t83.5 -128t27.5 -163.5q0 -93 -27.5 -168.5t-83.5 -134t-150.5 -91t-219.5 -32.5h-258v-281h-205zM367 451h258q147 0 206.5 61.5t59.5 194.5q0 130 -58 183.5t-208 53.5h-258v-493z" />
<glyph unicode="&#xdf;" horiz-adv-x="1171" d="M55 887v71l119 66v41q0 116 37.5 203t101 134.5t136.5 70t155 22.5q163 0 266 -75t103 -220q0 -65 -25.5 -122.5t-62 -97t-73 -73.5t-62 -66t-25.5 -59q0 -30 29 -61.5t72.5 -58.5t94 -64.5t94 -77.5t72.5 -100.5t29 -130.5q0 -99 -50.5 -171t-128.5 -105t-173 -33 q-135 0 -238 40l-22 166q68 -31 120.5 -46t116.5 -15q51 0 88 14.5t56.5 39t28 50.5t8.5 54q0 59 -37.5 110.5t-91 91t-107.5 78t-91.5 87.5t-37.5 104q0 43 21.5 83.5t52.5 75t61.5 71.5t52 89t21.5 111q0 47 -16.5 81t-45 51t-58.5 24.5t-64 7.5q-213 0 -213 -304v-1044 h-195v887h-119z" />
<glyph unicode="&#xe0;" horiz-adv-x="1026" d="M68 238q0 68 25.5 119.5t73.5 84t100 51.5t120 33l275 58v123q0 33 -4 58t-17 52t-35 44.5t-61 28.5t-92 11q-145 0 -293 -65l-19 22l54 143q157 43 299 43q166 0 263 -72.5t97 -203.5v-561q0 -86 68 -86q30 0 65 14v-112q-65 -43 -153 -43q-78 0 -120 42t-52 111 l-125 -106q-73 -47 -183 -47q-124 0 -205 71t-81 187zM178 1319q0 35 24.5 56.5t61.5 21.5q32 0 74 -29l227 -162l-41 -80l-284 111q-62 26 -62 82zM264 262q0 -68 43.5 -101.5t114.5 -33.5q70 0 133 33t107 82v241l-279 -71q-119 -30 -119 -150z" />
<glyph unicode="&#xe1;" horiz-adv-x="1026" d="M68 238q0 68 25.5 119.5t73.5 84t100 51.5t120 33l275 58v123q0 33 -4 58t-17 52t-35 44.5t-61 28.5t-92 11q-145 0 -293 -65l-19 22l54 143q157 43 299 43q166 0 263 -72.5t97 -203.5v-561q0 -86 68 -86q30 0 65 14v-112q-65 -43 -153 -43q-78 0 -120 42t-52 111 l-125 -106q-73 -47 -183 -47q-124 0 -205 71t-81 187zM264 262q0 -68 43.5 -101.5t114.5 -33.5q70 0 133 33t107 82v241l-279 -71q-119 -30 -119 -150zM420 1206l225 162q42 29 76 29q37 0 61.5 -21.5t24.5 -56.5q0 -34 -17 -52t-45 -30l-286 -111z" />
<glyph unicode="&#xe2;" horiz-adv-x="1026" d="M68 238q0 68 25.5 119.5t73.5 84t100 51.5t120 33l275 58v123q0 33 -4 58t-17 52t-35 44.5t-61 28.5t-92 11q-145 0 -293 -65l-19 22l54 143q157 43 299 43q166 0 263 -72.5t97 -203.5v-561q0 -86 68 -86q30 0 65 14v-112q-65 -43 -153 -43q-78 0 -120 42t-52 111 l-125 -106q-73 -47 -183 -47q-124 0 -205 71t-81 187zM207 1126l246 344h77l246 -344h-127l-155 181l-158 -181h-129zM264 262q0 -68 43.5 -101.5t114.5 -33.5q70 0 133 33t107 82v241l-279 -71q-119 -30 -119 -150z" />
<glyph unicode="&#xe3;" horiz-adv-x="1026" d="M68 238q0 68 25.5 119.5t73.5 84t100 51.5t120 33l275 58v123q0 33 -4 58t-17 52t-35 44.5t-61 28.5t-92 11q-145 0 -293 -65l-19 22l54 143q157 43 299 43q166 0 263 -72.5t97 -203.5v-561q0 -86 68 -86q30 0 65 14v-112q-65 -43 -153 -43q-78 0 -120 42t-52 111 l-125 -106q-73 -47 -183 -47q-124 0 -205 71t-81 187zM166 1126q10 121 63 192t131 71q42 0 95 -23.5t101 -46.5t75 -23q34 0 52 20.5t30 59.5h104q-10 -130 -53.5 -183.5t-114.5 -53.5q-56 0 -158 46t-129 46q-44 0 -61.5 -26t-24.5 -79h-110zM264 262q0 -68 43.5 -101.5 t114.5 -33.5q70 0 133 33t107 82v241l-279 -71q-119 -30 -119 -150z" />
<glyph unicode="&#xe4;" horiz-adv-x="1026" d="M68 238q0 68 25.5 119.5t73.5 84t100 51.5t120 33l275 58v123q0 33 -4 58t-17 52t-35 44.5t-61 28.5t-92 11q-145 0 -293 -65l-19 22l54 143q157 43 299 43q166 0 263 -72.5t97 -203.5v-561q0 -86 68 -86q30 0 65 14v-112q-65 -43 -153 -43q-78 0 -120 42t-52 111 l-125 -106q-73 -47 -183 -47q-124 0 -205 71t-81 187zM199 1286q0 43 30.5 70.5t75.5 27.5q44 0 73.5 -27.5t29.5 -70.5q0 -46 -29.5 -74t-73.5 -28q-45 0 -75.5 28t-30.5 74zM264 262q0 -68 43.5 -101.5t114.5 -33.5q70 0 133 33t107 82v241l-279 -71q-119 -30 -119 -150z M578 1286q0 44 28.5 71t73.5 27q44 0 74 -27.5t30 -70.5q0 -46 -30 -74t-74 -28q-45 0 -73.5 27.5t-28.5 74.5z" />
<glyph unicode="&#xe5;" horiz-adv-x="1026" d="M68 238q0 68 25.5 119.5t73.5 84t100 51.5t120 33l275 58v123q0 33 -4 58t-17 52t-35 44.5t-61 28.5t-92 11q-145 0 -293 -65l-19 22l54 143q157 43 299 43q166 0 263 -72.5t97 -203.5v-561q0 -86 68 -86q30 0 65 14v-112q-65 -43 -153 -43q-78 0 -120 42t-52 111 l-125 -106q-73 -47 -183 -47q-124 0 -205 71t-81 187zM264 262q0 -68 43.5 -101.5t114.5 -33.5q70 0 133 33t107 82v241l-279 -71q-119 -30 -119 -150zM324 1274q0 76 45.5 119t124.5 43q76 0 122 -43t46 -119q0 -75 -46 -117.5t-122 -42.5q-78 0 -124 42.5t-46 117.5z M399 1274q0 -44 24.5 -69t70.5 -25q43 0 67.5 25t24.5 69q0 45 -24.5 70.5t-67.5 25.5q-46 0 -70.5 -25t-24.5 -71z" />
<glyph unicode="&#xe6;" horiz-adv-x="1609" d="M72 238q0 68 25.5 120t72 84.5t96.5 51.5t115 32l276 58v123q0 42 -7 72.5t-27.5 60.5t-64 45.5t-109.5 15.5q-145 0 -293 -65l-21 22l55 143q157 43 299 43q218 0 306 -120q120 120 327 120q60 0 113.5 -9.5t107.5 -35.5t92.5 -67.5t62.5 -110t24 -157.5q0 -72 -23 -197 h-657q10 -173 94.5 -257.5t220.5 -84.5q75 0 170 27t158 65v-156q-78 -42 -176 -61.5t-183 -19.5q-137 0 -239.5 57t-159.5 164l-195 -174q-73 -47 -186 -47q-121 0 -197.5 70.5t-76.5 187.5zM266 262q0 -67 40.5 -101t107.5 -34q70 0 136.5 35t143.5 112q-34 90 -37 209 l-280 -71q-48 -12 -79.5 -49t-31.5 -101zM842 578l487 10q6 44 6 80q0 63 -16.5 109t-39 69t-54 36.5t-52 16t-43.5 2.5q-267 0 -288 -323z" />
<glyph unicode="&#xe7;" horiz-adv-x="956" d="M90 512q0 251 124 391.5t351 140.5q163 0 316 -55l-35 -129l-25 -18q-129 57 -250 57q-143 0 -214.5 -108t-71.5 -279q0 -387 288 -387q143 0 295 92v-156q-131 -72 -282 -79v-48q81 0 133.5 -42.5t52.5 -120.5q0 -85 -51.5 -133t-136.5 -48q-91 0 -146 27v74 q78 -23 105 -23q112 0 112 103q0 51 -36.5 75.5t-122.5 24.5v111q-196 13 -301 153t-105 377z" />
<glyph unicode="&#xe8;" horiz-adv-x="1054" d="M90 512q0 251 124 391.5t351 140.5q61 0 114.5 -9.5t107.5 -35.5t92 -67.5t62 -110t24 -157.5q0 -88 -23 -197h-655q10 -173 94.5 -257.5t220.5 -84.5q75 0 170 27t158 65v-156q-78 -42 -176.5 -61.5t-184.5 -19.5q-222 0 -350.5 142t-128.5 390zM262 1319 q0 35 24.5 56.5t61.5 21.5q32 0 74 -29l227 -162l-41 -80l-284 111q-62 26 -62 82zM287 578l485 10q8 58 8 80q0 63 -16.5 109t-39 69t-54 36.5t-52 16t-43.5 2.5q-136 0 -206.5 -80.5t-81.5 -242.5z" />
<glyph unicode="&#xe9;" horiz-adv-x="1054" d="M90 512q0 251 124 391.5t351 140.5q61 0 114.5 -9.5t107.5 -35.5t92 -67.5t62 -110t24 -157.5q0 -88 -23 -197h-655q10 -173 94.5 -257.5t220.5 -84.5q75 0 170 27t158 65v-156q-78 -42 -176.5 -61.5t-184.5 -19.5q-222 0 -350.5 142t-128.5 390zM287 578l485 10 q8 58 8 80q0 63 -16.5 109t-39 69t-54 36.5t-52 16t-43.5 2.5q-136 0 -206.5 -80.5t-81.5 -242.5zM504 1206l225 162q42 29 76 29q37 0 61.5 -21.5t24.5 -56.5q0 -34 -17 -52t-45 -30l-286 -111z" />
<glyph unicode="&#xea;" horiz-adv-x="1054" d="M90 512q0 251 124 391.5t351 140.5q61 0 114.5 -9.5t107.5 -35.5t92 -67.5t62 -110t24 -157.5q0 -88 -23 -197h-655q10 -173 94.5 -257.5t220.5 -84.5q75 0 170 27t158 65v-156q-78 -42 -176.5 -61.5t-184.5 -19.5q-222 0 -350.5 142t-128.5 390zM287 578l485 10 q8 58 8 80q0 63 -16.5 109t-39 69t-54 36.5t-52 16t-43.5 2.5q-136 0 -206.5 -80.5t-81.5 -242.5zM291 1126l246 344h77l246 -344h-127l-155 181l-158 -181h-129z" />
<glyph unicode="&#xeb;" horiz-adv-x="1054" d="M90 512q0 251 124 391.5t351 140.5q61 0 114.5 -9.5t107.5 -35.5t92 -67.5t62 -110t24 -157.5q0 -88 -23 -197h-655q10 -173 94.5 -257.5t220.5 -84.5q75 0 170 27t158 65v-156q-78 -42 -176.5 -61.5t-184.5 -19.5q-222 0 -350.5 142t-128.5 390zM283 1286 q0 43 30.5 70.5t75.5 27.5q44 0 73.5 -27.5t29.5 -70.5q0 -46 -29.5 -74t-73.5 -28q-45 0 -75.5 28t-30.5 74zM287 578l485 10q8 58 8 80q0 63 -16.5 109t-39 69t-54 36.5t-52 16t-43.5 2.5q-136 0 -206.5 -80.5t-81.5 -242.5zM662 1286q0 44 28.5 71t73.5 27q44 0 74 -27.5 t30 -70.5q0 -46 -30 -74t-74 -28q-45 0 -73.5 27.5t-28.5 74.5z" />
<glyph unicode="&#xec;" horiz-adv-x="479" d="M-76 1319q0 35 24.5 56.5t61.5 21.5q32 0 74 -29l227 -162l-41 -80l-284 111q-62 26 -62 82zM143 0v1024h193v-1024h-193z" />
<glyph unicode="&#xed;" horiz-adv-x="479" d="M143 0v1024h193v-1024h-193zM166 1206l225 162q42 29 76 29q37 0 61.5 -21.5t24.5 -56.5q0 -55 -61 -82l-287 -111z" />
<glyph unicode="&#xee;" horiz-adv-x="479" d="M-47 1126l246 344h77l246 -344h-127l-155 181l-158 -181h-129zM143 0v1024h193v-1024h-193z" />
<glyph unicode="&#xef;" horiz-adv-x="479" d="M-55 1286q0 43 30.5 70.5t75.5 27.5q44 0 73.5 -27.5t29.5 -70.5q0 -46 -29.5 -74t-73.5 -28q-45 0 -75.5 28t-30.5 74zM143 0v1024h193v-1024h-193zM324 1286q0 44 28.5 71t73.5 27q44 0 74 -27.5t30 -70.5q0 -46 -30 -74t-74 -28q-45 0 -73.5 27.5t-28.5 74.5z" />
<glyph unicode="&#xf0;" horiz-adv-x="1103" d="M92 483q0 79 13 147t44.5 130.5t80 106.5t124 70t172.5 26q103 0 217 -43q-59 122 -170 229l-235 -100l-41 96l190 80q-109 84 -264 168h256q77 -39 164 -101l240 101l41 -97l-189 -79q275 -251 275 -609q0 -628 -469 -628q-93 0 -169 27.5t-127.5 75t-86 112t-50.5 137 t-16 151.5zM287 483q0 -160 63 -260t191 -100q80 0 134.5 32.5t84.5 98.5t42.5 150.5t12.5 203.5q0 86 -18 162q-115 51 -226 51q-153 0 -218.5 -89.5t-65.5 -248.5z" />
<glyph unicode="&#xf1;" horiz-adv-x="1075" d="M143 0v1024h183l10 -127h4l100 92q102 55 213 55q129 0 209 -73t80 -215v-756h-192v721q0 166 -150 166q-66 0 -127 -23.5t-137 -68.5v-795h-193zM213 1126q10 121 63.5 192t131.5 71q42 0 95 -23.5t100 -46.5t75 -23q34 0 52 20.5t30 59.5h104q-10 -130 -53.5 -183.5 t-114.5 -53.5q-56 0 -157.5 46t-128.5 46q-44 0 -61.5 -26t-24.5 -79h-111z" />
<glyph unicode="&#xf2;" d="M92 512q0 256 111.5 394t337.5 138q227 0 338.5 -138t111.5 -394t-111.5 -394t-338.5 -138q-226 0 -337.5 138t-111.5 394zM223 1319q0 35 24.5 56.5t61.5 21.5q32 0 74 -29l227 -162l-41 -80l-284 111q-62 26 -62 82zM287 512q0 -197 58 -293t196 -96q140 0 198 96 t58 293t-58 293t-198 96q-138 0 -196 -96t-58 -293z" />
<glyph unicode="&#xf3;" d="M92 512q0 256 111.5 394t337.5 138q227 0 338.5 -138t111.5 -394t-111.5 -394t-338.5 -138q-226 0 -337.5 138t-111.5 394zM287 512q0 -197 58 -293t196 -96q140 0 198 96t58 293t-58 293t-198 96q-138 0 -196 -96t-58 -293zM465 1206l225 162q42 29 76 29 q37 0 61.5 -21.5t24.5 -56.5q0 -55 -61 -82l-287 -111z" />
<glyph unicode="&#xf4;" d="M92 512q0 256 111.5 394t337.5 138q227 0 338.5 -138t111.5 -394t-111.5 -394t-338.5 -138q-226 0 -337.5 138t-111.5 394zM252 1126l246 344h77l246 -344h-127l-155 181l-158 -181h-129zM287 512q0 -197 58 -293t196 -96q140 0 198 96t58 293t-58 293t-198 96 q-138 0 -196 -96t-58 -293z" />
<glyph unicode="&#xf5;" d="M92 512q0 256 111.5 394t337.5 138q227 0 338.5 -138t111.5 -394t-111.5 -394t-338.5 -138q-226 0 -337.5 138t-111.5 394zM211 1126q10 121 63.5 192t131.5 71q42 0 95 -23.5t100 -46.5t75 -23q34 0 52 20.5t30 59.5h104q-10 -130 -53.5 -183.5t-114.5 -53.5 q-56 0 -157.5 46t-128.5 46q-44 0 -61.5 -26t-24.5 -79h-111zM287 512q0 -197 58 -293t196 -96q140 0 198 96t58 293t-58 293t-198 96q-138 0 -196 -96t-58 -293z" />
<glyph unicode="&#xf6;" d="M92 512q0 256 111.5 394t337.5 138q227 0 338.5 -138t111.5 -394t-111.5 -394t-338.5 -138q-226 0 -337.5 138t-111.5 394zM244 1286q0 43 30.5 70.5t75.5 27.5q44 0 73.5 -27.5t29.5 -70.5q0 -46 -29.5 -74t-73.5 -28q-45 0 -75.5 28t-30.5 74zM287 512q0 -197 58 -293 t196 -96q140 0 198 96t58 293t-58 293t-198 96q-138 0 -196 -96t-58 -293zM623 1286q0 44 28.5 71t73.5 27q44 0 74 -27.5t30 -70.5q0 -46 -30 -74t-74 -28q-45 0 -73.5 27.5t-28.5 74.5z" />
<glyph unicode="&#xf7;" horiz-adv-x="948" d="M125 479v127h698v-127h-698zM373 219q0 42 30.5 74.5t71.5 32.5t70.5 -32.5t29.5 -74.5q0 -44 -29.5 -76t-70.5 -32t-71.5 32t-30.5 76zM373 868q0 43 30.5 75t71.5 32t70.5 -32t29.5 -75t-29.5 -75.5t-70.5 -32.5t-71.5 32.5t-30.5 75.5z" />
<glyph unicode="&#xf8;" d="M92 512q0 257 111 394.5t338 137.5q140 0 235 -53l60 94h125l-99 -157q129 -135 129 -416q0 -256 -111.5 -394t-338.5 -138q-143 0 -238 53l-59 -94h-125l100 159q-127 136 -127 414zM287 512q0 -160 35 -248l370 592q-54 45 -151 45q-138 0 -196 -96t-58 -293zM387 170 q59 -47 154 -47q140 0 198 96t58 293q0 166 -37 252z" />
<glyph unicode="&#xf9;" horiz-adv-x="1077" d="M135 268v756h193v-721q0 -166 149 -166q66 0 127 23.5t137 68.5v795h193v-1024h-182l-11 127h-4l-100 -92q-102 -55 -213 -55q-129 0 -209 73t-80 215zM221 1319q0 35 24.5 56.5t61.5 21.5q32 0 74 -29l227 -162l-41 -80l-284 111q-62 26 -62 82z" />
<glyph unicode="&#xfa;" horiz-adv-x="1077" d="M135 268v756h193v-721q0 -166 149 -166q66 0 127 23.5t137 68.5v795h193v-1024h-182l-11 127h-4l-100 -92q-102 -55 -213 -55q-129 0 -209 73t-80 215zM463 1206l225 162q42 29 76 29q37 0 61.5 -21.5t24.5 -56.5q0 -34 -17 -52t-45 -30l-286 -111z" />
<glyph unicode="&#xfb;" horiz-adv-x="1077" d="M135 268v756h193v-721q0 -166 149 -166q66 0 127 23.5t137 68.5v795h193v-1024h-182l-11 127h-4l-100 -92q-102 -55 -213 -55q-129 0 -209 73t-80 215zM250 1126l246 344h77l246 -344h-127l-155 181l-158 -181h-129z" />
<glyph unicode="&#xfc;" horiz-adv-x="1077" d="M135 268v756h193v-721q0 -166 149 -166q66 0 127 23.5t137 68.5v795h193v-1024h-182l-11 127h-4l-100 -92q-102 -55 -213 -55q-129 0 -209 73t-80 215zM242 1286q0 43 30.5 70.5t75.5 27.5q44 0 73.5 -27.5t29.5 -70.5q0 -46 -29.5 -74t-73.5 -28q-45 0 -75.5 28 t-30.5 74zM621 1286q0 44 28.5 71t73.5 27q44 0 74 -27.5t30 -70.5q0 -46 -30 -74t-74 -28q-45 0 -73.5 27.5t-28.5 74.5z" />
<glyph unicode="&#xfd;" horiz-adv-x="989" d="M57 981v43h185l256 -831h4l243 831h185v-43l-248 -764q-20 -61 -40.5 -116.5t-43 -105.5t-40.5 -89t-43 -81t-39.5 -67.5t-41.5 -63.5t-37 -52t-37 -50t-32 -43h-191v43q59 70 90 109t79.5 110.5t86.5 147.5zM418 1206l225 162q42 29 76 29q37 0 61.5 -21.5t24.5 -56.5 q0 -34 -17 -52t-45 -30l-286 -111z" />
<glyph unicode="&#xfe;" horiz-adv-x="1101" d="M143 -451v1844l146 82h47v-584l125 106q73 47 182 47q117 0 201 -70.5t125 -189t41 -272.5q0 -250 -115 -391t-303 -141q-142 0 -256 83v-514h-193zM336 184q107 -69 215 -69q139 0 201.5 102t62.5 295q0 205 -65.5 296t-198.5 91q-19 0 -38.5 -4t-38 -12t-32.5 -15.5 t-32.5 -21t-27 -20t-26 -21t-20.5 -17.5v-604z" />
<glyph unicode="&#xff;" horiz-adv-x="989" d="M57 981v43h185l256 -831h4l243 831h185v-43l-248 -764q-20 -61 -40.5 -116.5t-43 -105.5t-40.5 -89t-43 -81t-39.5 -67.5t-41.5 -63.5t-37 -52t-37 -50t-32 -43h-191v43q59 70 90 109t79.5 110.5t86.5 147.5zM197 1286q0 43 30.5 70.5t75.5 27.5q44 0 73.5 -27.5 t29.5 -70.5q0 -46 -29.5 -74t-73.5 -28q-45 0 -75.5 28t-30.5 74zM575 1286q0 44 29 71t74 27q44 0 74 -27.5t30 -70.5q0 -46 -30 -74t-74 -28q-45 0 -74 28t-29 74z" />
<glyph unicode="&#x152;" horiz-adv-x="1957" d="M98 707q0 167 30.5 294t96.5 221t175 142.5t259 48.5q230 0 355 -119v99h844v-170h-648v-426h557v-170h-557v-457h662l-21 -170h-837v104q-127 -124 -355 -124q-561 0 -561 727zM313 707q0 -292 78.5 -430t267.5 -138t268 138.5t79 429.5q0 288 -78 417t-269 129 t-268.5 -129t-77.5 -417z" />
<glyph unicode="&#x153;" horiz-adv-x="1748" d="M92 512q0 257 111 394.5t338 137.5q244 0 352 -172q121 172 369 172q60 0 113 -9.5t106.5 -35.5t91.5 -67.5t62 -110t24 -157.5q0 -83 -21 -197h-657q10 -171 94.5 -253.5t220.5 -82.5q74 0 169 25t159 61v-156q-78 -42 -176 -61.5t-184 -19.5q-248 0 -367 176 q-107 -176 -356 -176q-227 0 -338 137.5t-111 394.5zM287 512q0 -197 58 -293t196 -96q140 0 198 96t58 293t-58 293t-198 96q-138 0 -196 -96t-58 -293zM981 578l485 10q9 43 9 80q0 63 -16.5 109t-39 69t-54 36.5t-52 16t-43.5 2.5q-268 0 -289 -323z" />
<glyph unicode="&#x178;" horiz-adv-x="1140" d="M49 1350v43h205l221 -469q49 -104 100 -240h3q64 166 100 242l219 467h197v-43l-422 -879v-471h-205v473zM287 1655q0 43 30.5 70.5t75.5 27.5q44 0 73.5 -27.5t29.5 -70.5q0 -46 -29.5 -74.5t-73.5 -28.5q-45 0 -75.5 28.5t-30.5 74.5zM666 1655q0 44 28.5 71t73.5 27 q44 0 74 -27.5t30 -70.5q0 -46 -30 -74.5t-74 -28.5q-45 0 -73.5 28t-28.5 75z" />
<glyph unicode="&#x2c6;" horiz-adv-x="888" d="M158 1126l245 344h78l246 -344h-127l-156 181l-157 -181h-129z" />
<glyph unicode="&#x2dc;" horiz-adv-x="1009" d="M178 1126q10 121 63.5 192t131.5 71q42 0 95 -23.5t100 -46.5t75 -23q34 0 52 20.5t30 59.5h104q-10 -130 -53 -183.5t-114 -53.5q-56 0 -158 46t-129 46q-44 0 -61.5 -26t-24.5 -79h-111z" />
<glyph unicode="&#x2000;" horiz-adv-x="919" />
<glyph unicode="&#x2001;" horiz-adv-x="1839" />
<glyph unicode="&#x2002;" horiz-adv-x="919" />
<glyph unicode="&#x2003;" horiz-adv-x="1839" />
<glyph unicode="&#x2004;" horiz-adv-x="613" />
<glyph unicode="&#x2005;" horiz-adv-x="459" />
<glyph unicode="&#x2006;" horiz-adv-x="306" />
<glyph unicode="&#x2007;" horiz-adv-x="306" />
<glyph unicode="&#x2008;" horiz-adv-x="229" />
<glyph unicode="&#x2009;" horiz-adv-x="367" />
<glyph unicode="&#x200a;" horiz-adv-x="102" />
<glyph unicode="&#x2010;" horiz-adv-x="917" d="M129 502v127h659v-127h-659z" />
<glyph unicode="&#x2011;" horiz-adv-x="917" d="M129 502v127h659v-127h-659z" />
<glyph unicode="&#x2012;" horiz-adv-x="917" d="M129 502v127h659v-127h-659z" />
<glyph unicode="&#x2013;" horiz-adv-x="1327" d="M129 502v127h1069v-127h-1069z" />
<glyph unicode="&#x2014;" horiz-adv-x="1736" d="M129 502v127h1479v-127h-1479z" />
<glyph unicode="&#x2018;" horiz-adv-x="438" d="M102 1096q0 46 23.5 106.5t44.5 97t57 93.5h88l-98 -211q43 0 78 -29t35 -80q0 -45 -32 -76.5t-79 -31.5q-57 0 -87 39t-30 92z" />
<glyph unicode="&#x2019;" horiz-adv-x="436" d="M115 1305q0 44 32 76t78 32q57 0 87 -39t30 -92q0 -46 -23.5 -106.5t-44.5 -97t-57 -93.5h-88l98 211q-43 0 -77.5 28.5t-34.5 80.5z" />
<glyph unicode="&#x201a;" horiz-adv-x="462" d="M119 88q0 45 31.5 76t78.5 31q56 0 86.5 -38.5t30.5 -90.5q0 -47 -23 -107.5t-45 -98.5t-57 -91h-90l98 211q-43 0 -76.5 28t-33.5 80z" />
<glyph unicode="&#x201c;" horiz-adv-x="811" d="M102 1096q0 46 23.5 106.5t44.5 97t57 93.5h88l-98 -211q43 0 78 -29t35 -80q0 -45 -32 -76.5t-79 -31.5q-57 0 -87 39t-30 92zM475 1096q0 46 23.5 106.5t44.5 97t57 93.5h88l-96 -211q42 0 76 -29t34 -80q0 -45 -31.5 -76.5t-78.5 -31.5q-57 0 -87 39t-30 92z" />
<glyph unicode="&#x201d;" horiz-adv-x="811" d="M115 1305q0 44 32 76t78 32q57 0 87 -39t30 -92q0 -46 -23.5 -106.5t-44.5 -97t-57 -93.5h-88l98 211q-43 0 -77.5 28.5t-34.5 80.5zM489 1305q0 45 32 76.5t79 31.5q56 0 86.5 -39.5t30.5 -91.5q0 -46 -23.5 -106.5t-44.5 -97t-57 -93.5h-90l98 211q-43 0 -77 28.5 t-34 80.5z" />
<glyph unicode="&#x201e;" horiz-adv-x="835" d="M119 88q0 45 31.5 76t78.5 31q56 0 86.5 -38.5t30.5 -90.5q0 -47 -23 -107.5t-45 -98.5t-57 -91h-90l98 211q-43 0 -76.5 28t-33.5 80zM492 88q0 45 31.5 76t78.5 31q57 0 87 -38t30 -91q0 -47 -23 -107.5t-45 -98.5t-57 -91h-90l98 211q-42 0 -76 28.5t-34 79.5z" />
<glyph unicode="&#x2022;" horiz-adv-x="712" d="M162 475q0 91 57 147t137 56q81 0 139 -56t58 -147t-58 -146t-139 -55q-80 0 -137 55.5t-57 145.5z" />
<glyph unicode="&#x2026;" horiz-adv-x="1193" d="M117 88q0 42 30.5 73.5t71.5 31.5t70.5 -31.5t29.5 -73.5q0 -45 -29 -76.5t-71 -31.5t-72 31.5t-30 76.5zM496 88q0 42 29.5 73.5t70.5 31.5t70.5 -31.5t29.5 -73.5q0 -45 -29 -76.5t-71 -31.5t-71 31.5t-29 76.5zM872 88q0 42 30 73.5t71 31.5q42 0 72 -31.5t30 -73.5 q0 -46 -29.5 -77t-72.5 -31q-42 0 -71.5 31.5t-29.5 76.5z" />
<glyph unicode="&#x202f;" horiz-adv-x="367" />
<glyph unicode="&#x2039;" horiz-adv-x="661" d="M96 518v70l363 364l100 -94l-291 -305l291 -305l-100 -94z" />
<glyph unicode="&#x203a;" horiz-adv-x="661" d="M102 248l289 305l-289 305l99 94l364 -364v-70l-364 -364z" />
<glyph unicode="&#x205f;" horiz-adv-x="459" />
<glyph unicode="&#x20ac;" horiz-adv-x="1331" d="M88 496v129h143l-2 71q0 61 2 90h-143v129h158q79 498 557 498q206 0 401 -94v-178q-200 112 -401 112q-153 0 -234.5 -87.5t-109.5 -250.5h420v-129h-433q-2 -29 -2 -90l2 -71h433v-129h-422q23 -173 104.5 -265t241.5 -92q227 0 422 123l-21 -188q-195 -94 -401 -94 q-486 0 -559 516h-156z" />
<glyph unicode="&#x2122;" horiz-adv-x="1554" d="M117 1296v97h526v-97h-207v-690h-114v690h-205zM725 606v787h149l160 -469q5 -21 18 -62t17 -57h8q6 37 31 119l156 469h149v-787h-110v324q0 152 6 252h-6l-193 -576h-82l-194 576h-9q11 -110 11 -252v-324h-111z" />
<glyph unicode="&#x25fc;" horiz-adv-x="1024" d="M0 0v1024h1024v-1024h-1024z" />
</font>
</defs>
</svg>
