<?xml version="1.0" encoding="utf-8"?>
<!-- Generator: Adobe Illustrator 27.1.1, SVG Export Plug-In . SVG Version: 6.00 Build 0)  -->
<svg version="1.1" id="Layer_1" xmlns="http://www.w3.org/2000/svg" xmlns:xlink="http://www.w3.org/1999/xlink" x="0px" y="0px"
	 viewBox="0 0 510.24 136.06" style="enable-background:new 0 0 510.24 136.06;" xml:space="preserve">
<style type="text/css">
	.st0{fill:#FFFFFF;}
</style>
<g>
	<path class="st0" d="M66.55,85.42h16.08c1.72,0,2.71-1.44,3.04-4.43l0.2-1.83H74.25c-3.17,0-4.42-0.77-6.07-3.56
		c-1.19-2.12-1.65-3.95-1.65-6.35c0-1.06,0-2.12,0.13-3.27l4.22-38.88h9.04l-3.76,34.64c-0.07,0.67-0.07,1.15-0.07,1.63
		c0,1.54,0.86,2.6,2.05,2.6h6.34c1.52,0,3.04-1.64,3.17-3.27l0.2-1.44l3.7-34.16h9.04l-6.2,55.36c-0.92,8.37-5.02,14.14-10.1,14.14
		H65.09L66.55,85.42z"/>
	<path class="st0" d="M101.45,85.42h16.41c1.85,0,2.84-1.25,3.1-4.04l0.33-2.21h-11.88c-4.82,0-7.92-3.95-7.92-10.11
		c0-0.58,0-1.25,0.07-1.73l2.84-25.89c0.59-5.2,1.52-8.28,3.37-10.87c1.78-2.6,3.7-3.47,7.39-3.47h12.01c1.32,0,2.51,0.29,3.56,0.67
		c3.1,1.06,4.03,2.98,4.03,7.8c0,1.44-0.07,2.79-0.2,4.04l-4.95,43.61c-0.86,7.89-5.21,13.38-10.63,13.38H100L101.45,85.42z
		 M113.18,65.98h7.19c1.39,0,2.44-1.25,2.71-3.47l1.98-18.19c0.07-0.77,0.07-1.25,0.07-1.54c0-0.87-0.33-1.64-1.06-2.12
		c-0.4-0.19-0.73-0.29-0.99-0.29h-7.26c-1.25,0-2.38,1.44-2.64,3.37l-2.05,18.76v0.39C111.13,64.63,112.06,65.98,113.18,65.98z"/>
	<path class="st0" d="M136.75,85.42h16.41c1.85,0,2.84-1.25,3.1-4.04l0.33-2.21h-11.88c-4.82,0-7.92-3.95-7.92-10.11
		c0-0.58,0-1.25,0.07-1.73l2.84-25.89c0.59-5.2,1.52-8.28,3.37-10.87c1.78-2.6,3.7-3.47,7.39-3.47h12.01c1.32,0,2.51,0.29,3.56,0.67
		c3.1,1.06,4.03,2.98,4.03,7.8c0,1.44-0.07,2.79-0.2,4.04l-4.95,43.61c-0.86,7.89-5.21,13.38-10.63,13.38H135.3L136.75,85.42z
		 M148.48,65.98h7.19c1.39,0,2.44-1.25,2.71-3.47l1.98-18.19c0.07-0.77,0.07-1.25,0.07-1.54c0-0.87-0.33-1.64-1.06-2.12
		c-0.4-0.19-0.73-0.29-0.99-0.29h-7.26c-1.25,0-2.38,1.44-2.64,3.37l-2.05,18.76v0.39C146.43,64.63,147.35,65.98,148.48,65.98z"/>
	<path class="st0" d="M180.48,79.17c-3.76,0-5.15-0.58-6.73-3.27c-1.25-1.92-1.78-3.66-1.78-6.16c0-1.25,0.07-2.6,0.26-4.14
		l2.9-26.27c0.73-7.51,4.69-12.22,10.1-12.22h12.28c4.69,0,7.33,3.56,7.33,9.82c0,0.96-0.07,1.92-0.13,2.79l-1.12,10.39L181.8,61.46
		l-0.07,0.87c-0.07,0.29-0.07,0.58-0.07,0.96c0,1.54,0.66,2.7,1.52,2.7h1.12h17.49l-1.45,13.18H180.48z M182.92,49.72l12.14-6.16
		v-0.48c0-1.06-0.86-2.12-1.91-2.12h-6.34c-1.58,0-3.1,1.54-3.23,3.37L182.92,49.72z"/>
	<path class="st0" d="M211.76,27.1h9.04l-5.61,52.06h-9.04L211.76,27.1z M218.43,5.26c2.77,0,4.95,3.66,4.95,8.28
		c0,4.52-2.77,8.28-6.14,8.28c-2.84,0-5.15-3.46-5.15-7.79C212.09,9.11,214.93,5.26,218.43,5.26z"/>
	<path class="st0" d="M225.62,39.61c0.86-7.99,4.36-12.51,9.9-12.51h12.54c4.88,0,7.33,3.27,7.33,9.82c0,0.96-0.07,1.73-0.13,2.69
		l-4.36,39.55h-8.98l3.76-35.12c0.07-0.39,0.07-0.58,0.07-0.87c0-2.12-0.73-2.79-2.57-2.79h-5.61c-2.05,0-3.1,1.06-3.37,3.66
		l-3.76,35.12h-9.04L225.62,39.61z"/>
	<path class="st0" d="M287.65,65.21c-0.46,5-1.25,7.31-3.17,9.91c-2.05,2.7-4.36,4.04-7.19,4.04h-12.87c-4.22,0-7-4.04-7-10.3
		c0-0.96,0-1.83,0.13-2.79l2.77-25.98c0.86-7.51,4.88-12.99,9.57-12.99h12.94l2.05-17.44l9.11-2L287.65,65.21z M268.9,65.98h7.46
		c1.19,0,2.38-1.35,2.51-3.08l2.11-18.86v-0.48c0-2.12-0.73-3.18-2.24-3.18h-7c-1.32,0-2.57,1.64-2.77,3.75l-1.98,18.38
		c-0.07,0.77-0.13,1.16-0.13,1.25C266.86,65.02,267.85,65.98,268.9,65.98z"/>
	<path class="st0" d="M323.29,66.66c-0.86,8.08-4.36,12.51-9.9,12.51h-12.54c-4.82,0-7.26-3.27-7.26-9.82
		c0-0.87,0.07-1.73,0.13-2.69l4.29-39.55h9.04l-3.83,35.22v0.87c0,2.02,0.72,2.79,2.57,2.79h5.61c1.98,0,3.1-1.06,3.3-3.66
		l3.83-35.22h9.11L323.29,66.66z"/>
	<path class="st0" d="M328.1,65.98h15.77c1.25,0,2.24-1.06,2.44-2.5l0.07-1.16c0.13-0.1,0.13-0.19,0.13-0.29
		c0-1.25-0.66-2.31-1.32-2.31h-0.92h-6.86c-3.96,0-7.33-4.43-7.33-9.53c0-0.48,0-0.96,0.06-1.54l1.06-9.72
		c0.4-3.66,1.85-7.12,4.03-9.43c1.72-1.73,3.37-2.41,6.07-2.41h18.22l-1.39,13.28h-15.51c-1.65,0-2.64,0.67-2.84,2.12l-0.2,1.54
		v0.19c0,1.44,0.86,2.31,2.38,2.31h7.59c3.7,0,6.73,4.52,6.73,10.3c0,0.38-0.07,0.77-0.07,1.25l-1.25,9.53
		c-0.33,2.98-1.52,5.87-3.3,8.08c-2.18,2.69-3.37,3.46-6.34,3.46h-18.68L328.1,65.98z"/>
	<path class="st0" d="M366.37,9.66l9.04-2l-2.11,19.44h6.07l-1.39,13.28h-6.07l-4.22,38.78h-9.04L366.37,9.66z"/>
	<path class="st0" d="M381.21,40.58c0.92-8.95,4.49-13.47,10.62-13.47h6.14l-1.39,13.28h-3.43c-2.05,0-3.04,1.15-3.37,4.23
		l-3.7,34.55h-9.04L381.21,40.58z"/>
	<path class="st0" d="M402.34,27.1h9.04l-5.61,52.06h-9.04L402.34,27.1z M409.01,5.26c2.77,0,4.95,3.66,4.95,8.28
		c0,4.52-2.77,8.28-6.14,8.28c-2.84,0-5.15-3.46-5.15-7.79C402.67,9.11,405.51,5.26,409.01,5.26z"/>
	<path class="st0" d="M420.68,79.17c-3.76,0-5.15-0.58-6.73-3.27c-1.25-1.92-1.78-3.66-1.78-6.16c0-1.25,0.06-2.6,0.26-4.14
		l2.9-26.27c0.72-7.51,4.69-12.22,10.1-12.22h12.28c4.69,0,7.33,3.56,7.33,9.82c0,0.96-0.07,1.92-0.13,2.79l-1.12,10.39L422,61.46
		l-0.07,0.87c-0.07,0.29-0.07,0.58-0.07,0.96c0,1.54,0.66,2.7,1.52,2.7h1.12H442l-1.45,13.18H420.68z M423.12,49.72l12.14-6.16
		v-0.48c0-1.06-0.86-2.12-1.91-2.12h-6.34c-1.58,0-3.1,1.54-3.23,3.37L423.12,49.72z"/>
	<path class="st0" d="M449.58,39.61c0.86-7.99,4.36-12.51,9.9-12.51h12.54c4.88,0,7.33,3.27,7.33,9.82c0,0.96-0.07,1.73-0.13,2.69
		l-4.36,39.55h-8.98l3.76-35.12c0.07-0.39,0.07-0.58,0.07-0.87c0-2.12-0.73-2.79-2.57-2.79h-5.61c-2.05,0-3.1,1.06-3.37,3.66
		l-3.76,35.12h-9.04L449.58,39.61z"/>
	<g>
		<path class="st0" d="M28.22,10.39h28.65c5.91,0,9.45,3.65,9.45,9.5c0,1.34-0.15,3.46-0.46,6.14l-0.69,5.66
			c-0.23,2.02-0.61,3.94-1.08,5.57c-1,3.65-2.15,5.18-5.38,7.58c2.84,2.02,3.53,4.03,3.53,8.93c0,1.15-0.08,2.21-0.15,3.26
			l-0.92,7.01c-1.23,9.98-6.14,15.55-13.59,15.55H19.54L28.22,10.39z M33.29,64.73h12.44c2.3,0,3.53-1.25,3.84-3.94l0.54-4.42v-1.06
			c0-2.02-1.08-2.98-3.07-2.98H34.9L33.29,64.73z M36.75,37.36H48.8h1.08c1.69,0,3-1.54,3.23-3.74l0.61-4.51
			c0-0.29,0.08-0.58,0.08-0.77c0-1.63-1.08-2.98-2.3-2.98h-1.23H38.28L36.75,37.36z"/>
	</g>
</g>
<g>
	<path class="st0" d="M339.57,95.97c2.77,0,4.58,2.15,4.58,5.34c0,0.39,0,0.83-0.04,1.28l-1.93,13.2c-0.57,3.96-3.17,6.65-6.48,6.65
		h-8.54c-3.03,0-5.15-2-5.15-4.99c0-0.58,0.09-1.28,0.18-2.11l4.18-29.24h6.04l-1.42,9.87H339.57z M329.66,115.74h4.93
		c0.48,0,0.97-0.2,1.37-0.54c0.18-0.19,0.27-0.38,0.31-0.58c0.04,0,0.04-0.25,0.18-0.64l1.32-9.35v-0.39c0-0.88-0.57-1.52-1.32-1.52
		h-4.67c-1.06,0-1.89,0.73-2.02,1.86l-1.36,9.59v0.19C328.39,115.2,328.91,115.74,329.66,115.74z"/>
	<path class="st0" d="M344.9,125.62h12.07c1.15,0,1.8-0.73,2.03-2.25l0.13-0.93h-7.75c-2.12,0-2.95-0.39-4.05-1.81
		c-0.79-1.08-1.1-2.01-1.1-3.23c0-0.54,0-1.08,0.09-1.66l2.81-19.77h6.04l-2.51,17.61c-0.04,0.35-0.04,0.59-0.04,0.83
		c0,0.79,0.57,1.33,1.37,1.33h4.23c1.01,0,2.02-0.84,2.11-1.67l0.13-0.73l2.47-17.38h6.03l-4.14,29.16
		c-0.62,4.26-3.34,7.19-6.74,7.19h-14.13L344.9,125.62z"/>
	<path class="st0" d="M368.84,125.62h12.29c1.23,0,1.89-0.64,2.07-2.06l0.22-1.13h-7.93c-3.22,0-5.29-2-5.29-5.13
		c0-0.3,0-0.64,0.05-0.88l1.89-13.16c0.4-2.64,1.01-4.21,2.25-5.53c1.19-1.32,2.47-1.76,4.94-1.76h8.01c0.88,0,1.67,0.15,2.38,0.35
		c2.06,0.53,2.68,1.52,2.68,3.96c0,0.74-0.04,1.42-0.13,2.05l-3.3,23.19c-0.57,4.01-3.48,6.8-7.09,6.8h-14L368.84,125.62z
		 M378.01,115.74h4.79c0.93,0,1.63-0.64,1.81-1.76l1.32-9.25c0.05-0.39,0.05-0.64,0.05-0.78c0-0.45-0.22-0.84-0.71-1.08
		c-0.26-0.09-0.48-0.14-0.66-0.14h-4.84c-0.84,0-1.58,0.73-1.76,1.71l-1.36,9.54v0.2C376.64,115.05,377.25,115.74,378.01,115.74z"/>
	<path class="st0" d="M393.06,125.62h12.29c1.23,0,1.89-0.64,2.07-2.06l0.22-1.13h-7.92c-3.22,0-5.29-2-5.29-5.13
		c0-0.3,0-0.64,0.04-0.88l1.9-13.16c0.39-2.64,1.01-4.21,2.24-5.53c1.19-1.32,2.46-1.76,4.93-1.76h8.02c0.88,0,1.67,0.15,2.37,0.35
		c2.07,0.53,2.69,1.52,2.69,3.96c0,0.74-0.04,1.42-0.13,2.05l-3.3,23.19c-0.57,4.01-3.48,6.8-7.09,6.8h-14L393.06,125.62z
		 M402.22,115.74h4.8c0.92,0,1.63-0.64,1.81-1.76l1.32-9.25c0.04-0.39,0.04-0.64,0.04-0.78c0-0.45-0.22-0.84-0.7-1.08
		c-0.27-0.09-0.48-0.14-0.66-0.14h-4.84c-0.84,0-1.59,0.73-1.77,1.71l-1.37,9.54v0.2C400.85,115.05,401.47,115.74,402.22,115.74z"/>
	<path class="st0" d="M421.55,114.03c1.8,0,3.35,1.91,3.35,4.21c0,2.35-1.85,4.21-4.1,4.21c-1.89,0-3.43-1.76-3.43-3.96
		C417.37,116.03,419.22,114.03,421.55,114.03z"/>
	<path class="st0" d="M430.35,102.33c0.57-4.06,2.91-6.36,6.61-6.36h8.36c3.25,0,4.89,1.67,4.89,5c0,0.48-0.04,0.88-0.09,1.36
		l-2.91,20.11h-5.99l2.51-17.85c0.04-0.2,0.04-0.3,0.04-0.45c0-1.08-0.48-1.42-1.71-1.42h-3.74c-1.37,0-2.07,0.54-2.25,1.86
		l-2.5,17.85h-6.03L430.35,102.33z"/>
	<path class="st0" d="M453.42,121.12c-0.79-0.87-1.28-2.2-1.28-3.72c0-0.3,0.04-0.64,0.09-0.88l2.07-14.57
		c0.27-1.76,1.19-3.53,2.56-4.65c1.19-0.98,2.16-1.32,4.27-1.32h8.15c2.16,0,2.99,0.35,3.91,1.32c0.85,0.93,1.28,2.25,1.28,3.72
		c0,0.34,0,0.64-0.04,0.93l-2.11,14.57c-0.22,1.76-1.18,3.47-2.5,4.6c-1.19,1.03-2.21,1.32-4.32,1.32h-8.1
		C455.22,122.44,454.4,122.15,453.42,121.12z M460.25,115.74h4.27c1.23,0,1.98-0.64,2.2-1.86l1.32-9.35v-0.34
		c0-1.03-0.52-1.47-1.67-1.47h-4.28c-1.18,0-1.97,0.63-2.15,1.81l-1.32,9.39v0.29C458.62,115.25,459.14,115.74,460.25,115.74z"/>
</g>
</svg>
