<svg id="Lager_1" data-name="Lager 1" xmlns="http://www.w3.org/2000/svg" viewBox="0 0 200 32.07"><defs><style>.cls-1{fill:#eb6600;}</style></defs><title>Orange-Logo 1 rad</title><path class="cls-1" d="M9.46,3.21H2.14V23.52H9.46c4.68,0,7.63-2,7.63-6.77V10C17.09,5.22,14.14,3.21,9.46,3.21Zm2.85,13.16c0,2.15-.44,3.24-2.85,3.24H7V7.29H9.46c2.41,0,2.85,1.08,2.85,3.21Z"/><path class="cls-1" d="M24.94,8.7c-4.13,0-5.75,1.08-6.4,4.26l4.47.68c.23-1.12.51-1.48,1.74-1.48s1.5.46,1.5,1.48v1H24.69c-4.78,0-6.73,1.32-6.73,4.56,0,2.94,1.52,4.49,4.38,4.49,2.37,0,3.22-.84,3.78-1.73l.13-.2v1.74h4.52V13.78C30.77,10.07,29.19,8.7,24.94,8.7Zm1.36,10c0,1.09-.61,1.66-1.77,1.66-1.41,0-2.13-.23-2.13-1.47s.58-1.51,2.13-1.51H26.3Z"/><path class="cls-1" d="M40.71,8.94v1.58l-.12-.17A3.76,3.76,0,0,0,37.34,8.7c-3.67,0-5.24,1.57-5.24,5.27v4.22c0,3.69,1.6,5.27,5.35,5.27a3.69,3.69,0,0,0,3.14-1.65l.12-.18v2.45c0,.93-.14,1.7-1.93,1.7-1.45,0-1.75-.36-1.93-1.51l-4.5.84C32.79,28.38,35,29,38.78,29c4.83,0,6.54-1.39,6.54-5.3V8.94Zm0,9.6c0,1-.81,1.64-2,1.64s-2-.66-2-1.8V14.15c0-1.14.72-1.8,2-1.8s2,.66,2,1.67Z"/><path class="cls-1" d="M59.2,17.53V15c0-4.34-2-6.27-6.33-6.27s-6.4,1.86-6.4,5.54v3.92c0,2.53,1.11,5.54,6.4,5.54,3.94,0,6-1.36,6.32-4.29l-4.33-.66c-.17,1.23-.41,1.7-2,1.7-1.81,0-2-.88-2-1.77V17.53ZM50.91,13.8c0-1.17.63-1.72,2-1.72s1.89.5,1.89,1.72v.88H50.91Z"/><path class="cls-1" d="M69,23.46h4.6V12.91c0-2.83-1.48-4.21-4.54-4.21a4.19,4.19,0,0,0-3.79,1.86l-.12.18V8.94h-4.6V23.46h4.6V14c0-1.13,1-1.53,1.88-1.53,1.27,0,2,.47,2,1.32Z"/><path class="cls-1" d="M74.57,19.71c.4,3,2.06,4,6.56,4,5.51,0,6.27-2.35,6.27-4.88,0-3.21-2.74-3.92-5.55-4.38l-.1,0C80,14.11,79.3,14,79.3,13s.83-1,1.61-1c1.25,0,1.59.29,1.72,1.45l4.54-.66c-.38-2.94-2.09-4.09-6.09-4.09-5.18,0-6.25,1.94-6.25,4.86,0,3.55,3.22,4.07,5.8,4.48l.48.08c1.46.24,1.79.5,1.79,1.37s-.46,1.07-1.69,1.07c-1.51,0-2-.2-2.22-1.51Z"/><path class="cls-1" d="M91.62,17.68c.48,4.27,2.66,6,7.53,6,5.35,0,7.63-1.94,7.63-6.49s-3-5.17-6.53-6l-.24-.06c-2.19-.51-3.39-.79-3.39-2.28S97.59,7,99.26,7c2.1,0,2.52.74,2.66,2.53l4.55-.6C106.21,6,105.13,3,99.26,3,94.44,3,92.1,5,92.1,9c0,4.33,3.06,5.09,6.94,6.05h0c2.32.6,3.19,1,3.19,2.45,0,1.77-.79,2.4-3,2.4-2.07,0-2.8-.67-3.12-2.86Z"/><path class="cls-1" d="M114.54,8.7c-4.13,0-5.75,1.08-6.39,4.26l4.47.68c.22-1.12.5-1.48,1.73-1.48s1.5.46,1.5,1.48v1H114.3c-4.78,0-6.73,1.32-6.73,4.56,0,2.94,1.51,4.49,4.37,4.49,2.37,0,3.22-.84,3.79-1.73l.12-.2v1.74h4.53V13.78C120.38,10.07,118.8,8.7,114.54,8.7Zm1.37,10c0,1.09-.61,1.66-1.77,1.66-1.41,0-2.13-.23-2.13-1.47s.58-1.51,2.13-1.51h1.77Z"/><path class="cls-1" d="M138.29,23.46h4.61V12.91c0-2.87-1.41-4.21-4.43-4.21a4.85,4.85,0,0,0-4.31,1.89l-.07.1,0-.11c-.53-1.28-1.75-1.88-3.84-1.88a4,4,0,0,0-3.71,1.84l-.12.18V8.94h-4.6V23.46h4.6v-9.6c0-1,.9-1.4,1.8-1.4,1.53,0,1.85.72,1.85,1.32v9.68h4.61V14c0-.94.69-1.53,1.8-1.53,1.53,0,1.85.72,1.85,1.32Z"/><path class="cls-1" d="M152.78,23.46h4.6V12.91c0-2.83-1.48-4.21-4.54-4.21a4.16,4.16,0,0,0-3.78,1.86l-.13.18V3.24h-4.6V23.46h4.6V13.88c0-.93.95-1.42,1.88-1.42,1.27,0,2,.47,2,1.32Z"/><path class="cls-1" d="M165.55,8.7c-4.13,0-5.75,1.08-6.39,4.26l4.47.68c.22-1.12.5-1.48,1.73-1.48s1.5.46,1.5,1.48v1h-1.55c-4.78,0-6.73,1.32-6.73,4.56,0,2.94,1.51,4.49,4.37,4.49,2.37,0,3.22-.84,3.79-1.73l.12-.2v1.74h4.53V13.78C171.39,10.07,169.8,8.7,165.55,8.7Zm1.37,10c0,1.09-.62,1.66-1.78,1.66-1.41,0-2.12-.23-2.12-1.47s.57-1.51,2.12-1.51h1.78Z"/><rect class="cls-1" x="166.66" y="4.01" width="3.87" height="3.74"/><rect class="cls-1" x="161.14" y="4.01" width="3.87" height="3.74"/><rect class="cls-1" x="173.01" y="3.24" width="4.6" height="20.22"/><rect class="cls-1" x="179.22" y="3.24" width="4.6" height="20.22"/><path class="cls-1" d="M197.86,17.53V15c0-4.34-2-6.27-6.33-6.27s-6.4,1.86-6.4,5.54v3.92c0,2.53,1.11,5.54,6.4,5.54,3.94,0,5.95-1.36,6.32-4.29l-4.34-.66c-.16,1.23-.4,1.7-2,1.7-1.81,0-2-.88-2-1.77V17.53Zm-8.19-3.73c0-1.17.62-1.72,2-1.72s1.88.5,1.88,1.72v.88h-3.84Z"/></svg>